<svg width="32" height="32" viewBox="0 0 32 32" fill="none" xmlns="http://www.w3.org/2000/svg">
<rect x="0.5" y="0.5" width="31" height="31" rx="5.5" fill="white" stroke="#EBF2FC"/>
<rect x="6" y="6" width="10" height="10" fill="#796EFF"/>
<rect x="16" y="6" width="10" height="10" fill="#796EFF"/>
<rect x="16" y="16" width="10" height="10" fill="#FFCAB3"/>
<path d="M6 26C8.76142 26 11 23.7614 11 21C11 18.2386 8.76142 16 6 16L6 26Z" fill="#14AAF5"/>
<path d="M16 16C13.2386 16 11 18.2386 11 21C11 23.7614 13.2386 26 16 26V16Z" fill="#FFCAB3"/>
<g style="mix-blend-mode:difference">
<path d="M26 11C23.2386 11 21 13.2386 21 16C21 18.7614 23.2386 21 26 21V11Z" fill="#FCBD01"/>
</g>
</svg>
