<svg width="32" height="33" viewBox="0 0 32 33" fill="none" xmlns="http://www.w3.org/2000/svg">
<path d="M0 6.55566C0 3.24196 2.68629 0.555664 6 0.555664H26C29.3137 0.555664 32 3.24196 32 6.55566V26.5557C32 29.8694 29.3137 32.5557 26 32.5557H6C2.68629 32.5557 0 29.8694 0 26.5557V6.55566Z" fill="#006EAB"/>
<path d="M3.54443 16.8844L5.18681 5.60676L14.4936 3.96436L17.3404 11.0813L11.7563 19.9502L3.54443 16.8844Z" fill="#482728"/>
<path d="M17.59 22.582L15.3767 10.1011L27.6632 8.34803L17.59 22.582Z" fill="#F19A00"/>
<path d="M14.8391 19.1146L12.24 22.4227L16.2175 26.4001L14.8391 19.1146Z" fill="#F45B45"/>
<circle cx="22.197" cy="6.15648" r="1.08031" fill="#D6CFB6"/>
<path d="M20.6738 29.1469L18.6438 24.8452L22.8972 18.755L28.4557 24.8452L20.6738 29.1469Z" fill="#6E9E80"/>
<circle cx="9.04388" cy="26.4305" r="2.71648" fill="#D6CFB6"/>
<circle cx="4.90886" cy="21.2035" r="1.10832" fill="#F2A495"/>
</svg>
