<svg width="30" height="30" viewBox="0 0 30 30" fill="none" xmlns="http://www.w3.org/2000/svg">
<mask id="mask0" mask-type="alpha" maskUnits="userSpaceOnUse" x="0" y="0" width="30" height="30">
<path d="M24 -2.62268e-07C27.3137 -1.17422e-07 30 2.68629 30 6L30 24C30 27.3137 27.3137 30 24 30L6 30C2.68629 30 -1.19392e-06 27.3137 -1.04907e-06 24L-2.62268e-07 6C-1.17422e-07 2.68629 2.68629 -1.19392e-06 6 -1.04907e-06L24 -2.62268e-07Z" fill="#467CC0"/>
</mask>
<g mask="url(#mask0)">
<rect x="30" width="30" height="30" transform="rotate(90 30 0)" fill="#EFEEF0"/>
<rect x="0.0658569" y="0.135834" width="10" height="10" transform="rotate(90 0.0658569 0.135834)" fill="#5A4D81"/>
<rect x="0.0658569" y="10.1358" width="10" height="10" transform="rotate(90 0.0658569 10.1358)" fill="#5A4D81"/>
<rect x="10.0659" y="-0.444733" width="10.5806" height="10" transform="rotate(90 10.0659 -0.444733)" fill="#45BEA9"/>
<rect x="10" y="20" width="10" height="10" transform="rotate(90 10 20)" fill="#5A4D81"/>
<path fill-rule="evenodd" clip-rule="evenodd" d="M20 30L20 20L10.0659 20L10.0659 10.1358L0.0658798 10.1358L0.0658793 22.067L0.0659365 22.067L0.0659362 30.1359L10.0659 30.1359L10.0659 30L20 30Z" fill="#5A4D81"/>
<rect x="20" width="20" height="10" transform="rotate(90 20 0)" fill="#467CC0"/>
<rect x="30" width="30" height="10" transform="rotate(90 30 0)" fill="#92DEA5"/>
</g>
</svg>
