<svg width="33" height="33" viewBox="0 0 33 33" fill="none" xmlns="http://www.w3.org/2000/svg">
<path d="M0.524414 6.5647C0.524414 3.25099 3.21071 0.564697 6.52441 0.564697H26.5244C29.8381 0.564697 32.5244 3.25099 32.5244 6.5647V26.5647C32.5244 29.8784 29.8381 32.5647 26.5244 32.5647H6.52441C3.21071 32.5647 0.524414 29.8784 0.524414 26.5647V6.5647Z" fill="#FFDB69"/>
<mask id="mask0" mask-type="alpha" maskUnits="userSpaceOnUse" x="0" y="0" width="33" height="33">
<path d="M0.524414 6.5647C0.524414 3.25099 3.21071 0.564697 6.52441 0.564697H26.5244C29.8381 0.564697 32.5244 3.25099 32.5244 6.5647V26.5647C32.5244 29.8784 29.8381 32.5647 26.5244 32.5647H6.52441C3.21071 32.5647 0.524414 29.8784 0.524414 26.5647V6.5647Z" fill="#FFDB69"/>
</mask>
<g mask="url(#mask0)">
<path d="M16.5243 32.5647V16.0516C16.5243 12.4109 13.573 9.45959 9.93232 9.45959V9.45959C6.29167 9.45959 3.34033 12.4109 3.34033 16.0516V32.5647" stroke="#FA9AD0" stroke-width="2"/>
<path d="M29.7084 32.5645V26.3098C29.7084 22.6691 26.7571 19.7178 23.1164 19.7178V19.7178C19.4757 19.7178 16.5244 22.6691 16.5244 26.3098V32.5645" stroke="#FA9AD0" stroke-width="2"/>
<path d="M26.0124 20.628V12.6586C26.0124 8.71746 23.1595 5.52258 19.6402 5.52258C16.7724 5.52258 14.3471 7.64405 13.5474 10.562" stroke="#FA9AD0" stroke-width="2"/>
</g>
</svg>
