<svg width="229" height="319" viewBox="0 0 229 319" fill="none" xmlns="http://www.w3.org/2000/svg">
<mask id="mask0" mask-type="alpha" maskUnits="userSpaceOnUse" x="24" y="24" width="181" height="271">
<path d="M204.789 24H24V294.849H204.789V24Z" fill="white"/>
</mask>
<g mask="url(#mask0)">
<path d="M69.1974 69.1416C69.1974 44.2106 48.9618 24.0001 24 24.0001L24 69.1416L69.1974 69.1416Z" fill="#FCBD01"/>
<path d="M69.1974 69.1417C44.2356 69.1417 24 89.3522 24 114.283L69.1974 114.283L69.1974 69.1417Z" fill="#FF5263"/>
<path d="M69.1974 114.283C44.2356 114.283 24 134.494 24 159.425L69.1974 159.425L69.1974 114.283Z" fill="#FCBD01"/>
<path d="M24 159.425C24 184.356 44.2356 204.566 69.1974 204.566L69.1974 159.425L24 159.425Z" fill="#796EFF"/>
<path d="M69.1974 204.567C44.2356 204.567 24 224.777 24 249.708L69.1974 249.708L69.1974 204.567Z" fill="#FF5263"/>
<path d="M114.395 69.1416C114.395 44.2106 94.1592 24.0001 69.1974 24.0001L69.1974 69.1416L114.395 69.1416Z" fill="white"/>
<path d="M69.1974 114.283C94.1592 114.283 114.395 94.0726 114.395 69.1416L69.1974 69.1416L69.1974 114.283Z" fill="#FFCAB3"/>
<path d="M114.395 159.425C114.395 134.494 94.1592 114.283 69.1974 114.283L69.1974 159.425L114.395 159.425Z" fill="#FFCAB3"/>
<path d="M114.395 159.425C89.4329 159.425 69.1974 179.635 69.1974 204.566L114.395 204.566L114.395 159.425Z" fill="#796EFF"/>
<path d="M69.1974 249.708C94.1592 249.708 114.395 229.497 114.395 204.566L69.1974 204.566L69.1974 249.708Z" fill="#14AAF5"/>
<path d="M114.395 249.708C89.4329 249.708 69.1974 269.919 69.1974 294.85L114.395 294.85L114.395 249.708Z" fill="#FF5263"/>
<path d="M114.395 24C114.395 48.931 134.63 69.1415 159.592 69.1415L159.592 24L114.395 24Z" fill="#796EFF"/>
<path d="M159.592 69.1417C134.63 69.1417 114.395 89.3522 114.395 114.283L159.592 114.283L159.592 69.1417Z" fill="#FF5263"/>
<path d="M159.592 159.425C159.592 134.494 139.357 114.283 114.395 114.283L114.395 159.425L159.592 159.425Z" fill="#14AAF5"/>
<path d="M159.592 159.425C134.63 159.425 114.395 179.635 114.395 204.566L159.592 204.566L159.592 159.425Z" fill="#FCBD01"/>
<path d="M159.592 294.85C159.592 269.919 139.357 249.708 114.395 249.708L114.395 294.85L159.592 294.85Z" fill="#796EFF"/>
<path d="M204.79 69.1416C204.79 44.2106 184.554 24.0001 159.592 24.0001L159.592 69.1416L204.79 69.1416Z" fill="#FCBD01"/>
<path d="M204.79 114.283C179.828 114.283 159.592 134.494 159.592 159.425L204.79 159.425L204.79 114.283Z" fill="#FF5263"/>
<path d="M204.79 159.425C179.828 159.425 159.592 179.635 159.592 204.566L204.79 204.566L204.79 159.425Z" fill="#796EFF"/>
<path d="M159.592 249.708C184.554 249.708 204.79 229.497 204.79 204.566L159.592 204.566L159.592 249.708Z" fill="white"/>
<path d="M159.592 294.85C184.554 294.85 204.79 274.639 204.79 249.708L159.592 249.708L159.592 294.85Z" fill="#FFCAB3"/>
</g>
</svg>
