<svg width="229" height="319" viewBox="0 0 229 319" fill="none" xmlns="http://www.w3.org/2000/svg">
<mask id="mask0" mask-type="alpha" maskUnits="userSpaceOnUse" x="24" y="24" width="181" height="271">
<path d="M204.895 24.0752H24.1052V294.924H204.895V24.0752Z" fill="white"/>
</mask>
<g mask="url(#mask0)">
<path d="M27.5952 38.061L28.4513 33.7079L26.8168 31.2203L27.5952 29.1992L33.121 30.8316L34.2885 33.0082L33.121 33.7079V36.6617C33.121 37.097 30.9937 39.4342 29.93 40.5484L27.5952 38.061Z" fill="#F19A00"/>
<path d="M37.0735 36.1162L35.9469 37.1064L38.0651 38.5918L39.1918 38.3218L39.9579 36.5213L37.0735 36.1162Z" fill="#F45B45"/>
<path d="M42.3917 37.4213L41.5805 39.0418L40.3635 38.5918L41.3551 36.7012L42.3917 37.4213Z" fill="#F2A495"/>
<path d="M49.5123 36.3406L48.2953 36.6556L46.4025 35.4405V33.3699L47.0785 31.9295L51.8557 31.5244L52.8472 32.4696V33.82L51.8557 34.6302H50.774L49.5123 36.3406Z" fill="#F2A495"/>
<path d="M51.1799 36.9712L47.8899 39.9419H43.8789L44.1943 38.2765L47.304 35.2607L51.1799 36.9712Z" fill="#006EAB"/>
<path d="M36.3977 47.9992L36.1722 49.8896L33.1527 46.4686L34.2344 44.9834L36.3977 47.9992Z" fill="#482728"/>
<path d="M41.8057 46.6938L41.0846 47.2337L38.8313 46.4236L38.2003 44.8032L39.2368 43.5879L41.8057 46.6938Z" fill="#F2A495"/>
<path d="M48.4757 45.4783L46.5829 42.1924L51.7656 39.2217L53.9739 47.7289L51.7656 48.7192L48.4757 45.4783Z" fill="#006EAB"/>
<path d="M56.7682 39.9419C56.4227 38.4564 55.7317 35.4407 55.7317 35.2607L56.1824 33.5953L60.4187 29.9043H62.5369L63.2129 32.0649L62.5369 34.9456L58.0752 40.392L56.7682 39.9419Z" fill="#F19A00"/>
<path d="M61.2299 39.1316L60.4187 40.212L58.3455 39.1316L59.0666 37.7363L61.2299 39.1316Z" fill="#D6CFB6"/>
<path d="M59.0216 30.0834L58.3455 31.0288L57.5343 29.3184L58.0752 28.373L60.1933 30.0834H59.0216Z" fill="#F45B45"/>
<path d="M58.3004 42.3271L57.4891 43.7225L58.661 44.3527V45.478L60.689 44.5777L58.3004 42.3271Z" fill="#F19A00"/>
<path d="M46.7631 46.6034L45.3209 46.3783L46.7631 44.1729L47.7547 43.6777L48.5659 44.938L46.7631 46.6034Z" fill="#006EAB"/>
<path d="M56.8132 45.1182L51.9008 53.0402L57.3991 50.6096L56.8132 45.1182Z" fill="#D6CFB6"/>
<path d="M63.0326 45.5684L61.275 47.2788L64.7902 47.5039L63.0326 45.5684Z" fill="#F19A00"/>
<path d="M43.5633 55.3809L42.3466 51.96L50.3235 55.0208L52.4417 56.9563L51.7206 58.5767L43.5633 55.3809Z" fill="#F19A00"/>
<path d="M36.9833 53.8052L35.9469 52.0048L36.9833 51.6896V50.1143H38.696V52.635L36.9833 53.8052Z" fill="#482728"/>
<path d="M44.1041 62.5374L43.3831 60.962L44.1041 60.512V59.2066L45.5913 58.9814L45.997 61.4121L44.1041 62.5374Z" fill="#D6CFB6"/>
<path d="M38.1553 64.158L37.6144 67.0837L33.964 64.4281L33.5583 63.1677L34.595 62.0874L36.8934 60.917L39.7777 61.2772L40.3185 62.0874L38.1553 64.158Z" fill="#F2A495"/>
<path d="M45.5014 63.4836V64.1587L43.5635 64.4288L44.3296 63.1234L46.4026 62.4482L45.5014 63.4836Z" fill="#D6CFB6"/>
<path d="M55.7766 67.8937L54.4245 69.1091L52.622 67.8937L51.5403 67.2186L48.6559 64.6078L53.0275 62.7175L55.0555 61.232L57.1737 60.917V62.7175L57.8497 64.6078L55.7766 67.8937Z" fill="#482728"/>
<path d="M32.7922 68.5045H30.9895L31.1698 66.794L33.8288 65.8037L34.2795 66.794L32.7922 68.5045Z" fill="#482728"/>
<path d="M27.3841 65.3281L25.0405 68.479L27.0686 67.9839L27.3841 68.479L29.4571 68.7941L27.3841 65.3281Z" fill="#006EAB"/>
<path d="M26.9807 63.3923V64.6077L24.5019 63.7975L24.2316 62.8522L25.0428 62.5371L26.9807 63.3923Z" fill="#482728"/>
<path d="M67.945 36.4307C67.2389 37.3309 65.7997 39.1764 65.6915 39.3565L66.0972 40.7968H67.945L69.1618 38.5462V36.4307H67.945Z" fill="#482728"/>
<path d="M63.3931 30.0388L65.5564 30.714H68.5308L69.0716 29.0036L68.5308 27.1581L65.8718 26.6631H63.7988L62.9425 28.4185L63.3931 30.0388Z" fill="#D6CFB6"/>
<path d="M64.9704 25.763L63.6636 25.313H62.3566L62.9425 24.1426H64.9704L65.6916 25.313L64.9704 25.763Z" fill="#D6CFB6"/>
<path d="M53.1177 26.5282C52.2614 27.1283 50.5128 28.3737 50.3686 28.5538L49.4221 26.5282L49.8728 24.6377L52.036 24.0977L53.5233 25.1779L53.1177 26.5282Z" fill="#F2A495"/>
<path d="M35.378 40.4703V42.8023L31.4865 41.481L30.5525 39.0712L31.4865 36.1172H33.7435L36.7789 39.0712L35.378 40.4703Z" fill="#F45B45"/>
<path d="M43.7057 31.7644L35.8449 32.2307L34.5046 31.1641V29.4536H36.2172L36.6232 28.344L35.8449 26.556L37.2459 25.4678L42.0714 26.556L44.4063 30.2096L43.7057 31.7644Z" fill="#482728"/>
<path d="M36.0821 28.2835L35.6316 28.9137H34.0542L35.1808 26.6631L36.0821 28.2835Z" fill="#F45B45"/>
<path d="M47.5293 27.2488C48.3706 27.2638 50.1883 27.2848 50.7291 27.2488L50.4136 25.1332L47.5293 24.4131V27.2488Z" fill="#D6CFB6"/>
<path d="M46.4928 25.3129L44.4196 27.8785L42.707 25.6279V24.1875H45.997L46.4928 25.3129Z" fill="#482728"/>
<path d="M61.2745 57.6143L60.2639 55.3333L63.2752 54.748L64.2048 57.4528L61.2745 57.6143Z" fill="#006EAB"/>
<path d="M65.5991 52.1037L65.0737 54.1826L67.3372 58.4417H68.4891L69.1763 56.3021L68.4891 53.234L67.5191 50.7715L65.5991 52.1037Z" fill="#F2A495"/>
<path d="M63.3392 67.5342C63.4233 67.6351 62.5047 68.6827 62.0349 69.1939L59.132 68.2064L61.3408 66.2314C61.9719 66.6236 63.2552 67.4333 63.3392 67.5342Z" fill="#D6CFB6"/>
<path d="M67.7781 67.8705L66.053 68.7739L63.9495 66.841L66.7683 65.1602L67.7781 67.8705Z" fill="#F2A495"/>
<path d="M45.216 83.6702L47.6141 84.2229L44.9084 87.2939L44.0475 85.8812L45.216 83.6702Z" fill="#006EAB"/>
<path d="M36.9141 82.3797L39.4969 83.2395L37.4677 84.5908L35.4998 83.2395L36.9141 82.3797Z" fill="#D6CFB6"/>
<path d="M42.4487 98.3489L43.0637 95.4623L45.2773 96.6906V97.4276L43.863 99.6387L42.4487 98.3489Z" fill="#F45B45"/>
<path d="M52.7181 105.596L54.3784 103.815L56.3463 105.166V107.132L54.3784 108.36L53.1486 107.93L52.7181 105.596Z" fill="#F2A495"/>
<path d="M58.0684 101.911L59.1753 101.358L59.9132 102.709L61.1431 104.061L59.9132 104.613L58.0684 101.911Z" fill="#006EAB"/>
<path d="M58.0066 83.7927L59.1752 89.566V91.2857L58.4371 92.1455L56.6538 91.7769L56.2849 90.1801L56.6538 83.7927L57.2073 82.81L58.0066 83.7927Z" fill="#006EAB"/>
<path d="M35.0079 96.8137L37.0371 86.0656L34.3314 86.5569H30.2113L27.7515 88.8293L24.9843 90.9176L24.3693 92.3302L24.9843 93.3743L34.3314 97.4893L35.0079 96.8137Z" fill="#006EAB"/>
<path d="M33.9624 80.6607V82.0731L27.0137 82.626C27.0956 81.3157 27.2843 78.6215 27.3826 78.3267C27.481 78.0318 31.8102 79.7598 33.9624 80.6607Z" fill="#F2A495"/>
<path d="M45.1544 69.7277L46.0154 73.9042L37.7751 80.1074L36.4222 75.501L41.3418 71.2632L42.2642 71.6317L43.0021 70.7104L45.1544 69.7277Z" fill="#F19A00"/>
<path d="M49.4591 69.8503L50.7503 69.4819L57.4532 73.3512V74.3339L55.424 74.7637L49.0901 71.7543L49.4591 69.8503Z" fill="#482728"/>
<path d="M62.3728 79.4938L65.3246 78.5725L67.6613 81.3363L66.4314 85.5127L64.4021 85.2056L63.2337 81.889L61.3274 80.6607L62.3728 79.4938Z" fill="#D6CFB6"/>
<path d="M44.9402 105.077H49.1852L52.3853 110.165L50.1648 112.317L44.9402 105.077Z" fill="#006EAB"/>
<path d="M42.4586 106.708L44.2219 108.534H38.1484L36.1892 105.599L42.4586 106.708Z" fill="#006EAB"/>
<path d="M68.0588 103.185L68.5813 99.5976L66.9485 98.9453L64.7934 99.989L64.0751 102.794L64.7934 104.881L68.0588 103.185Z" fill="#482728"/>
<path d="M28.6789 99.0114L30.377 100.577L29.3974 102.012L28.2871 101.686L27.83 100.055L28.6789 99.0114Z" fill="#F19A00"/>
<path d="M35.928 109.121L38.1483 109.643L35.5361 112.187L34.9483 111.078L35.928 109.121Z" fill="#F2A495"/>
<path d="M43.8954 110.425L44.3525 111.86L40.4342 111.208L41.4138 109.904L43.8954 110.425Z" fill="#F19A00"/>
<path d="M55.1281 111.469L57.2833 110.947L56.4343 113.165L53.4955 113.752L55.1281 111.469Z" fill="#F45B45"/>
<path d="M26.6544 71.6159L27.7647 69.5939L30.181 69.0723L33.9689 73.1815V74.2251L33.1198 75.9209L26.6544 71.6159Z" fill="#482728"/>
<path d="M25.936 75.1378V74.2245H26.8503L28.287 75.1378V76.1162H27.5686L25.936 75.1378Z" fill="#006EAB"/>
<path d="M67.0793 110.36L67.7976 109.382L69.0386 110.36L68.5813 111.273L67.0793 110.36Z" fill="#D6CFB6"/>
<path d="M54.2409 84.3977L54.6917 91.0488L50.686 90.0486L49.1338 82.3473L54.2409 84.3977Z" fill="#006EAB"/>
<path d="M48.3826 91.1491L50.6359 93.2495L44.0266 95.0498L43.576 91.6992L48.3826 91.1491Z" fill="#F19A00"/>
<path d="M52.0378 95.6996L55.0922 93.099L58.0463 94.9494L56.7445 97.1498L58.3467 98.55L58.0463 99.7002L52.6888 98.55L52.0378 95.6996Z" fill="#006EAB"/>
<path d="M37.918 97.5997L39.37 96.5995V98.8001L40.1211 99.9502H37.918V97.5997Z" fill="#482728"/>
<path d="M55.2995 117.844L59.658 118.699L62.1487 117.066L64.1722 117.844L62.5378 123.363L60.3586 124.529L59.658 123.363H56.7005C56.2647 123.363 53.9246 121.238 52.809 120.176L55.2995 117.844Z" fill="#D6CFB6"/>
<path d="M57.2473 127.311L56.2559 126.186L54.7687 128.301L55.039 129.426L56.8417 130.192L57.2473 127.311Z" fill="#482728"/>
<path d="M55.9406 132.622L54.3181 131.812L54.7687 130.597L56.6616 131.587L55.9406 132.622Z" fill="#D6CFB6"/>
<path d="M57.0221 139.734L56.7067 138.518L57.9233 136.628H59.9964L61.4386 137.303L61.8442 142.074L60.8979 143.065H59.5458L58.7346 142.074V140.994L57.0221 139.734Z" fill="#F19A00"/>
<path d="M56.391 141.399L53.4167 138.114V134.107L55.0842 134.422L58.1036 137.528L56.391 141.399Z" fill="#482728"/>
<path d="M45.3495 126.635L43.4567 126.41L46.8819 123.395L48.369 124.475L45.3495 126.635Z" fill="#482728"/>
<path d="M46.6563 132.036L46.1156 131.316L46.9268 129.066L48.5492 128.436L49.766 129.471L46.6563 132.036Z" fill="#F19A00"/>
<path d="M47.8735 138.698L51.1634 136.808L54.1378 141.984L45.6201 144.19L44.6285 141.984L47.8735 138.698Z" fill="#006EAB"/>
<path d="M53.4167 146.981C54.904 146.635 57.9234 145.945 58.1036 145.945L59.7711 146.395L63.4667 150.627V152.742L61.3034 153.417L58.4191 152.742L52.966 148.286L53.4167 146.981Z" fill="#D6CFB6"/>
<path d="M54.2279 151.438L53.1461 150.627L54.2279 148.557L55.6249 149.277L54.2279 151.438Z" fill="#006EAB"/>
<path d="M63.2865 149.232L62.34 148.556L64.0525 147.746L64.999 148.286L63.2865 150.402V149.232Z" fill="#482728"/>
<path d="M51.0281 148.511L49.631 147.701L49 148.872H47.8733L48.7747 150.897L51.0281 148.511Z" fill="#F45B45"/>
<path d="M46.7467 136.988L46.972 135.548L49.1802 136.988L49.6759 137.979L48.4141 138.789L46.7467 136.988Z" fill="#D6CFB6"/>
<path d="M48.2338 147.026L40.3019 142.119L42.7356 147.611L48.2338 147.026Z" fill="#F2A495"/>
<path d="M47.7832 153.238L46.0707 151.482L45.8453 154.993L47.7832 153.238Z" fill="#482728"/>
<path d="M37.9584 133.792L41.3835 132.577L38.3189 140.544L36.381 142.66L34.7586 141.94L37.9584 133.792Z" fill="#F45B45"/>
<path d="M39.5358 127.221L41.3385 126.186L41.654 127.221H43.2313V128.931H40.7075L39.5358 127.221Z" fill="#F19A00"/>
<path d="M30.7927 134.332L32.3701 133.612L32.8206 134.332H34.1276L34.353 135.818L31.9194 136.223L30.7927 134.332Z" fill="#F45B45"/>
<path d="M29.1703 128.391L26.2409 127.851L28.8998 124.205L30.1617 123.8L31.2435 124.835L32.4153 127.131L32.0546 130.012L31.2435 130.552L29.1703 128.391Z" fill="#F19A00"/>
<path d="M29.8461 135.728H29.1701L28.8997 133.793L30.2067 134.558L30.8827 136.629L29.8461 135.728Z" fill="#D6CFB6"/>
<path d="M25.4297 145.991L24.2128 144.64L25.4297 142.84L26.1056 141.76L28.7196 138.879L30.6123 143.245L32.0996 145.271L32.415 147.386H30.6123L28.7196 148.061L25.4297 145.991Z" fill="#006EAB"/>
<path d="M24.8179 123.035V121.234L26.5305 121.414L27.5221 124.07L26.5305 124.52L24.8179 123.035Z" fill="#F2A495"/>
<path d="M27.9984 117.633L24.8436 115.292L25.3394 117.318L24.8436 117.633L24.5282 119.703L27.9984 117.633Z" fill="#482728"/>
<path d="M29.9366 117.23H28.7196L29.5309 114.754L30.4774 114.484L30.7928 115.295L29.9366 117.23Z" fill="#F2A495"/>
<path d="M56.9319 158.143C56.0306 157.438 54.1828 156.001 54.0024 155.893L52.5603 156.298V158.143L54.8137 159.359H56.9319V158.143Z" fill="#F45B45"/>
<path d="M63.3315 153.598L62.6555 155.758V158.729L64.368 159.269L66.2158 158.729L66.7114 156.073V154.003L64.9539 153.147L63.3315 153.598Z" fill="#482728"/>
<path d="M67.6129 155.173L68.0635 153.868V152.562L69.2354 153.148V155.173L68.0635 155.893L67.6129 155.173Z" fill="#006EAB"/>
<path d="M66.8467 143.335C66.2458 142.479 64.9989 140.733 64.8186 140.589L66.8467 139.644L68.7396 140.094L69.2803 142.254L68.1987 143.74L66.8467 143.335Z" fill="#D6CFB6"/>
<path d="M52.8869 125.617H50.552L51.8751 121.731L54.2878 120.798L57.2455 121.731V123.985L54.2878 127.017L52.8869 125.617Z" fill="#006EAB"/>
<path d="M61.6037 133.935L61.1368 126.084L62.2048 124.745H63.9173V126.456L65.0283 126.861L66.8185 126.084L67.9081 127.483L66.8185 132.302L63.1604 134.634L61.6037 133.935Z" fill="#006EAB"/>
<path d="M65.0892 126.32L64.4582 125.87V124.295L66.7115 125.42L65.0892 126.32Z" fill="#F45B45"/>
<path d="M66.1256 137.753C66.1106 138.593 66.0895 140.409 66.1256 140.949L68.2438 140.634L68.9648 137.753H66.1256Z" fill="#D6CFB6"/>
<path d="M68.0636 136.718L65.4947 134.647L67.7481 132.937H69.1903V136.222L68.0636 136.718Z" fill="#F45B45"/>
<path d="M35.7224 151.482L38.0062 150.473L38.5922 153.48L35.8841 154.409L35.7224 151.482Z" fill="#482728"/>
<path d="M41.2395 155.801L39.158 155.276L34.8937 157.537V158.688L37.0359 159.374L40.1078 158.688L42.5734 157.719L41.2395 155.801Z" fill="#F19A00"/>
<path d="M25.7895 153.544C25.6885 153.628 24.6396 152.71 24.1277 152.241L25.1165 149.342L27.0939 151.548C26.7012 152.178 25.8906 153.46 25.7895 153.544Z" fill="#006EAB"/>
<path d="M25.453 157.977L24.5485 156.254L26.4838 154.153L28.1667 156.969L25.453 157.977Z" fill="#482728"/>
<path d="M65.8128 190.656L64.9567 195.009L66.5912 197.496L65.8128 199.518L60.2869 197.885L59.1195 195.709L60.2869 195.009V192.055C60.2869 191.62 62.4143 189.283 63.478 188.168L65.8128 190.656Z" fill="#006EAB"/>
<path d="M56.3343 192.602L57.4609 191.611L55.3428 190.126L54.2161 190.396L53.4499 192.196L56.3343 192.602Z" fill="#D6CFB6"/>
<path d="M51.0163 191.295L51.8275 189.675L53.0444 190.125L52.0529 192.016L51.0163 191.295Z" fill="#D6CFB6"/>
<path d="M43.8956 192.376L45.1125 192.061L47.0054 193.276V195.347L46.3293 196.787L41.5522 197.192L40.5607 196.247V194.897L41.5522 194.087H42.6338L43.8956 192.376Z" fill="#F19A00"/>
<path d="M42.228 191.746L45.518 188.775H49.5291L49.2136 190.44L46.1039 193.456L42.228 191.746Z" fill="#F19A00"/>
<path d="M57.0102 180.719L57.2356 178.828L60.2551 182.249L59.1735 183.734L57.0102 180.719Z" fill="#006EAB"/>
<path d="M51.6022 182.023L52.3234 181.483L54.5767 182.293L55.2076 183.914L54.1711 185.129L51.6022 182.023Z" fill="#482728"/>
<path d="M44.9322 183.238L46.825 186.524L41.6422 189.495L39.4339 180.988L41.6422 179.998L44.9322 183.238Z" fill="#D6CFB6"/>
<path d="M36.6397 188.775C36.9853 190.26 37.6763 193.276 37.6763 193.456L37.2256 195.122L32.9892 198.812H30.8711L30.1951 196.652L30.8711 193.771L35.3328 188.325L36.6397 188.775Z" fill="#F19A00"/>
<path d="M32.178 189.585L32.9892 188.505L35.0624 189.585L34.3413 190.98L32.178 189.585Z" fill="#F19A00"/>
<path d="M34.3864 198.633L35.0624 197.688L35.8737 199.398L35.3328 200.344L33.2146 198.633H34.3864Z" fill="#F2A495"/>
<path d="M35.1075 186.39L35.9187 184.994L34.7469 184.364V183.239L32.7189 184.139L35.1075 186.39Z" fill="#482728"/>
<path d="M46.6447 182.113L48.0869 182.338L46.6447 184.544L45.6532 185.039L44.842 183.779L46.6447 182.113Z" fill="#006EAB"/>
<path d="M36.5948 183.599L41.5072 175.677L36.0089 178.107L36.5948 183.599Z" fill="#006EAB"/>
<path d="M30.3754 183.148L32.1329 181.438L28.6177 181.213L30.3754 183.148Z" fill="#D6CFB6"/>
<path d="M49.8446 173.336L51.0613 176.757L43.0843 173.696L40.9661 171.76L41.6873 170.14L49.8446 173.336Z" fill="#006EAB"/>
<path d="M56.4245 174.912L57.4609 176.712L56.4245 177.027V178.603H54.7118V176.082L56.4245 174.912Z" fill="#F19A00"/>
<path d="M49.3037 166.179L50.0248 167.755L49.3037 168.205V169.51L47.8165 169.735L47.4109 167.305L49.3037 166.179Z" fill="#482728"/>
<path d="M55.2527 164.559L55.7935 161.633L59.444 164.289L59.8496 165.549L58.813 166.629L56.5146 167.8L53.6302 167.44L53.0894 166.629L55.2527 164.559Z" fill="#F19A00"/>
<path d="M47.9064 165.234V164.559L49.8444 164.289L49.0783 165.594L47.0052 166.27L47.9064 165.234Z" fill="#F2A495"/>
<path d="M37.6313 160.823L38.9833 159.608L40.7859 160.823L41.8675 161.498L44.752 164.109L40.3803 165.999L38.3523 167.485L36.2341 167.8V165.999L35.5581 164.109L37.6313 160.823Z" fill="#F19A00"/>
<path d="M60.6158 160.212H62.4185L62.2382 161.923L59.5792 162.913L59.1285 161.923L60.6158 160.212Z" fill="#006EAB"/>
<path d="M66.0238 163.389L68.3673 160.238L66.3393 160.733L66.0238 160.238L63.9507 159.923L66.0238 163.389Z" fill="#F2A495"/>
<path d="M66.4272 165.324V164.109L68.906 164.919L69.1764 165.865L68.3651 166.18L66.4272 165.324Z" fill="#482728"/>
<path d="M25.4628 192.286C26.1689 191.386 27.6081 189.54 27.7163 189.36L27.3107 187.92H25.4628L24.2461 190.171V192.286H25.4628Z" fill="#F2A495"/>
<path d="M30.0148 198.678L27.8515 198.003H24.8771L24.3363 199.713L24.8771 201.559L27.5361 202.054H29.6092L30.4655 200.298L30.0148 198.678Z" fill="#D6CFB6"/>
<path d="M28.4374 202.954L29.7442 203.404H31.0513L30.4654 204.574H28.4374L27.7162 203.404L28.4374 202.954Z" fill="#006EAB"/>
<path d="M40.2903 202.189C41.1465 201.588 42.8952 200.343 43.0393 200.163L43.9858 202.189L43.5351 204.079L41.3719 204.619L39.8847 203.539L40.2903 202.189Z" fill="#006EAB"/>
<path d="M58.0299 188.246V185.914L61.9214 187.236L62.8555 189.646L61.9214 192.6H59.6644L56.629 189.646L58.0299 188.246Z" fill="#D6CFB6"/>
<path d="M49.7021 196.952L57.5629 196.486L58.9032 197.553V199.263H57.1906L56.7846 200.373L57.5629 202.161L56.162 203.249L51.3365 202.161L49.0016 198.507L49.7021 196.952Z" fill="#F45B45"/>
<path d="M57.3258 200.433L57.7764 199.803H59.3538L58.2271 202.054L57.3258 200.433Z" fill="#006EAB"/>
<path d="M45.8787 201.469C45.0374 201.454 43.2196 201.433 42.6788 201.469L42.9943 203.585L45.8787 204.305V201.469Z" fill="#482728"/>
<path d="M46.9152 203.404L48.9884 200.838L50.7009 203.089V204.529H47.411L46.9152 203.404Z" fill="#006EAB"/>
<path d="M32.1335 171.103L33.144 173.383L30.1328 173.969L29.2031 171.264L32.1335 171.103Z" fill="#F45B45"/>
<path d="M27.8087 176.613L28.3341 174.534L26.0706 170.275H24.9187L24.2315 172.415L24.9187 175.483L25.8888 177.945L27.8087 176.613Z" fill="#006EAB"/>
<path d="M30.0687 161.183C29.9847 161.082 30.9032 160.034 31.373 159.523L34.276 160.51L32.0671 162.485C31.436 162.093 30.1528 161.284 30.0687 161.183Z" fill="#F19A00"/>
<path d="M25.6298 160.846L27.3549 159.943L29.4585 161.876L26.6396 163.557L25.6298 160.846Z" fill="#D6CFB6"/>
<path d="M68.5229 234.755L69.1734 236.019L66.3901 238.979L65.125 236.994L66.0286 235.514L67.4384 236.019L68.5229 234.755Z" fill="#D6CFB6"/>
<path d="M52.139 248.655L50.0063 248.943L50.9823 247.463L52.139 248.655Z" fill="#F45B45"/>
<path d="M62.1892 225.083L65.6071 227.217L68.7292 222.753L69.0907 219.536L68.7292 217.862L62.1892 225.083Z" fill="#D6CFB6"/>
<path d="M64.8862 208.804L66.8055 209.784L68.6821 208.591V207.143H66.8055L64.8862 208.804Z" fill="#006EAB"/>
<path d="M60.2801 209.06L61.1332 209.656L60.2801 211.232L58.958 210.594L58.4034 208.677L59.7683 207.143L60.2801 209.06Z" fill="#F45B45"/>
<path d="M32.4933 228.499L31.5788 231.156L32.4933 234.478L31.1907 235.17L30.4701 233.897L29.0844 234.644L26.4516 234.478L24.8718 228.278L26.9227 228.499L28.7796 227.198L32.4933 228.499Z" fill="#D6CFB6"/>
<path d="M54.637 213.137L55.2744 213.995L57.4915 213.137L56.9649 212.362L54.637 213.137Z" fill="#006EAB"/>
<path d="M61.9435 220.562H60.1949V218.602L59.5978 216.515L60.1949 214.555H61.0479L61.3891 217.878L61.9435 218.858V220.562Z" fill="#482728"/>
<path d="M51.3237 209.06L52.3047 209.784L53.5415 209.273L54.0959 206.845L51.3237 209.06Z" fill="#482728"/>
<path d="M66.0379 212.766L67.0616 213.576L67.2747 217.196L68.6822 218.645L68.0424 219.71L67.0616 220.008L63.7774 217.196L63.4363 215.493L66.0379 212.766Z" fill="#482728"/>
<path d="M28.3361 224.099L29.4169 225.427L27.3384 225.787L28.3361 224.099Z" fill="#D6CFB6"/>
<path d="M24.8718 209.65L26.7841 211.726L26.4793 207.906L24.8718 209.65Z" fill="#D6CFB6"/>
<path d="M42.8132 205.603C41.8095 205.937 39.765 206.628 39.6163 206.717L39.0215 204.972L42.8132 205.603Z" fill="#F45B45"/>
<path d="M54.3372 215.628L54.0398 218.449L57.497 220.194L57.1253 217.001L54.3372 215.628Z" fill="#F2A495"/>
<path d="M41.5122 214.922L42.2184 215.888L50.6198 209.91L49.6533 206.383H48.6496L44.7463 207.905L43.8913 209.316L44.1144 210.69L41.5122 214.922Z" fill="#006EAB"/>
<path d="M35.1554 214.031H40.7686L38.055 208.276L34.7092 212.138L35.1554 214.031Z" fill="#006EAB"/>
<path d="M34.2259 221.568L33.1852 220.603L35.4527 219.007L36.9025 219.786L34.2259 221.568Z" fill="#D6CFB6"/>
<path d="M38.1665 219.378L43.1479 223.759V222.496L44.4489 223.202V217.818L38.1665 219.378Z" fill="#F2A495"/>
<path d="M51.8838 221.457L49.3559 224.167L45.7129 221.791V219.934L48.7984 217.484H51.4749L49.0585 219.934L51.8838 221.457Z" fill="#F2A495"/>
<path d="M48.9471 228.028L48.501 231.073L50.1367 232.446L51.5121 226.691L48.9471 228.028Z" fill="#F45B45"/>
<path d="M57.2369 228.883C59.6161 230.764 64.4189 234.571 64.5973 234.749L63.0361 237.46L63.7796 238.573L62.7387 240.207L56.2704 234.749L57.2369 228.883Z" fill="#006EAB"/>
<path d="M36.4669 237.194L35.9207 240.877L31.8582 241.968L30.9024 240.468L27.3862 239.956L26.5669 236.581L36.4669 237.194Z" fill="#F19A00"/>
<path d="M36.3688 244.143L35.7134 243.068L37.2115 241.665L39.3182 241.946L38.3818 244.143L36.3688 245.219V244.143Z" fill="#F2A495"/>
<path d="M56.0308 237.691L60.1038 240.543L54.9542 242.928L52.6603 241.478L50.1791 237.691H56.0308Z" fill="#F19A00"/>
<path d="M41.5184 239.327H45.2635L44.8891 241.338L42.0802 243.956L38.5222 242.273L41.5184 239.327Z" fill="#F2A495"/>
<path d="M29.7496 248.623L28.752 249.149L32.0499 249.453L30.8582 247.792L29.7496 248.623Z" fill="#482728"/>
<path d="M28.1698 221.58L25.537 222.188L24.2344 219.946L27.1721 219.171L29.0289 217.234L31.4401 218.175L28.1698 221.58Z" fill="#D6CFB6"/>
<path d="M43.4121 245.69L47.137 249.226L48.6859 245.1L50.3086 243.516H46.0675L43.4121 245.69Z" fill="#482728"/>
<path d="M53.4122 253.866V251.569L54.6536 250.767L63.7085 251.569L65.9723 256.054L67.3962 257.44L68.09 259.19L63.5623 259.774L61.8829 258.753H59.5827L55.8584 257.185H53.4122L51.9881 256.054L53.4122 253.866Z" fill="#F2A495"/>
<path d="M52.6425 259.829L56.5831 259.074L57.2308 260.099L56.5831 262.363L57.2308 263.98V267.646L47.4604 271.798L46.3269 271.42L43.7358 272.66L42.8181 271.151L46.9206 267.323L47.4604 265.113L49.9435 262.363H51.0771L52.6425 259.829Z" fill="#F45B45"/>
<path d="M54.3159 272.715L56.1513 271.475L57.2849 274.116L56.745 274.656L54.3159 272.715Z" fill="#F2A495"/>
<path d="M57.8247 270.774L64.1404 270.396L63.0608 274.494L55.2337 276.003L57.8247 270.774Z" fill="#006EAB"/>
<path d="M63.6005 275.41L64.4102 274.008L66.8933 275.032V275.895L66.3535 276.757L63.6005 275.41Z" fill="#F45B45"/>
<path d="M54.3158 280.208L57.6626 278.052L59.0121 278.483L60.7395 281.718L60.2537 283.713L51.9947 289.158L50.3214 287.379L51.9947 284.683L54.3158 280.208Z" fill="#F19A00"/>
<path d="M57.069 288.187L58.4724 288.942L59.552 286.3L57.3928 283.658L56.4751 284.09L57.069 288.187Z" fill="#006EAB"/>
<path d="M48.0542 284.359V281.34L50.3214 283.658L48.9719 285.383L48.0542 284.359Z" fill="#482728"/>
<path d="M42.8722 284.737L46.1649 282.149L47.4065 284.414L46.1649 285.546L43.4119 285.977L42.8722 284.737Z" fill="#D6CFB6"/>
<path d="M41.0369 272.499L42.8182 272.876L39.4175 277.136V275.895L38.5538 275.141L41.0369 272.499Z" fill="#D6CFB6"/>
<path d="M41.5227 277.351L44.3837 278.806L41.5227 282.85H40.2812L35.261 287.756L34.0195 286.893V285.869L33.5877 285.06L34.0195 283.982L33.5877 283.173L34.0195 282.095L38.6618 279.399L39.9573 277.674L41.5227 277.351Z" fill="#006EAB"/>
<path d="M41.7925 288.403L42.8722 286.947L46.057 287.271V289.535L41.7925 288.403Z" fill="#D6CFB6"/>
<path d="M40.119 270.18L39.4174 268.724L40.6049 266.999L41.9005 268.023L41.4686 270.18H40.119Z" fill="#482728"/>
<path d="M53.2362 293.902L52.8583 292.608H56.8529L55.6653 294.442L53.2362 293.902Z" fill="#D6CFB6"/>
<path d="M43.6818 265.22L44.2755 266.353L48.054 262.956L45.2471 261.932L43.6818 265.22Z" fill="#F2A495"/>
<path d="M42.4608 260.141L42.2189 258.001L43.8083 257.069L44.4303 258.312L43.5664 258.864V259.899L42.4608 260.141Z" fill="#F45B45"/>
<path d="M39.1782 258.173L35.1701 256.344L34.479 258.449L38.7981 259.829L39.1782 258.173Z" fill="#F45B45"/>
<path d="M37.105 262.211L32.7168 258.415H29.7797L29.9525 260.175L32.9932 262.936V264.868L33.7879 266.145H35.17L37.3815 263.661L37.105 262.211Z" fill="#F19A00"/>
<path d="M37.1051 258.415L38.8673 256.862L37.416 255.171L35.5156 257.173L37.1051 258.415Z" fill="#F2A495"/>
<path d="M36.3674 252.711L32.3248 249.812L28.1093 256.784L29.4914 257.715L31.0118 256.508L32.3248 256.128L36.3674 252.711Z" fill="#F2A495"/>
<path d="M29.3305 263.902H30.8163L28.3976 266.801L26.359 266.111L29.3305 263.902Z" fill="#F19A00"/>
<path d="M24.9342 268.725L32.1204 269.225L33.4017 269.81L34.4044 271.423L36.4099 278.406L35.9084 278.99L24.3771 269.225L24.9342 268.725Z" fill="#482728"/>
<path d="M29.5579 278.044L27.3296 278.211L28.0261 275.039L31.5634 272.452L34.1816 276.514L31.0898 279.407L29.5579 278.044Z" fill="#F2A495"/>
<path d="M24.7114 273.343L27.7196 273.899L24.7114 277.349V273.343Z" fill="#F19A00"/>
<path d="M27.4554 282.008L28.9316 280.145L30.547 283.844L29.4886 284.15L27.4554 282.008Z" fill="#F19A00"/>
<path d="M67.9786 272.355L65.6577 271.427L67.9786 269.728L69.0308 271.18L67.9786 272.355Z" fill="#F2A495"/>
<path d="M51.1715 290.446L45.1689 288.621L45.5485 290.612L50.3411 292.247L51.1715 290.446Z" fill="#F45B45"/>
<path d="M35.4298 290.709H38.0332L37.8367 293.096L35.9702 294.895L33.9563 293.718L33.7598 292.426L35.4298 290.709Z" fill="#F2A495"/>
<path d="M27.7717 285.536L30.1591 284.889L32.3402 287.288V291.35L29.5696 294.309L27.7717 293.897L27.8749 290.026L27.3296 287.494L27.7717 285.536Z" fill="#F19A00"/>
<path d="M113.72 54.189L114.371 55.4526L111.587 58.4131L110.322 56.4274L111.226 54.9472L112.636 55.4526L113.72 54.189Z" fill="#D6CFB6"/>
<path d="M97.3364 68.0882L95.2037 68.377L96.1797 66.8968L97.3364 68.0882Z" fill="#482728"/>
<path d="M107.387 44.5169L110.805 46.6504L113.927 42.1865L114.288 38.9698L113.927 37.2958L107.387 44.5169Z" fill="#D6CFB6"/>
<path d="M110.084 28.2381L112.003 29.2178L113.88 28.0251V26.5768H112.003L110.084 28.2381Z" fill="#F2A495"/>
<path d="M105.478 28.4936L106.331 29.09L105.478 30.666L104.155 30.0271L103.601 28.1102L104.966 26.5767L105.478 28.4936Z" fill="#F2A495"/>
<path d="M77.6907 47.9327L76.7762 50.5901L77.6907 53.9116L76.3881 54.6035L75.6675 53.3302L74.2818 54.0777L71.649 53.9116L70.0692 47.7112L72.1201 47.9327L73.9769 46.6318L77.6907 47.9327Z" fill="#F45B45"/>
<path d="M99.8344 32.5707L100.472 33.4287L102.689 32.5707L102.162 31.7956L99.8344 32.5707Z" fill="#F45B45"/>
<path d="M107.141 39.9951H105.392V38.0357L104.795 35.9484L105.392 33.989H106.245L106.586 37.3115L107.141 38.2913V39.9951Z" fill="#F2A495"/>
<path d="M96.5211 28.4937L97.5021 29.2178L98.7389 28.7067L99.2933 26.2787L96.5211 28.4937Z" fill="#D6CFB6"/>
<path d="M111.235 32.1989L112.259 33.0082L112.472 36.6291L113.88 38.0774L113.24 39.1423L112.259 39.4404L108.975 36.6291L108.634 34.9252L111.235 32.1989Z" fill="#F19A00"/>
<path d="M73.5334 43.5322L74.6143 44.8609L72.5358 45.2207L73.5334 43.5322Z" fill="#F19A00"/>
<path d="M70.0692 29.0833L71.9815 31.1592L71.6767 27.3394L70.0692 29.0833Z" fill="#D6CFB6"/>
<path d="M88.0106 25.0365C87.0069 25.3706 84.9624 26.0612 84.8137 26.1504L84.2189 24.4052L88.0106 25.0365Z" fill="#F45B45"/>
<path d="M99.5346 35.0611L99.2372 37.8828L102.694 39.6279L102.323 36.4348L99.5346 35.0611Z" fill="#F45B45"/>
<path d="M86.7096 34.3559L87.4158 35.3213L95.8172 29.3436L94.8507 25.8164H93.847L89.9437 27.3386L89.0887 28.7495L89.3118 30.1232L86.7096 34.3559Z" fill="#006EAB"/>
<path d="M80.3528 33.4648H85.966L83.2524 27.71L79.9066 31.5713L80.3528 33.4648Z" fill="#006EAB"/>
<path d="M79.4233 41.002L78.3826 40.0367L80.6501 38.4402L82.0999 39.2198L79.4233 41.002Z" fill="#F2A495"/>
<path d="M83.3639 38.8114L88.3452 43.1924V41.9301L89.6462 42.6355V37.2519L83.3639 38.8114Z" fill="#F19A00"/>
<path d="M97.0811 40.8902L94.5533 43.6006L90.9103 41.2244V39.368L93.9957 36.9175H96.6723L94.2559 39.368L97.0811 40.8902Z" fill="#F2A495"/>
<path d="M94.1445 47.4617L93.6984 50.5062L95.3341 51.8799L96.7095 46.125L94.1445 47.4617Z" fill="#F2A495"/>
<path d="M102.434 48.3164C104.814 50.1976 109.616 54.0046 109.795 54.1827L108.234 56.8932L108.977 58.007L107.936 59.6406L101.468 54.1827L102.434 48.3164Z" fill="#482728"/>
<path d="M81.6643 56.628L81.1181 60.3102L77.0556 61.4014L76.0997 59.9012L72.5836 59.3897L71.7643 56.0143L81.6643 56.628Z" fill="#F45B45"/>
<path d="M81.5662 63.577L80.9108 62.5015L82.4089 61.0988L84.5156 61.3793L83.5792 63.577L81.5662 64.6523V63.577Z" fill="#F19A00"/>
<path d="M101.228 57.1245L105.301 59.9767L100.152 62.3613L97.8577 60.9118L95.3765 57.1245H101.228Z" fill="#F45B45"/>
<path d="M86.7157 58.7608H90.4609L90.0865 60.7714L87.2775 63.3896L83.7196 61.7065L86.7157 58.7608Z" fill="#D6CFB6"/>
<path d="M74.947 68.0563L73.9493 68.5822L77.2473 68.8867L76.0555 67.2259L74.947 68.0563Z" fill="#F19A00"/>
<path d="M73.3672 41.0132L70.7344 41.6221L69.4318 39.38L72.3695 38.605L74.2263 36.6674L76.6375 37.6085L73.3672 41.0132Z" fill="#D6CFB6"/>
<path d="M88.6095 65.1231L92.3344 68.6592L93.8833 64.5337L95.506 62.9498H91.2648L88.6095 65.1231Z" fill="#F2A495"/>
<path d="M98.8882 98.5024L104.01 88.3564L111.095 91.5111L108.108 99.9518L104.01 99.3549L102.559 100.463L101.193 98.5024H98.8882Z" fill="#F45B45"/>
<path d="M98.9738 103.703L97.2663 102.936L95.5591 104.385L96.4981 104.896L97.2663 106.516L98.9738 103.703Z" fill="#D6CFB6"/>
<path d="M103.156 103.362L102.388 101.742L106.571 103.362L105.803 104.215L103.156 103.362Z" fill="#006EAB"/>
<path d="M93.3395 92.1074H94.7907L97.484 94.1811L94.7907 96.8416H93.3395L89.9626 99.8153L89.4982 95.4325L93.3395 93.5568V92.1074Z" fill="#F2A495"/>
<path d="M93.2854 99.8282L95.4832 96.8281L94.1904 102.352L93.2854 99.8282Z" fill="#F45B45"/>
<path d="M93.0592 100.28L90.3442 97.8701L90.1179 98.9622L91.3623 101.787L93.0592 100.28Z" fill="#F45B45"/>
<path d="M92.795 106.946L91.777 105.854H89.0243L88.4963 107.85L92.795 106.946Z" fill="#F45B45"/>
<path d="M89.0619 109.922L87.6291 108.039L86.7241 108.83L87.3651 111.579L89.0619 109.922Z" fill="#006EAB"/>
<path d="M83.5942 105.365L84.1222 103.595L86.4602 105.365L85.8946 107.361L83.5942 105.365Z" fill="#006EAB"/>
<path d="M78.2773 103.481L77.2592 103.18L78.8052 100.694L84.914 95.4971L85.3288 97.0411L86.5732 98.3217L82.6137 103.481L79.2577 102.803L78.2773 103.481Z" fill="#006EAB"/>
<path d="M79.4839 97.5685L74.6572 91.0529L76.8066 89.7725L78.2773 90.2997L80.766 95.4971V97.5685H79.4839Z" fill="#F2A495"/>
<path d="M78.8805 88.9442L75.3738 86.2325L76.0524 84.7637L78.5412 87.174L78.8805 88.9442Z" fill="#F2A495"/>
<path d="M78.8806 83.068L77.8248 82.5408L80.0119 81.2227L81.2563 81.9381L79.3709 84.6498L78.8806 83.068Z" fill="#D6CFB6"/>
<path d="M82.086 79.0759L77.5609 76.0254H81.8973L82.8401 77.1176L82.086 79.0759Z" fill="#F2A495"/>
<path d="M86.6486 88.4542L89.703 85.1777L91.1359 87.4751L90.3817 89.0192L88.6094 88.6426L87.4781 89.8854L86.6486 88.4542Z" fill="#482728"/>
<path d="M88.2702 85.8172H85.0649L85.8945 81.5615L92.6444 79.377L94.4166 83.181L90.1933 87.3991L88.2702 85.8172Z" fill="#F45B45"/>
<path d="M89.6276 77.4564L89.1752 74.8955L91.3623 75.385L92.305 76.6279L94.5675 77.4564L95.0577 84.198L90.3817 83.0681L90.0801 79.5655L89.1752 78.4733L89.6276 77.4564Z" fill="#F19A00"/>
<path d="M86.196 77.8711L88.1569 78.097L85.7435 80.3944L86.196 77.8711Z" fill="#F45B45"/>
<path d="M70.4338 77.6451L71.2634 77.3438L70.9995 80.9594L69.7174 80.0932L70.4338 77.6451Z" fill="#D6CFB6"/>
<path d="M73.2244 90.1866L72.4701 88.9814L70.3962 89.2827L69.7552 90.5255L71.7537 91.3541L73.2244 90.1866Z" fill="#D6CFB6"/>
<path d="M72.093 99.5264L73.1112 98.8486L74.2426 100.995L73.2997 102.803L72.093 99.5264Z" fill="#006EAB"/>
<path d="M75.8262 104.498L75.5623 103.632L78.4282 104.724L77.7871 106.306L75.8262 104.498Z" fill="#F2A495"/>
<path d="M69.3026 113.085L69.6796 106.645L73.3752 104.988L74.2802 104.009L75.4491 104.348L76.5804 104.009H77.5231L76.5804 109.319L76.2409 113.085L74.9211 112.445L72.6964 113.462L69.3026 113.085Z" fill="#F45B45"/>
<path d="M78.466 111.805L77.4855 110.938L78.466 109.846L82.4253 108.679L82.991 110.938L82.086 110.562L78.466 111.805Z" fill="#006EAB"/>
<path d="M71.8292 75.1973L70.17 74.557L72.6588 71.431L73.4883 70.5648L75.4492 70.9038L77.9002 69.4727L79.8989 70.1881L78.2396 72.2596L75.7508 75.1973L72.6588 74.557L71.8292 75.1973Z" fill="#006EAB"/>
<path d="M81.3317 91.5052L79.8609 90.865L80.7283 89.7351L83.0286 89.0947L83.4434 89.7351L81.3317 91.5052Z" fill="#F45B45"/>
<path d="M86.8748 96.4009C86.3594 96.9909 85.3061 98.2011 85.2155 98.3216L85.8567 99.7529L87.2142 97.6814L89.4012 97.1918L88.4208 95.8359L86.8748 96.4009Z" fill="#006EAB"/>
<path d="M86.3469 113.989L85.3665 112.444H87.893L89.4391 114.252L86.3469 113.989Z" fill="#006EAB"/>
<path d="M94.492 114.29L91.9656 111.767L96.3397 111.202L98.64 109.093L99.1301 110.486L98.3761 112.294L96.3397 114.29H94.492Z" fill="#F45B45"/>
<path d="M104.9 113.236L103.014 110.223L107.238 105.93L108.105 107.097L107.238 108.641L107.615 109.545L106.521 112.295L104.9 113.236Z" fill="#482728"/>
<path d="M113.384 114.328L109.01 113.876L109.877 112.257L112.894 112.634L113.384 114.328Z" fill="#F45B45"/>
<path d="M112.932 111.278L111.914 110.637L112.366 108.528L114.176 109.244L112.932 111.278Z" fill="#F19A00"/>
<path d="M113.987 106.469L109.01 101.46V99.3507L112.102 97.0156L114.289 101.196L113.987 106.469Z" fill="#D6CFB6"/>
<path d="M108.293 83.746L107.728 82.8798L110.405 80.0928L112.102 80.4695L108.293 85.2902V83.746Z" fill="#F45B45"/>
<path d="M104.636 78.097L100.714 75.0464L100.299 73.7283L102.411 72.4854L105.051 70.753L106.597 70.2256L107.577 71.8827L107.351 74.8204L106.597 75.9126L105.993 77.758L105.315 77.3814L104.636 78.097Z" fill="#006EAB"/>
<path d="M111.384 70.2491L109.895 69.5195L109.516 71.9888L111.384 70.2491Z" fill="#F19A00"/>
<path d="M110.246 77.8286L109.425 73.9529L114.027 73.6299L114.176 77.0583L111.838 78.549L110.246 77.8286Z" fill="#F19A00"/>
<path d="M86.2989 73.563L85.0821 71.1537L87.6414 69.3518L93.4101 69.2471L95.0883 71.3422L93.8925 73.563H86.2989Z" fill="#F19A00"/>
<path d="M70.2932 126.211C70.1407 126.972 69.8155 128.577 69.7341 128.902L73.8513 130.628L77.3584 128.039L76.6469 126.211V125.094L75.0203 123.419L73.8513 125.094L70.2932 126.211Z" fill="#006EAB"/>
<path d="M78.7817 123.572L77.9175 121.998H80.3065L83.0513 122.963L81.6789 124.029L78.7817 123.572Z" fill="#D6CFB6"/>
<path d="M84.9827 127.176L84.3729 124.993L86.101 123.267L86.6601 124.993L87.6259 125.703L86.6601 126.871L84.9827 127.176Z" fill="#482728"/>
<path d="M75.5795 134.283L74.7662 132.913L75.9861 131.999L76.5452 132.913H77.7143V133.979L75.5795 134.283Z" fill="#006EAB"/>
<path d="M83.0006 140.325L78.9342 135.045L87.6768 131.847L91.4381 133.471L85.5928 138.142L84.8812 139.817L83.0006 140.325Z" fill="#482728"/>
<path d="M97.6391 132.456L92.5563 127.633L99.1133 124.536L100.74 129.46L97.6391 132.456Z" fill="#F2A495"/>
<path d="M87.8292 123.064L87.2192 124.13L85.1351 123.419L85.9485 121.744L87.8292 123.064Z" fill="#F45B45"/>
<path d="M86.9143 118.088L86.6602 117.631L88.1342 116.515L88.795 117.631L86.9143 118.088Z" fill="#F2A495"/>
<path d="M81.9839 150.579L71.2081 145.198L70.5474 144.234L71.7673 143.827L74.2579 138.294L82.6446 141.086L83.1021 143.827L81.9839 145.401L83.1021 147.127L81.9839 147.939V150.579Z" fill="#006EAB"/>
<path d="M85.7961 151.95L86.4569 150.427L89.659 152.254L87.6767 152.813L86.9651 153.981L85.7961 151.95Z" fill="#D6CFB6"/>
<path d="M86.3043 146.111L84.8812 146.924L84.5254 145.705L86.3043 142.608L87.1176 143.268L86.3043 146.111Z" fill="#F2A495"/>
<path d="M92.9629 146.163L88.5408 142.203L89.964 141.137L91.3872 142.203L92.4038 141.695L95.3011 142.71L96.1143 144.335L92.9629 146.163Z" fill="#F45B45"/>
<path d="M97.0801 142.71L96.2161 143.319L96.5718 146.467L98.9608 147.99L100.079 145.705L97.0801 142.71Z" fill="#F19A00"/>
<path d="M96.6227 140.933L94.9453 139.512L95.5553 136.669L97.0801 135.907L96.6227 140.933Z" fill="#F19A00"/>
<path d="M95.0469 135.248L94.4369 136.162L92.5055 135.248L93.3187 134.334L95.0469 135.248Z" fill="#F19A00"/>
<path d="M101.146 133.369L99.6215 133.014L102.214 130.526H103.993L101.146 133.369Z" fill="#F19A00"/>
<path d="M110.55 141.745L110.906 146.72L103.789 145.248L107.144 138.547L110.55 141.745Z" fill="#F45B45"/>
<path d="M108.262 148.955L109.228 147.686L110.042 148.447L109.787 148.955L110.042 150.884L109.228 151.95L108.262 148.955Z" fill="#F2A495"/>
<path d="M111.16 136.771L109.381 137.583L108.618 133.979L110.245 134.638L111.16 136.771Z" fill="#482728"/>
<path d="M102.061 157.28L99.469 157.635L98.8082 156.417L102.061 155.249L103.281 155.807L102.061 157.28Z" fill="#482728"/>
<path d="M101.096 154.691L94.5387 157.229L94.1828 156.062L94.5387 153.93L93.3697 152.254L92.353 151.544L91.7432 150.63L93.3697 150.122L101.096 154.691Z" fill="#F19A00"/>
<path d="M88.6425 156.518L89.8116 155.198L90.1673 159.513L88.6425 158.295V156.518Z" fill="#D6CFB6"/>
<path d="M82.6447 156.163L84.8813 155.25L79.1884 153.574L82.6447 156.163Z" fill="#D6CFB6"/>
<path d="M85.1861 156.677L83.5597 155.713L81.6282 159.267L83.5597 158.962L85.1861 156.677Z" fill="#F2A495"/>
<path d="M79.2391 152.621L76.9519 151.656L74.7662 152.164V154.956L76.3928 155.768L78.2735 159.119L82.7464 158.814L81.5773 156.987L80.9674 154.956L79.2391 152.621Z" fill="#F45B45"/>
<path d="M104.552 154.159L107.246 151.773L110.906 155.632L108.567 157.409L109.584 159.541L105.975 158.221L104.552 154.159Z" fill="#F19A00"/>
<path d="M112.187 140.333L111.412 138.675L112.187 138.177V136.906L113.792 136.574L114.069 139.117L112.187 140.333Z" fill="#F19A00"/>
<path d="M106.652 120.598L106.154 119.879L109.475 118.829L110.859 119.879L106.652 120.598Z" fill="#482728"/>
<path d="M106.098 118.994L101.117 122.975L95.1945 120.377L96.4121 119.492L95.8032 118.994L97.7407 115.069L100.785 116.009L105.711 115.069L106.098 118.994Z" fill="#482728"/>
<path d="M110.25 125.517L112.796 122.256L114.069 123.14L113.681 127.452L111.965 127.784L110.25 125.517Z" fill="#F2A495"/>
<path d="M114.069 132.705V129.388L112.131 131.101V132.096L114.069 132.705Z" fill="#D6CFB6"/>
<path d="M113.51 192.788C113.662 192.027 113.987 190.422 114.069 190.097L109.951 188.371L106.444 190.96L107.156 192.788V193.905L108.782 195.58L109.951 193.905L113.51 192.788Z" fill="#D6CFB6"/>
<path d="M105.021 195.428L105.885 197.002H103.496L100.751 196.037L102.124 194.971L105.021 195.428Z" fill="#D6CFB6"/>
<path d="M98.82 191.823L99.4298 194.006L97.7017 195.732L97.1426 194.006L96.1768 193.296L97.1426 192.128L98.82 191.823Z" fill="#F19A00"/>
<path d="M108.223 184.717L109.036 186.087L107.817 187.001L107.258 186.087H106.088V185.021L108.223 184.717Z" fill="#F2A495"/>
<path d="M100.802 178.675L104.869 183.955L96.1259 187.153L92.3646 185.529L98.2099 180.858L98.9215 179.183L100.802 178.675Z" fill="#482728"/>
<path d="M86.1636 186.544L91.2465 191.367L84.6894 194.464L83.0629 189.54L86.1636 186.544Z" fill="#F19A00"/>
<path d="M95.9734 195.936L96.5834 194.87L98.6675 195.581L97.8542 197.256L95.9734 195.936Z" fill="#F2A495"/>
<path d="M96.8884 200.912L97.1426 201.369L95.6685 202.485L95.0078 201.369L96.8884 200.912Z" fill="#006EAB"/>
<path d="M101.819 168.421L112.595 173.802L113.255 174.766L112.035 175.173L109.545 180.706L101.158 177.914L100.701 175.173L101.819 173.599L100.701 171.873L101.819 171.061V168.421Z" fill="#F19A00"/>
<path d="M98.0065 167.05L97.3457 168.573L94.1436 166.746L96.1259 166.187L96.8375 165.019L98.0065 167.05Z" fill="#F45B45"/>
<path d="M97.4985 172.888L98.9215 172.075L99.2773 173.294L97.4985 176.391L96.6851 175.731L97.4985 172.888Z" fill="#006EAB"/>
<path d="M90.8398 172.837L95.262 176.797L93.8387 177.863L92.4155 176.797L91.3989 177.305L88.5016 176.29L87.6884 174.665L90.8398 172.837Z" fill="#D6CFB6"/>
<path d="M86.7226 176.29L87.5867 175.681L87.2309 172.533L84.842 171.01L83.7237 173.295L86.7226 176.29Z" fill="#006EAB"/>
<path d="M87.18 178.067L88.8574 179.488L88.2475 182.331L86.7226 183.093L87.18 178.067Z" fill="#F2A495"/>
<path d="M88.7557 183.752L89.3657 182.838L91.2971 183.752L90.4839 184.666L88.7557 183.752Z" fill="#482728"/>
<path d="M82.6563 185.631L84.1813 185.986L81.5889 188.474H79.8099L82.6563 185.631Z" fill="#F19A00"/>
<path d="M73.2531 177.254L72.8972 172.279L80.0133 173.751L76.6585 180.452L73.2531 177.254Z" fill="#F45B45"/>
<path d="M75.5403 170.045L74.5746 171.314L73.7612 170.553L74.0154 170.045L73.7612 168.116L74.5746 167.05L75.5403 170.045Z" fill="#006EAB"/>
<path d="M72.643 182.229L74.422 181.417L75.1844 185.021L73.5579 184.362L72.643 182.229Z" fill="#F19A00"/>
<path d="M81.7413 161.719L84.3337 161.364L84.9945 162.582L81.7413 163.75L80.5215 163.192L81.7413 161.719Z" fill="#F45B45"/>
<path d="M82.7072 164.309L89.264 161.771L89.6199 162.938L89.264 165.07L90.4331 166.746L91.4497 167.456L92.0596 168.37L90.4331 168.878L82.7072 164.309Z" fill="#006EAB"/>
<path d="M95.1602 162.481L93.991 163.801L93.6353 159.486L95.1602 160.704V162.481Z" fill="#F2A495"/>
<path d="M101.158 162.837L98.9215 163.75L104.614 165.426L101.158 162.837Z" fill="#482728"/>
<path d="M98.6165 162.322L100.243 163.286L102.174 159.733L100.243 160.037L98.6165 162.322Z" fill="#F19A00"/>
<path d="M104.564 166.379L106.851 167.344L109.036 166.836V164.044L107.41 163.232L105.529 159.881L101.056 160.186L102.225 162.013L102.835 164.044L104.564 166.379Z" fill="#F45B45"/>
<path d="M79.2509 164.841L76.5568 167.227L72.8972 163.368L75.2353 161.591L74.2187 159.459L77.8276 160.779L79.2509 164.841Z" fill="#F45B45"/>
<path d="M71.6158 178.667L72.3906 180.325L71.6158 180.823V182.094L70.0106 182.426L69.7338 179.883L71.6158 178.667Z" fill="#006EAB"/>
<path d="M77.1508 198.402L77.6489 199.121L74.328 200.171L72.9442 199.121L77.1508 198.402Z" fill="#D6CFB6"/>
<path d="M77.7043 200.006L82.6858 196.025L88.6083 198.623L87.3906 199.508L87.9995 200.006L86.0621 203.931L83.0179 202.991L78.0917 203.931L77.7043 200.006Z" fill="#482728"/>
<path d="M73.5531 193.483L71.0069 196.744L69.7339 195.86L70.1213 191.548L71.8372 191.216L73.5531 193.483Z" fill="#F2A495"/>
<path d="M69.734 186.295V189.612L71.6713 187.899V186.904L69.734 186.295Z" fill="#F45B45"/>
<path d="M102.632 205.631C101.87 205.478 100.263 205.153 99.9381 205.072L98.21 209.184L100.802 212.687L102.632 211.976H103.75L105.428 210.352L103.75 209.184L102.632 205.631Z" fill="#F2A495"/>
<path d="M105.275 214.109L106.851 213.246V215.632L105.885 218.374L104.818 217.003L105.275 214.109Z" fill="#F2A495"/>
<path d="M101.666 220.301L103.852 219.692L105.58 221.418L103.852 221.977L103.14 222.941L101.971 221.977L101.666 220.301Z" fill="#F2A495"/>
<path d="M94.5502 210.911L95.9226 210.099L96.8375 211.317L95.9226 211.875V213.043H94.8552L94.5502 210.911Z" fill="#F19A00"/>
<path d="M88.5017 218.322L93.788 214.261L96.9902 222.993L95.3637 226.749L90.6875 220.911L89.0101 220.2L88.5017 218.322Z" fill="#F2A495"/>
<path d="M96.3803 232.943L101.209 227.866L104.31 234.415L99.3791 236.04L96.3803 232.943Z" fill="#D6CFB6"/>
<path d="M105.784 223.145L104.716 222.536L105.428 220.454L107.105 221.266L105.784 223.145Z" fill="#F45B45"/>
<path d="M110.765 222.231L111.222 221.978L112.341 223.45L111.222 224.11L110.765 222.231Z" fill="#F45B45"/>
<path d="M78.2342 217.307L83.6222 206.545L84.5878 205.885L84.9945 207.103L90.5348 209.591L87.7393 217.967L84.9945 218.424L83.4188 217.307L81.6906 218.424L80.8773 217.307H78.2342Z" fill="#F45B45"/>
<path d="M76.862 221.114L78.387 221.774L76.557 224.972L75.9979 222.993L74.8288 222.282L76.862 221.114Z" fill="#D6CFB6"/>
<path d="M82.7073 221.621L81.8941 220.2L83.1139 219.845L86.2146 221.621L85.5538 222.434L82.7073 221.621Z" fill="#F19A00"/>
<path d="M82.6564 228.272L86.621 223.855L87.6885 225.277L86.621 226.698L87.1293 227.714L86.1127 230.607L84.4862 231.42L82.6564 228.272Z" fill="#F45B45"/>
<path d="M86.1129 232.384L85.5029 231.521L82.3515 231.877L80.8266 234.263L83.1139 235.38L86.1129 232.384Z" fill="#F19A00"/>
<path d="M87.892 231.927L89.3153 230.252L92.1615 230.861L92.9241 232.384L87.892 231.927Z" fill="#482728"/>
<path d="M93.5846 230.354L92.6697 229.744L93.5846 227.815L94.4995 228.628L93.5846 230.354Z" fill="#F45B45"/>
<path d="M95.4654 236.446L95.8211 234.923L98.3118 237.512V239.289L95.4654 236.446Z" fill="#F2A495"/>
<path d="M87.0787 245.837L82.0974 246.192L83.5714 239.085L90.2809 242.436L87.0787 245.837Z" fill="#D6CFB6"/>
<path d="M79.861 243.553L81.1316 244.517L80.3692 245.33L79.861 245.076L77.9294 245.33L76.862 244.517L79.861 243.553Z" fill="#D6CFB6"/>
<path d="M92.0597 246.447L91.2465 244.67L94.8553 243.908L94.1946 245.533L92.0597 246.447Z" fill="#006EAB"/>
<path d="M71.5249 237.359L71.169 234.77L72.3891 234.11L73.5581 237.359L72.9989 238.578L71.5249 237.359Z" fill="#D6CFB6"/>
<path d="M74.1173 236.396L71.5757 229.847L72.7448 229.491L74.8797 229.847L76.557 228.679L77.2686 227.664L78.1836 227.055L78.6919 228.679L74.1173 236.396Z" fill="#F2A495"/>
<path d="M72.2874 223.957L73.609 225.125L69.2885 225.48L70.5084 223.957H72.2874Z" fill="#482728"/>
<path d="M72.6431 217.967L73.558 220.201L75.2355 214.515L72.6431 217.967Z" fill="#F2A495"/>
<path d="M72.128 220.506L73.0938 218.881L69.5357 216.952L69.8407 218.881L72.128 220.506Z" fill="#006EAB"/>
<path d="M76.19 214.566L77.1559 212.282L76.6475 210.099H73.852L73.0386 211.723L69.6839 213.602L69.9889 218.069L71.8187 216.901L73.852 216.292L76.19 214.566Z" fill="#D6CFB6"/>
<path d="M74.6493 239.847L77.0383 242.537L73.1753 246.193L71.3963 243.857L69.2614 244.873L70.583 241.268L74.6493 239.847Z" fill="#F2A495"/>
<path d="M88.4928 247.472L90.1533 246.698L90.6513 247.472H91.9244L92.2566 249.075L89.7105 249.352L88.4928 247.472Z" fill="#D6CFB6"/>
<path d="M108.253 241.945L108.972 241.447L110.024 244.764L108.972 246.146L108.253 241.945Z" fill="#D6CFB6"/>
<path d="M109.858 241.391L105.873 236.416L108.474 230.501L109.36 231.717L109.858 231.109L113.788 233.044L112.847 236.084L113.788 241.004L109.858 241.391Z" fill="#F2A495"/>
<path d="M103.327 245.538L106.592 248.081L105.707 249.353L101.389 248.966L101.057 247.252L103.327 245.538Z" fill="#F45B45"/>
<path d="M96.131 249.352H99.452L97.7362 247.417H96.7399L96.131 249.352Z" fill="#D6CFB6"/>
<path d="M110.412 279.054H112.712L113.516 280.294L112.712 289.338L108.221 291.599L106.834 293.021L105.081 293.714L104.497 289.192L105.52 287.514V285.217L107.09 281.497V279.054L108.221 277.632L110.412 279.054Z" fill="#F2A495"/>
<path d="M104.442 278.285L105.198 282.221L104.172 282.868L101.905 282.221L100.285 282.868H96.6147L92.4583 273.11L92.8362 271.978L91.5946 269.39L93.1061 268.473L96.9386 272.571L99.1518 273.11L101.905 275.59V276.722L104.442 278.285Z" fill="#F19A00"/>
<path d="M91.5405 279.957L92.7821 281.79L90.1371 282.922L89.5973 282.383L91.5405 279.957Z" fill="#006EAB"/>
<path d="M93.4839 283.461L93.8617 289.769L89.7593 288.69L88.2478 280.873L93.4839 283.461Z" fill="#D6CFB6"/>
<path d="M88.8415 289.23L90.2451 290.039L89.2194 292.519H88.3558L87.4921 291.979L88.8415 289.23Z" fill="#482728"/>
<path d="M84.0372 279.956L86.1965 283.299L85.7647 284.647L82.5259 286.372L80.5286 285.887L75.0766 277.638L76.8579 275.967L79.557 277.638L84.0372 279.956Z" fill="#F2A495"/>
<path d="M76.0483 282.707L75.2926 284.108L77.9376 285.187L80.5828 283.03L80.1508 282.113L76.0483 282.707Z" fill="#006EAB"/>
<path d="M79.8809 273.702H82.9038L80.5826 275.967L78.8552 274.619L79.8809 273.702Z" fill="#006EAB"/>
<path d="M79.5029 268.527L82.094 271.816L79.8268 273.056L78.6933 271.816L78.2614 269.066L79.5029 268.527Z" fill="#482728"/>
<path d="M91.7565 266.693L91.3788 268.473L87.1143 265.076H88.3558L89.1115 264.213L91.7565 266.693Z" fill="#F19A00"/>
<path d="M86.8983 267.179L85.4409 270.036L81.3923 267.179V265.939L76.4801 260.925L77.3438 259.685H78.3694L79.1791 259.254L80.2587 259.685L81.0685 259.254L82.148 259.685L84.847 264.321L86.5744 265.615L86.8983 267.179Z" fill="#D6CFB6"/>
<path d="M75.8323 267.449L77.2898 268.527L76.966 271.708H74.6988L75.8323 267.449Z" fill="#F19A00"/>
<path d="M94.0776 265.777L95.535 265.077L97.2625 266.263L96.2369 267.557L94.0776 267.125V265.777Z" fill="#D6CFB6"/>
<path d="M70.3263 278.878L71.6219 278.501V282.49L69.7866 281.304L70.3263 278.878Z" fill="#F45B45"/>
<path d="M99.0438 269.335L97.9101 269.928L101.311 273.702L102.337 270.899L99.0438 269.335Z" fill="#F2A495"/>
<path d="M104.13 268.116L106.272 267.874L107.205 269.462L105.961 270.083L105.409 269.22H104.372L104.13 268.116Z" fill="#F2A495"/>
<path d="M106.099 264.838L107.931 260.835L105.823 260.144L104.441 264.458L106.099 264.838Z" fill="#D6CFB6"/>
<path d="M102.057 262.767L105.858 258.384V255.451L104.095 255.623L101.331 258.66H99.3963L98.1178 259.454V260.834L100.606 263.043L102.057 262.767Z" fill="#F19A00"/>
<path d="M105.858 262.767L107.412 264.527L109.106 263.078L107.101 261.18L105.858 262.767Z" fill="#D6CFB6"/>
<path d="M111.568 262.03L114.471 257.993L107.491 253.782L106.558 255.163L107.767 256.681L108.147 257.993L111.568 262.03Z" fill="#F2A495"/>
<path d="M100.364 255.002V256.486L97.4613 254.071L98.1523 252.035L100.364 255.002Z" fill="#F2A495"/>
<path d="M95.535 250.611L95.0337 257.788L94.4488 259.068L92.8333 260.069L85.8421 262.072L85.2571 261.571L95.0337 250.054L95.535 250.611Z" fill="#F2A495"/>
<path d="M86.2041 255.229L86.0371 253.003L89.2123 253.699L91.8027 257.232L87.7361 259.847L84.8393 256.759L86.2041 255.229Z" fill="#F45B45"/>
<path d="M90.9114 250.388L90.3543 253.393L86.9005 250.388H90.9114Z" fill="#482728"/>
<path d="M82.2346 253.129L84.1007 254.603L80.3962 256.217L80.0898 255.16L82.2346 253.129Z" fill="#F45B45"/>
<path d="M91.9004 293.602L92.8287 291.284L94.5308 293.602L93.0762 294.653L91.9004 293.602Z" fill="#F2A495"/>
<path d="M73.7873 276.815L75.6143 270.82L73.6213 271.199L71.9842 275.986L73.7873 276.815Z" fill="#006EAB"/>
<path d="M73.5237 261.094V263.694L71.1333 263.498L69.3322 261.634L70.511 259.622L71.8045 259.426L73.5237 261.094Z" fill="#F2A495"/>
<path d="M78.7024 253.445L79.3508 255.829L76.9487 258.008H72.8812L69.9191 255.241L70.3317 253.445L74.2076 253.548L76.7423 253.003L78.7024 253.445Z" fill="#482728"/>
<path d="M118.588 39.9458H116.288L115.484 38.7059L116.288 29.6622L120.779 27.4012L122.166 25.979L123.919 25.2861L124.503 29.8082L123.481 31.4855V33.7828L121.911 37.5026V39.9458L120.779 41.3681L118.588 39.9458Z" fill="#482728"/>
<path d="M124.558 40.7145L123.802 36.7788L124.828 36.1318L127.095 36.7788L128.715 36.1318H132.385L136.542 45.8902L136.164 47.0223L137.406 49.6102L135.894 50.5267L132.061 46.4293L129.848 45.8902L127.095 43.4102V42.2779L124.558 40.7145Z" fill="#482728"/>
<path d="M137.459 39.0435L136.218 37.2103L138.863 36.0781L139.403 36.6173L137.459 39.0435Z" fill="#482728"/>
<path d="M135.516 35.5393L135.138 29.2314L139.241 30.3097L140.752 38.1272L135.516 35.5393Z" fill="#D6CFB6"/>
<path d="M140.158 29.7702L138.755 28.9615L139.781 26.4814H140.644L141.508 27.0206L140.158 29.7702Z" fill="#D6CFB6"/>
<path d="M144.963 39.0437L142.803 35.701L143.235 34.3532L146.474 32.6279L148.471 33.1131L153.923 41.3619L152.142 43.0332L149.443 41.3619L144.963 39.0437Z" fill="#F45B45"/>
<path d="M152.952 36.2934L153.707 34.8918L151.062 33.8135L148.417 35.97L148.849 36.8866L152.952 36.2934Z" fill="#F19A00"/>
<path d="M149.119 45.2977H146.096L148.417 43.0332L150.145 44.3811L149.119 45.2977Z" fill="#F2A495"/>
<path d="M149.497 50.473L146.906 47.1844L149.173 45.9443L150.307 47.1844L150.739 49.9339L149.497 50.473Z" fill="#D6CFB6"/>
<path d="M137.244 52.3055L137.621 50.5264L141.886 53.9229H140.644L139.889 54.7855L137.244 52.3055Z" fill="#F2A495"/>
<path d="M142.102 51.8203L143.559 48.9629L147.608 51.8203V53.0603L152.52 58.0743L151.656 59.3142H150.631L149.821 59.7455L148.741 59.3142L147.932 59.7455L146.852 59.3142L144.153 54.6777L142.426 53.3837L142.102 51.8203Z" fill="#482728"/>
<path d="M153.168 51.5512L151.71 50.4728L152.034 47.292H154.301L153.168 51.5512Z" fill="#F45B45"/>
<path d="M134.922 53.2227L133.465 53.9234L131.738 52.7373L132.763 51.4434L134.922 51.8748V53.2227Z" fill="#F19A00"/>
<path d="M158.674 40.122L157.378 40.4994V36.5098L159.213 37.6959L158.674 40.122Z" fill="#F2A495"/>
<path d="M129.956 49.6646L131.09 49.0717L127.689 45.2979L126.663 48.1012L129.956 49.6646Z" fill="#482728"/>
<path d="M124.87 50.884L122.728 51.1256L121.795 49.5382L123.039 48.917L123.591 49.7798H124.628L124.87 50.884Z" fill="#F45B45"/>
<path d="M122.901 54.1621L121.069 58.1653L123.177 58.8555L124.559 54.5417L122.901 54.1621Z" fill="#F45B45"/>
<path d="M126.943 56.2331L123.142 60.6159V63.5494L124.905 63.3768L127.669 60.3399H129.604L130.882 59.5462V58.1657L128.395 55.957L126.943 56.2331Z" fill="#F45B45"/>
<path d="M123.142 56.2327L121.588 54.4727L119.894 55.9221L121.899 57.8202L123.142 56.2327Z" fill="#F2A495"/>
<path d="M117.432 56.9697L114.529 61.0074L121.509 65.2177L122.442 63.8373L121.233 62.3188L120.853 61.0074L117.432 56.9697Z" fill="#482728"/>
<path d="M128.636 63.9976V62.5137L131.539 64.9293L130.848 66.9655L128.636 63.9976Z" fill="#F19A00"/>
<path d="M133.465 68.3892L133.966 61.212L134.551 59.9323L136.167 58.9308L143.158 56.9277L143.743 57.4286L133.966 68.9457L133.465 68.3892Z" fill="#006EAB"/>
<path d="M142.796 63.7703L142.963 65.9959L139.788 65.3003L137.197 61.7673L141.264 59.1523L144.161 62.2403L142.796 63.7703Z" fill="#482728"/>
<path d="M138.089 68.6109L138.646 65.6064L142.1 68.6109H138.089Z" fill="#006EAB"/>
<path d="M146.766 65.8709L144.899 64.3966L148.604 62.7832L148.91 63.8403L146.766 65.8709Z" fill="#F2A495"/>
<path d="M137.1 25.3975L136.171 27.7156L134.469 25.3975L135.924 24.3467L137.1 25.3975Z" fill="#F45B45"/>
<path d="M155.213 42.1836L153.386 48.1788L155.379 47.7997L157.016 43.013L155.213 42.1836Z" fill="#F45B45"/>
<path d="M155.476 57.9059V55.3057L157.867 55.502L159.668 57.3661L158.489 59.3775L157.195 59.5738L155.476 57.9059Z" fill="#F45B45"/>
<path d="M150.298 65.5551L149.649 63.1706L152.051 60.9922H156.119L159.081 63.7594L158.668 65.5551L154.792 65.452L152.258 65.9967L150.298 65.5551Z" fill="#F2A495"/>
<path d="M142.122 99.4026V101.871L146.748 101.048L150.614 97.1241L151.438 94.3392L156.064 89.5289L155.113 87.7567L141.552 93.3265L141.235 95.8582L142.882 98.0102L142.122 99.4026Z" fill="#D6CFB6"/>
<path d="M144.657 88.1359L143.009 89.2119L141.361 86.9333L142.122 86.2371L144.657 88.1359Z" fill="#F2A495"/>
<path d="M135.151 86.9332L134.581 90.4775H141.361L143.706 84.5913L135.151 86.9332Z" fill="#F45B45"/>
<path d="M132.553 84.3379L131.982 85.477L134.327 86.9961L135.024 85.477L132.553 84.3379Z" fill="#482728"/>
<path d="M127.546 86.8703L129.638 87.8198L127.546 89.6553L126.406 88.1995L127.546 86.8703Z" fill="#D6CFB6"/>
<path d="M129.131 80.2243L131.602 79.8444L129.701 86.4902L127.293 85.5409L125.899 82.5028L126.659 74.8443L129.131 80.2243Z" fill="#F45B45"/>
<path d="M122.033 78.7048L123.998 81.0467L121.336 81.6797L120.385 81.0467L122.033 78.7048Z" fill="#F45B45"/>
<path d="M119.371 95.9846L120.892 96.6807L119.371 100.035L115.696 101.428V100.035L118.041 98.1999V95.9846L119.815 94.7187L119.371 95.9846Z" fill="#F45B45"/>
<path d="M141.108 83.1992L138.066 78.3256L139.27 75.9839L146.875 71.6166L147.889 72.7559L146.875 76.8067L141.108 83.1992Z" fill="#006EAB"/>
<path d="M141.868 72.6287L140.221 71.8059L139.524 74.8441L141.361 77.6289L142.312 76.553L141.868 72.6287Z" fill="#F2A495"/>
<path d="M135.405 76.6799L131.792 75.8572L129.764 77.4395L127.356 72.1228L128.624 69.7177H133.82L135.848 72.1228L134.834 73.3254L135.405 76.6799Z" fill="#F19A00"/>
<path d="M120.829 83.7059L122.793 87.0605H114.745L115.569 84.0857L120.829 83.7059Z" fill="#482728"/>
<path d="M153.022 71.4263V73.5149L155.937 73.958L157.141 72.5656L153.022 71.4263Z" fill="#F19A00"/>
<path d="M152.261 69.6541L154.163 71.6161L150.867 72.249L148.016 69.6541H152.261Z" fill="#D6CFB6"/>
<path d="M155.43 74.7807L156 75.9833L152.705 78.6416L151.501 76.6795L152.705 75.4136H154.606L155.43 74.7807Z" fill="#F2A495"/>
<path d="M150.677 76.8068V79.5918L148.523 77.2499L150.043 75.541L150.677 76.8068Z" fill="#F45B45"/>
<path d="M158.345 93.832L159.612 92.2498L158.979 90.5408H157.458L156.887 92.946L158.345 93.832Z" fill="#482728"/>
<path d="M154.606 94.7184L155.24 95.6678L153.909 99.0225L150.55 98.2629L154.606 94.7184Z" fill="#482728"/>
<path d="M156.761 100.731V102.693L155.303 103.896L154.289 102.693L155.303 102.06V100.731H156.761Z" fill="#F19A00"/>
<path d="M151.707 113.827L156.361 112.17L155.071 107.706H152.398V109.271L151.707 109.639V113.827Z" fill="#F2A495"/>
<path d="M157.537 88.1699L156.219 87.5719L159.244 84.1625L158.974 85.8971L159.573 86.2859L157.537 88.1699Z" fill="#F2A495"/>
<path d="M120.046 71.6379L119.307 73.5654H116.843L115.406 71.884L115.817 70.5306L118.24 70.1205L120.046 71.6379Z" fill="#F19A00"/>
<path d="M119.225 75.1653L118.691 73.2787L117.952 72.6635L114.585 73.5658V77.749L116.967 77.3389L119.225 75.1653Z" fill="#F45B45"/>
<path d="M145.466 109.983L135.136 109.559L132.518 104.259H131.81L130.607 101.432L135.56 100.796L137.046 102.209H139.381L147.023 104.895L145.466 107.298V109.983Z" fill="#D6CFB6"/>
<path d="M132.895 109.827L130.517 112.568L125.87 107.086V104.601L132.895 109.827Z" fill="#F45B45"/>
<path d="M135.933 110.521L136.957 112.385L135.567 111.983L133.847 112.604L133.554 110.814L135.933 110.521Z" fill="#006EAB"/>
<path d="M124.406 111.911L122.943 113.921L115.112 108.695L118.515 103.907L124.406 111.911Z" fill="#F2A495"/>
<path d="M157.973 83.6719L154.514 81.7779L156.31 78.2892L158.705 77.824V81.7779L157.973 83.6719Z" fill="#006EAB"/>
<path d="M129.475 141.946H127.003L127.827 146.566L131.756 150.427L134.544 151.25L139.361 155.87L141.135 154.921L135.558 141.376L133.023 141.06L130.869 142.705L129.475 141.946Z" fill="#F19A00"/>
<path d="M140.755 144.478L139.677 142.832L141.959 141.187L142.656 141.946L140.755 144.478Z" fill="#F2A495"/>
<path d="M141.959 134.984L138.41 134.414V141.186L144.303 143.528L141.959 134.984Z" fill="#D6CFB6"/>
<path d="M144.557 132.389L143.416 131.819L141.896 134.161L143.416 134.857L144.557 132.389Z" fill="#F19A00"/>
<path d="M142.022 127.388L141.071 129.477L139.234 127.388L140.691 126.249L142.022 127.388Z" fill="#006EAB"/>
<path d="M148.676 128.971L149.057 131.439L142.402 129.541L143.353 127.135L146.395 125.743L154.063 126.503L148.676 128.971Z" fill="#F19A00"/>
<path d="M150.197 121.882L147.852 123.844L147.219 121.186L147.852 120.236L150.197 121.882Z" fill="#F19A00"/>
<path d="M132.897 119.224L132.2 120.743L128.841 119.224L127.447 115.553H128.841L130.678 117.895H132.897L134.164 119.667L132.897 119.224Z" fill="#F19A00"/>
<path d="M145.698 140.934L150.577 137.896L152.922 139.098L157.295 146.693L156.154 147.706L152.098 146.693L145.698 140.934Z" fill="#F2A495"/>
<path d="M156.281 141.693L157.105 140.048L154.063 139.352L151.274 141.187L152.352 142.136L156.281 141.693Z" fill="#D6CFB6"/>
<path d="M152.225 135.238L153.049 131.63L151.465 129.605L156.788 127.199L159.196 128.465V133.655L156.788 135.681L155.584 134.668L152.225 135.238Z" fill="#482728"/>
<path d="M145.191 120.68L141.832 122.642V114.604L144.81 115.426L145.191 120.68Z" fill="#482728"/>
<path d="M157.485 152.833H155.394L154.95 155.744L156.344 156.947L157.485 152.833Z" fill="#F19A00"/>
<path d="M159.259 152.073L157.295 153.971L156.661 150.68L159.259 147.832V152.073Z" fill="#482728"/>
<path d="M154.126 155.238L152.922 155.807L150.26 152.516L152.225 151.313L153.492 152.516V154.415L154.126 155.238Z" fill="#F45B45"/>
<path d="M152.098 150.491H149.31L151.655 148.339L153.366 149.858L152.098 150.491Z" fill="#006EAB"/>
<path d="M135.051 158.149L136.635 159.415L138.347 158.782V157.263L135.938 156.693L135.051 158.149Z" fill="#482728"/>
<path d="M134.164 154.415L133.214 155.048L129.855 153.719L130.615 150.364L134.164 154.415Z" fill="#F19A00"/>
<path d="M128.144 156.567H126.179L124.975 155.111L126.179 154.099L126.813 155.111H128.144V156.567Z" fill="#F2A495"/>
<path d="M115.031 151.52L116.691 156.168L121.16 154.879V152.21H119.594L119.225 151.52H115.031Z" fill="#006EAB"/>
<path d="M140.721 157.342L141.32 156.026L144.733 159.047L142.997 158.778L142.607 159.376L140.721 157.342Z" fill="#F2A495"/>
<path d="M157.273 119.898L155.343 119.16V116.699L157.027 115.264L158.382 115.674L158.793 118.093L157.273 119.898Z" fill="#F45B45"/>
<path d="M153.742 119.078L155.631 118.545L156.247 117.806L155.343 114.443H151.155L151.566 116.822L153.742 119.078Z" fill="#F2A495"/>
<path d="M118.881 145.286L119.305 134.968L124.612 132.354V131.647L127.443 130.445L128.079 135.392L126.664 136.876V139.209L123.975 146.841L121.569 145.286H118.881Z" fill="#D6CFB6"/>
<path d="M119.036 132.731L116.292 130.355L121.781 125.714H124.269L119.036 132.731Z" fill="#F2A495"/>
<path d="M118.341 135.765L116.475 136.788L116.878 135.4L116.255 133.682L118.048 133.39L118.341 135.765Z" fill="#D6CFB6"/>
<path d="M116.951 124.252L114.938 122.791L120.171 114.97L124.964 118.369L116.951 124.252Z" fill="#F2A495"/>
<path d="M145.224 157.778L147.12 154.322L150.613 156.116L151.079 158.509H147.12L145.224 157.778Z" fill="#006EAB"/>
<path d="M151.35 189.21L154.487 192.957L152.765 195.598H150.858L148.952 197.01L148.337 199.037H146.554L144.709 197.01L145.877 196.089L145.447 194.492V191.667L151.35 189.21Z" fill="#D6CFB6"/>
<path d="M143.971 190.5C144.176 191.687 144.586 194.123 144.586 194.369L137.514 189.087L136.469 187.245H137.514L138.191 185.832L144.586 189.087L143.971 190.5Z" fill="#F19A00"/>
<path d="M129.459 183.56L134.194 182.577L134.747 183.867V189.394L132.902 191.176H131.734L128.967 185.095L129.459 183.56Z" fill="#482728"/>
<path d="M127.368 186.14L125.646 187.736L124.785 185.771L123.801 185.403L124.785 184.358L126.384 183.99L127.368 186.14Z" fill="#D6CFB6"/>
<path d="M125.584 188.657V191.421L123.248 191.052L121.341 189.21L123.863 186.999L125.584 188.657Z" fill="#006EAB"/>
<path d="M122.202 194.861L124.846 193.694L121.464 201.494L120.48 202.6L120.111 201.494L122.202 194.861Z" fill="#F2A495"/>
<path d="M121.218 184.788L117.836 181.041L116.791 184.112L114.638 186.937L117.836 187.429L120.788 185.832L121.218 184.788Z" fill="#D6CFB6"/>
<path d="M121.034 177.479L119.927 178.277H118.205L123.616 182.208V180.304L121.034 177.479Z" fill="#482728"/>
<path d="M125.707 174.408L128.782 170.416H130.504L132.472 174.777L135.608 175.391L135.178 176.558L130.504 177.356L125.707 176.005V174.408Z" fill="#482728"/>
<path d="M135.547 179.629L133.579 181.103L131.611 179.629L134.931 179.014L135.547 179.629Z" fill="#F19A00"/>
<path d="M143.971 182.761L140.036 184.911L137.022 179.261V176.006L138.068 175.576L140.036 176.006L143.971 181.165V182.761Z" fill="#006EAB"/>
<path d="M140.527 177.603L145.816 175.883L142.126 171.215L141.819 172.873L140.097 171.584L140.527 177.603Z" fill="#F45B45"/>
<path d="M148.891 174.839L152.457 173.672L154.61 176.067L150.367 179.752L147.415 177.787L148.891 174.839Z" fill="#F19A00"/>
<path d="M154.118 178.954L156.7 177.664V185.71L154.118 187.859L150.428 180.796L150.858 178.217L154.118 178.954Z" fill="#F19A00"/>
<path d="M152.396 164.643L151.658 169.126L148.522 164.028L152.396 164.643Z" fill="#006EAB"/>
<path d="M150.551 168.021L155.348 169.25V170.908L153.195 171.952L152.273 170.908H150.182L150.551 168.021Z" fill="#482728"/>
<path d="M146.554 170.416L147.722 170.109L148.583 172.136L147.353 173.18L145.939 172.136L146.554 170.416Z" fill="#D6CFB6"/>
<path d="M144.34 167.591L143.541 169.065L140.65 166.854H142.372L143.541 165.749L144.34 167.591Z" fill="#F19A00"/>
<path d="M144.647 162.923L141.942 165.195L140.835 162.923L142.987 159.668L144.647 162.923Z" fill="#F19A00"/>
<path d="M135.181 167.612L135.801 168.116L135.181 169.665L134.095 169.355L135.181 167.612Z" fill="#F45B45"/>
<path d="M120.281 161.673L128.258 159.876L126.398 165.087L119.682 165.626L120.281 161.673Z" fill="#006EAB"/>
<path d="M136.319 166.65L139.321 165.577L140.359 163.615L137.542 161.875L135.244 162.245L132.613 159.913L129.833 160.69L130.389 163.948L136.319 166.65Z" fill="#F2A495"/>
<path d="M116.749 160.95L120.566 164.578L124.532 162.135L123.606 160.247L119.417 160.062L116.749 160.95Z" fill="#F2A495"/>
<path d="M148.989 201.384L151.992 199.464L151.301 197.755L150.13 198.924L148.238 199.914L148.989 201.384Z" fill="#006EAB"/>
<path d="M139.199 196.915V198.894L138.359 199.674L137.278 196.915L137.638 195.385L139.199 196.915Z" fill="#F19A00"/>
<path d="M140.671 203.423L139.74 197.695L149.469 203.813L147.998 204.473L140.671 203.423Z" fill="#F45B45"/>
<path d="M155.355 197.515L155.145 195.385L158.148 195.895L159.559 200.064L157.187 202.313L153.763 199.014L155.355 197.515Z" fill="#F19A00"/>
<path d="M157.296 186.701L159.538 185.513L158.567 190.729L157.187 189.582L157.296 186.701Z" fill="#F19A00"/>
<path d="M145.694 208.127L150.053 208.982L152.543 207.35L154.567 208.127L152.932 213.646L150.753 214.812L150.053 213.646H147.095C146.659 213.646 144.319 211.521 143.204 210.459L145.694 208.127Z" fill="#006EAB"/>
<path d="M147.642 217.594L146.651 216.469L145.163 218.584L145.434 219.71L147.236 220.475L147.642 217.594Z" fill="#482728"/>
<path d="M146.335 222.906L144.713 222.095L145.163 220.88L147.056 221.87L146.335 222.906Z" fill="#D6CFB6"/>
<path d="M147.417 230.017L147.101 228.802L148.318 226.911H150.391L151.833 227.586L152.239 232.358L151.293 233.348H149.94L149.129 232.358V231.277L147.417 230.017Z" fill="#D6CFB6"/>
<path d="M146.786 231.683L143.811 228.397V224.391L145.479 224.706L148.498 227.812L146.786 231.683Z" fill="#482728"/>
<path d="M135.744 216.919L133.851 216.693L137.277 213.678L138.764 214.758L135.744 216.919Z" fill="#006EAB"/>
<path d="M137.051 222.32L136.51 221.599L137.321 219.349L138.944 218.719L140.161 219.754L137.051 222.32Z" fill="#D6CFB6"/>
<path d="M138.268 228.981L141.558 227.091L144.532 232.267L136.015 234.473L135.023 232.267L138.268 228.981Z" fill="#F45B45"/>
<path d="M143.811 237.264C145.299 236.919 148.318 236.229 148.498 236.229L150.166 236.679L153.861 240.91V243.025L151.698 243.701L148.814 243.025L143.361 238.569L143.811 237.264Z" fill="#D6CFB6"/>
<path d="M144.622 241.721L143.541 240.91L144.622 238.84L146.019 239.56L144.622 241.721Z" fill="#F45B45"/>
<path d="M153.681 239.515L152.735 238.84L154.447 238.029L155.394 238.569L153.681 240.685V239.515Z" fill="#F45B45"/>
<path d="M141.423 238.795L140.026 237.984L139.395 239.155H138.268L139.169 241.18L141.423 238.795Z" fill="#F2A495"/>
<path d="M137.141 227.271L137.367 225.831L139.575 227.271L140.071 228.262L138.809 229.072L137.141 227.271Z" fill="#D6CFB6"/>
<path d="M138.628 237.309L130.697 232.402L133.13 237.894L138.628 237.309Z" fill="#F2A495"/>
<path d="M138.178 243.521L136.465 241.766L136.24 245.277L138.178 243.521Z" fill="#D6CFB6"/>
<path d="M128.353 224.076L131.778 222.86L128.714 230.827L126.776 232.943L125.153 232.223L128.353 224.076Z" fill="#F2A495"/>
<path d="M129.93 217.504L131.733 216.469L132.049 217.504H133.626V219.214H131.102L129.93 217.504Z" fill="#006EAB"/>
<path d="M121.187 224.616L122.765 223.896L123.215 224.616H124.522L124.748 226.101L122.314 226.506L121.187 224.616Z" fill="#482728"/>
<path d="M119.565 218.674L116.635 218.134L119.294 214.488L120.556 214.083L121.638 215.118L122.81 217.414L122.449 220.295L121.638 220.835L119.565 218.674Z" fill="#D6CFB6"/>
<path d="M120.241 226.012H119.565L119.294 224.076L120.601 224.841L121.277 226.912L120.241 226.012Z" fill="#F45B45"/>
<path d="M115.824 236.274L114.607 234.924L115.824 233.123L116.5 232.043L119.114 229.162L121.007 233.528L122.494 235.554L122.81 237.669H121.007L119.114 238.345L115.824 236.274Z" fill="#F45B45"/>
<path d="M115.213 213.318V211.518L116.925 211.698L117.917 214.353L116.925 214.803L115.213 213.318Z" fill="#F45B45"/>
<path d="M118.393 207.916L115.238 205.575L115.734 207.601L115.238 207.916L114.923 209.986L118.393 207.916Z" fill="#D6CFB6"/>
<path d="M120.331 207.513H119.114L119.926 205.038L120.872 204.768L121.188 205.578L120.331 207.513Z" fill="#F45B45"/>
<path d="M147.327 248.426C146.425 247.721 144.577 246.284 144.397 246.176L142.955 246.581V248.426L145.208 249.642H147.327V248.426Z" fill="#F2A495"/>
<path d="M153.726 243.881L153.05 246.041V249.012L154.763 249.552L156.61 249.012L157.106 246.356V244.286L155.349 243.431L153.726 243.881Z" fill="#D6CFB6"/>
<path d="M158.008 245.456L158.458 244.151V242.846L159.63 243.431V245.456L158.458 246.177L158.008 245.456Z" fill="#006EAB"/>
<path d="M157.241 233.618C156.64 232.763 155.394 231.016 155.213 230.872L157.241 229.927L159.134 230.377L159.675 232.537L158.593 234.023L157.241 233.618Z" fill="#006EAB"/>
<path d="M143.282 215.901H140.947L142.27 212.014L144.683 211.081L147.64 212.014V214.268L144.683 217.3L143.282 215.901Z" fill="#D6CFB6"/>
<path d="M151.998 224.218L151.531 216.367L152.599 215.028H154.312V216.739L155.423 217.144L157.213 216.367L158.303 217.766L157.213 222.586L153.555 224.918L151.998 224.218Z" fill="#D6CFB6"/>
<path d="M155.484 216.604L154.853 216.154V214.578L157.106 215.703L155.484 216.604Z" fill="#006EAB"/>
<path d="M156.52 228.036C156.505 228.876 156.484 230.692 156.52 231.232L158.638 230.917L159.359 228.036H156.52Z" fill="#F2A495"/>
<path d="M158.458 227.001L155.889 224.93L158.143 223.22H159.585V226.506L158.458 227.001Z" fill="#F45B45"/>
<path d="M126.117 241.765L128.401 240.756L128.987 243.763L126.279 244.692L126.117 241.765Z" fill="#006EAB"/>
<path d="M131.634 246.084L129.553 245.56L125.288 247.82V248.971L127.431 249.657L130.502 248.971L132.968 248.002L131.634 246.084Z" fill="#F45B45"/>
<path d="M116.184 243.827C116.083 243.911 115.034 242.994 114.522 242.524L115.511 239.625L117.489 241.831C117.096 242.461 116.285 243.743 116.184 243.827Z" fill="#482728"/>
<path d="M115.848 248.26L114.943 246.537L116.878 244.437L118.561 247.252L115.848 248.26Z" fill="#006EAB"/>
<path d="M128.503 291.439L124.145 290.584L121.654 292.217L119.63 291.439L121.265 285.92L123.444 284.754L124.145 285.92H127.102C127.538 285.92 129.878 288.045 130.994 289.107L128.503 291.439Z" fill="#F45B45"/>
<path d="M126.555 281.972L127.547 283.098L129.034 280.982L128.764 279.857L126.961 279.092L126.555 281.972Z" fill="#006EAB"/>
<path d="M127.862 276.661L129.485 277.471L129.034 278.687L127.141 277.696L127.862 276.661Z" fill="#F2A495"/>
<path d="M126.781 269.549L127.096 270.765L125.879 272.655H123.806L122.364 271.98L121.958 267.209L122.905 266.219H124.257L125.068 267.209V268.289L126.781 269.549Z" fill="#006EAB"/>
<path d="M127.412 267.883L130.386 271.169V275.175L128.719 274.86L125.699 271.754L127.412 267.883Z" fill="#006EAB"/>
<path d="M138.453 282.648L140.346 282.873L136.921 285.889L135.434 284.808L138.453 282.648Z" fill="#F45B45"/>
<path d="M137.146 277.246L137.687 277.966L136.876 280.217L135.253 280.847L134.037 279.811L137.146 277.246Z" fill="#F45B45"/>
<path d="M135.929 270.584L132.639 272.475L129.665 267.298L138.183 265.093L139.174 267.298L135.929 270.584Z" fill="#F2A495"/>
<path d="M130.386 262.302C128.899 262.647 125.879 263.337 125.699 263.337L124.031 262.887L120.336 258.656V256.54L122.499 255.865L125.383 256.54L130.837 260.996L130.386 262.302Z" fill="#D6CFB6"/>
<path d="M129.575 257.846L130.657 258.656L129.575 260.727L128.178 260.006L129.575 257.846Z" fill="#F45B45"/>
<path d="M120.516 260.052L121.463 260.727L119.75 261.537L118.804 260.997L120.516 258.881V260.052Z" fill="#D6CFB6"/>
<path d="M132.775 260.772L134.172 261.582L134.803 260.412H135.929L135.028 258.386L132.775 260.772Z" fill="#F2A495"/>
<path d="M137.056 272.295L136.831 273.735L134.622 272.295L134.127 271.305L135.389 270.494L137.056 272.295Z" fill="#D6CFB6"/>
<path d="M135.569 262.257L143.501 267.163L141.067 261.672L135.569 262.257Z" fill="#006EAB"/>
<path d="M136.02 256.045L137.732 257.801L137.957 254.29L136.02 256.045Z" fill="#F2A495"/>
<path d="M145.844 275.491L142.419 276.706L145.484 268.739L147.422 266.623L149.044 267.344L145.844 275.491Z" fill="#F19A00"/>
<path d="M144.267 282.062L142.464 283.098L142.149 282.062H140.571V280.352H143.095L144.267 282.062Z" fill="#D6CFB6"/>
<path d="M153.01 274.95L151.433 275.67L150.982 274.95H149.675L149.45 273.464L151.883 273.059L153.01 274.95Z" fill="#482728"/>
<path d="M154.632 280.892L157.562 281.432L154.903 285.078L153.641 285.483L152.559 284.448L151.387 282.152L151.748 279.272L152.559 278.732L154.632 280.892Z" fill="#F2A495"/>
<path d="M153.957 273.555H154.633L154.903 275.49L153.596 274.725L152.92 272.655L153.957 273.555Z" fill="#482728"/>
<path d="M158.373 263.292L159.59 264.643L158.373 266.443L157.697 267.523L155.083 270.404L153.19 266.038L151.703 264.013L151.388 261.897H153.19L155.083 261.222L158.373 263.292Z" fill="#D6CFB6"/>
<path d="M158.985 286.248V288.049L157.272 287.869L156.281 285.213L157.272 284.763L158.985 286.248Z" fill="#F45B45"/>
<path d="M155.804 291.65L158.959 293.99L158.463 291.965L158.959 291.65L159.274 289.579L155.804 291.65Z" fill="#F45B45"/>
<path d="M153.866 292.052H155.083L154.272 294.528L153.325 294.798L153.01 293.988L153.866 292.052Z" fill="#482728"/>
<path d="M126.871 251.139C127.772 251.844 129.62 253.282 129.8 253.39L131.242 252.985V251.139L128.989 249.924H126.871V251.139Z" fill="#F2A495"/>
<path d="M120.471 255.686L121.147 253.525V250.554L119.435 250.014L117.587 250.554L117.091 253.21V255.281L118.849 256.136L120.471 255.686Z" fill="#F19A00"/>
<path d="M116.19 254.11L115.739 255.415V256.721L114.567 256.136V254.11L115.739 253.39L116.19 254.11Z" fill="#F19A00"/>
<path d="M116.956 265.948C117.557 266.803 118.804 268.549 118.984 268.693L116.956 269.639L115.063 269.189L114.522 267.028L115.604 265.543L116.956 265.948Z" fill="#F45B45"/>
<path d="M130.916 283.666H133.251L131.928 287.552L129.515 288.485L126.557 287.552V285.298L129.515 282.267L130.916 283.666Z" fill="#006EAB"/>
<path d="M122.199 275.348L122.666 283.199L121.598 284.538H119.885V282.828L118.774 282.422L116.984 283.199L115.895 281.8L116.984 276.981L120.642 274.649L122.199 275.348Z" fill="#D6CFB6"/>
<path d="M118.713 282.963L119.344 283.413V284.988L117.091 283.863L118.713 282.963Z" fill="#F45B45"/>
<path d="M117.677 271.529C117.692 270.689 117.713 268.874 117.677 268.333L115.559 268.648L114.838 271.529H117.677Z" fill="#D6CFB6"/>
<path d="M115.739 272.565L118.308 274.635L116.055 276.346H114.612V273.06L115.739 272.565Z" fill="#F2A495"/>
<path d="M148.08 257.801L145.797 258.811L145.211 255.803L147.919 254.875L148.08 257.801Z" fill="#F19A00"/>
<path d="M142.563 253.482L144.645 254.007L148.909 251.746V250.596L146.767 249.909L143.695 250.596L141.229 251.565L142.563 253.482Z" fill="#F19A00"/>
<path d="M158.013 255.739C158.114 255.655 159.163 256.573 159.675 257.042L158.686 259.941L156.709 257.735C157.102 257.105 157.912 255.823 158.013 255.739Z" fill="#482728"/>
<path d="M158.35 251.306L159.254 253.029L157.319 255.13L155.636 252.314L158.35 251.306Z" fill="#F45B45"/>
<path d="M180.808 38.5286L183.206 39.0813L180.5 42.1523L179.64 40.7396L180.808 38.5286Z" fill="#D6CFB6"/>
<path d="M172.506 37.2381L175.089 38.0979L173.06 39.4492L171.092 38.0979L172.506 37.2381Z" fill="#F19A00"/>
<path d="M178.041 53.2073L178.656 50.3207L180.869 51.549V52.286L179.455 54.4971L178.041 53.2073Z" fill="#F2A495"/>
<path d="M188.31 60.4548L189.97 58.6737L191.938 60.0248V61.9902L189.97 63.2188L188.741 62.7887L188.31 60.4548Z" fill="#D6CFB6"/>
<path d="M193.66 56.7694L194.767 56.2166L195.505 57.5678L196.735 58.919L195.505 59.4717L193.66 56.7694Z" fill="#F19A00"/>
<path d="M193.599 38.6511L194.767 44.4244V46.1441L194.029 47.0039L192.246 46.6353L191.877 45.0385L192.246 38.6511L192.799 37.6683L193.599 38.6511Z" fill="#F2A495"/>
<path d="M170.6 51.6721L172.629 40.924L169.923 41.4153H165.803L163.344 43.6877L160.576 45.776L159.961 47.1886L160.576 48.2327L169.923 52.3477L170.6 51.6721Z" fill="#482728"/>
<path d="M169.554 35.5191V36.9315L162.606 37.4844C162.688 36.1741 162.876 33.4799 162.975 33.1851C163.073 32.8902 167.402 34.6182 169.554 35.5191Z" fill="#F19A00"/>
<path d="M180.746 24.5861L181.607 28.7626L173.367 34.9658L172.014 30.3594L176.934 26.1215L177.856 26.4901L178.594 25.5688L180.746 24.5861Z" fill="#006EAB"/>
<path d="M185.051 24.7087L186.342 24.3403L193.045 28.2096V29.1923L191.016 29.6221L184.682 26.6127L185.051 24.7087Z" fill="#006EAB"/>
<path d="M197.965 34.3522L200.917 33.4309L203.253 36.1947L202.023 40.3711L199.994 40.064L198.826 36.7474L196.919 35.5191L197.965 34.3522Z" fill="#D6CFB6"/>
<path d="M180.532 59.9356H184.777L187.977 65.0233L185.757 67.1758L180.532 59.9356Z" fill="#006EAB"/>
<path d="M178.051 61.5663L179.814 63.3926H173.74L171.781 60.4574L178.051 61.5663Z" fill="#F45B45"/>
<path d="M203.651 58.0433L204.173 54.456L202.541 53.8037L200.385 54.8474L199.667 57.6521L200.385 59.7393L203.651 58.0433Z" fill="#F19A00"/>
<path d="M164.271 53.8698L165.969 55.4351L164.989 56.8701L163.879 56.544L163.422 54.9134L164.271 53.8698Z" fill="#F19A00"/>
<path d="M171.52 63.9793L173.74 64.5012L171.128 67.0449L170.54 65.9361L171.52 63.9793Z" fill="#F45B45"/>
<path d="M179.487 65.2838L179.945 66.7188L176.026 66.0665L177.006 64.762L179.487 65.2838Z" fill="#F2A495"/>
<path d="M190.72 66.3275L192.875 65.8057L192.026 68.0234L189.088 68.6104L190.72 66.3275Z" fill="#006EAB"/>
<path d="M162.246 26.4743L163.357 24.4523L165.773 23.9307L169.561 28.0399V29.0835L168.712 30.7793L162.246 26.4743Z" fill="#482728"/>
<path d="M161.528 29.9962V29.083H162.442L163.879 29.9962V30.9746H163.161L161.528 29.9962Z" fill="#006EAB"/>
<path d="M202.671 65.2187L203.39 64.2402L204.631 65.2187L204.173 66.1318L202.671 65.2187Z" fill="#F45B45"/>
<path d="M189.833 39.2561L190.284 45.9072L186.278 44.907L184.726 37.2057L189.833 39.2561Z" fill="#F19A00"/>
<path d="M183.975 46.0075L186.228 48.1079L179.619 49.9082L179.168 46.5576L183.975 46.0075Z" fill="#006EAB"/>
<path d="M187.63 50.558L190.684 47.9574L193.638 49.8078L192.337 52.0082L193.939 53.4084L193.638 54.5586L188.281 53.4084L187.63 50.558Z" fill="#006EAB"/>
<path d="M173.51 52.4581L174.962 51.458V53.6585L175.713 54.8086H173.51V52.4581Z" fill="#482728"/>
<path d="M168.044 84.6482L164.908 80.9016L166.63 78.2607H168.536L170.443 76.848L171.057 74.8213H172.841L174.686 76.848L173.517 77.7694L173.948 79.3662V82.1914L168.044 84.6482Z" fill="#F45B45"/>
<path d="M175.424 83.3587C175.219 82.1713 174.809 79.735 174.809 79.4893L181.88 84.7713L182.926 86.6139H181.88L181.204 88.0264L174.809 84.7713L175.424 83.3587Z" fill="#F2A495"/>
<path d="M189.936 90.2985L185.201 91.2813L184.648 89.9915V84.4639L186.492 82.6826H187.661L190.428 88.7631L189.936 90.2985Z" fill="#482728"/>
<path d="M192.027 87.7188L193.749 86.1221L194.61 88.0874L195.594 88.4559L194.61 89.5L193.011 89.8685L192.027 87.7188Z" fill="#F2A495"/>
<path d="M193.81 85.2014V82.4375L196.147 82.806L198.053 84.6486L195.532 86.8596L193.81 85.2014Z" fill="#F45B45"/>
<path d="M197.192 78.9974L194.548 80.1644L197.93 72.3643L198.914 71.2588L199.283 72.3643L197.192 78.9974Z" fill="#D6CFB6"/>
<path d="M198.176 89.0706L201.559 92.8171L202.604 89.7462L204.756 86.921L201.559 86.4297L198.607 88.0266L198.176 89.0706Z" fill="#F2A495"/>
<path d="M198.361 96.3786L199.468 95.5802H201.19L195.778 91.6494V93.5534L198.361 96.3786Z" fill="#006EAB"/>
<path d="M193.687 99.4501L190.612 103.442H188.891L186.923 99.0814L183.787 98.4673L184.217 97.3003L188.891 96.502L193.687 97.8532V99.4501Z" fill="#F45B45"/>
<path d="M183.848 94.2299L185.816 92.7559L187.784 94.2299L184.463 94.844L183.848 94.2299Z" fill="#006EAB"/>
<path d="M175.424 91.0969L179.359 88.9473L182.372 94.5977V97.8529L181.327 98.2828L179.359 97.8529L175.424 92.6937V91.0969Z" fill="#482728"/>
<path d="M178.867 96.2568L173.579 97.9766L177.268 102.644L177.576 100.986L179.298 102.276L178.867 96.2568Z" fill="#482728"/>
<path d="M170.504 99.0199L166.937 100.187L164.785 97.7916L169.028 94.1064L171.98 96.0718L170.504 99.0199Z" fill="#D6CFB6"/>
<path d="M165.277 94.9047L162.694 96.1945V88.1487L165.277 85.999L168.967 93.0622L168.536 95.6417L165.277 94.9047Z" fill="#482728"/>
<path d="M166.999 109.216L167.737 104.732L170.873 109.83L166.999 109.216Z" fill="#006EAB"/>
<path d="M168.844 105.837L164.047 104.609V102.95L166.199 101.906L167.122 102.95H169.213L168.844 105.837Z" fill="#F19A00"/>
<path d="M172.841 103.442L171.672 103.75L170.812 101.723L172.041 100.679L173.456 101.723L172.841 103.442Z" fill="#D6CFB6"/>
<path d="M175.055 106.267L175.854 104.793L178.744 107.004H177.022L175.854 108.11L175.055 106.267Z" fill="#006EAB"/>
<path d="M174.747 110.935L177.453 108.663L178.56 110.935L176.408 114.191L174.747 110.935Z" fill="#482728"/>
<path d="M184.214 106.246L183.594 105.743L184.214 104.193L185.3 104.503L184.214 106.246Z" fill="#F45B45"/>
<path d="M199.113 112.186L191.137 113.983L192.996 108.772L199.713 108.232L199.113 112.186Z" fill="#F2A495"/>
<path d="M183.076 107.207L180.073 108.281L179.036 110.243L181.853 111.982L184.151 111.612L186.782 113.944L189.562 113.167L189.006 109.909L183.076 107.207Z" fill="#D6CFB6"/>
<path d="M202.646 112.908L198.828 109.28L194.862 111.724L195.789 113.612L199.977 113.797L202.646 112.908Z" fill="#006EAB"/>
<path d="M170.406 72.4746L167.403 74.3941L168.094 76.1036L169.265 74.9339L171.156 73.9442L170.406 72.4746Z" fill="#D6CFB6"/>
<path d="M180.195 76.9438V74.9643L181.036 74.1846L182.117 76.9438L181.757 78.4734L180.195 76.9438Z" fill="#F19A00"/>
<path d="M178.724 70.4354L179.655 76.1637L169.925 70.0456L171.397 69.3857L178.724 70.4354Z" fill="#F19A00"/>
<path d="M164.04 76.3435L164.25 78.473L161.247 77.9632L159.836 73.7943L162.208 71.5449L165.631 74.844L164.04 76.3435Z" fill="#F45B45"/>
<path d="M162.099 87.1573L159.857 88.3452L160.827 83.1299L162.208 84.2767L162.099 87.1573Z" fill="#006EAB"/>
<path d="M196.548 144.07L199.684 147.816L197.962 150.457H196.056L194.15 151.87L193.535 153.896H191.751L189.906 151.87L191.075 150.948L190.644 149.352V146.526L196.548 144.07Z" fill="#F45B45"/>
<path d="M189.168 145.359C189.373 146.547 189.783 148.983 189.783 149.229L182.712 143.947L181.666 142.104H182.712L183.388 140.691L189.783 143.947L189.168 145.359Z" fill="#F2A495"/>
<path d="M174.656 138.419L179.391 137.437L179.944 138.726V144.254L178.1 146.035H176.931L174.164 139.955L174.656 138.419Z" fill="#F2A495"/>
<path d="M172.565 140.999L170.843 142.596L169.982 140.63L168.998 140.262L169.982 139.218L171.581 138.849L172.565 140.999Z" fill="#482728"/>
<path d="M170.782 143.516V146.28L168.445 145.912L166.539 144.069L169.06 141.858L170.782 143.516Z" fill="#D6CFB6"/>
<path d="M167.4 149.72L170.044 148.553L166.662 156.353L165.678 157.459L165.309 156.353L167.4 149.72Z" fill="#F2A495"/>
<path d="M166.416 139.647L163.034 135.901L161.988 138.972L159.836 141.797L163.034 142.288L165.985 140.691L166.416 139.647Z" fill="#482728"/>
<path d="M166.231 132.338L165.124 133.137H163.403L168.814 137.067V135.163L166.231 132.338Z" fill="#D6CFB6"/>
<path d="M170.905 129.268L173.98 125.276H175.701L177.669 129.636L180.805 130.251L180.375 131.417L175.701 132.216L170.905 130.865V129.268Z" fill="#D6CFB6"/>
<path d="M180.744 134.488L178.776 135.962L176.808 134.488L180.129 133.874L180.744 134.488Z" fill="#F19A00"/>
<path d="M189.169 137.621L185.233 139.771L182.22 134.12V130.865L183.265 130.435L185.233 130.865L189.169 136.024V137.621Z" fill="#F19A00"/>
<path d="M185.725 132.462L191.013 130.742L187.324 126.074L187.016 127.733L185.294 126.443L185.725 132.462Z" fill="#F19A00"/>
<path d="M194.088 129.698L197.655 128.531L199.807 130.926L195.564 134.611L192.612 132.646L194.088 129.698Z" fill="#F45B45"/>
<path d="M199.315 133.813L201.898 132.523V140.569L199.315 142.719L195.625 135.656L196.056 133.076L199.315 133.813Z" fill="#482728"/>
<path d="M197.593 119.502L196.855 123.985L193.719 118.888L197.593 119.502Z" fill="#F2A495"/>
<path d="M195.748 122.881L200.545 124.109V125.767L198.393 126.812L197.47 125.767H195.379L195.748 122.881Z" fill="#006EAB"/>
<path d="M191.751 125.275L192.92 124.968L193.781 126.995L192.551 128.039L191.136 126.995L191.751 125.275Z" fill="#F19A00"/>
<path d="M189.537 122.451L188.738 123.925L185.848 121.714H187.57L188.738 120.608L189.537 122.451Z" fill="#F19A00"/>
<path d="M189.845 117.782L187.139 120.055L186.032 117.782L188.185 114.527L189.845 117.782Z" fill="#006EAB"/>
<path d="M180.378 122.472L180.998 122.975L180.378 124.524L179.292 124.215L180.378 122.472Z" fill="#D6CFB6"/>
<path d="M165.479 116.532L173.455 114.735L171.596 119.946L164.879 120.485L165.479 116.532Z" fill="#D6CFB6"/>
<path d="M181.517 121.51L184.519 120.436L185.557 118.474L182.74 116.734L180.442 117.105L177.81 114.772L175.03 115.55L175.586 118.807L181.517 121.51Z" fill="#482728"/>
<path d="M161.946 115.81L165.764 119.438L169.73 116.994L168.803 115.106L164.615 114.921L161.946 115.81Z" fill="#006EAB"/>
<path d="M194.186 156.243L197.189 154.324L196.498 152.614L195.327 153.784L193.436 154.774L194.186 156.243Z" fill="#D6CFB6"/>
<path d="M184.397 151.774V153.753L183.556 154.533L182.475 151.774L182.835 150.244L184.397 151.774Z" fill="#F2A495"/>
<path d="M185.868 158.282L184.937 152.554L194.667 158.672L193.195 159.332L185.868 158.282Z" fill="#006EAB"/>
<path d="M200.552 152.374L200.342 150.245L203.345 150.755L204.756 154.923L202.384 157.173L198.961 153.874L200.552 152.374Z" fill="#006EAB"/>
<path d="M202.493 141.56L204.735 140.373L203.765 145.588L202.384 144.441L202.493 141.56Z" fill="#006EAB"/>
<path d="M190.892 162.985L195.25 163.84L197.741 162.208L199.764 162.985L198.13 168.505L195.951 169.671L195.25 168.505H192.293C191.857 168.505 189.517 166.38 188.401 165.317L190.892 162.985Z" fill="#F45B45"/>
<path d="M192.839 172.452L191.848 171.327L190.361 173.443L190.631 174.568L192.434 175.333L192.839 172.452Z" fill="#D6CFB6"/>
<path d="M191.533 177.764L189.91 176.954L190.361 175.738L192.254 176.729L191.533 177.764Z" fill="#482728"/>
<path d="M192.614 184.875L192.299 183.66L193.515 181.77H195.588L197.031 182.445L197.436 187.216L196.49 188.206H195.138L194.327 187.216V186.136L192.614 184.875Z" fill="#F45B45"/>
<path d="M191.983 186.541L189.009 183.255V179.249L190.676 179.564L193.696 182.67L191.983 186.541Z" fill="#482728"/>
<path d="M180.942 171.777L179.049 171.552L182.474 168.536L183.961 169.616L180.942 171.777Z" fill="#006EAB"/>
<path d="M182.248 177.178L181.708 176.458L182.519 174.207L184.141 173.577L185.358 174.612L182.248 177.178Z" fill="#F45B45"/>
<path d="M183.466 183.84L186.755 181.949L189.73 187.126L181.212 189.331L180.221 187.126L183.466 183.84Z" fill="#482728"/>
<path d="M189.009 192.122C190.496 191.777 193.515 191.087 193.696 191.087L195.363 191.537L199.059 195.768V197.884L196.895 198.559L194.011 197.884L188.558 193.427L189.009 192.122Z" fill="#F45B45"/>
<path d="M189.82 196.579L188.738 195.769L189.82 193.698L191.217 194.418L189.82 196.579Z" fill="#F19A00"/>
<path d="M198.879 194.373L197.932 193.698L199.645 192.888L200.591 193.428L198.879 195.543V194.373Z" fill="#D6CFB6"/>
<path d="M186.62 193.653L185.223 192.843L184.592 194.013H183.465L184.367 196.039L186.62 193.653Z" fill="#F45B45"/>
<path d="M182.339 182.13L182.564 180.689L184.772 182.13L185.268 183.12L184.006 183.93L182.339 182.13Z" fill="#F2A495"/>
<path d="M183.826 192.167L175.894 187.261L178.328 192.752L183.826 192.167Z" fill="#F45B45"/>
<path d="M183.375 198.379L181.663 196.624L181.437 200.135L183.375 198.379Z" fill="#F19A00"/>
<path d="M173.55 178.934L176.976 177.719L173.911 185.686L171.973 187.801L170.351 187.081L173.55 178.934Z" fill="#F19A00"/>
<path d="M175.128 172.362L176.93 171.327L177.246 172.362H178.823V174.073H176.299L175.128 172.362Z" fill="#F2A495"/>
<path d="M166.385 179.474L167.962 178.754L168.413 179.474H169.72L169.945 180.959L167.511 181.365L166.385 179.474Z" fill="#F2A495"/>
<path d="M164.762 173.533L161.833 172.992L164.492 169.347L165.754 168.941L166.836 169.977L168.007 172.272L167.647 175.153L166.836 175.693L164.762 173.533Z" fill="#482728"/>
<path d="M165.438 180.869H164.762L164.492 178.934L165.799 179.699L166.475 181.769L165.438 180.869Z" fill="#F19A00"/>
<path d="M161.022 191.132L159.805 189.782L161.022 187.982L161.698 186.901L164.312 184.021L166.204 188.387L167.692 190.412L168.007 192.528H166.204L164.312 193.203L161.022 191.132Z" fill="#006EAB"/>
<path d="M160.41 168.176V166.376L162.123 166.556L163.114 169.212L162.123 169.662L160.41 168.176Z" fill="#F2A495"/>
<path d="M163.59 162.774L160.436 160.434L160.931 162.459L160.436 162.774L160.12 164.845L163.59 162.774Z" fill="#F2A495"/>
<path d="M165.529 162.372H164.312L165.123 159.896L166.069 159.626L166.385 160.436L165.529 162.372Z" fill="#482728"/>
<path d="M192.524 203.285C191.623 202.58 189.775 201.142 189.594 201.034L188.152 201.439V203.285L190.406 204.5H192.524V203.285Z" fill="#482728"/>
<path d="M198.924 198.739L198.247 200.9V203.87L199.96 204.411L201.808 203.87L202.303 201.215V199.144L200.546 198.289L198.924 198.739Z" fill="#F45B45"/>
<path d="M203.205 200.315L203.656 199.01V197.704L204.827 198.289V200.315L203.656 201.035L203.205 200.315Z" fill="#006EAB"/>
<path d="M202.439 188.476C201.838 187.621 200.591 185.875 200.411 185.73L202.439 184.785L204.332 185.235L204.872 187.396L203.791 188.881L202.439 188.476Z" fill="#F19A00"/>
<path d="M188.479 170.759H186.144L187.467 166.872L189.88 165.939L192.838 166.872V169.127L189.88 172.158L188.479 170.759Z" fill="#F2A495"/>
<path d="M197.196 179.076L196.729 171.225L197.797 169.887H199.509V171.597L200.62 172.003L202.411 171.225L203.5 172.625L202.411 177.444L198.752 179.776L197.196 179.076Z" fill="#482728"/>
<path d="M200.681 171.462L200.05 171.012V169.437L202.304 170.562L200.681 171.462Z" fill="#482728"/>
<path d="M201.718 182.895C201.703 183.735 201.682 185.55 201.718 186.09L203.836 185.775L204.557 182.895H201.718Z" fill="#D6CFB6"/>
<path d="M203.656 181.859L201.087 179.789L203.34 178.078H204.782V181.364L203.656 181.859Z" fill="#F45B45"/>
<path d="M171.314 196.624L173.598 195.614L174.184 198.622L171.476 199.55L171.314 196.624Z" fill="#482728"/>
<path d="M176.832 200.943L174.75 200.418L170.486 202.679V203.829L172.628 204.515L175.7 203.829L178.165 202.86L176.832 200.943Z" fill="#F45B45"/>
<path d="M161.382 198.685C161.28 198.769 160.232 197.852 159.72 197.383L160.709 194.483L162.686 196.69C162.293 197.32 161.483 198.602 161.382 198.685Z" fill="#482728"/>
<path d="M161.045 203.119L160.141 201.396L162.076 199.295L163.759 202.11L161.045 203.119Z" fill="#D6CFB6"/>
<path d="M180.808 219.094L183.206 219.647L180.5 222.718L179.64 221.305L180.808 219.094Z" fill="#F19A00"/>
<path d="M172.506 217.804L175.089 218.663L173.06 220.015L171.092 218.663L172.506 217.804Z" fill="#F19A00"/>
<path d="M178.041 233.773L178.656 230.886L180.869 232.114V232.851L179.455 235.062L178.041 233.773Z" fill="#F19A00"/>
<path d="M188.31 241.02L189.97 239.239L191.938 240.59V242.556L189.97 243.784L188.741 243.354L188.31 241.02Z" fill="#006EAB"/>
<path d="M193.66 237.335L194.767 236.782L195.505 238.133L196.735 239.484L195.505 240.037L193.66 237.335Z" fill="#F19A00"/>
<path d="M193.599 219.216L194.767 224.99V226.71L194.029 227.569L192.246 227.201L191.877 225.604L192.246 219.216L192.799 218.234L193.599 219.216Z" fill="#482728"/>
<path d="M170.6 232.238L172.629 221.489L169.923 221.981H165.803L163.344 224.253L160.576 226.341L159.961 227.754L160.576 228.798L169.923 232.913L170.6 232.238Z" fill="#F2A495"/>
<path d="M169.554 216.085V217.497L162.606 218.05C162.688 216.74 162.876 214.045 162.975 213.751C163.073 213.456 167.402 215.184 169.554 216.085Z" fill="#006EAB"/>
<path d="M180.746 205.151L181.607 209.328L173.367 215.531L172.014 210.925L176.934 206.687L177.856 207.055L178.594 206.134L180.746 205.151Z" fill="#482728"/>
<path d="M185.051 205.274L186.342 204.906L193.045 208.775V209.758L191.016 210.188L184.682 207.178L185.051 205.274Z" fill="#F2A495"/>
<path d="M197.965 214.918L200.917 213.996L203.253 216.76L202.023 220.937L199.994 220.629L198.826 217.313L196.919 216.084L197.965 214.918Z" fill="#D6CFB6"/>
<path d="M180.532 240.501H184.777L187.977 245.589L185.757 247.741L180.532 240.501Z" fill="#482728"/>
<path d="M178.051 242.132L179.814 243.958H173.74L171.781 241.023L178.051 242.132Z" fill="#F45B45"/>
<path d="M203.651 238.609L204.173 235.021L202.541 234.369L200.385 235.413L199.667 238.218L200.385 240.305L203.651 238.609Z" fill="#F2A495"/>
<path d="M164.271 234.435L165.969 236.001L164.989 237.436L163.879 237.109L163.422 235.479L164.271 234.435Z" fill="#F19A00"/>
<path d="M171.52 244.545L173.74 245.067L171.128 247.61L170.54 246.502L171.52 244.545Z" fill="#F19A00"/>
<path d="M179.487 245.849L179.945 247.284L176.026 246.632L177.006 245.327L179.487 245.849Z" fill="#D6CFB6"/>
<path d="M190.72 246.893L192.875 246.371L192.026 248.589L189.088 249.176L190.72 246.893Z" fill="#482728"/>
<path d="M162.246 207.04L163.357 205.018L165.773 204.496L169.561 208.605V209.649L168.712 211.345L162.246 207.04Z" fill="#006EAB"/>
<path d="M161.528 210.562V209.648H162.442L163.879 210.562V211.54H163.161L161.528 210.562Z" fill="#D6CFB6"/>
<path d="M202.671 245.784L203.39 244.806L204.631 245.784L204.173 246.697L202.671 245.784Z" fill="#F45B45"/>
<path d="M189.833 219.822L190.284 226.473L186.278 225.472L184.726 217.771L189.833 219.822Z" fill="#D6CFB6"/>
<path d="M183.975 226.573L186.228 228.673L179.619 230.474L179.168 227.123L183.975 226.573Z" fill="#F2A495"/>
<path d="M187.63 231.123L190.684 228.523L193.638 230.373L192.337 232.574L193.939 233.974L193.638 235.124L188.281 233.974L187.63 231.123Z" fill="#482728"/>
<path d="M173.51 233.024L174.962 232.023V234.224L175.713 235.374H173.51V233.024Z" fill="#482728"/>
<path d="M180.808 264.236L183.206 264.788L180.5 267.859L179.64 266.447L180.808 264.236Z" fill="#006EAB"/>
<path d="M172.506 262.945L175.089 263.805L173.06 265.156L171.092 263.805L172.506 262.945Z" fill="#006EAB"/>
<path d="M178.041 278.914L178.656 276.028L180.869 277.256V277.993L179.455 280.204L178.041 278.914Z" fill="#482728"/>
<path d="M188.31 286.162L189.97 284.381L191.938 285.732V287.697L189.97 288.926L188.741 288.496L188.31 286.162Z" fill="#006EAB"/>
<path d="M193.66 282.476L194.767 281.924L195.505 283.275L196.735 284.626L195.505 285.179L193.66 282.476Z" fill="#F2A495"/>
<path d="M193.599 264.358L194.767 270.131V271.851L194.029 272.711L192.246 272.342L191.877 270.746L192.246 264.358L192.799 263.375L193.599 264.358Z" fill="#006EAB"/>
<path d="M170.6 277.379L172.629 266.631L169.923 267.122H165.803L163.344 269.395L160.576 271.483L159.961 272.896L160.576 273.94L169.923 278.055L170.6 277.379Z" fill="#006EAB"/>
<path d="M169.554 261.226V262.639L162.606 263.191C162.688 261.881 162.876 259.187 162.975 258.892C163.073 258.597 167.402 260.325 169.554 261.226Z" fill="#F19A00"/>
<path d="M180.746 250.293L181.607 254.47L173.367 260.673L172.014 256.066L176.934 251.829L177.856 252.197L178.594 251.276L180.746 250.293Z" fill="#482728"/>
<path d="M185.051 250.416L186.342 250.047L193.045 253.917V254.899L191.016 255.329L184.682 252.32L185.051 250.416Z" fill="#D6CFB6"/>
<path d="M197.965 260.059L200.917 259.138L203.253 261.902L202.023 266.078L199.994 265.771L198.826 262.454L196.919 261.226L197.965 260.059Z" fill="#482728"/>
<path d="M180.532 285.643H184.777L187.977 290.73L185.757 292.883L180.532 285.643Z" fill="#F2A495"/>
<path d="M178.051 287.273L179.814 289.1H173.74L171.781 286.164L178.051 287.273Z" fill="#F19A00"/>
<path d="M203.651 283.75L204.173 280.163L202.541 279.511L200.385 280.554L199.667 283.359L200.385 285.446L203.651 283.75Z" fill="#D6CFB6"/>
<path d="M164.271 279.577L165.969 281.142L164.989 282.577L163.879 282.251L163.422 280.62L164.271 279.577Z" fill="#482728"/>
<path d="M171.52 289.686L173.74 290.208L171.128 292.752L170.54 291.643L171.52 289.686Z" fill="#F19A00"/>
<path d="M179.487 290.991L179.945 292.426L176.026 291.774L177.006 290.469L179.487 290.991Z" fill="#482728"/>
<path d="M190.72 292.035L192.875 291.513L192.026 293.73L189.088 294.317L190.72 292.035Z" fill="#F19A00"/>
<path d="M162.246 252.181L163.357 250.159L165.773 249.638L169.561 253.747V254.791L168.712 256.486L162.246 252.181Z" fill="#F19A00"/>
<path d="M161.528 255.703V254.79H162.442L163.879 255.703V256.682H163.161L161.528 255.703Z" fill="#F19A00"/>
<path d="M202.671 290.926L203.39 289.947L204.631 290.926L204.173 291.839L202.671 290.926Z" fill="#F45B45"/>
<path d="M189.833 264.963L190.284 271.614L186.278 270.614L184.726 262.913L189.833 264.963Z" fill="#D6CFB6"/>
<path d="M183.975 271.714L186.228 273.815L179.619 275.615L179.168 272.265L183.975 271.714Z" fill="#F19A00"/>
<path d="M187.63 276.265L190.684 273.664L193.638 275.515L192.337 277.715L193.939 279.115L193.638 280.266L188.281 279.115L187.63 276.265Z" fill="#006EAB"/>
<path d="M173.51 278.165L174.962 277.165V279.365L175.713 280.516H173.51V278.165Z" fill="#F45B45"/>
</g>
</svg>
