<svg width="229" height="319" viewBox="0 0 229 319" fill="none" xmlns="http://www.w3.org/2000/svg">
<mask id="mask0" mask-type="alpha" maskUnits="userSpaceOnUse" x="24" y="24" width="181" height="271">
<path d="M204.895 24.0752H24.1052V294.924H204.895V24.0752Z" fill="white"/>
</mask>
<g mask="url(#mask0)">
<path d="M46.7039 66.2076C57.5207 66.2076 66.2895 57.4497 66.2895 46.6463C66.2895 35.8429 57.5207 27.085 46.7039 27.085C35.8871 27.085 27.1184 35.8429 27.1184 46.6463C27.1184 57.4497 35.8871 66.2076 46.7039 66.2076Z" fill="#D6CFB6"/>
<path d="M36.1579 90.2832C41.1502 90.2832 45.1973 86.2411 45.1973 81.2549C45.1973 76.2687 41.1502 72.2266 36.1579 72.2266C31.1655 72.2266 27.1184 76.2687 27.1184 81.2549C27.1184 86.2411 31.1655 90.2832 36.1579 90.2832Z" fill="#6E9E80"/>
<path d="M48.2106 72.2266H66.2895V78.2454H48.2106V72.2266Z" fill="#F45B45"/>
<path d="M27.8717 105.33H66.2895V111.349H27.8717V105.33Z" fill="#D6CFB6"/>
<path d="M48.2106 81.2549H66.2895V102.321H48.2106V81.2549Z" fill="#482728"/>
<path d="M57.25 156.491H27.1184L27.1184 125.645H57.25L57.25 156.491Z" fill="#006EAB"/>
<path d="M27.1184 117.368L42.1842 122.635L57.25 117.368H27.1184Z" fill="#F2A495"/>
<path d="M66.2894 156.491H60.2631L60.2631 117.369H66.2894V156.491Z" fill="#006EAB"/>
<path d="M66.2894 201.633H27.1184V193.357H66.2894V201.633Z" fill="#F45B45"/>
<path d="M66.2894 170.786H27.1184V162.51H66.2894V170.786Z" fill="#F2A495"/>
<path d="M66.2894 190.347H27.1184V173.795H66.2894V190.347Z" fill="#F2A495"/>
<path d="M56.4967 217.432C61.9053 217.432 66.2894 213.053 66.2894 207.651H46.7039C46.7039 213.053 51.088 217.432 56.4967 217.432Z" fill="#482728"/>
<path d="M36.9112 217.432C42.3198 217.432 46.704 213.053 46.704 207.651H27.1185C27.1185 213.053 31.5026 217.432 36.9112 217.432Z" fill="#006EAB"/>
<path d="M36.9112 227.213C42.3198 227.213 46.704 222.834 46.704 217.432H27.1185C27.1185 222.834 31.5026 227.213 36.9112 227.213Z" fill="#006EAB"/>
<path d="M56.4967 227.213C61.9053 227.213 66.2894 222.834 66.2894 217.432H46.7039C46.7039 222.834 51.088 227.213 56.4967 227.213Z" fill="#F2A495"/>
<path d="M36.9112 236.993C42.3198 236.993 46.704 232.614 46.704 227.213H27.1185C27.1185 232.614 31.5026 236.993 36.9112 236.993Z" fill="#D6CFB6"/>
<path d="M56.4967 236.993C61.9053 236.993 66.2894 232.614 66.2894 227.213H46.7039C46.7039 232.614 51.088 236.993 56.4967 236.993Z" fill="#D6CFB6"/>
<path d="M36.9112 246.774C42.3198 246.774 46.704 242.396 46.704 236.994H27.1185C27.1185 242.396 31.5026 246.774 36.9112 246.774Z" fill="#6E9E80"/>
<path d="M56.4967 246.774C61.9053 246.774 66.2894 242.396 66.2894 236.994H46.7039C46.7039 242.396 51.088 246.774 56.4967 246.774Z" fill="#006EAB"/>
<path d="M36.9112 282.134C31.5026 282.134 27.1184 286.513 27.1184 291.914H46.7039C46.7039 286.513 42.3198 282.134 36.9112 282.134Z" fill="#6E9E80"/>
<path d="M56.4967 282.134C51.0881 282.134 46.704 286.513 46.704 291.914H66.2895C66.2895 286.513 61.9054 282.134 56.4967 282.134Z" fill="#482728"/>
<path d="M56.4967 272.354C51.0881 272.354 46.704 276.732 46.704 282.134H66.2895C66.2895 276.732 61.9054 272.354 56.4967 272.354Z" fill="#D6CFB6"/>
<path d="M36.9112 272.354C31.5026 272.354 27.1184 276.732 27.1184 282.134H46.7039C46.7039 276.732 42.3198 272.354 36.9112 272.354Z" fill="#F45B45"/>
<path d="M56.4967 262.572C51.0881 262.572 46.704 266.951 46.704 272.353H66.2895C66.2895 266.951 61.9054 262.572 56.4967 262.572Z" fill="#F45B45"/>
<path d="M36.9112 262.572C31.5026 262.572 27.1184 266.951 27.1184 272.353H46.7039C46.7039 266.951 42.3198 262.572 36.9112 262.572Z" fill="#006EAB"/>
<path d="M56.4967 252.792C51.0881 252.792 46.704 257.171 46.704 262.573H66.2895C66.2895 257.171 61.9054 252.792 56.4967 252.792Z" fill="#F2A495"/>
<path d="M36.9112 252.792C31.5026 252.792 27.1184 257.171 27.1184 262.573H46.7039C46.7039 257.171 42.3198 252.792 36.9112 252.792Z" fill="#482728"/>
<path d="M111.487 66.208H72.3158V57.9321L111.487 57.9321V66.208Z" fill="#F2A495"/>
<path d="M111.487 35.3613L72.3158 35.3613V27.0854L111.487 27.0854V35.3613Z" fill="#F2A495"/>
<path d="M111.487 54.9219L72.3158 54.9219V38.37H111.487V54.9219Z" fill="#006EAB"/>
<path d="M72.3158 72.227L72.3158 111.35L90.3947 91.7883L72.3158 72.227Z" fill="#F45B45"/>
<path d="M93.408 72.227L93.408 111.35L111.487 91.7883L93.408 72.227Z" fill="#006EAB"/>
<path d="M81.3552 117.368H111.487V148.215H81.3552V117.368Z" fill="#D6CFB6"/>
<path d="M111.487 156.491L96.421 151.225L81.3552 156.491H111.487Z" fill="#F2A495"/>
<path d="M72.3158 117.368H78.3421V156.491H72.3158V117.368Z" fill="#6E9E80"/>
<path d="M111.487 162.51V201.632H103.201V162.51H111.487Z" fill="#006EAB"/>
<path d="M80.6019 162.51V201.632H72.3157V162.51H80.6019Z" fill="#F2A495"/>
<path d="M100.188 162.51V201.632H83.6151V162.51H100.188Z" fill="#F2A495"/>
<path d="M90.3947 237.746C90.3947 232.76 86.3476 228.718 81.3553 228.718C76.3629 228.718 72.3158 232.76 72.3158 237.746C72.3158 242.732 76.3629 246.774 81.3553 246.774C86.3476 246.774 90.3947 242.732 90.3947 237.746Z" fill="#482728"/>
<path d="M72.3158 225.708V207.651H78.3421V225.708H72.3158Z" fill="#F2A495"/>
<path d="M105.461 246.021V207.651H111.487V246.021H105.461Z" fill="#6E9E80"/>
<path d="M81.3552 225.708V207.651H102.447V225.708H81.3552Z" fill="#6E9E80"/>
<path d="M91.9013 291.915C102.718 291.915 111.487 283.157 111.487 272.353C111.487 261.55 102.718 252.792 91.9013 252.792C81.0845 252.792 72.3158 261.55 72.3158 272.353C72.3158 283.157 81.0845 291.915 91.9013 291.915Z" fill="#F2A495"/>
<path d="M156.684 27.085V66.2076H148.398V27.085H156.684Z" fill="#482728"/>
<path d="M125.799 27.085V66.2076H117.513V27.085H125.799Z" fill="#006EAB"/>
<path d="M145.385 27.085V66.2076H128.813V27.085H145.385Z" fill="#D6CFB6"/>
<path d="M126.553 90.2832C131.545 90.2832 135.592 86.2411 135.592 81.2549C135.592 76.2687 131.545 72.2266 126.553 72.2266C121.56 72.2266 117.513 76.2687 117.513 81.2549C117.513 86.2411 121.56 90.2832 126.553 90.2832Z" fill="#F45B45"/>
<path d="M147.645 90.2832C152.637 90.2832 156.684 86.2411 156.684 81.2549C156.684 76.2687 152.637 72.2266 147.645 72.2266C142.652 72.2266 138.605 76.2687 138.605 81.2549C138.605 86.2411 142.652 90.2832 147.645 90.2832Z" fill="#482728"/>
<path d="M126.553 111.35C131.545 111.35 135.592 107.307 135.592 102.321C135.592 97.3351 131.545 93.293 126.553 93.293C121.56 93.293 117.513 97.3351 117.513 102.321C117.513 107.307 121.56 111.35 126.553 111.35Z" fill="#6E9E80"/>
<path d="M147.645 111.35C152.637 111.35 156.684 107.307 156.684 102.321C156.684 97.3351 152.637 93.293 147.645 93.293C142.652 93.293 138.605 97.3351 138.605 102.321C138.605 107.307 142.652 111.35 147.645 111.35Z" fill="#F2A495"/>
<path d="M138.605 126.396C138.605 131.383 142.652 135.425 147.645 135.425C152.637 135.425 156.684 131.383 156.684 126.396C156.684 121.41 152.637 117.368 147.645 117.368C142.652 117.368 138.605 121.41 138.605 126.396Z" fill="#F2A495"/>
<path d="M156.684 138.435V156.491H150.658V138.435H156.684Z" fill="#482728"/>
<path d="M123.54 118.12V156.49H117.513V118.12H123.54Z" fill="#F2A495"/>
<path d="M147.645 138.435V156.491H126.553V138.435H147.645Z" fill="#F2A495"/>
<path d="M137.099 201.632C147.916 201.632 156.684 192.875 156.684 182.071C156.684 171.268 147.916 162.51 137.099 162.51C126.282 162.51 117.513 171.268 117.513 182.071C117.513 192.875 126.282 201.632 137.099 201.632Z" fill="#482728"/>
<path d="M156.684 246.774H117.513V238.498H156.684V246.774Z" fill="#F45B45"/>
<path d="M156.684 215.928H117.513V207.652H156.684V215.928Z" fill="#006EAB"/>
<path d="M156.684 235.488H117.513V218.936H156.684V235.488Z" fill="#F45B45"/>
<path d="M117.513 291.915L117.513 252.792H125.799V291.915H117.513Z" fill="#F2A495"/>
<path d="M148.398 291.915V252.792H156.684V291.915H148.398Z" fill="#6E9E80"/>
<path d="M128.812 291.915V252.792H145.385V291.915H128.812Z" fill="#F45B45"/>
<path d="M201.882 46.6465V66.2078H177.776V46.6465H201.882Z" fill="#482728"/>
<path d="M201.882 27.085V43.6368H186.063V27.085H201.882Z" fill="#F45B45"/>
<path d="M183.049 27.085V43.6368H162.711V27.085H183.049Z" fill="#482728"/>
<path d="M174.763 46.6465V66.2078H162.711V46.6465H174.763Z" fill="#006EAB"/>
<path d="M182.296 111.349C193.113 111.349 201.882 102.591 201.882 91.7879C201.882 80.9845 193.113 72.2266 182.296 72.2266C171.479 72.2266 162.711 80.9845 162.711 91.7879C162.711 102.591 171.479 111.349 182.296 111.349Z" fill="#F45B45"/>
<path d="M182.296 117.368H201.882V141.444H182.296V117.368Z" fill="#482728"/>
<path d="M162.711 117.368H179.283V133.168H162.711V117.368Z" fill="#6E9E80"/>
<path d="M162.711 136.177H179.283V156.49H162.711V136.177Z" fill="#F2A495"/>
<path d="M182.296 144.453H201.882V156.491H182.296V144.453Z" fill="#6E9E80"/>
<path d="M201.882 182.823H162.711V162.51H201.882V182.823Z" fill="#F2A495"/>
<path d="M201.882 201.633H162.711V195.238H201.882V201.633Z" fill="#F2A495"/>
<path d="M201.882 192.228H162.711V185.833H201.882V192.228Z" fill="#F45B45"/>
<path d="M201.882 216.68V246.774H170.997V216.68H201.882Z" fill="#F2A495"/>
<path d="M162.711 246.774L167.984 231.727L162.711 216.68V246.774Z" fill="#F2A495"/>
<path d="M201.882 207.651V213.67H162.711V207.651H201.882Z" fill="#6E9E80"/>
<path d="M171.75 270.849C176.742 270.849 180.789 266.807 180.789 261.82C180.789 256.834 176.742 252.792 171.75 252.792C166.758 252.792 162.711 256.834 162.711 261.82C162.711 266.807 166.758 270.849 171.75 270.849Z" fill="#006EAB"/>
<path d="M192.842 270.849C197.834 270.849 201.882 266.807 201.882 261.82C201.882 256.834 197.834 252.792 192.842 252.792C187.85 252.792 183.803 256.834 183.803 261.82C183.803 266.807 187.85 270.849 192.842 270.849Z" fill="#F45B45"/>
<path d="M171.75 291.915C176.742 291.915 180.789 287.873 180.789 282.887C180.789 277.901 176.742 273.858 171.75 273.858C166.758 273.858 162.711 277.901 162.711 282.887C162.711 287.873 166.758 291.915 171.75 291.915Z" fill="#006EAB"/>
<path d="M192.842 291.915C197.834 291.915 201.882 287.873 201.882 282.887C201.882 277.901 197.834 273.858 192.842 273.858C187.85 273.858 183.803 277.901 183.803 282.887C183.803 287.873 187.85 291.915 192.842 291.915Z" fill="#F45B45"/>
</g>
</svg>
