<?xml version="1.0" encoding="utf-8"?>
<!-- Generator: Adobe Illustrator 24.3.0, SVG Export Plug-In . SVG Version: 6.00 Build 0)  -->
<svg version="1.1" id="Layer_1" xmlns="http://www.w3.org/2000/svg" xmlns:xlink="http://www.w3.org/1999/xlink" x="0px" y="0px"
	 viewBox="0 0 229 320" style="enable-background:new 0 0 229 320;" xml:space="preserve">
<style type="text/css">
	.st0{fill:#FFFFFF;filter:url(#Adobe_OpacityMaskFilter);}
	.st1{mask:url(#a_1_);}
	.st2{fill:#FCBD01;}
	.st3{fill:#FFFFFF;}
	.st4{fill:#F0F2F3;}
	.st5{fill:#14AAF5;}
	.st6{fill:#FF5263;}
	.st7{fill:#796EFF;}
</style>
<defs>
	<filter id="Adobe_OpacityMaskFilter" filterUnits="userSpaceOnUse" x="24.1" y="24.2" width="180.8" height="271.7">
		<feColorMatrix  type="matrix" values="1 0 0 0 0  0 1 0 0 0  0 0 1 0 0  0 0 0 1 0"/>
	</filter>
</defs>
<mask maskUnits="userSpaceOnUse" x="24.1" y="24.2" width="180.8" height="271.7" id="a_1_">
	<path class="st0" d="M204.9,24.2H24.1v271.7h180.8L204.9,24.2L204.9,24.2z"/>
</mask>
<g class="st1">
	<path class="st2" d="M46.7,69.4c12.5,0,22.6-10.1,22.6-22.6c0-12.5-10.1-22.6-22.6-22.6c-12.5,0-22.6,10.1-22.6,22.6
		C24.1,59.3,34.2,69.4,46.7,69.4z"/>
	<path class="st3" d="M24.1,69.4c0,25,20.2,45.3,45.2,45.3V69.4H24.1z"/>
	<path class="st2" d="M46.7,160c12.5,0,22.6-10.1,22.6-22.6c0-12.5-10.1-22.6-22.6-22.6c-12.5,0-22.6,10.1-22.6,22.6
		C24.1,149.9,34.2,160,46.7,160z M24.1,160h45.2v45.3H24.1V160z"/>
	<path class="st4" d="M24.1,250.6c25,0,45.2-20.3,45.2-45.3H24.1V250.6z"/>
	<path class="st5" d="M114.5,69.4H69.3V24.2h45.2V69.4z"/>
	<path class="st4" d="M114.5,69.4H69.3V24.2C94.3,24.2,114.5,44.4,114.5,69.4z M69.3,114.7c25,0,45.2-20.3,45.2-45.3H69.3
		C69.3,69.4,69.3,114.7,69.3,114.7z"/>
	<path class="st6" d="M91.9,160c12.5,0,22.6-10.1,22.6-22.6c0-12.5-10.1-22.6-22.6-22.6c-12.5,0-22.6,10.1-22.6,22.6
		C69.3,149.9,79.4,160,91.9,160L91.9,160z"/>
	<path class="st5" d="M114.5,160v45.3l-45.2,0V160L114.5,160z"/>
	<path class="st2" d="M114.5,160v45.3H69.3C69.3,180.3,89.5,160,114.5,160z"/>
	<path class="st7" d="M69.3,250.6v-45.3h45.2v45.3H69.3z"/>
	<path class="st6" d="M114.5,227.9c0-12.5-10.1-22.6-22.6-22.6c-12.5,0-22.6,10.1-22.6,22.6c0,12.5,10.1,22.6,22.6,22.6
		S114.5,240.4,114.5,227.9z"/>
	<path class="st7" d="M114.5,250.6v45.3H69.3v-45.3H114.5z"/>
	<path class="st7" d="M114.5,250.6v45.3H69.3C69.3,270.8,89.5,250.6,114.5,250.6z M159.7,24.2c-25,0-45.2,20.3-45.2,45.3h45.2V24.2z
		"/>
	<path class="st3" d="M159.7,69.4v45.3h-45.2V69.4H159.7L159.7,69.4z"/>
	<path class="st3" d="M159.7,69.4v45.3h-45.2C114.5,89.7,134.7,69.4,159.7,69.4L159.7,69.4z M159.7,114.7V160h-45.2v-45.3
		L159.7,114.7L159.7,114.7z"/>
	<path class="st7" d="M159.7,114.7V160h-45.2C114.5,135,134.7,114.7,159.7,114.7L159.7,114.7z"/>
	<path class="st3" d="M137.1,205.3c12.5,0,22.6-10.1,22.6-22.6c0-12.5-10.1-22.6-22.6-22.6c-12.5,0-22.6,10.1-22.6,22.6
		C114.5,195.1,124.6,205.3,137.1,205.3z"/>
	<path class="st5" d="M159.7,250.6h-45.2v-45.3h45.2L159.7,250.6L159.7,250.6z"/>
	<path class="st7" d="M137.1,205.3c-12.5,0-22.6,10.1-22.6,22.6c0,12.5,10.1,22.6,22.6,22.6s22.6-10.1,22.6-22.6
		C159.7,215.4,149.6,205.3,137.1,205.3z"/>
	<g>
		<path class="st3" d="M159.7,295.9c0-25-20.2-45.3-45.2-45.3v45.3H159.7z"/>
	</g>
	<g>
		<path class="st5" d="M159.7,69.4V24.2h45.2v45.3H159.7z"/>
		<path class="st3" d="M159.7,69.4V24.2h45.2C204.9,49.2,184.7,69.4,159.7,69.4z"/>
	</g>
	<g>
		<path class="st3" d="M182.3,114.7c12.5,0,22.6-10.1,22.6-22.6s-10.1-22.6-22.6-22.6s-22.6,10.1-22.6,22.6S169.8,114.7,182.3,114.7
			z"/>
	</g>
	<g>
		<path class="st6" d="M204.9,114.7V160h-45.2v-45.3C159.7,114.7,204.9,114.7,204.9,114.7z"/>
		<path class="st3" d="M159.7,137.4c0,12.5,10.1,22.6,22.6,22.6s22.6-10.1,22.6-22.6c0-12.5-10.1-22.6-22.6-22.6
			S159.7,124.9,159.7,137.4z"/>
	</g>
	<g>
		<path class="st3" d="M204.9,205.3c-25,0-45.2,20.3-45.2,45.3h45.2V205.3z"/>
	</g>
	<g>
		<path class="st7" d="M204.9,250.6v45.3h-45.2v-45.3H204.9z"/>
		<path class="st6" d="M204.9,250.6v45.3h-45.2C159.7,270.8,179.9,250.6,204.9,250.6z"/>
	</g>
</g>
</svg>
