<?xml version="1.0" encoding="utf-8"?>
<!-- Generator: Adobe Illustrator 24.3.0, SVG Export Plug-In . SVG Version: 6.00 Build 0)  -->
<svg version="1.1" id="Layer_1" xmlns="http://www.w3.org/2000/svg" xmlns:xlink="http://www.w3.org/1999/xlink" x="0px" y="0px"
	 viewBox="0 0 229 319" style="enable-background:new 0 0 229 319;" xml:space="preserve">
<style type="text/css">
	.st0{fill:#FFFFFF;filter:url(#Adobe_OpacityMaskFilter);}
	.st1{mask:url(#mask0_1_);}
	.st2{fill:#14AAF5;}
	.st3{fill:#FFFFFF;}
	.st4{fill:#796EFF;}
	.st5{fill:#FCBD01;}
	.st6{fill:#FF5263;}
	.st7{fill:#FFCAB3;}
</style>
<defs>
	<filter id="Adobe_OpacityMaskFilter" filterUnits="userSpaceOnUse" x="24.1" y="24.1" width="180.8" height="270.8">
		<feColorMatrix  type="matrix" values="1 0 0 0 0  0 1 0 0 0  0 0 1 0 0  0 0 0 1 0"/>
	</filter>
</defs>
<mask maskUnits="userSpaceOnUse" x="24.1" y="24.1" width="180.8" height="270.8" id="mask0_1_">
	<path class="st0" d="M204.9,24.1H24.1v270.8h180.8V24.1z"/>
</mask>
<g class="st1">
	<path class="st2" d="M24.1,46.6c0-12.5,10.1-22.6,22.6-22.6c12.5,0,22.6,10.1,22.6,22.6c0,12.5-10.1,22.6-22.6,22.6
		C34.2,69.2,24.1,59.1,24.1,46.6z"/>
	<path class="st3" d="M24.1,69.2h22.6c12.5,0,22.6,10.1,22.6,22.6c0,12.5-10.1,22.6-22.6,22.6c-12.5,0-22.6-10.1-22.6-22.6V69.2z"/>
	<path class="st3" d="M24.1,136.9c0-12.5,10.1-22.6,22.6-22.6c12.5,0,22.6,10.1,22.6,22.6s-10.1,22.6-22.6,22.6
		C34.2,159.5,24.1,149.4,24.1,136.9z"/>
	<path class="st4" d="M69.3,204.6H46.7c-12.5,0-22.6-10.1-22.6-22.6s10.1-22.6,22.6-22.6h22.6V204.6z"/>
	<path class="st4" d="M24.1,227.2c0-12.5,10.1-22.6,22.6-22.6c12.5,0,22.6,10.1,22.6,22.6c0,12.5-10.1,22.6-22.6,22.6
		C34.2,249.8,24.1,239.7,24.1,227.2z"/>
	<path class="st3" d="M114.5,24.1v22.6c0,12.5-10.1,22.6-22.6,22.6c-12.5,0-22.6-10.1-22.6-22.6V24.1H114.5z"/>
	<path class="st5" d="M69.3,91.8c0-12.5,10.1-22.6,22.6-22.6c12.5,0,22.6,10.1,22.6,22.6c0,12.5-10.1,22.6-22.6,22.6
		C79.4,114.4,69.3,104.3,69.3,91.8z"/>
	<path class="st4" d="M114.5,159.5H91.9c-12.5,0-22.6-10.1-22.6-22.6s10.1-22.6,22.6-22.6c12.5,0,22.6,10.1,22.6,22.6V159.5z"/>
	<path class="st4" d="M69.3,159.5h45.2v45.1H69.3V159.5z"/>
	<path class="st5" d="M114.5,249.8H91.9c-12.5,0-22.6-10.1-22.6-22.6c0-12.5,10.1-22.6,22.6-22.6h22.6V249.8z"/>
	<path class="st6" d="M69.3,272.4c0-12.5,10.1-22.6,22.6-22.6c12.5,0,22.6,10.1,22.6,22.6s-10.1,22.6-22.6,22.6
		C79.4,294.9,69.3,284.8,69.3,272.4z"/>
	<path class="st6" d="M159.7,24.1v22.6c0,12.5-10.1,22.6-22.6,22.6c-12.5,0-22.6-10.1-22.6-22.6V24.1H159.7z"/>
	<path class="st4" d="M114.5,69.2h22.6c12.5,0,22.6,10.1,22.6,22.6c0,12.5-10.1,22.6-22.6,22.6h-22.6V69.2z"/>
	<path class="st4" d="M159.7,159.5h-22.6c-12.5,0-22.6-10.1-22.6-22.6v-22.6h45.2V159.5z"/>
	<path class="st7" d="M159.7,204.6h-22.6c-12.5,0-22.6-10.1-22.6-22.6s10.1-22.6,22.6-22.6h22.6V204.6z"/>
	<path class="st5" d="M114.5,227.2c0-12.5,10.1-22.6,22.6-22.6c12.5,0,22.6,10.1,22.6,22.6c0,12.5-10.1,22.6-22.6,22.6
		C124.6,249.8,114.5,239.7,114.5,227.2z"/>
	<path class="st6" d="M114.5,249.8h22.6c12.5,0,22.6,10.1,22.6,22.6s-10.1,22.6-22.6,22.6c-12.5,0-22.6-10.1-22.6-22.6V249.8z"/>
	<path class="st7" d="M159.7,46.6c0-12.5,10.1-22.6,22.6-22.6c12.5,0,22.6,10.1,22.6,22.6c0,12.5-10.1,22.6-22.6,22.6
		C169.8,69.2,159.7,59.1,159.7,46.6z"/>
	<path class="st5" d="M204.9,114.4h-22.6c-12.5,0-22.6-10.1-22.6-22.6c0-12.5,10.1-22.6,22.6-22.6h22.6V114.4z"/>
	<path class="st4" d="M159.7,114.4h22.6c12.5,0,22.6,10.1,22.6,22.6v22.6h-45.2V114.4z"/>
	<path class="st2" d="M204.9,159.5v22.6c0,12.5-10.1,22.6-22.6,22.6c-12.5,0-22.6-10.1-22.6-22.6v-22.6H204.9z"/>
	<path class="st6" d="M204.9,249.8h-22.6c-12.5,0-22.6-10.1-22.6-22.6v-22.6h45.2V249.8z"/>
	<path class="st7" d="M204.9,294.9h-22.6c-12.5,0-22.6-10.1-22.6-22.6s10.1-22.6,22.6-22.6c12.5,0,22.6,10.1,22.6,22.6V294.9z"/>
</g>
</svg>
