<svg width="229" height="319" viewBox="0 0 229 319" fill="none" xmlns="http://www.w3.org/2000/svg">
<mask id="mask0" mask-type="alpha" maskUnits="userSpaceOnUse" x="24" y="24" width="181" height="271">
<path d="M204.895 24.0752H24.1052V294.924H204.895V24.0752Z" fill="white"/>
</mask>
<g mask="url(#mask0)">
<path d="M24.1052 24.0752H69.3026V69.2167H24.1052V24.0752Z" fill="#F2A495"/>
<path d="M47.357 27.085H46.0508V44.2124L37.4761 29.3797L36.3462 30.0319L44.9201 44.8647L30.069 36.3014L29.4159 37.4314L44.267 45.9947H27.1184V47.2993H44.2678L29.4159 55.8619L30.069 56.992L44.9201 48.4279L36.3462 63.2606L37.4776 63.9129L46.0516 49.0802V66.2076H47.3578V49.0794L55.931 63.9129L57.0624 63.2606L48.4877 48.4279L63.3388 56.9912L63.9919 55.8612L49.1401 47.2978H66.2895V45.9932H49.1401L63.9919 37.4306L63.3388 36.3006L48.4877 44.8647L57.0617 30.0319L55.9302 29.3797L47.3563 44.2132V27.085H47.357Z" fill="#F45B45"/>
<path d="M24.1052 69.2168H69.3026V114.358H24.1052V69.2168Z" fill="#6E9E80"/>
<path d="M27.1184 91.7879H46.7039L27.1184 72.2266V91.7879Z" fill="#F2A495"/>
<path d="M27.1184 111.349H46.7039L27.1184 91.7879V111.349ZM46.7039 91.7879H66.2895L46.7039 72.2266V91.7879Z" fill="#F19A00"/>
<path d="M46.7039 111.348H66.2894L46.7039 91.7871V111.348Z" fill="#006EAB"/>
<path d="M46.7039 111.348H66.2894L46.7039 91.7871V111.348Z" fill="#F2A495"/>
<path d="M24.1052 159.5L24.1052 114.358H69.3026V159.5H24.1052Z" fill="#6E9E80"/>
<path d="M56.4967 136.929C56.4967 131.528 52.1123 127.149 46.7039 127.149C41.2955 127.149 36.9111 131.528 36.9111 136.929C36.9111 142.331 41.2955 146.71 46.7039 146.71C52.1123 146.71 56.4967 142.331 56.4967 136.929Z" fill="#F45B45"/>
<path d="M31.6381 144.453V142.948H61.7696V144.453H31.6381ZM31.6381 137.682V136.177H61.7696V137.682H31.6381ZM31.6381 130.911V129.406H61.7696V130.911H31.6381Z" fill="#482728"/>
<path d="M24.1052 159.5H69.3026V204.642H24.1052V159.5Z" fill="#006EAB"/>
<path d="M46.7039 191.851C52.1123 191.851 56.4967 187.472 56.4967 182.071C56.4967 176.669 52.1123 172.29 46.7039 172.29C41.2955 172.29 36.9111 176.669 36.9111 182.071C36.9111 187.472 41.2955 191.851 46.7039 191.851Z" fill="#F19A00"/>
<path d="M39.171 167.023H40.6776V197.118H39.171V167.023ZM45.9506 167.023H47.4572V197.118H45.9506V167.023ZM52.7302 167.023H54.2368V197.118H52.7302V167.023Z" fill="#482728"/>
<path d="M24.1052 204.642H69.3026V249.783H24.1052V204.642Z" fill="#006EAB"/>
<path d="M46.7039 236.993C52.1123 236.993 56.4967 232.614 56.4967 227.212C56.4967 221.811 52.1123 217.432 46.7039 217.432C41.2955 217.432 36.9111 221.811 36.9111 227.212C36.9111 232.614 41.2955 236.993 46.7039 236.993Z" fill="#482728"/>
<path d="M39.171 212.165H40.6776V242.259H39.171V212.165ZM45.9506 212.165H47.4572V242.259H45.9506V212.165ZM52.7302 212.165H54.2368V242.259H52.7302V212.165Z" fill="#F45B45"/>
<path d="M69.3026 294.925H24.1052L24.1052 249.783H69.3026V294.925Z" fill="#F45B45"/>
<path d="M46.704 258.059C40.4637 258.059 35.4046 263.112 35.4046 269.345H58.0033C58.0033 263.112 52.9442 258.059 46.704 258.059Z" fill="#6E9E80"/>
<path d="M46.7039 272.354C42.9596 272.354 39.9243 275.386 39.9243 279.125C39.9243 282.865 42.9596 285.896 46.7039 285.896C50.4482 285.896 53.4835 282.865 53.4835 279.125C53.4835 275.386 50.4482 272.354 46.7039 272.354Z" fill="#006EAB"/>
<path d="M69.3026 69.2168L69.3026 24.0753L114.5 24.0753V69.2168L69.3026 69.2168Z" fill="#F45B45"/>
<path d="M101.694 46.6461C101.694 41.2444 97.3097 36.8654 91.9013 36.8654C86.4929 36.8654 82.1085 41.2444 82.1085 46.6461C82.1085 52.0478 86.4929 56.4268 91.9013 56.4268C97.3097 56.4268 101.694 52.0478 101.694 46.6461Z" fill="#482728"/>
<path d="M76.8354 54.1699V52.6652L106.967 52.6652V54.1699L76.8354 54.1699ZM76.8354 47.3987V45.894L106.967 45.894V47.3987L76.8354 47.3987ZM76.8354 40.6275V39.1228L106.967 39.1228V40.6275L76.8354 40.6275Z" fill="#6E9E80"/>
<path d="M69.3026 69.2168H114.5V114.358H69.3026V69.2168Z" fill="#F19A00"/>
<path d="M92.5544 72.2266H91.2482V89.354L82.6735 74.5213L81.5436 75.1736L90.1175 90.0063L75.2664 81.443L74.6133 82.573L89.4644 91.1363H72.3158V92.4409H89.4652L74.6133 101.004L75.2664 102.134L90.1175 93.5695L81.5436 108.402L82.675 109.055L91.249 94.2218V111.349H92.5552V94.221L101.128 109.055L102.26 108.402L93.6851 93.5695L108.536 102.133L109.189 101.003L94.3375 92.4394H111.487V91.1348H94.3375L109.189 82.5722L108.536 81.4422L93.6851 90.0063L102.259 75.1736L101.128 74.5213L92.5537 89.3548V72.2266H92.5544Z" fill="#6E9E80"/>
<path d="M69.3026 114.358H114.5V159.5H69.3026V114.358Z" fill="#006EAB"/>
<path d="M92.5544 117.368H91.2482V134.496L82.6735 119.663L81.5436 120.315L90.1175 135.148L75.2664 126.585L74.6133 127.715L89.4644 136.278H72.3158V137.583H89.4652L74.6133 146.145L75.2664 147.275L90.1175 138.711L81.5436 153.544L82.675 154.196L91.249 139.363V156.491H92.5552V139.363L101.128 154.196L102.26 153.544L93.6851 138.711L108.536 147.274L109.189 146.144L94.3375 137.581H111.487V136.276H94.3375L109.189 127.714L108.536 126.584L93.6851 135.148L102.259 120.315L101.128 119.663L92.5537 134.496V117.368H92.5544Z" fill="#F2A495"/>
<path d="M69.3026 159.5H114.5V204.642H69.3026V159.5Z" fill="#F45B45"/>
<path d="M99.4342 186.585C99.4342 190.74 96.0617 194.109 91.9013 194.109C87.7409 194.109 84.3684 190.74 84.3684 186.585C84.3684 182.43 91.148 170.033 91.9013 170.033C92.6546 170.033 99.4342 182.43 99.4342 186.585Z" fill="#F19A00"/>
<path d="M114.5 249.783H69.3026V204.642H114.5V249.783Z" fill="#482728"/>
<path d="M91.9013 217.432C86.4929 217.432 82.1086 221.811 82.1086 227.213C82.1086 232.614 86.4929 236.993 91.9013 236.993C97.3097 236.993 101.694 232.614 101.694 227.213C101.694 221.811 97.3097 217.432 91.9013 217.432Z" fill="#F2A495"/>
<path d="M99.4342 242.26H97.9276V212.165H99.4342V242.26ZM92.6546 242.26H91.148V212.165H92.6546V242.26ZM85.875 242.26H84.3684V212.165H85.875V242.26Z" fill="#006EAB"/>
<path d="M69.3026 249.783H114.5V294.925H69.3026V249.783Z" fill="#6E9E80"/>
<path d="M106.214 271.978C106.214 274.415 102.025 281.382 91.9012 281.382C81.7778 281.382 77.5887 274.415 77.5887 271.978C77.5887 269.54 81.7778 262.573 91.9012 262.573C102.025 262.573 106.214 269.54 106.214 271.978Z" fill="#F2A495"/>
<path d="M91.9013 277.621C94.8135 277.621 97.1743 275.263 97.1743 272.354C97.1743 269.446 94.8135 267.088 91.9013 267.088C88.9891 267.088 86.6283 269.446 86.6283 272.354C86.6283 275.263 88.9891 277.621 91.9013 277.621Z" fill="#F45B45"/>
<path d="M114.5 69.2168L114.5 24.0753L159.697 24.0753V69.2168L114.5 69.2168Z" fill="#F2A495"/>
<path d="M151.411 46.6463C151.411 40.4137 146.352 35.3609 140.112 35.3609V57.9316C146.352 57.9316 151.411 52.8788 151.411 46.6463Z" fill="#482728"/>
<path d="M137.099 46.6458C137.099 42.9061 134.063 39.8745 130.319 39.8745C126.575 39.8745 123.539 42.9061 123.539 46.6458C123.539 50.3854 126.575 53.417 130.319 53.417C134.063 53.417 137.099 50.3854 137.099 46.6458Z" fill="#F45B45"/>
<path d="M159.697 69.2168V114.358H114.5V69.2168H159.697Z" fill="#F45B45"/>
<path d="M137.099 72.2266V91.7879L156.684 72.2266H137.099Z" fill="#6E9E80"/>
<path d="M117.513 72.2266V91.7879L137.099 72.2266H117.513ZM137.099 91.7879V111.349L156.684 91.7879H137.099Z" fill="#006EAB"/>
<path d="M117.513 91.7871V111.348L137.099 91.7871H117.513Z" fill="#006EAB"/>
<path d="M117.513 91.7871V111.348L137.099 91.7871H117.513Z" fill="#482728"/>
<path d="M114.5 159.5L114.5 114.358H159.697V159.5H114.5Z" fill="#006EAB"/>
<path d="M137.099 156.49V136.929L117.513 156.49H137.099Z" fill="#F2A495"/>
<path d="M156.684 156.49V136.929L137.099 156.49H156.684ZM137.099 136.929V117.368L117.513 136.929H137.099Z" fill="#F2A495"/>
<path d="M156.684 136.929V117.367L137.099 136.929H156.684Z" fill="#F2A495"/>
<path d="M156.684 136.929V117.367L137.099 136.929H156.684Z" fill="#F45B45"/>
<path d="M114.5 204.642L114.5 159.5H159.697V204.642H114.5Z" fill="#F2A495"/>
<path d="M151.411 182.071C151.411 175.839 146.352 170.786 140.112 170.786V193.356C146.352 193.356 151.411 188.304 151.411 182.071Z" fill="#006EAB"/>
<path d="M137.099 182.071C137.099 178.331 134.063 175.299 130.319 175.299C126.575 175.299 123.539 178.331 123.539 182.071C123.539 185.81 126.575 188.842 130.319 188.842C134.063 188.842 137.099 185.81 137.099 182.071Z" fill="#F19A00"/>
<path d="M114.5 204.642H159.697V249.783H114.5V204.642Z" fill="#F45B45"/>
<path d="M137.752 207.651H136.446V222.258L132.66 208.149L131.399 208.486L135.185 222.598L127.871 209.946L126.741 210.598L134.054 223.249L123.711 212.919L122.788 213.842L133.13 224.172L120.464 216.868L119.811 217.996L132.478 225.301L118.349 221.52L118.012 222.78L132.14 226.56H117.513V227.865H132.14L118.012 231.646L118.35 232.905L132.478 229.124L119.811 236.429L120.464 237.558L133.13 230.254L122.788 240.584L123.711 241.506L134.054 231.176L126.741 243.827L127.871 244.479L135.185 231.828L131.399 245.939L132.66 246.276L136.446 232.165V246.774H137.752V232.164L141.538 246.276L142.799 245.939L139.014 231.829L146.326 244.479L147.457 243.827L140.144 231.176L150.486 241.506L151.41 240.584L141.067 230.254L153.734 237.558L154.387 236.428L141.719 229.124L155.848 232.905L156.186 231.646L142.058 227.865H156.684V226.56H142.058L156.186 222.78L155.848 221.52L141.719 225.301L154.387 217.997L153.734 216.867L141.067 224.172L151.41 213.842L150.486 212.919L140.144 223.249L147.457 210.598L146.327 209.946L139.012 222.598L142.799 208.486L141.538 208.149L137.753 222.26V207.651H137.752Z" fill="#006EAB"/>
<path d="M159.697 294.925H114.5V249.783H159.697V294.925Z" fill="#006EAB"/>
<path d="M129.566 267.84C129.566 263.684 132.938 260.316 137.099 260.316C141.259 260.316 144.632 263.684 144.632 267.84C144.632 271.995 137.852 284.392 137.099 284.392C136.345 284.392 129.566 271.995 129.566 267.84Z" fill="#6E9E80"/>
<path d="M159.697 24.0752H204.895V69.2167H159.697V24.0752Z" fill="#482728"/>
<path d="M162.711 66.2068H201.882L182.296 46.6455L162.711 66.2068Z" fill="#F19A00"/>
<path d="M201.882 27.085H162.711L182.296 46.6463L201.882 27.085Z" fill="#6E9E80"/>
<path d="M159.697 69.2168H204.895V114.358H159.697V69.2168Z" fill="#482728"/>
<path d="M182.296 106.082C188.536 106.082 193.595 101.029 193.595 94.7969H170.997C170.997 101.029 176.056 106.082 182.296 106.082Z" fill="#6E9E80"/>
<path d="M182.296 91.7876C186.04 91.7876 189.076 88.756 189.076 85.0163C189.076 81.2767 186.04 78.2451 182.296 78.2451C178.552 78.2451 175.516 81.2767 175.516 85.0163C175.516 88.756 178.552 91.7876 182.296 91.7876Z" fill="#F19A00"/>
<path d="M159.697 159.5V114.358H204.895V159.5H159.697Z" fill="#006EAB"/>
<path d="M192.089 136.929C192.089 131.528 187.704 127.149 182.296 127.149C176.888 127.149 172.503 131.528 172.503 136.929C172.503 142.331 176.888 146.71 182.296 146.71C187.704 146.71 192.089 142.331 192.089 136.929Z" fill="#F45B45"/>
<path d="M167.23 144.453V142.948H197.362V144.453H167.23ZM167.23 137.682V136.177H197.362V137.682H167.23ZM167.23 130.911V129.406H197.362V130.911H167.23Z" fill="#F19A00"/>
<path d="M204.895 204.642H159.697V159.5H204.895V204.642Z" fill="#F45B45"/>
<path d="M182.296 167.776C176.056 167.776 170.997 172.829 170.997 179.062H193.595C193.595 172.829 188.536 167.776 182.296 167.776Z" fill="#006EAB"/>
<path d="M182.296 182.071C178.552 182.071 175.516 185.102 175.516 188.842C175.516 192.582 178.552 195.613 182.296 195.613C186.04 195.613 189.076 192.582 189.076 188.842C189.076 185.102 186.04 182.071 182.296 182.071Z" fill="#482728"/>
<path d="M159.697 204.642H204.895V249.783H159.697V204.642Z" fill="#482728"/>
<path d="M182.949 207.651H181.643V224.779L173.068 209.946L171.938 210.598L180.512 225.431L165.661 216.868L165.008 217.998L179.859 226.561H162.711V227.866H179.86L165.008 236.428L165.661 237.558L180.512 228.994L171.938 243.827L173.07 244.479L181.644 229.647V246.774H182.95V229.646L191.523 244.479L192.655 243.827L184.08 228.994L198.931 237.558L199.584 236.428L184.732 227.864H201.882V226.56H184.732L199.584 217.997L198.931 216.867L184.08 225.431L192.654 210.598L191.522 209.946L182.948 224.78V207.651H182.949Z" fill="#006EAB"/>
<path d="M204.895 249.783V294.925H159.697V249.783H204.895Z" fill="#F2A495"/>
<path d="M204.895 261.069L193.595 249.783V272.354L204.895 261.069Z" fill="#006EAB"/>
<path d="M204.895 283.639L193.595 272.354V294.924L204.895 283.639Z" fill="#482728"/>
<path d="M182.296 261.069L170.997 249.783V272.354L182.296 261.069Z" fill="#006EAB"/>
<path d="M182.296 283.639L170.997 272.354V294.924L182.296 283.639Z" fill="#F19A00"/>
<path d="M193.595 272.354L182.296 261.068V283.639L193.595 272.354Z" fill="#006EAB"/>
<path d="M170.997 272.354L159.697 261.068V283.639L170.997 272.354Z" fill="#F19A00"/>
<path d="M170.997 294.925L159.697 283.64V294.925H170.997Z" fill="#482728"/>
<path d="M193.595 294.925L182.296 283.64V294.925H193.595Z" fill="#482728"/>
<path d="M170.997 249.783L159.697 261.069V249.783H170.997Z" fill="#F19A00"/>
<path d="M193.595 249.783L182.296 261.069V249.783H193.595Z" fill="#482728"/>
</g>
</svg>
