<svg width="229" height="320" viewBox="0 0 229 320" fill="none" xmlns="http://www.w3.org/2000/svg">
<mask id="mask0" mask-type="alpha" maskUnits="userSpaceOnUse" x="24" y="24" width="181" height="272">
<path d="M204.895 24.1514H24.1052V295.849H204.895V24.1514Z" fill="white"/>
</mask>
<g mask="url(#mask0)">
<path d="M69.3026 24.1514V69.4344H24.1052V24.1514L69.3026 24.1514Z" fill="#3C4D66"/>
<path d="M54.2368 24.1514V39.2457H39.171V24.1514L54.2368 24.1514ZM69.3026 39.2457V54.34H54.2368V39.2457H69.3026ZM54.2368 54.34V69.4344H39.171V54.34H54.2368ZM69.3026 54.34V69.4344H54.2368V54.34H69.3026ZM39.171 24.1514V39.2457H24.1052V24.1514H39.171ZM39.171 39.2457V54.34H24.1052V39.2457H39.171Z" fill="#4F87CB"/>
<path d="M24.1052 114.717L24.1052 69.4338H69.3026V114.717L24.1052 114.717Z" fill="#3C4D66"/>
<path d="M24.1052 114.717L24.1052 99.6225H39.171V114.717H24.1052ZM39.171 114.717V99.6225H54.2368V114.717H39.171ZM54.2368 114.717V99.6225L69.3026 99.6225V114.717L54.2368 114.717ZM39.171 99.6225L39.171 84.5281H54.2368L54.2368 99.6225H39.171ZM54.2368 99.6225L54.2368 84.5281H69.3026V99.6225L54.2368 99.6225ZM54.2368 84.5281V69.4338H69.3026V84.5281H54.2368Z" fill="#4F87CB"/>
<path d="M24.1052 114.717H69.3026V160H24.1052V114.717Z" fill="#3C4D66"/>
<path d="M24.1052 129.811H39.171V144.905H24.1052V129.811ZM39.171 114.717H54.2368V129.811H39.171V114.717ZM54.2368 129.811H69.3026V144.905H54.2368V129.811ZM54.2368 114.717H69.3026V129.811H54.2368V114.717ZM24.1052 144.905H39.171V160H24.1052V144.905ZM39.171 144.905H54.2368V160H39.171V144.905Z" fill="#4F87CB"/>
<path d="M24.1052 160H69.3026V205.283H24.1052V160Z" fill="#3C4D66"/>
<path d="M39.171 175.095H54.2368V190.189H39.171V175.095Z" fill="#4F87CB"/>
<path d="M69.3026 205.283V250.566H24.1052V205.283H69.3026Z" fill="#3C4D66"/>
<path d="M69.3026 205.283V220.378H54.2368V205.283H69.3026ZM39.171 205.283V220.378H24.1052V205.283H39.171ZM69.3026 235.472V250.566H54.2368V235.472H69.3026ZM39.171 235.472V250.566H24.1052V235.472H39.171Z" fill="#4F87CB"/>
<path d="M24.1052 295.85L24.1052 250.567H69.3026V295.85H24.1052Z" fill="#3C4D66"/>
<path d="M24.1052 295.85L24.1052 280.755H39.171V295.85H24.1052ZM39.171 295.85V280.755H54.2368V295.85H39.171ZM54.2368 295.85V280.755H69.3026V295.85H54.2368ZM39.171 280.755L39.171 265.661H54.2368L54.2368 280.755H39.171ZM54.2368 280.755L54.2368 265.661H69.3026V280.755H54.2368ZM54.2368 265.661V250.567H69.3026V265.661H54.2368Z" fill="#4F87CB"/>
<path d="M114.5 69.4346H69.3026V24.1516L114.5 24.1516V69.4346Z" fill="#3C4D66"/>
<path d="M114.5 54.3402H99.4342V39.2459H114.5V54.3402ZM99.4342 69.4346H84.3684V54.3402H99.4342V69.4346ZM84.3684 54.3402L69.3026 54.3402V39.2459L84.3684 39.2459V54.3402ZM84.3684 69.4346H69.3026V54.3402L84.3684 54.3402V69.4346ZM114.5 39.2459H99.4342V24.1516H114.5V39.2459ZM99.4342 39.2459H84.3684V24.1516L99.4342 24.1516V39.2459Z" fill="#4F87CB"/>
<path d="M114.5 114.717H69.3026V69.4338H114.5V114.717Z" fill="#3C4D66"/>
<path d="M114.5 114.717H99.4342V99.6225H114.5V114.717ZM114.5 84.5281H99.4342V69.4338H114.5V84.5281ZM84.3684 114.717H69.3026V99.6225H84.3684V114.717ZM84.3684 84.5281H69.3026V69.4338H84.3684V84.5281Z" fill="#4F87CB"/>
<path d="M69.3026 160L69.3026 114.717H114.5V160H69.3026Z" fill="#3C4D66"/>
<path d="M69.3026 160V144.906H84.3684V160H69.3026ZM99.4342 160V144.906H114.5V160H99.4342ZM69.3026 129.811L69.3026 114.717H84.3684L84.3684 129.811H69.3026ZM99.4342 129.811V114.717H114.5V129.811H99.4342Z" fill="#4F87CB"/>
<path d="M114.5 205.283H69.3026V160H114.5V205.283Z" fill="#4F87CB"/>
<path d="M114.5 205.283H99.4342V190.189H114.5V205.283ZM114.5 175.095H99.4342V160H114.5V175.095ZM84.3684 205.283H69.3026V190.189H84.3684V205.283ZM84.3684 175.095H69.3026V160H84.3684V175.095Z" fill="#3C4D66"/>
<path d="M114.5 250.566H69.3026V205.283H114.5V250.566Z" fill="#3C4D66"/>
<path d="M114.5 235.472H99.4342V220.378H114.5V235.472ZM99.4342 250.566H84.3684V235.472H99.4342V250.566ZM84.3684 235.472H69.3026V220.378H84.3684V235.472ZM84.3684 250.566H69.3026V235.472H84.3684V250.566ZM114.5 220.378H99.4342V205.283H114.5V220.378ZM99.4342 220.378H84.3684V205.283H99.4342V220.378Z" fill="#4F87CB"/>
<path d="M114.5 295.85H69.3026V250.567H114.5V295.85Z" fill="#3C4D66"/>
<path d="M84.3684 280.755H69.3026V265.661H84.3684V280.755ZM99.4342 280.755H84.3684V265.661H99.4342V280.755ZM84.3684 265.661H69.3026V250.566H84.3684V265.661ZM99.4342 265.661H84.3684V250.566H99.4342V265.661Z" fill="#4F87CB"/>
<path d="M159.697 69.4346H114.5V24.1516L159.697 24.1516V69.4346Z" fill="#4F87CB"/>
<path d="M159.697 69.4346H144.632V54.3402H159.697V69.4346ZM159.697 39.2459H144.632V24.1516H159.697V39.2459ZM129.566 69.4346H114.5V54.3402L129.566 54.3402V69.4346ZM129.566 39.2459L114.5 39.2459V24.1516H129.566V39.2459Z" fill="#3C4D66"/>
<path d="M114.5 114.717L114.5 69.4338H159.697V114.717L114.5 114.717Z" fill="#4F87CB"/>
<path d="M114.5 114.717V99.6225H129.566V114.717H114.5ZM129.566 99.6225V84.5281H144.632V99.6225H129.566ZM114.5 84.5281L114.5 69.4338H129.566V84.5281H114.5ZM144.632 114.717V99.6225L159.697 99.6225V114.717L144.632 114.717ZM144.632 84.5281V69.4338H159.697V84.5281H144.632Z" fill="#3C4D66"/>
<path d="M159.697 160H114.5V114.717H159.697V160Z" fill="#4F87CB"/>
<path d="M144.632 144.905H129.566V129.811H144.632V144.905Z" fill="#3C4D66"/>
<path d="M114.5 160H159.697V205.283H114.5V160Z" fill="#4F87CB"/>
<path d="M144.632 175.095H159.697V190.189H144.632V175.095ZM129.566 175.095H144.632V190.189H129.566V175.095ZM144.632 190.189H159.697V205.283H144.632V190.189ZM129.566 190.189H144.632V205.283H129.566V190.189Z" fill="#3C4D66"/>
<path d="M159.697 205.283V250.566H114.5V205.283H159.697Z" fill="#4F87CB"/>
<path d="M159.697 205.283V220.378H144.632V205.283H159.697ZM144.632 220.378V235.472H129.566V220.378H144.632ZM159.697 235.472V250.566H144.632V235.472H159.697ZM129.566 205.283V220.378H114.5V205.283H129.566ZM129.566 235.472V250.566H114.5V235.472H129.566Z" fill="#3C4D66"/>
<path d="M114.5 250.566H159.697V295.849H114.5V250.566Z" fill="#4F87CB"/>
<path d="M114.5 250.566H129.566V265.661H114.5V250.566ZM114.5 280.755H129.566V295.849H114.5V280.755ZM144.632 250.566H159.697V265.661H144.632V250.566ZM144.632 280.755H159.697V295.849H144.632V280.755Z" fill="#3C4D66"/>
<path d="M204.895 69.4346H159.697V24.1516L204.895 24.1516V69.4346Z" fill="#4F87CB"/>
<path d="M204.895 69.4346H189.829V54.3402H204.895V69.4346ZM204.895 54.3402H189.829V39.2459H204.895V54.3402ZM204.895 39.2459H189.829V24.1516H204.895V39.2459ZM189.829 54.3402H174.763V39.2459H189.829V54.3402ZM189.829 39.2459H174.763V24.1516L189.829 24.1516V39.2459ZM174.763 39.2459L159.697 39.2459V24.1516H174.763V39.2459Z" fill="#3C4D66"/>
<path d="M159.697 69.4336H204.895V114.717H159.697V69.4336Z" fill="#4F87CB"/>
<path d="M159.697 84.5279H174.763V99.6223H159.697V84.5279ZM174.763 69.4336H189.829V84.5279H174.763V69.4336ZM189.829 84.5279H204.895V99.6223H189.829V84.5279ZM189.829 69.4336H204.895V84.5279H189.829V69.4336ZM159.697 99.6223H174.763V114.717H159.697V99.6223ZM174.763 99.6223H189.829V114.717H174.763V99.6223Z" fill="#3C4D66"/>
<path d="M204.895 160H159.697V114.717H204.895V160Z" fill="#3C4D66"/>
<path d="M174.763 144.905H159.697V129.811H174.763V144.905ZM189.829 144.905H174.763V129.811H189.829V144.905ZM174.763 129.811H159.697V114.717H174.763V129.811ZM189.829 129.811H174.763V114.717H189.829V129.811Z" fill="#4F87CB"/>
<path d="M204.895 205.283H159.697V160H204.895V205.283Z" fill="#4F87CB"/>
<path d="M204.895 205.283H189.829V190.189H204.895V205.283ZM204.895 190.189H189.829V175.095H204.895V190.189ZM204.895 175.095H189.829V160H204.895V175.095ZM189.829 190.189H174.763V175.095H189.829V190.189ZM189.829 175.095H174.763V160H189.829V175.095ZM174.763 175.095H159.697V160H174.763V175.095Z" fill="#3C4D66"/>
<path d="M204.895 250.566H159.697V205.283H204.895V250.566Z" fill="#4F87CB"/>
<path d="M189.829 235.472H174.763V220.377H189.829V235.472Z" fill="#3C4D66"/>
<path d="M204.895 250.566V295.849H159.697V250.566H204.895Z" fill="#3C4D66"/>
<path d="M204.895 250.566V265.661H189.829V250.566H204.895ZM189.829 265.661V280.755H174.763V265.661H189.829ZM204.895 280.755V295.849H189.829V280.755H204.895ZM174.763 250.566V265.661H159.697V250.566H174.763ZM174.763 280.755V295.849H159.697V280.755H174.763Z" fill="#4F87CB"/>
</g>
</svg>
