<svg width="229" height="320" viewBox="0 0 229 320" fill="none" xmlns="http://www.w3.org/2000/svg">
<mask id="mask0" mask-type="alpha" maskUnits="userSpaceOnUse" x="24" y="24" width="181" height="272">
<path d="M204.895 24.1514H24.1052V295.849H204.895V24.1514Z" fill="white"/>
</mask>
<g mask="url(#mask0)">
<path d="M114.5 69.4344C114.5 44.4253 94.2643 24.1514 69.3026 24.1514C44.3408 24.1514 24.1052 44.4253 24.1052 69.4344H114.5Z" fill="#FFE0C2"/>
<path d="M24.1052 69.4336C24.1052 94.4427 44.3408 114.717 69.3026 114.717C94.2643 114.717 114.5 94.4427 114.5 69.4336H24.1052Z" fill="#FFEEDD"/>
<path d="M114.5 160C114.5 134.991 94.2643 114.717 69.3026 114.717C44.3408 114.717 24.1052 134.991 24.1052 160H114.5Z" fill="#1D1128"/>
<path d="M24.1052 160C24.1052 185.009 44.3408 205.283 69.3026 205.283C94.2643 205.283 114.5 185.009 114.5 160H24.1052Z" fill="#1D1128"/>
<path d="M114.5 250.566C114.5 225.557 94.2643 205.283 69.3026 205.283C44.3408 205.283 24.1052 225.557 24.1052 250.566H114.5Z" fill="#FFEEDD"/>
<path d="M24.1052 250.566C24.1052 275.575 44.3408 295.849 69.3026 295.849C94.2643 295.849 114.5 275.575 114.5 250.566H24.1052Z" fill="#FFEEDD"/>
<path d="M204.895 69.4344C204.895 44.4253 184.659 24.1514 159.697 24.1514C134.736 24.1514 114.5 44.4253 114.5 69.4344H204.895Z" fill="#132053"/>
<path d="M114.5 69.4336C114.5 94.4427 134.736 114.717 159.697 114.717C184.659 114.717 204.895 94.4427 204.895 69.4336H114.5Z" fill="#50C9CE"/>
<path d="M204.895 160C204.895 134.991 184.659 114.717 159.697 114.717C134.736 114.717 114.5 134.991 114.5 160H204.895Z" fill="#FFE0C2"/>
<path d="M114.5 160C114.5 185.009 134.736 205.283 159.697 205.283C184.659 205.283 204.895 185.009 204.895 160H114.5Z" fill="#132053"/>
<path d="M204.895 250.566C204.895 225.557 184.659 205.283 159.697 205.283C134.736 205.283 114.5 225.557 114.5 250.566H204.895Z" fill="#1D1128"/>
<path d="M114.5 250.566C114.5 275.575 134.736 295.849 159.697 295.849C184.659 295.849 204.895 275.575 204.895 250.566H114.5Z" fill="#FFEEDD"/>
</g>
</svg>
