<svg width="229" height="319" viewBox="0 0 229 319" fill="none" xmlns="http://www.w3.org/2000/svg">
<mask id="mask0" mask-type="alpha" maskUnits="userSpaceOnUse" x="24" y="24" width="181" height="271">
<path d="M204.895 24.0752H24.1052V294.924H204.895V24.0752Z" fill="white"/>
</mask>
<g mask="url(#mask0)">
<path d="M69.3026 114.358C94.2644 114.358 114.5 94.1477 114.5 69.2167C114.5 44.2857 94.2644 24.0752 69.3026 24.0752C44.3408 24.0752 24.1052 44.2857 24.1052 69.2167C24.1052 94.1477 44.3408 114.358 69.3026 114.358Z" fill="#F0F2F3"/>
<path d="M69.3026 159.489C69.3086 134.563 89.542 114.358 114.5 114.358V204.641C89.542 204.641 69.3086 184.437 69.3026 159.511C69.2966 184.437 49.0632 204.641 24.1052 204.641V114.358C49.0632 114.358 69.2966 134.563 69.3026 159.489Z" fill="white"/>
<path d="M69.3026 249.772C69.3086 224.846 89.542 204.642 114.5 204.642V294.925C89.542 294.925 69.3086 274.72 69.3026 249.794C69.2966 274.72 49.0632 294.925 24.1052 294.925V204.642C49.0632 204.642 69.2966 224.846 69.3026 249.772Z" fill="#FCBD01"/>
<path d="M159.686 69.2167C134.73 69.2107 114.5 49.0023 114.5 24.0752H204.895C204.895 49.0023 184.665 69.2107 159.709 69.2167C184.665 69.2227 204.895 89.4311 204.895 114.358H114.5C114.5 89.4311 134.73 69.2227 159.686 69.2167Z" fill="#FCBD01"/>
<path d="M159.697 204.641C184.659 204.641 204.895 184.431 204.895 159.5C204.895 134.569 184.659 114.358 159.697 114.358C134.736 114.358 114.5 134.569 114.5 159.5C114.5 184.431 134.736 204.641 159.697 204.641Z" fill="#FF5263"/>
<path d="M159.686 249.783C134.73 249.777 114.5 229.569 114.5 204.642H204.895C204.895 229.569 184.665 249.777 159.709 249.783C184.665 249.789 204.895 269.997 204.895 294.925H114.5C114.5 269.997 134.73 249.789 159.686 249.783Z" fill="#F0F2F3"/>
</g>
</svg>
