<svg width="229" height="319" viewBox="0 0 229 319" fill="none" xmlns="http://www.w3.org/2000/svg">
<mask id="mask0" mask-type="alpha" maskUnits="userSpaceOnUse" x="24" y="24" width="184" height="274">
<path d="M207.155 24.0752H24.1052V297.181H207.155V24.0752Z" fill="white"/>
</mask>
<g mask="url(#mask0)">
<path d="M205.46 23.5107H23.5403V295.488H205.46V23.5107Z" stroke="#EDF9FE" stroke-width="1.5"/>
<path fill-rule="evenodd" clip-rule="evenodd" d="M24.4819 62.8223V60.5652L68.926 60.5652V62.8223L24.4819 62.8223ZM24.4819 55.2987L24.4819 53.0416L68.926 53.0416V55.2987L24.4819 55.2987ZM24.4819 45.518V47.7751L68.926 47.7751V45.518L24.4819 45.518ZM24.4819 40.2515V37.9944L68.926 37.9944V40.2515L24.4819 40.2515ZM24.4819 30.4709V32.7279L68.926 32.7279V30.4709L24.4819 30.4709Z" fill="#FFDB69"/>
<path d="M24.6725 24.6416H68.7377V68.6546H24.6725V24.6416Z" stroke="#EDF9FE" stroke-width="1.5"/>
<path d="M24.4819 69.5928H68.926V113.982H24.4819V69.5928Z" fill="#383838"/>
<path d="M24.6725 69.7832H68.7377V113.796H24.6725V69.7832Z" stroke="#EDF9FE" stroke-width="1.5"/>
<path d="M24.4819 151.132V154.593C25.9129 156.182 27.4272 157.695 29.0182 159.124H32.4834C29.5633 156.725 26.8836 154.049 24.4819 151.132ZM46.0772 159.124H41.5115C34.6035 154.835 28.7766 149.015 24.4819 142.115V137.556C29.2895 146.792 36.8302 154.323 46.0772 159.124Z" fill="#56F3AE"/>
<path d="M68.926 157.242V159.124H63.4405C43.1673 156.502 27.1071 140.462 24.4819 120.214V114.735H26.3667C26.5685 138.121 45.5115 157.04 68.926 157.242Z" fill="#56F3AE"/>
<path d="M68.926 149.717V151.974C48.4229 151.774 31.8415 135.211 31.6396 114.734H33.8995C34.1014 133.964 49.6719 149.516 68.926 149.717Z" fill="#56F3AE"/>
<path d="M68.926 142.193V144.45C52.5834 144.249 39.3737 131.057 39.1733 114.734H41.4332C41.6336 129.81 53.8324 141.993 68.926 142.193Z" fill="#56F3AE"/>
<path d="M68.9261 134.668V136.925C56.7439 136.727 46.9059 126.901 46.707 114.734H48.9669C49.1658 125.654 57.9921 134.47 68.9261 134.668Z" fill="#56F3AE"/>
<path d="M68.926 127.143V129.4C60.9049 129.205 54.4379 122.746 54.2413 114.735H56.502C56.6978 121.5 62.1531 126.948 68.926 127.143ZM68.926 119.611V121.873C67.0606 121.78 65.2964 120.998 63.9757 119.679C62.655 118.36 61.872 116.598 61.7788 114.735H64.0431C64.1339 115.998 64.6775 117.187 65.5743 118.082C66.4711 118.978 67.661 119.521 68.926 119.611Z" fill="#56F3AE"/>
<path d="M24.6725 114.924H68.7377V158.937H24.6725V114.924Z" stroke="#EDF9FE" stroke-width="1.5"/>
<path d="M24.4819 196.274V199.735C25.9129 201.324 27.4272 202.836 29.0182 204.266H32.4834C29.5633 201.867 26.8836 199.191 24.4819 196.274ZM46.0772 204.266H41.5115C34.6035 199.976 28.7766 194.157 24.4819 187.257V182.698C29.2895 191.933 36.8302 199.464 46.0772 204.266Z" fill="#383838"/>
<path d="M68.926 202.383V204.266H63.4405C43.1673 201.644 27.1071 185.603 24.4819 165.355V159.876H26.3667C26.5685 183.263 45.5115 202.182 68.926 202.383Z" fill="#383838"/>
<path d="M68.926 194.858V197.115C48.4229 196.915 31.8415 180.353 31.6396 159.876H33.8995C34.1014 179.106 49.6719 194.658 68.926 194.858Z" fill="#383838"/>
<path d="M68.926 187.335V189.592C52.5834 189.391 39.3737 176.198 39.1733 159.876H41.4332C41.6336 174.952 53.8324 187.135 68.926 187.335Z" fill="#383838"/>
<path d="M68.9261 179.809V182.066C56.7439 181.869 46.9059 172.043 46.707 159.876H48.9669C49.1658 170.796 57.9921 179.611 68.9261 179.809Z" fill="#383838"/>
<path d="M68.926 172.285V174.542C60.9049 174.346 54.4379 167.887 54.2413 159.876H56.502C56.6978 166.641 62.1531 172.089 68.926 172.285ZM68.926 164.753V167.015C67.0606 166.921 65.2964 166.139 63.9757 164.82C62.655 163.501 61.872 161.739 61.7788 159.876H64.0431C64.1339 161.14 64.6775 162.328 65.5743 163.224C66.4711 164.119 67.661 164.662 68.926 164.753Z" fill="#383838"/>
<path d="M24.6725 160.065H68.7377V204.078H24.6725V160.065Z" stroke="#EDF9FE" stroke-width="1.5"/>
<path fill-rule="evenodd" clip-rule="evenodd" d="M68.926 211.036V213.293H24.482V211.036H68.926ZM68.926 218.56V220.817H24.482V218.56H68.926ZM68.926 228.34V226.083H24.482V228.34H68.926ZM68.926 233.607V235.864H24.482V233.607H68.926ZM68.926 243.388V241.13H24.482V243.388H68.926Z" fill="#FFDB69"/>
<path d="M24.6725 205.207H68.7377V249.22H24.6725V205.207Z" stroke="#EDF9FE" stroke-width="1.5"/>
<path d="M32.4834 250.159H29.0182C27.4272 251.588 25.9129 253.101 24.4819 254.69V258.151C26.8836 255.234 29.5633 252.558 32.4834 250.159ZM24.4819 271.728V267.168C28.7766 260.268 34.6035 254.449 41.5115 250.159H46.0765C36.8296 254.961 29.2891 262.492 24.4819 271.728Z" fill="#383838"/>
<path d="M26.3667 294.548H24.4819V289.07C27.1071 268.821 43.1673 252.781 63.4405 250.159H68.926V252.042C45.5108 252.243 26.5685 271.163 26.3667 294.548Z" fill="#383838"/>
<path d="M33.9002 294.549H31.6404C31.8408 274.071 48.4237 257.51 68.926 257.309V259.566C49.6719 259.767 34.1006 275.319 33.9002 294.549Z" fill="#383838"/>
<path d="M41.4332 294.548H39.1733C39.3745 278.226 52.5834 265.032 68.926 264.832V267.089C53.8316 267.289 41.6336 279.473 41.4332 294.548Z" fill="#383838"/>
<path d="M48.9676 294.548H46.7078C46.9059 282.381 56.7438 272.555 68.926 272.356V274.614C57.992 274.812 49.1657 283.628 48.9676 294.548Z" fill="#383838"/>
<path d="M56.5021 294.548H54.2422C54.438 286.537 60.905 280.078 68.9261 279.882V282.14C62.1525 282.335 56.6979 287.784 56.5021 294.548ZM64.0432 294.548H61.7788C61.8721 292.685 62.6551 290.923 63.9758 289.604C65.2965 288.285 67.0607 287.503 68.9261 287.41V289.672C67.6611 289.762 66.4711 290.305 65.5744 291.201C64.6776 292.096 64.134 293.285 64.0432 294.548Z" fill="#383838"/>
<path d="M24.6725 250.349H68.7377V294.362H24.6725V250.349Z" stroke="#EDF9FE" stroke-width="1.5"/>
<path d="M69.6793 24.4512H114.123V68.8403H69.6793V24.4512Z" fill="#55C2FF"/>
<path d="M69.8699 24.6416H113.935V68.6546H69.8699V24.6416Z" stroke="#EDF9FE" stroke-width="1.5"/>
<path d="M114.123 77.5843V74.1235C112.692 72.5344 111.178 71.022 109.587 69.5928H106.122C109.042 71.9914 111.722 74.6679 114.123 77.5843ZM92.5281 69.5928H97.0938C104.002 73.8821 109.829 79.7018 114.123 86.6013V91.1606C109.316 81.9252 101.775 74.394 92.5281 69.5928Z" fill="#56F3AE"/>
<path d="M69.6793 71.4752V69.5928H75.1648C95.4381 72.2147 111.498 88.255 114.123 108.503V113.982H112.239C112.037 90.5956 93.0938 71.6768 69.6793 71.4752Z" fill="#56F3AE"/>
<path d="M69.6794 78.9993V76.7422C90.1824 76.9423 106.764 93.5047 106.966 113.982H104.706C104.504 94.7514 88.9335 79.1994 69.6794 78.9993Z" fill="#56F3AE"/>
<path d="M69.6793 86.5227V84.2656C86.0219 84.4665 99.2316 97.6591 99.432 113.982H97.1721C96.9718 98.9058 84.773 86.7228 69.6793 86.5227Z" fill="#56F3AE"/>
<path d="M69.6793 94.0481V91.791C81.8615 91.9889 91.6994 101.815 91.8983 113.982H89.6384C89.4396 103.061 80.6133 94.246 69.6793 94.0481Z" fill="#56F3AE"/>
<path d="M69.6794 101.573V99.3164C77.7004 99.512 84.1674 105.971 84.364 113.982H82.1034C81.9075 107.217 76.4522 101.769 69.6794 101.573ZM69.6794 109.105V106.844C71.5448 106.937 73.309 107.719 74.6297 109.038C75.9503 110.357 76.7333 112.119 76.8266 113.982H74.5622C74.4714 112.719 73.9279 111.53 73.0311 110.635C72.1343 109.739 70.9444 109.196 69.6794 109.105Z" fill="#56F3AE"/>
<path d="M69.8699 69.7832H113.935V113.796H69.8699V69.7832Z" stroke="#EDF9FE" stroke-width="1.5"/>
<path d="M69.6793 114.734H114.123V159.124H69.6793V114.734Z" fill="#56F3AE"/>
<path d="M69.8699 114.924H113.935V158.937H69.8699V114.924Z" stroke="#EDF9FE" stroke-width="1.5"/>
<path fill-rule="evenodd" clip-rule="evenodd" d="M110.679 204.265H113.875L114.123 204.016V200.825L110.679 204.265ZM114.123 190.185V193.377L103.222 204.265H100.026L114.123 190.185ZM114.123 179.545V182.737L92.5688 204.265H89.3733L114.123 179.545ZM114.123 168.904V172.096L81.9158 204.265H78.7188L114.123 168.905V168.904ZM112.511 159.876H114.123V161.457L71.2627 204.265H69.6793V202.655L112.511 159.876ZM101.858 159.876H105.054L69.6793 195.206V192.014L101.858 159.876ZM91.2046 159.876H94.4L69.6793 184.566V181.374L91.2046 159.876ZM80.5516 159.876H83.747L69.6793 173.926V170.734L80.5516 159.876ZM69.8978 159.876H73.094L69.6793 163.286V160.094L69.8978 159.876Z" fill="#FFDB69"/>
<path d="M69.8699 160.065H113.935V204.078H69.8699V160.065Z" stroke="#EDF9FE" stroke-width="1.5"/>
<path fill-rule="evenodd" clip-rule="evenodd" d="M69.6793 245.966V249.158L69.9279 249.406H73.1234L69.6793 245.966ZM83.7764 249.406H80.5809L69.6793 238.518V235.327L83.7764 249.406ZM94.4294 249.406H91.2339L69.6793 227.878V224.687L94.4294 249.406ZM105.084 249.406H101.888L69.6793 217.238V214.045L105.083 249.406H105.084ZM114.123 247.796V249.406H112.54L69.6793 206.599V205.017H71.2914L114.123 247.796ZM114.123 237.156V240.348L78.7489 205.017H81.9451L114.123 237.156ZM114.123 226.516V229.707L89.4027 205.017H92.5982L114.123 226.516ZM114.123 215.876V219.067L100.056 205.017H103.251L114.123 215.876ZM114.123 205.235V208.428L110.709 205.017H113.905L114.123 205.235Z" fill="#383838"/>
<path d="M69.8699 205.207H113.935V249.22H69.8699V205.207Z" stroke="#EDF9FE" stroke-width="1.5"/>
<path d="M69.6793 250.159H114.123V294.548H69.6793V250.159Z" fill="#FFDB69"/>
<path d="M69.8699 250.349H113.935V294.362H69.8699V250.349Z" stroke="#EDF9FE" stroke-width="1.5"/>
<path fill-rule="evenodd" clip-rule="evenodd" d="M114.877 65.4001V68.5916L115.125 68.8398H118.321L114.877 65.4001ZM128.974 68.8398H125.778L114.877 57.9517V54.7602L128.974 68.8398ZM139.627 68.8398H136.431L114.877 47.3119V44.1204L139.627 68.8398ZM150.281 68.8398H147.085L114.877 36.672V33.479L150.28 68.8398H150.281ZM159.321 67.2298V68.8398H157.737L114.877 26.0322V24.4507H116.489L159.321 67.2298ZM159.321 56.5892V59.7814L123.946 24.4507H127.142L159.321 56.5892ZM159.321 45.9493V49.1408L134.6 24.4507H137.795L159.321 45.9493ZM159.321 35.3095V38.501L145.253 24.4507H148.448L159.321 35.3095ZM159.321 24.6689V27.8611L155.906 24.4507H159.102L159.321 24.6689Z" fill="#55C2FF"/>
<path d="M115.067 24.6416H159.132V68.6546H115.067V24.6416Z" stroke="#EDF9FE" stroke-width="1.5"/>
<path fill-rule="evenodd" clip-rule="evenodd" d="M159.321 73.0326V69.8411L159.072 69.5928H155.877L159.321 73.0326ZM145.224 69.5928H148.419L159.321 80.4809V83.6724L145.224 69.5928ZM134.571 69.5928H137.766L159.321 91.1208V94.3123L134.571 69.5928ZM123.916 69.5928H127.112L159.321 101.761V104.954L123.917 69.5928H123.916ZM114.877 71.2028V69.5928H116.46L159.321 112.4V113.982H157.709L114.877 71.2028ZM114.877 81.8434V78.6512L150.251 113.982H147.055L114.877 81.8434ZM114.877 92.4833V89.2918L139.597 113.982H136.402L114.877 92.4833ZM114.877 103.123V99.9316L128.944 113.982H125.749L114.877 103.123ZM114.877 113.764V110.571L118.291 113.982H115.095L114.877 113.764Z" fill="#383838"/>
<path d="M115.067 69.7832H159.132V113.796H115.067V69.7832Z" stroke="#EDF9FE" stroke-width="1.5"/>
<path fill-rule="evenodd" clip-rule="evenodd" d="M159.321 122.798V120.181C154.271 117.327 148.715 115.477 142.961 114.734H131.237C125.482 115.477 119.926 117.327 114.877 120.181V122.798C121.359 118.874 128.965 116.615 137.099 116.615C145.233 116.615 152.838 118.874 159.321 122.798ZM159.321 129.124C152.875 124.407 145.089 121.869 137.099 121.882C129.108 121.869 121.322 124.407 114.877 129.124V131.97C121.165 126.891 129.011 124.126 137.099 124.139C145.186 124.126 153.032 126.891 159.321 131.97V129.124ZM159.321 139.175C153.812 133.17 145.896 129.405 137.099 129.405C128.302 129.405 120.385 133.17 114.877 139.175V142.695C119.966 135.992 128.026 131.662 137.099 131.662C146.171 131.662 154.231 135.992 159.321 142.695V139.175ZM159.321 155.374C157.379 144.879 148.169 136.929 137.099 136.929C126.028 136.929 116.818 144.878 114.877 155.375V159.124H116.764C116.963 148.078 125.991 139.186 137.099 139.186C148.206 139.186 157.233 148.078 157.434 159.124H159.321V155.375V155.374ZM152.16 159.124C151.96 150.987 145.294 144.453 137.099 144.453C128.904 144.453 122.237 150.987 122.037 159.124H124.298C124.498 152.233 130.152 146.71 137.099 146.71C144.045 146.71 149.7 152.233 149.899 159.124H152.159H152.16ZM144.622 159.124C144.427 155.144 141.132 151.976 137.099 151.976C133.065 151.976 129.771 155.144 129.575 159.124H131.839C131.935 157.796 132.53 156.553 133.506 155.646C134.482 154.739 135.766 154.234 137.099 154.234C138.432 154.234 139.715 154.739 140.691 155.646C141.667 156.553 142.263 157.796 142.358 159.124H144.622Z" fill="#56F3AE"/>
<path d="M115.067 114.924H159.132V158.937H115.067V114.924Z" stroke="#EDF9FE" stroke-width="1.5"/>
<path d="M151.319 204.266H154.784C156.375 202.836 157.89 201.324 159.321 199.735V196.274C156.919 199.191 154.239 201.867 151.319 204.266ZM159.321 182.697V187.257C155.026 194.157 149.199 199.976 142.291 204.266H137.726C146.973 199.464 154.513 191.933 159.321 182.697Z" fill="#383838"/>
<path d="M157.436 159.876H159.321V165.355C156.695 185.603 140.635 201.644 120.362 204.266H114.877V202.383C138.292 202.182 157.234 183.262 157.436 159.876Z" fill="#383838"/>
<path d="M149.902 159.876H152.162C151.962 180.354 135.379 196.915 114.877 197.116V194.859C134.131 194.658 149.702 179.106 149.902 159.876Z" fill="#383838"/>
<path d="M142.369 159.876H144.629C144.428 176.198 131.219 189.392 114.877 189.592V187.335C129.971 187.135 142.169 174.951 142.369 159.876Z" fill="#383838"/>
<path d="M134.835 159.876H137.095C136.897 172.043 127.059 181.869 114.877 182.067V179.81C125.811 179.612 134.637 170.796 134.835 159.876Z" fill="#383838"/>
<path d="M127.301 159.876H129.56C129.365 167.887 122.898 174.346 114.877 174.542V172.284C121.65 172.089 127.105 166.64 127.301 159.876ZM119.759 159.876H122.024C121.93 161.739 121.148 163.501 119.827 164.82C118.506 166.139 116.742 166.921 114.877 167.014V164.752C116.142 164.662 117.331 164.119 118.228 163.223C119.125 162.327 119.669 161.139 119.759 159.876Z" fill="#383838"/>
<path d="M115.067 160.065H159.132V204.078H115.067V160.065Z" stroke="#EDF9FE" stroke-width="1.5"/>
<path fill-rule="evenodd" clip-rule="evenodd" d="M114.877 245.966V249.158L115.125 249.406H118.321L114.877 245.966ZM128.974 249.406H125.778L114.877 238.518V235.327L128.974 249.406ZM139.627 249.406H136.431L114.877 227.878V224.687L139.627 249.406ZM150.281 249.406H147.085L114.877 217.238V214.045L150.28 249.406H150.281ZM159.321 247.796V249.406H157.737L114.877 206.599V205.017H116.489L159.321 247.796ZM159.321 237.156V240.348L123.946 205.017H127.142L159.321 237.156ZM159.321 226.516V229.707L134.6 205.017H137.795L159.321 226.516ZM159.321 215.876V219.067L145.253 205.017H148.448L159.321 215.876ZM159.321 205.235V208.428L155.906 205.017H159.102L159.321 205.235Z" fill="#FFDB69"/>
<path d="M115.067 205.207H159.132V249.22H115.067V205.207Z" stroke="#EDF9FE" stroke-width="1.5"/>
<path fill-rule="evenodd" clip-rule="evenodd" d="M151.247 294.548H153.867C156.725 289.505 158.577 283.956 159.321 278.209V266.499C158.577 260.752 156.725 255.203 153.867 250.159H151.247C155.176 256.634 157.437 264.23 157.437 272.354C157.437 280.478 155.176 288.074 151.247 294.548ZM144.913 294.548C149.637 288.111 152.177 280.335 152.164 272.354C152.177 264.373 149.637 256.597 144.913 250.159H142.064C147.149 256.44 149.917 264.276 149.905 272.354C149.917 280.431 147.149 288.267 142.064 294.548H144.913ZM134.849 294.548C140.862 289.046 144.632 281.14 144.632 272.354C144.632 263.568 140.862 255.661 134.849 250.159H131.325C138.037 255.242 142.372 263.292 142.372 272.354C142.372 281.415 138.036 289.465 131.325 294.548H134.849ZM118.631 294.548C129.139 292.61 137.099 283.41 137.099 272.354C137.099 261.297 129.139 252.098 118.63 250.159H114.877V252.044C125.936 252.243 134.839 261.26 134.839 272.354C134.839 283.447 125.936 292.464 114.877 292.664V294.548H118.63H118.631ZM114.877 287.396C123.023 287.196 129.566 280.539 129.566 272.354C129.566 264.17 123.023 257.51 114.877 257.311V259.569C121.775 259.768 127.306 265.416 127.306 272.354C127.306 279.292 121.775 284.939 114.877 285.139V287.396V287.396ZM114.877 279.868C118.862 279.673 122.033 276.383 122.033 272.354C122.033 268.325 118.862 265.036 114.877 264.839V267.101C116.206 267.196 117.45 267.791 118.359 268.766C119.267 269.74 119.772 271.022 119.772 272.354C119.772 273.685 119.267 274.967 118.359 275.942C117.45 276.916 116.206 277.511 114.877 277.607V279.868Z" fill="#56F3AE"/>
<path d="M115.067 250.349H159.132V294.362H115.067V250.349Z" stroke="#EDF9FE" stroke-width="1.5"/>
<path fill-rule="evenodd" clip-rule="evenodd" d="M168.148 24.4507H165.528C162.67 29.4941 160.818 35.043 160.074 40.7904V52.5001C160.818 58.2475 162.67 63.7964 165.528 68.8398H168.148C164.219 62.365 161.957 54.7692 161.957 46.6453C161.957 38.5213 164.219 30.9255 168.148 24.4507ZM174.481 24.4507C169.758 30.8882 167.218 38.6644 167.23 46.6453C167.218 54.6262 169.758 62.4024 174.481 68.8398H177.331C172.246 62.5588 169.478 54.7227 169.49 46.6453C169.478 38.5678 172.246 30.7317 177.331 24.4507H174.481ZM184.545 24.4507C178.533 29.9527 174.763 37.8592 174.763 46.6453C174.763 55.4313 178.533 63.3378 184.545 68.8398H188.069C181.357 63.7569 177.023 55.7067 177.023 46.6453C177.023 37.5839 181.358 29.5336 188.069 24.4507H184.545ZM200.764 24.4507C190.256 26.3895 182.296 35.5886 182.296 46.6453C182.296 57.7019 190.255 66.901 200.764 68.8398H204.518V66.9552C193.459 66.7558 184.556 57.7388 184.556 46.6453C184.556 35.5517 193.459 26.5355 204.518 26.3354V24.4507H200.764H200.764ZM204.518 31.6026C196.371 31.8027 189.829 38.4604 189.829 46.6453C189.829 54.8294 196.371 61.4886 204.518 61.6879V59.4301C197.619 59.2307 192.089 53.5835 192.089 46.6453C192.089 39.707 197.619 34.0598 204.518 33.8604V31.6034V31.6026ZM204.518 39.1307C200.533 39.3263 197.362 42.6164 197.362 46.6453C197.362 50.6742 200.533 53.9635 204.518 54.1598V51.8982C203.188 51.8028 201.944 51.2079 201.036 50.2333C200.128 49.2587 199.623 47.9767 199.623 46.6453C199.623 45.3138 200.128 44.0318 201.036 43.0572C201.944 42.0826 203.188 41.4877 204.518 41.3923V39.1307Z" fill="#FFDB69"/>
<path d="M160.265 24.6416H204.33V68.6546H160.265V24.6416Z" stroke="#EDF9FE" stroke-width="1.5"/>
<path d="M160.074 105.99V109.451C161.505 111.04 163.019 112.552 164.61 113.981H168.075C165.155 111.583 162.476 108.906 160.074 105.99ZM181.669 113.981H177.104C170.196 109.692 164.369 103.872 160.074 96.9729V92.4136C164.882 101.649 172.422 109.18 181.669 113.981Z" fill="#FFDB69"/>
<path d="M204.518 112.099V113.981H199.033C178.759 111.359 162.699 95.3192 160.074 75.071V69.5923H161.959C162.161 92.9786 181.104 111.897 204.518 112.099Z" fill="#FFDB69"/>
<path d="M204.518 104.575V106.832C184.015 106.632 167.434 90.0695 167.232 69.5926H169.492C169.693 88.8228 185.264 104.375 204.518 104.575Z" fill="#FFDB69"/>
<path d="M204.518 97.0515V99.3086C188.175 99.1077 174.966 85.9151 174.765 69.5927H177.025C177.226 84.6685 189.424 96.8514 204.518 97.0515Z" fill="#FFDB69"/>
<path d="M204.518 89.5261V91.7832C192.336 91.5853 182.498 81.7595 182.299 69.5924H184.559C184.758 80.5129 193.584 89.3283 204.518 89.5261Z" fill="#FFDB69"/>
<path d="M204.518 82.0017V84.2588C196.497 84.0632 190.03 77.6042 189.833 69.5931H192.094C192.29 76.3583 197.745 81.8061 204.518 82.0017ZM204.518 74.4699V76.7314C202.653 76.6383 200.888 75.8563 199.568 74.5372C198.247 73.2182 197.464 71.4562 197.371 69.5931H199.635C199.726 70.8565 200.27 72.0449 201.166 72.9406C202.063 73.8363 203.253 74.3792 204.518 74.4699Z" fill="#FFDB69"/>
<path d="M160.265 69.7832H204.33V113.796H160.265V69.7832Z" stroke="#EDF9FE" stroke-width="1.5"/>
<path fill-rule="evenodd" clip-rule="evenodd" d="M160.074 151.059V153.676C165.124 156.53 170.679 158.38 176.434 159.123H188.158C193.913 158.38 199.468 156.53 204.518 153.676V151.059C198.035 154.984 190.43 157.242 182.296 157.242C174.162 157.242 166.557 154.984 160.074 151.059ZM160.074 144.733C166.519 149.451 174.305 151.988 182.296 151.976C190.287 151.988 198.073 149.451 204.518 144.733V141.887C198.229 146.966 190.383 149.731 182.296 149.719C174.209 149.731 166.363 146.966 160.074 141.887V144.733ZM160.074 134.682C165.583 140.687 173.499 144.452 182.296 144.452C191.093 144.452 199.009 140.687 204.518 134.682V131.162C199.429 137.866 191.369 142.195 182.296 142.195C173.223 142.195 165.163 137.865 160.074 131.162V134.682ZM160.074 118.484C162.015 128.978 171.226 136.928 182.296 136.928C193.366 136.928 202.577 128.979 204.518 118.483V114.734H202.631C202.431 125.779 193.403 134.671 182.296 134.671C171.189 134.671 162.161 125.779 161.961 114.734H160.074V118.483V118.484ZM167.235 114.734C167.435 122.871 174.101 129.405 182.296 129.405C190.49 129.405 197.158 122.871 197.357 114.734H195.097C194.897 121.624 189.243 127.148 182.296 127.148C175.349 127.148 169.695 121.624 169.495 114.734H167.236H167.235ZM174.772 114.734C174.968 118.714 178.262 121.881 182.296 121.881C186.33 121.881 189.623 118.714 189.82 114.734H187.555C187.46 116.062 186.864 117.304 185.889 118.212C184.913 119.119 183.629 119.623 182.296 119.623C180.963 119.623 179.679 119.119 178.704 118.212C177.728 117.304 177.132 116.062 177.037 114.734H174.772Z" fill="#383838"/>
<path d="M160.265 114.924H204.33V158.937H160.265V114.924Z" stroke="#EDF9FE" stroke-width="1.5"/>
<path d="M160.074 159.876H204.518V204.265H160.074V159.876Z" fill="#56F3AE"/>
<path d="M160.265 160.065H204.33V204.078H160.265V160.065Z" stroke="#EDF9FE" stroke-width="1.5"/>
<path fill-rule="evenodd" clip-rule="evenodd" d="M160.074 241.342V243.959C165.124 246.814 170.679 248.663 176.434 249.406H188.158C193.913 248.663 199.468 246.814 204.518 243.959V241.342C198.035 245.267 190.43 247.525 182.296 247.525C174.162 247.525 166.557 245.267 160.074 241.342ZM160.074 235.017C166.519 239.734 174.305 242.271 182.296 242.259C190.287 242.271 198.073 239.734 204.518 235.017V232.17C198.229 237.249 190.383 240.014 182.296 240.002C174.209 240.014 166.363 237.249 160.074 232.17V235.017ZM160.074 224.965C165.583 230.97 173.499 234.735 182.296 234.735C191.093 234.735 199.009 230.97 204.518 224.965V221.446C199.429 228.149 191.369 232.478 182.296 232.478C173.223 232.478 165.163 228.148 160.074 221.446V224.965ZM160.074 208.767C162.015 219.262 171.226 227.212 182.296 227.212C193.366 227.212 202.577 219.262 204.518 208.766V205.017H202.631C202.431 216.062 193.403 224.955 182.296 224.955C171.189 224.955 162.161 216.062 161.961 205.017H160.074V208.766V208.767ZM167.235 205.017C167.435 213.154 174.101 219.688 182.296 219.688C190.49 219.688 197.158 213.154 197.357 205.017H195.097C194.897 211.907 189.243 217.431 182.296 217.431C175.349 217.431 169.695 211.907 169.495 205.017H167.236H167.235ZM174.772 205.017C174.968 208.997 178.262 212.165 182.296 212.165C186.33 212.165 189.623 208.997 189.82 205.017H187.555C187.46 206.345 186.864 207.588 185.889 208.495C184.913 209.402 183.629 209.906 182.296 209.906C180.963 209.906 179.679 209.402 178.704 208.495C177.728 207.588 177.132 206.345 177.037 205.017H174.772Z" fill="#FFDB69"/>
<path d="M160.265 205.207H204.33V249.22H160.265V205.207Z" stroke="#EDF9FE" stroke-width="1.5"/>
<path fill-rule="evenodd" clip-rule="evenodd" d="M168.148 250.16H165.528C162.67 255.203 160.818 260.752 160.074 266.499V278.209C160.818 283.956 162.67 289.505 165.528 294.549H168.148C164.219 288.074 161.957 280.478 161.957 272.354C161.957 264.23 164.219 256.634 168.148 250.16ZM174.481 250.16C169.758 256.597 167.218 264.373 167.23 272.354C167.218 280.335 169.758 288.111 174.481 294.549H177.331C172.246 288.268 169.478 280.432 169.49 272.354C169.478 264.277 172.246 256.441 177.331 250.16H174.481ZM184.545 250.16C178.533 255.662 174.763 263.568 174.763 272.354C174.763 281.14 178.533 289.047 184.545 294.549H188.069C181.357 289.466 177.023 281.416 177.023 272.354C177.023 263.293 181.358 255.243 188.069 250.16H184.545ZM200.764 250.16C190.256 252.098 182.296 261.298 182.296 272.354C182.296 283.411 190.255 292.61 200.764 294.549H204.518V292.664C193.459 292.465 184.556 283.448 184.556 272.354C184.556 261.261 193.459 252.244 204.518 252.044V250.16H200.764H200.764ZM204.518 257.312C196.371 257.512 189.829 264.169 189.829 272.354C189.829 280.538 196.371 287.198 204.518 287.397V285.139C197.619 284.94 192.089 279.292 192.089 272.354C192.089 265.416 197.619 259.769 204.518 259.569V257.312V257.312ZM204.518 264.84C200.533 265.035 197.362 268.325 197.362 272.354C197.362 276.383 200.533 279.672 204.518 279.869V277.607C203.188 277.512 201.944 276.917 201.036 275.942C200.128 274.968 199.623 273.686 199.623 272.354C199.623 271.023 200.128 269.741 201.036 268.766C201.944 267.792 203.188 267.197 204.518 267.101V264.84Z" fill="#56F3AE"/>
<path d="M160.265 250.349H204.33V294.362H160.265V250.349Z" stroke="#EDF9FE" stroke-width="1.5"/>
</g>
</svg>
