<svg width="229" height="319" viewBox="0 0 229 319" fill="none" xmlns="http://www.w3.org/2000/svg">
<mask id="mask0" mask-type="alpha" maskUnits="userSpaceOnUse" x="24" y="24" width="181" height="271">
<path d="M204.895 24.0752H24.1052V294.924H204.895V24.0752Z" fill="white"/>
</mask>
<g mask="url(#mask0)">
<path d="M58.0033 35.3613H35.4047V57.9321H58.0033V35.3613Z" fill="#65578E"/>
<path d="M58.0033 125.644H35.4047V148.214H58.0033V125.644Z" fill="#3C4D66"/>
<path d="M58.0033 170.785H35.4047V193.356H58.0033V170.785Z" fill="#65578E"/>
<path d="M58.0033 215.927H35.4047V238.497H58.0033V215.927Z" fill="#65578E"/>
<path d="M58.0033 261.068H35.4047V283.639H58.0033V261.068Z" fill="#65578E"/>
<path d="M103.201 35.3613H80.6019V57.9321H103.201V35.3613Z" fill="#9BE3AB"/>
<path d="M103.201 80.502H80.6019V103.073H103.201V80.502Z" fill="#65578E"/>
<path d="M103.201 125.644H80.6019V148.214H103.201V125.644Z" fill="#9BE3AB"/>
<path d="M103.201 215.927H80.6019V238.497H103.201V215.927Z" fill="#9BE3AB"/>
<path d="M103.201 261.068H80.6019V283.639H103.201V261.068Z" fill="#F1F0F2"/>
<path d="M148.398 35.3613H125.799V57.9321H148.398V35.3613Z" fill="#65578E"/>
<path d="M148.398 80.502H125.799V103.073H148.398V80.502Z" fill="#3C4D66"/>
<path d="M148.398 170.785H125.799V193.356H148.398V170.785Z" fill="#9BE3AB"/>
<path d="M148.398 215.927H125.799V238.497H148.398V215.927Z" fill="#65578E"/>
<path d="M148.398 261.068H125.799V283.639H148.398V261.068Z" fill="#3C4D66"/>
<path d="M193.595 35.3613H170.997V57.9321H193.595V35.3613Z" fill="#F1F0F2"/>
<path d="M193.595 80.502H170.997V103.073H193.595V80.502Z" fill="#3C4D66"/>
<path d="M193.595 125.644H170.997V148.214H193.595V125.644Z" fill="#F1F0F2"/>
<path d="M193.595 170.785H170.997V193.356H193.595V170.785Z" fill="#3C4D66"/>
<path d="M193.595 261.068H170.997V283.639H193.595V261.068Z" fill="#3C4D66"/>
</g>
</svg>
