<svg width="229" height="320" viewBox="0 0 229 320" fill="none" xmlns="http://www.w3.org/2000/svg">
<mask id="mask0" mask-type="alpha" maskUnits="userSpaceOnUse" x="24" y="24" width="181" height="272">
<path d="M204.895 24.1514H24.1052V295.849H204.895V24.1514Z" fill="white"/>
</mask>
<g mask="url(#mask0)">
<path d="M69.3027 46.792H46.704V69.4335H69.3027V46.792Z" fill="#9BE3AB"/>
<path d="M69.3027 46.792H46.704V69.4335H69.3027V46.792Z" fill="#9BE3AB"/>
<path d="M46.7039 69.4335V46.792H24.1052V69.4335H46.7039Z" fill="#4F87CB"/>
<path d="M46.7039 69.4335V46.792H24.1052V69.4335H46.7039Z" fill="#3C4D66"/>
<path d="M46.704 69.4337L46.704 92.0752H69.3027V69.4337H46.704Z" fill="#F1F0F2"/>
<path d="M46.704 69.4337L46.704 92.0752H69.3027V69.4337H46.704Z" fill="#4F87CB"/>
<path d="M24.1052 92.0752H46.7039V69.4337H24.1052L24.1052 92.0752Z" fill="#F1F0F2"/>
<path d="M46.704 69.4337L46.704 92.0752H69.3027V69.4337H46.704Z" fill="#F1F0F2"/>
<path d="M46.704 114.717L46.704 137.358H69.3027V114.717H46.704Z" fill="#4F87CB"/>
<path d="M69.3027 137.358H46.704V160H69.3027V137.358Z" fill="#3C4D66"/>
<path d="M24.1052 137.358H46.7039V114.717H24.1052L24.1052 137.358Z" fill="#F1F0F2"/>
<path d="M46.7039 160V137.358H24.1052V160H46.7039Z" fill="#3C4D66"/>
<path d="M69.3027 182.642H46.704V205.283H69.3027V182.642Z" fill="#9BE3AB"/>
<path d="M24.1052 182.642H46.7039V160H24.1052L24.1052 182.642Z" fill="#9BE3AB"/>
<path d="M24.1052 182.642H46.7039V160H24.1052L24.1052 182.642Z" fill="#9BE3AB"/>
<path d="M24.1052 182.642H46.7039V160H24.1052L24.1052 182.642Z" fill="#F1F0F2"/>
<path d="M46.7039 250.566V227.925H24.1052V250.566H46.7039Z" fill="#F1F0F2"/>
<path d="M69.3027 227.925H46.704V250.566H69.3027V227.925Z" fill="#4F87CB"/>
<path d="M46.704 205.283L46.704 227.925H69.3027V205.283H46.704Z" fill="#4CC6B2"/>
<path d="M24.1052 227.925H46.7039V205.283H24.1052L24.1052 227.925Z" fill="#9BE3AB"/>
<path d="M46.704 250.566L46.704 273.208H69.3027V250.566H46.704Z" fill="#9BE3AB"/>
<path d="M46.7039 295.849V273.208H24.1052V295.849H46.7039Z" fill="#4CC6B2"/>
<path d="M46.7039 295.849V273.208H24.1052V295.849H46.7039Z" fill="#4F87CB"/>
<path d="M46.7039 295.849V273.208H24.1052V295.849H46.7039Z" fill="#9BE3AB"/>
<path d="M91.9014 24.1515V46.793L114.5 46.793V24.1515L91.9014 24.1515Z" fill="#9BE3AB"/>
<path d="M91.9014 24.1515V46.793L114.5 46.793V24.1515L91.9014 24.1515Z" fill="#4CC6B2"/>
<path d="M69.3026 46.793H91.9012V24.1515L69.3026 24.1515V46.793Z" fill="#4CC6B2"/>
<path d="M91.9014 24.1515V46.793L114.5 46.793V24.1515L91.9014 24.1515Z" fill="#3C4D66"/>
<path d="M69.3026 92.0752H91.9012V69.4337H69.3026V92.0752Z" fill="#4CC6B2"/>
<path d="M114.5 92.0752H91.9014V114.717H114.5V92.0752Z" fill="#4CC6B2"/>
<path d="M91.9014 69.4337V92.0752H114.5V69.4337H91.9014Z" fill="#4F87CB"/>
<path d="M69.3026 92.0752H91.9012V69.4337H69.3026V92.0752Z" fill="#9BE3AB"/>
<path d="M114.5 137.358H91.9014V160H114.5V137.358Z" fill="#3C4D66"/>
<path d="M69.3026 137.358H91.9012V114.717H69.3026V137.358Z" fill="#3C4D66"/>
<path d="M114.5 137.358H91.9014V160H114.5V137.358Z" fill="#F1F0F2"/>
<path d="M69.3026 137.358H91.9012V114.717H69.3026V137.358Z" fill="#4F87CB"/>
<path d="M91.9014 160V182.642H114.5V160H91.9014Z" fill="#3C4D66"/>
<path d="M91.9012 205.283V182.642H69.3026V205.283H91.9012Z" fill="#4CC6B2"/>
<path d="M91.9014 160V182.642H114.5V160H91.9014Z" fill="#F1F0F2"/>
<path d="M91.9014 160V182.642H114.5V160H91.9014Z" fill="#4CC6B2"/>
<path d="M91.9012 250.566V227.925H69.3026V250.566H91.9012Z" fill="#4F87CB"/>
<path d="M91.9014 205.283V227.925H114.5V205.283H91.9014Z" fill="#3C4D66"/>
<path d="M91.9014 205.283V227.925H114.5V205.283H91.9014Z" fill="#4F87CB"/>
<path d="M69.3026 227.925H91.9012V205.283H69.3026V227.925Z" fill="#3C4D66"/>
<path d="M69.3026 273.208H91.9012V250.566H69.3026V273.208Z" fill="#3C4D66"/>
<path d="M91.9012 295.849V273.208H69.3026V295.849H91.9012Z" fill="#9BE3AB"/>
<path d="M91.9012 295.849V273.208H69.3026V295.849H91.9012Z" fill="#3C4D66"/>
<path d="M91.9014 250.566V273.208H114.5V250.566H91.9014Z" fill="#9BE3AB"/>
<path d="M159.697 46.792H137.099V69.4335H159.697V46.792Z" fill="#4F87CB"/>
<path d="M137.099 24.1515V46.793L159.697 46.793V24.1515L137.099 24.1515Z" fill="#F1F0F2"/>
<path d="M114.5 46.793H137.099V24.1515L114.5 24.1515V46.793Z" fill="#4F87CB"/>
<path d="M137.099 24.1515V46.793L159.697 46.793V24.1515L137.099 24.1515Z" fill="#9BE3AB"/>
<path d="M114.5 92.0752H137.099V69.4337H114.5V92.0752Z" fill="#4CC6B2"/>
<path d="M137.099 114.717V92.0752H114.5V114.717H137.099Z" fill="#4CC6B2"/>
<path d="M137.099 69.4337V92.0752H159.697V69.4337H137.099Z" fill="#F1F0F2"/>
<path d="M159.697 92.0752H137.099V114.717H159.697V92.0752Z" fill="#F1F0F2"/>
<path d="M137.099 160V137.358H114.5V160H137.099Z" fill="#F1F0F2"/>
<path d="M137.099 114.717V137.358H159.697V114.717H137.099Z" fill="#F1F0F2"/>
<path d="M137.099 160V137.358H114.5V160H137.099Z" fill="#9BE3AB"/>
<path d="M159.697 137.358H137.099V160H159.697V137.358Z" fill="#F1F0F2"/>
<path d="M159.697 182.642H137.099V205.283H159.697V182.642Z" fill="#F1F0F2"/>
<path d="M137.099 160V182.642H159.697V160H137.099Z" fill="#9BE3AB"/>
<path d="M159.697 182.642H137.099V205.283H159.697V182.642Z" fill="#F1F0F2"/>
<path d="M137.099 160V182.642H159.697V160H137.099Z" fill="#3C4D66"/>
<path d="M137.099 205.283V227.925H159.697V205.283H137.099Z" fill="#F1F0F2"/>
<path d="M114.5 227.925H137.099V205.283H114.5V227.925Z" fill="#F1F0F2"/>
<path d="M114.5 227.925H137.099V205.283H114.5V227.925Z" fill="#3C4D66"/>
<path d="M137.099 250.566V227.925H114.5V250.566H137.099Z" fill="#F1F0F2"/>
<path d="M114.5 273.208H137.099V250.566H114.5V273.208Z" fill="#9BE3AB"/>
<path d="M137.099 295.849V273.208H114.5V295.849H137.099Z" fill="#3C4D66"/>
<path d="M137.099 250.566V273.208H159.697V250.566H137.099Z" fill="#F1F0F2"/>
<path d="M137.099 250.566V273.208H159.697V250.566H137.099Z" fill="#3C4D66"/>
<path d="M204.895 46.792H182.296V69.4335H204.895V46.792Z" fill="#4CC6B2"/>
<path d="M182.296 69.4335V46.792H159.697V69.4335H182.296Z" fill="#F1F0F2"/>
<path d="M182.296 69.4335V46.792H159.697V69.4335H182.296Z" fill="#9BE3AB"/>
<path d="M182.296 24.1515V46.793L204.895 46.793V24.1515L182.296 24.1515Z" fill="#9BE3AB"/>
<path d="M182.296 69.4337V92.0752H204.895V69.4337H182.296Z" fill="#4CC6B2"/>
<path d="M182.296 69.4337V92.0752H204.895V69.4337H182.296Z" fill="#3C4D66"/>
<path d="M182.296 114.717V92.0752H159.697V114.717H182.296Z" fill="#4CC6B2"/>
<path d="M182.296 114.717V92.0752H159.697V114.717H182.296Z" fill="#9BE3AB"/>
<path d="M182.296 114.717V137.358H204.895V114.717H182.296Z" fill="#4CC6B2"/>
<path d="M182.296 114.717V137.358H204.895V114.717H182.296Z" fill="#4CC6B2"/>
<path d="M182.296 114.717V137.358H204.895V114.717H182.296Z" fill="#4F87CB"/>
<path d="M182.296 114.717V137.358H204.895V114.717H182.296Z" fill="#3C4D66"/>
<path d="M182.296 205.283V182.642H159.697V205.283H182.296Z" fill="#9BE3AB"/>
<path d="M182.296 160V182.642H204.895V160H182.296Z" fill="#9BE3AB"/>
<path d="M159.697 182.642H182.296V160H159.697V182.642Z" fill="#9BE3AB"/>
<path d="M182.296 205.283V182.642H159.697V205.283H182.296Z" fill="#3C4D66"/>
<path d="M182.296 205.283V227.925H204.895V205.283H182.296Z" fill="#F1F0F2"/>
<path d="M204.895 227.925H182.296V250.566H204.895V227.925Z" fill="#3C4D66"/>
<path d="M159.697 227.925H182.296V205.283H159.697V227.925Z" fill="#F1F0F2"/>
<path d="M182.296 250.566V227.925H159.697V250.566H182.296Z" fill="#9BE3AB"/>
<path d="M204.895 273.208H182.296V295.849H204.895V273.208Z" fill="#4F87CB"/>
<path d="M159.697 273.208H182.296V250.566H159.697V273.208Z" fill="#9BE3AB"/>
<path d="M159.697 273.208H182.296V250.566H159.697V273.208Z" fill="#3C4D66"/>
<path d="M204.895 273.208H182.296V295.849H204.895V273.208Z" fill="#4F87CB"/>
</g>
</svg>
