<svg width="229" height="319" viewBox="0 0 229 319" fill="none" xmlns="http://www.w3.org/2000/svg">
<mask id="mask0" mask-type="alpha" maskUnits="userSpaceOnUse" x="24" y="24" width="181" height="271">
<path d="M204.895 24.0752H24.1052V294.924H204.895V24.0752Z" fill="white"/>
</mask>
<g mask="url(#mask0)">
<path fill-rule="evenodd" clip-rule="evenodd" d="M44.4441 39.123H48.9638V43.6372H53.4835V48.1514H48.9638V52.6655H44.4441V48.1514H39.9243V43.6372H44.4441V39.123Z" fill="#9BE3AB"/>
<path fill-rule="evenodd" clip-rule="evenodd" d="M49.9001 84.6514L53.0956 87.8429L49.9001 91.0351L53.0956 94.2274L49.9001 97.4189L46.7039 94.2274L43.5077 97.4189L40.3123 94.2274L43.5077 91.0351L40.3123 87.8429L43.5077 84.6514L46.7039 87.8429L49.9001 84.6514Z" fill="#F1F0F2"/>
<path fill-rule="evenodd" clip-rule="evenodd" d="M44.4441 129.405H48.9638V133.919H53.4835V138.434H48.9638V142.948H44.4441V138.434H39.9243V133.919H44.4441V129.405Z" fill="#4CC6B2"/>
<path fill-rule="evenodd" clip-rule="evenodd" d="M49.9001 174.935L53.0956 178.126L49.9001 181.318L53.0956 184.511L49.9001 187.702L46.7039 184.511L43.5077 187.702L40.3123 184.511L43.5077 181.318L40.3123 178.126L43.5077 174.935L46.7039 178.126L49.9001 174.935Z" fill="#4F87CB"/>
<path fill-rule="evenodd" clip-rule="evenodd" d="M49.9001 265.218L53.0956 268.409L49.9001 271.602L53.0956 274.794L49.9001 277.985L46.7039 274.794L43.5077 277.985L40.3123 274.794L43.5077 271.602L40.3123 268.409L43.5077 265.218L46.7039 268.409L49.9001 265.218Z" fill="#F1F0F2"/>
<path fill-rule="evenodd" clip-rule="evenodd" d="M95.0975 39.5098L98.293 42.7013L95.0975 45.8935L98.293 49.0858L95.0975 52.2773L91.9013 49.0858L88.7051 52.2773L85.5096 49.0858L88.7051 45.8935L85.5096 42.7013L88.7051 39.5098L91.9013 42.7013L95.0975 39.5098Z" fill="#4F87CB"/>
<path fill-rule="evenodd" clip-rule="evenodd" d="M95.0975 129.793L98.293 132.984L95.0975 136.177L98.293 139.369L95.0975 142.56L91.9013 139.369L88.7051 142.56L85.5096 139.369L88.7051 136.177L85.5096 132.984L88.7051 129.793L91.9013 132.984L95.0975 129.793Z" fill="#9BE3AB"/>
<path fill-rule="evenodd" clip-rule="evenodd" d="M95.0975 220.076L98.293 223.268L95.0975 226.46L98.293 229.652L95.0975 232.844L91.9013 229.652L88.7051 232.844L85.5096 229.652L88.7051 226.46L85.5096 223.268L88.7051 220.076L91.9013 223.268L95.0975 220.076Z" fill="#4F87CB"/>
<path fill-rule="evenodd" clip-rule="evenodd" d="M89.6414 264.83H94.1612V269.344H98.6809V273.858H94.1612V278.373H89.6414V273.858H85.1217V269.344H89.6414V264.83Z" fill="#4F87CB"/>
<path fill-rule="evenodd" clip-rule="evenodd" d="M140.295 84.6514L143.49 87.8429L140.295 91.0351L143.49 94.2274L140.295 97.4189L137.099 94.2274L133.902 97.4189L130.707 94.2274L133.902 91.0351L130.707 87.8429L133.902 84.6514L137.099 87.8429L140.295 84.6514Z" fill="#F1F0F2"/>
<path fill-rule="evenodd" clip-rule="evenodd" d="M134.839 129.405H139.359V133.919H143.878V138.434H139.359V142.948H134.839V138.434H130.319V133.919H134.839V129.405Z" fill="#4F87CB"/>
<path fill-rule="evenodd" clip-rule="evenodd" d="M140.295 174.935L143.49 178.126L140.295 181.318L143.49 184.511L140.295 187.702L137.099 184.511L133.902 187.702L130.707 184.511L133.902 181.318L130.707 178.126L133.902 174.935L137.099 178.126L140.295 174.935Z" fill="#65578E"/>
<path fill-rule="evenodd" clip-rule="evenodd" d="M134.839 219.688H139.359V224.203H143.878V228.717H139.359V233.231H134.839V228.717H130.319V224.203H134.839V219.688Z" fill="#65578E"/>
<path fill-rule="evenodd" clip-rule="evenodd" d="M140.295 265.218L143.49 268.409L140.295 271.602L143.49 274.794L140.295 277.985L137.099 274.794L133.902 277.985L130.707 274.794L133.902 271.602L130.707 268.409L133.902 265.218L137.099 268.409L140.295 265.218Z" fill="#65578E"/>
<path fill-rule="evenodd" clip-rule="evenodd" d="M185.492 39.5098L188.688 42.7013L185.492 45.8935L188.688 49.0858L185.492 52.2773L182.296 49.0858L179.1 52.2773L175.904 49.0858L179.1 45.8935L175.904 42.7013L179.1 39.5098L182.296 42.7013L185.492 39.5098Z" fill="#4CC6B2"/>
<path fill-rule="evenodd" clip-rule="evenodd" d="M180.036 84.2637H184.556V88.7778H189.076V93.292H184.556V97.8061H180.036V93.292H175.516V88.7778H180.036V84.2637Z" fill="#F1F0F2"/>
<path fill-rule="evenodd" clip-rule="evenodd" d="M185.492 129.793L188.688 132.984L185.492 136.177L188.688 139.369L185.492 142.56L182.296 139.369L179.1 142.56L175.904 139.369L179.1 136.177L175.904 132.984L179.1 129.793L182.296 132.984L185.492 129.793Z" fill="#9BE3AB"/>
<path fill-rule="evenodd" clip-rule="evenodd" d="M185.492 220.076L188.688 223.268L185.492 226.46L188.688 229.652L185.492 232.844L182.296 229.652L179.1 232.844L175.904 229.652L179.1 226.46L175.904 223.268L179.1 220.076L182.296 223.268L185.492 220.076Z" fill="#4CC6B2"/>
<path fill-rule="evenodd" clip-rule="evenodd" d="M180.036 264.83H184.556V269.344H189.076V273.858H184.556V278.373H180.036V273.858H175.516V269.344H180.036V264.83Z" fill="#4CC6B2"/>
</g>
</svg>
