<svg width="229" height="319" viewBox="0 0 229 319" fill="none" xmlns="http://www.w3.org/2000/svg">
<mask id="mask0" mask-type="alpha" maskUnits="userSpaceOnUse" x="23" y="23" width="183" height="273">
<path d="M205.648 23.3232H23.3519V295.677H205.648V23.3232Z" fill="white"/>
</mask>
<g mask="url(#mask0)">
<path d="M69.3026 114.358H24.1052L24.1052 69.2169H69.3026V114.358Z" stroke="#FA9AD0" stroke-width="2"/>
<path d="M46.7039 91.7876C46.7039 79.3218 36.5857 69.2169 24.1052 69.2169L24.1052 114.358C36.5857 114.358 46.7039 104.253 46.7039 91.7876Z" stroke="#FA9AD0" stroke-width="2"/>
<path d="M46.7039 91.7876C46.7039 104.254 56.8214 114.358 69.3026 114.358V69.2169C56.8214 69.2169 46.7039 79.3226 46.7039 91.7876Z" stroke="#FA9AD0" stroke-width="2"/>
<path d="M24.1052 114.358H69.3026V159.5H24.1052V114.358Z" stroke="#FA9AD0" stroke-width="2"/>
<path d="M46.7039 136.929C46.7039 149.395 56.822 159.5 69.3025 159.5V114.358C56.822 114.358 46.7039 124.464 46.7039 136.929Z" stroke="#FA9AD0" stroke-width="2"/>
<path d="M46.7039 136.929C46.7039 124.463 36.5865 114.358 24.1052 114.358V159.5C36.5865 159.5 46.7039 149.394 46.7039 136.929Z" fill="#FFDB69" stroke="#FA9AD0" stroke-width="2"/>
<path d="M24.1052 294.925L24.1052 249.783H69.3026V294.925H24.1052Z" stroke="#FA9AD0" stroke-width="2"/>
<path d="M46.7039 294.925C59.1852 294.925 69.3026 284.819 69.3026 272.354H24.1052C24.1052 284.819 34.2234 294.925 46.7039 294.925Z" stroke="#FA9AD0" stroke-width="2"/>
<path d="M69.3026 24.0752H114.5V69.2167H69.3026V24.0752Z" stroke="#FA9AD0" stroke-width="2"/>
<path d="M114.5 69.2168H69.3026V114.358H114.5V69.2168Z" stroke="#FA9AD0" stroke-width="2"/>
<path d="M69.3026 69.2168L114.5 114.358" stroke="#FA9AD0" stroke-width="2"/>
<path d="M69.3026 114.358H114.5V159.5H69.3026V114.358Z" stroke="#FA9AD0" stroke-width="2"/>
<path d="M69.3026 204.642L69.3026 159.5H114.5V204.642H69.3026Z" stroke="#FA9AD0" stroke-width="2"/>
<path d="M91.9013 182.07C104.383 182.07 114.5 171.965 114.5 159.5H69.3026C69.3026 171.965 79.4208 182.07 91.9013 182.07Z" stroke="#FA9AD0" stroke-width="2"/>
<path d="M91.9013 182.071C79.4193 182.071 69.3026 192.176 69.3026 204.642H114.5C114.5 192.176 104.382 182.071 91.9013 182.071Z" stroke="#FA9AD0" stroke-width="2"/>
<path d="M114.5 204.642V249.783H69.3026V204.642H114.5Z" stroke="#FA9AD0" stroke-width="2"/>
<path d="M91.9013 204.642C78.3044 204.642 69.3026 216.179 69.3026 227.212H114.5C114.5 216.179 103.266 204.642 91.9013 204.642Z" fill="#55C2FF" stroke="#FA9AD0" stroke-width="2"/>
<path d="M91.9013 249.783C103.266 249.783 114.5 241.109 114.5 227.212H69.3026C69.3026 241.109 78.3044 249.783 91.9013 249.783Z" stroke="#FA9AD0" stroke-width="2"/>
<path d="M69.3026 294.925L69.3026 249.783H114.5V294.925H69.3026Z" stroke="#FA9AD0" stroke-width="2"/>
<path d="M91.9013 294.925C105.498 294.925 114.5 283.388 114.5 272.354H69.3026C69.3026 283.388 80.5363 294.925 91.9013 294.925Z" stroke="#FA9AD0" stroke-width="2"/>
<path d="M91.9013 249.783C80.5363 249.783 69.3026 258.456 69.3026 272.354H114.5C114.5 258.456 105.498 249.783 91.9013 249.783Z" stroke="#FA9AD0" stroke-width="2"/>
<path d="M114.5 24.0752H159.697V69.2167H114.5V24.0752Z" stroke="#FA9AD0" stroke-width="2"/>
<path d="M114.5 46.646C114.5 60.226 126.052 69.2167 137.099 69.2167V24.0752C126.052 24.0752 114.5 35.295 114.5 46.646Z" fill="#55C2FF" stroke="#FA9AD0" stroke-width="2"/>
<path d="M159.697 46.646C159.697 35.295 151.013 24.0752 137.099 24.0752V69.2167C151.013 69.2167 159.697 60.226 159.697 46.646Z" stroke="#FA9AD0" stroke-width="2"/>
<path d="M114.5 114.358H159.697V159.5H114.5V114.358Z" stroke="#FA9AD0" stroke-width="2"/>
<path d="M114.5 136.929C114.5 150.509 126.052 159.5 137.099 159.5V114.358C126.052 114.358 114.5 125.578 114.5 136.929Z" stroke="#FA9AD0" stroke-width="2"/>
<path d="M159.697 136.929C159.697 125.578 151.013 114.358 137.099 114.358V159.5C151.013 159.5 159.697 150.509 159.697 136.929Z" stroke="#FA9AD0" stroke-width="2"/>
<path d="M114.5 159.5H159.697V204.642H114.5V159.5Z" stroke="#FA9AD0" stroke-width="2"/>
<path d="M137.099 204.642C149.58 204.642 159.697 194.536 159.697 182.071C159.697 169.605 149.58 159.5 137.099 159.5C124.618 159.5 114.5 169.605 114.5 182.071C114.5 194.536 124.618 204.642 137.099 204.642Z" fill="#FFDB69" stroke="#FA9AD0" stroke-width="2"/>
<path d="M159.697 204.642V249.783H114.5V204.642H159.697Z" stroke="#FA9AD0" stroke-width="2"/>
<path d="M159.697 227.212V249.783H114.5V227.212H159.697Z" fill="#56F3AE" stroke="#FA9AD0" stroke-width="2"/>
<path d="M137.099 204.642C124.617 204.642 114.5 214.747 114.5 227.212H159.697C159.697 214.747 149.579 204.642 137.099 204.642Z" stroke="#FA9AD0" stroke-width="2"/>
<path d="M114.5 249.783H159.697V294.925H114.5V249.783Z" stroke="#FA9AD0" stroke-width="2"/>
<path d="M137.099 294.925C149.58 294.925 159.697 284.819 159.697 272.354C159.697 259.888 149.58 249.783 137.099 249.783C124.618 249.783 114.5 259.888 114.5 272.354C114.5 284.819 124.618 294.925 137.099 294.925Z" stroke="#FA9AD0" stroke-width="2"/>
<path d="M204.895 159.5V204.642H159.697V159.5H204.895Z" stroke="#FA9AD0" stroke-width="2"/>
<path d="M182.296 182.07C169.815 182.07 159.697 192.176 159.697 204.641H204.895C204.895 192.176 194.777 182.07 182.296 182.07Z" stroke="#FA9AD0" stroke-width="2"/>
<path d="M182.296 182.071C194.778 182.071 204.895 171.966 204.895 159.5H159.697C159.697 171.966 169.816 182.071 182.296 182.071Z" stroke="#FA9AD0" stroke-width="2"/>
<path d="M204.895 249.783V204.642H159.697V249.783H204.895Z" stroke="#FA9AD0" stroke-width="2"/>
<path d="M204.895 204.642L159.697 249.783" stroke="#FA9AD0" stroke-width="2"/>
</g>
</svg>
