<svg width="229" height="319" viewBox="0 0 229 319" fill="none" xmlns="http://www.w3.org/2000/svg">
<mask id="mask0" mask-type="alpha" maskUnits="userSpaceOnUse" x="24" y="24" width="181" height="271">
<path d="M204.895 24.0752H24.1053V294.924H204.895V24.0752Z" fill="white"/>
</mask>
<g mask="url(#mask0)">
<path d="M69.3026 24.0752H24.1053V69.2167H69.3026V24.0752Z" fill="#F1F0F2"/>
<path d="M24.1052 69.2168H39.171V54.1696H54.2368V39.1225H69.3026V24.0753L24.1052 24.0753L24.1052 69.2168Z" fill="#4CC6B2"/>
<path d="M69.3026 69.2168H24.1053V114.358H69.3026V69.2168Z" fill="#4CC6B2"/>
<path d="M24.1052 114.358H39.171V99.3112H54.2368V84.2641H69.3026V69.2169H24.1052L24.1052 114.358Z" fill="#F1F0F2"/>
<path d="M69.3026 114.358H24.1053V159.5H69.3026V114.358Z" fill="#4CC6B2"/>
<path d="M69.3026 114.358H54.2368V129.406H39.171V144.453H24.1053V159.5H69.3026V114.358Z" fill="#F1F0F2"/>
<path d="M69.3026 159.5H24.1053V204.642H69.3026V159.5Z" fill="#4CC6B2"/>
<path d="M24.1052 204.642H39.171V189.594H54.2368V174.547H69.3026V159.5H24.1052L24.1052 204.642Z" fill="#F1F0F2"/>
<path d="M69.3026 204.642H24.1053V249.783H69.3026V204.642Z" fill="#4CC6B2"/>
<path d="M69.3026 249.783V234.736H54.2368V219.689H39.171V204.642H24.1052V249.783H69.3026Z" fill="#F1F0F2"/>
<path d="M69.3026 249.783H24.1053V294.925H69.3026V249.783Z" fill="#4CC6B2"/>
<path d="M24.1052 294.925H39.171V279.878H54.2368V264.83H69.3026V249.783H24.1052L24.1052 294.925Z" fill="#F1F0F2"/>
<path d="M114.5 24.0752H69.3026V69.2167H114.5V24.0752Z" fill="#4CC6B2"/>
<path d="M114.5 69.2167V54.1695H99.4342V39.1224H84.3684V24.0752H69.3026V69.2167H114.5Z" fill="#F1F0F2"/>
<path d="M114.5 69.2168H69.3026V114.358H114.5V69.2168Z" fill="#4CC6B2"/>
<path d="M114.5 114.358V99.3111H99.4342V84.264H84.3684V69.2168H69.3026V114.358H114.5Z" fill="#F1F0F2"/>
<path d="M114.5 114.358H69.3026V159.5H114.5V114.358Z" fill="#4CC6B2"/>
<path d="M69.3026 159.5H84.3684V144.453H99.4342V129.406H114.5V114.358H69.3026V159.5Z" fill="#F1F0F2"/>
<path d="M114.5 159.5H69.3026V204.642H114.5V159.5Z" fill="#F1F0F2"/>
<path d="M114.5 159.5H99.4342V174.547H84.3684V189.594H69.3026V204.642H114.5V159.5Z" fill="#4CC6B2"/>
<path d="M114.5 204.642H69.3026V249.783H114.5V204.642Z" fill="#4CC6B2"/>
<path d="M114.5 204.642H99.4342V219.689H84.3684V234.736H69.3026V249.783H114.5V204.642Z" fill="#F1F0F2"/>
<path d="M114.5 249.783H69.3026V294.925H114.5V249.783Z" fill="#F1F0F2"/>
<path d="M114.5 294.925V279.878H99.4342V264.83H84.3684V249.783H69.3026V294.925H114.5Z" fill="#4CC6B2"/>
<path d="M159.697 24.0752H114.5V69.2167H159.697V24.0752Z" fill="#4CC6B2"/>
<path d="M159.697 24.0752H144.632V39.1224H129.566V54.1695H114.5V69.2167H159.697V24.0752Z" fill="#F1F0F2"/>
<path d="M159.697 69.2168H114.5V114.358H159.697V69.2168Z" fill="#F1F0F2"/>
<path d="M159.697 114.358V99.3111H144.632V84.264H129.566V69.2168H114.5V114.358H159.697Z" fill="#4CC6B2"/>
<path d="M159.697 114.358H114.5V159.5H159.697V114.358Z" fill="#F1F0F2"/>
<path d="M114.5 159.5H129.566V144.453H144.632V129.406H159.697V114.358H114.5V159.5Z" fill="#4CC6B2"/>
<path d="M159.697 159.5H114.5V204.642H159.697V159.5Z" fill="#F1F0F2"/>
<path d="M159.697 204.642V189.594H144.632V174.547H129.566V159.5H114.5V204.642H159.697Z" fill="#4CC6B2"/>
<path d="M159.697 204.642H114.5V249.783H159.697V204.642Z" fill="#F1F0F2"/>
<path d="M114.5 204.642L114.5 219.689H129.566V234.736H144.632V249.783H159.697V204.642H114.5Z" fill="#4CC6B2"/>
<path d="M159.697 249.783H114.5V294.925H159.697V249.783Z" fill="#4CC6B2"/>
<path d="M159.697 294.925V279.878H144.632V264.83H129.566V249.783H114.5V294.925H159.697Z" fill="#F1F0F2"/>
<path d="M204.895 24.0752H159.697V69.2167H204.895V24.0752Z" fill="#F1F0F2"/>
<path d="M204.895 24.0752H189.829V39.1224H174.763V54.1695H159.697V69.2167H204.895V24.0752Z" fill="#4CC6B2"/>
<path d="M204.895 69.2168H159.697V114.358H204.895V69.2168Z" fill="#4CC6B2"/>
<path d="M204.895 114.358V99.3111H189.829V84.264H174.763V69.2168H159.697V114.358H204.895Z" fill="#F1F0F2"/>
<path d="M204.895 114.358H159.697V159.5H204.895V114.358Z" fill="#F1F0F2"/>
<path d="M159.697 114.358V129.406H174.763V144.453H189.829V159.5H204.895V114.358H159.697Z" fill="#4CC6B2"/>
<path d="M204.895 159.5H159.697V204.642H204.895V159.5Z" fill="#F1F0F2"/>
<path d="M204.895 159.5H189.829V174.547H174.763V189.594H159.697V204.642H204.895V159.5Z" fill="#4CC6B2"/>
<path d="M204.895 204.642H159.697V249.783H204.895V204.642Z" fill="#F1F0F2"/>
<path d="M204.895 249.783V234.736H189.829V219.689H174.763V204.642H159.697V249.783H204.895Z" fill="#4CC6B2"/>
<path d="M204.895 249.783H159.697V294.925H204.895V249.783Z" fill="#4CC6B2"/>
<path d="M204.895 249.783H189.829V264.83H174.763V279.878H159.697V294.925H204.895V249.783Z" fill="#F1F0F2"/>
</g>
</svg>
