<svg width="229" height="319" viewBox="0 0 229 319" fill="none" xmlns="http://www.w3.org/2000/svg">
<mask id="mask0" mask-type="alpha" maskUnits="userSpaceOnUse" x="24" y="24" width="181" height="271">
<path d="M204.895 24.0752H24.1052V294.924H204.895V24.0752Z" fill="white"/>
</mask>
<g mask="url(#mask0)">
<path d="M69.3026 24.0752H24.1052V69.2167H69.3026V24.0752Z" fill="#4CC6B2"/>
<path d="M69.3026 24.0752H54.2368V39.1224H39.171V54.1695H24.1052V69.2167H69.3026V24.0752Z" fill="#9BE3AB"/>
<path d="M69.3026 69.2168H24.1052V114.358H69.3026V69.2168Z" fill="#4F87CB"/>
<path d="M24.1052 69.2169V84.2641H39.171L39.171 99.3112H54.2368V114.358L69.3026 114.358V69.2169H24.1052Z" fill="#65578E"/>
<path d="M69.3026 114.358H24.1052V159.5H69.3026V114.358Z" fill="#65578E"/>
<path d="M24.1052 114.358V129.406H39.171L39.171 144.453H54.2368V159.5H69.3026V114.358H24.1052Z" fill="#9BE3AB"/>
<path d="M69.3026 159.5H24.1052V204.642H69.3026V159.5Z" fill="#3C4D66"/>
<path d="M24.1052 204.642H39.171V189.594H54.2368V174.547H69.3026V159.5H24.1052L24.1052 204.642Z" fill="#4CC6B2"/>
<path d="M69.3026 204.642H24.1052V249.783H69.3026V204.642Z" fill="#65578E"/>
<path d="M69.3026 249.783V234.736H54.2368V219.689H39.171V204.642H24.1052V249.783H69.3026Z" fill="#4CC6B2"/>
<path d="M69.3026 249.783H24.1052V294.925H69.3026V249.783Z" fill="#9BE3AB"/>
<path d="M69.3026 249.783H54.2368V264.83H39.171V279.878H24.1052V294.925H69.3026V249.783Z" fill="#65578E"/>
<path d="M114.5 24.0752H69.3026V69.2167H114.5V24.0752Z" fill="#4CC6B2"/>
<path d="M114.5 69.2167V54.1695H99.4342V39.1224H84.3684V24.0752H69.3026V69.2167H114.5Z" fill="#9BE3AB"/>
<path d="M114.5 69.2168H69.3026V114.358H114.5V69.2168Z" fill="#3C4D66"/>
<path d="M69.3026 114.358H84.3684V99.3112H99.4342V84.2641H114.5V69.2169H69.3026V114.358Z" fill="#4CC6B2"/>
<path d="M114.5 114.358H69.3026V159.5H114.5V114.358Z" fill="#4CC6B2"/>
<path d="M69.3026 159.5H84.3684V144.453H99.4342V129.406H114.5V114.358H69.3026V159.5Z" fill="#65578E"/>
<path d="M114.5 159.5H69.3026V204.642H114.5V159.5Z" fill="#3C4D66"/>
<path d="M69.3026 159.5L69.3026 174.547H84.3684V189.594H99.4342V204.642H114.5V159.5H69.3026Z" fill="#9BE3AB"/>
<path d="M114.5 204.642H69.3026V249.783H114.5V204.642Z" fill="#65578E"/>
<path d="M69.3026 249.783H84.3684V234.736H99.4342V219.689H114.5V204.642H69.3026V249.783Z" fill="#4CC6B2"/>
<path d="M114.5 249.783H69.3026V294.925H114.5V249.783Z" fill="#9BE3AB"/>
<path d="M114.5 294.925V279.878H99.4342V264.83H84.3684V249.783H69.3026V294.925H114.5Z" fill="#65578E"/>
<path d="M159.697 24.0752H114.5V69.2167H159.697V24.0752Z" fill="#4CC6B2"/>
<path d="M114.5 69.2168H129.566V54.1696H144.632V39.1225H159.697V24.0753L114.5 24.0753V69.2168Z" fill="#9BE3AB"/>
<path d="M159.697 69.2168H114.5V114.358H159.697V69.2168Z" fill="#9BE3AB"/>
<path d="M159.697 69.2168H144.632V84.264H129.566V99.3111H114.5V114.358H159.697V69.2168Z" fill="#3C4D66"/>
<path d="M159.697 114.358H114.5V159.5H159.697V114.358Z" fill="#9BE3AB"/>
<path d="M114.5 114.358L114.5 129.406H129.566V144.453H144.632V159.5H159.697V114.358H114.5Z" fill="#3C4D66"/>
<path d="M159.697 159.5H114.5V204.642H159.697V159.5Z" fill="#4CC6B2"/>
<path d="M159.697 204.642V189.594H144.632V174.547H129.566V159.5H114.5V204.642H159.697Z" fill="#3C4D66"/>
<path d="M159.697 204.642H114.5V249.783H159.697V204.642Z" fill="#65578E"/>
<path d="M114.5 249.783H129.566V234.736H144.632V219.689H159.697V204.642H114.5V249.783Z" fill="#9BE3AB"/>
<path d="M159.697 249.783H114.5V294.925H159.697V249.783Z" fill="#9BE3AB"/>
<path d="M114.5 249.783L114.5 264.83H129.566V279.878H144.632V294.925H159.697V249.783H114.5Z" fill="#65578E"/>
<path d="M204.895 24.0752H159.697V69.2167H204.895V24.0752Z" fill="#4CC6B2"/>
<path d="M204.895 69.2167V54.1695H189.829V39.1224H174.763V24.0752H159.697V69.2167H204.895Z" fill="#3C4D66"/>
<path d="M204.895 69.2168H159.697V114.358H204.895V69.2168Z" fill="#3C4D66"/>
<path d="M159.697 114.358H174.763V99.3112H189.829V84.2641H204.895V69.2169H159.697V114.358Z" fill="#4F87CB"/>
<path d="M204.895 114.358H159.697V159.5H204.895V114.358Z" fill="#3C4D66"/>
<path d="M204.895 114.358H189.829V129.406H174.763V144.453H159.697V159.5H204.895V114.358Z" fill="#65578E"/>
<path d="M204.895 159.5H159.697V204.642H204.895V159.5Z" fill="#9BE3AB"/>
<path d="M204.895 159.5H189.829V174.547H174.763V189.594H159.697V204.642H204.895V159.5Z" fill="#3C4D66"/>
<path d="M204.895 204.642H159.697V249.783H204.895V204.642Z" fill="#4CC6B2"/>
<path d="M159.697 204.642V219.689H174.763V234.736H189.829V249.783H204.895V204.642H159.697Z" fill="#9BE3AB"/>
<path d="M204.895 249.783H159.697V294.925H204.895V249.783Z" fill="#4CC6B2"/>
<path d="M159.697 249.783V264.83H174.763V279.878H189.829V294.925H204.895V249.783H159.697Z" fill="#65578E"/>
</g>
</svg>
