<svg width="229" height="319" viewBox="0 0 229 319" fill="none" xmlns="http://www.w3.org/2000/svg">
<mask id="mask0" mask-type="alpha" maskUnits="userSpaceOnUse" x="24" y="24" width="181" height="271">
<path d="M204.895 24.0752H24.1052V294.924H204.895V24.0752Z" fill="white"/>
</mask>
<g mask="url(#mask0)">
<path fill-rule="evenodd" clip-rule="evenodd" d="M69.3026 24.0752V69.2167H24.1052C24.1052 57.2444 28.8671 45.7625 37.3432 37.2968C45.8194 28.8312 57.3155 24.0752 69.3026 24.0752V24.0752Z" fill="#FF5263"/>
<path fill-rule="evenodd" clip-rule="evenodd" d="M69.3026 60.1884V55.6742C65.7065 55.6742 62.2576 57.101 59.7148 59.6407C57.172 62.1804 55.7434 65.625 55.7434 69.2167H60.2631C60.2631 66.8222 61.2155 64.5259 62.9107 62.8327C64.606 61.1396 66.9052 60.1884 69.3026 60.1884V60.1884ZM69.3026 63.1978C68.511 63.1972 67.727 63.3524 66.9954 63.6544C66.2639 63.9565 65.5991 64.3996 65.039 64.9584C64.4795 65.5177 64.0359 66.1817 63.7335 66.9124C63.431 67.643 63.2757 68.4261 63.2763 69.2167H69.3026V63.1978ZM69.3026 48.1507V52.6648C64.9073 52.6648 60.6921 54.4087 57.5842 57.5127C54.4763 60.6168 52.7302 64.8269 52.7302 69.2167H48.2105C48.2105 63.6296 50.4327 58.2714 54.3882 54.3208C58.3438 50.3701 63.7086 48.1507 69.3026 48.1507V48.1507ZM69.3026 45.1412V40.6271C61.7108 40.6271 54.4299 43.6392 49.0617 49.0008C43.6935 54.3624 40.6776 61.6343 40.6776 69.2167H45.1973C45.1973 62.8315 47.737 56.7078 52.2576 52.1928C56.7782 47.6777 62.9095 45.1412 69.3026 45.1412V45.1412ZM69.3026 33.1035V37.6176C60.9117 37.6176 52.8644 40.9468 46.9311 46.8728C40.9977 52.7988 37.6645 60.8361 37.6645 69.2167H33.1447C33.1447 59.6389 36.9542 50.4533 43.7351 43.6808C50.516 36.9083 59.7129 33.1035 69.3026 33.1035V33.1035ZM69.3026 30.0941V24.0752C57.3155 24.0752 45.8194 28.8312 37.3432 37.2968C28.8671 45.7625 24.1052 57.2444 24.1052 69.2167H30.1316C30.1316 58.8407 34.2585 48.8897 41.6045 41.5528C48.9505 34.2159 58.9138 30.0941 69.3026 30.0941V30.0941Z" fill="#FF5263"/>
<path d="M24.1052 114.358C49.0671 114.358 69.3026 94.1478 69.3026 69.2168L24.1052 69.2168L24.1052 114.358Z" fill="#FCBD01"/>
<path d="M24.1052 114.358C24.1052 139.289 44.3408 159.5 69.3026 159.5L69.3026 114.358L24.1052 114.358Z" fill="#FF5263"/>
<path d="M24.1052 159.5C24.1052 184.431 44.3408 204.642 69.3026 204.642L69.3026 159.5L24.1052 159.5Z" fill="#14AAF5"/>
<path d="M24.1052 249.783C49.0671 249.783 69.3026 229.573 69.3026 204.642L24.1052 204.642L24.1052 249.783Z" fill="#FFCAB3"/>
<path d="M24.1052 249.783C24.1052 274.714 44.3408 294.925 69.3026 294.925L69.3026 249.783L24.1052 249.783Z" fill="#796EFF"/>
<path fill-rule="evenodd" clip-rule="evenodd" d="M114.5 69.2168H69.3026V24.0753C81.2897 24.0753 92.7858 28.8313 101.262 37.2969C109.738 45.7626 114.5 57.2445 114.5 69.2168V69.2168Z" fill="#FF5263"/>
<path fill-rule="evenodd" clip-rule="evenodd" d="M78.3421 69.2168H82.8618C82.8618 65.6251 81.4333 62.1805 78.8904 59.6408C76.3476 57.1011 72.8988 55.6743 69.3026 55.6743V60.1885C71.7001 60.1885 73.9993 61.1397 75.6945 62.8328C77.3897 64.526 78.3421 66.8223 78.3421 69.2168V69.2168ZM75.329 69.2168C75.3296 68.4262 75.1742 67.6431 74.8718 66.9125C74.5693 66.1818 74.1257 65.5178 73.5663 64.9584C73.0062 64.3997 72.3414 63.9566 71.6098 63.6545C70.8782 63.3525 70.0943 63.1973 69.3026 63.1979V69.2168H75.329ZM90.3947 69.2168H85.875C85.875 64.827 84.129 60.6169 81.0211 57.5128C77.9131 54.4088 73.6979 52.6649 69.3026 52.6649V48.1508C74.8966 48.1508 80.2615 50.3702 84.217 54.3209C88.1725 58.2715 90.3947 63.6297 90.3947 69.2168V69.2168ZM93.4079 69.2168H97.9276C97.9276 61.6344 94.9118 54.3625 89.5436 49.0009C84.1753 43.6393 76.8945 40.6272 69.3026 40.6272V45.1413C75.6957 45.1413 81.827 47.6778 86.3476 52.1929C90.8682 56.7079 93.4079 62.8316 93.4079 69.2168V69.2168ZM105.461 69.2168H100.941C100.941 60.8362 97.6075 52.7989 91.6742 46.8729C85.7409 40.9469 77.6936 37.6177 69.3026 37.6177V33.1036C78.8923 33.1036 88.0892 36.9084 94.8701 43.6809C101.651 50.4534 105.461 59.639 105.461 69.2168V69.2168ZM108.474 69.2168H114.5C114.5 57.2445 109.738 45.7626 101.262 37.2969C92.7858 28.8313 81.2897 24.0753 69.3026 24.0753V30.0942C79.6914 30.0942 89.6548 34.216 97.0007 41.5529C104.347 48.8898 108.474 58.8408 108.474 69.2168V69.2168Z" fill="#FCBD01"/>
<path d="M69.3026 114.358C94.2644 114.358 114.5 94.1478 114.5 69.2168L69.3026 69.2168L69.3026 114.358Z" fill="#14AAF5"/>
<path d="M114.5 114.358C89.5382 114.358 69.3026 134.569 69.3026 159.5L114.5 159.5L114.5 114.358Z" fill="#FF5263"/>
<path d="M69.3026 159.5C69.3026 184.431 89.5382 204.642 114.5 204.642L114.5 159.5L69.3026 159.5Z" fill="#14AAF5"/>
<path fill-rule="evenodd" clip-rule="evenodd" d="M114.5 204.642V249.783H69.3026C69.3026 237.811 74.0645 226.329 82.5406 217.863C91.0168 209.398 102.513 204.642 114.5 204.642V204.642Z" fill="#F0F2F3"/>
<path fill-rule="evenodd" clip-rule="evenodd" d="M114.5 240.755V236.241C110.904 236.241 107.455 237.667 104.912 240.207C102.369 242.747 100.941 246.191 100.941 249.783H105.461C105.461 247.389 106.413 245.092 108.108 243.399C109.803 241.706 112.103 240.755 114.5 240.755V240.755ZM114.5 243.764C113.708 243.764 112.924 243.919 112.193 244.221C111.461 244.523 110.796 244.966 110.236 245.525C109.677 246.084 109.233 246.748 108.931 247.479C108.628 248.209 108.473 248.992 108.474 249.783H114.5V243.764ZM114.5 228.717V233.231C110.105 233.231 105.889 234.975 102.782 238.079C99.6736 241.183 97.9276 245.393 97.9276 249.783H93.4079C93.4079 244.196 95.6301 238.838 99.5856 234.887C103.541 230.937 108.906 228.717 114.5 228.717V228.717ZM114.5 225.708V221.193C106.908 221.193 99.6273 224.206 94.2591 229.567C88.8908 234.929 85.875 242.201 85.875 249.783H90.3947C90.3947 243.398 92.9344 237.274 97.455 232.759C101.976 228.244 108.107 225.708 114.5 225.708V225.708ZM114.5 213.67V218.184C106.109 218.184 98.0618 221.513 92.1284 227.439C86.1951 233.365 82.8618 241.403 82.8618 249.783H78.3421C78.3421 240.205 82.1516 231.02 88.9325 224.247C95.7134 217.475 104.91 213.67 114.5 213.67V213.67ZM114.5 210.66V204.642C102.513 204.642 91.0168 209.398 82.5406 217.863C74.0645 226.329 69.3026 237.811 69.3026 249.783H75.329C75.329 239.407 79.4559 229.456 86.8019 222.119C94.1479 214.782 104.111 210.66 114.5 210.66V210.66Z" fill="white"/>
<path d="M69.3026 294.925C94.2644 294.925 114.5 274.714 114.5 249.783L69.3026 249.783L69.3026 294.925Z" fill="#FCBD01"/>
<path fill-rule="evenodd" clip-rule="evenodd" d="M159.697 69.2168H114.5V24.0753C126.487 24.0753 137.983 28.8313 146.459 37.2969C154.936 45.7626 159.697 57.2445 159.697 69.2168V69.2168Z" fill="#FFCAB3"/>
<path fill-rule="evenodd" clip-rule="evenodd" d="M123.539 69.2168H128.059C128.059 65.6251 126.631 62.1805 124.088 59.6408C121.545 57.1011 118.096 55.6743 114.5 55.6743V60.1885C116.897 60.1885 119.197 61.1397 120.892 62.8328C122.587 64.526 123.539 66.8223 123.539 69.2168V69.2168ZM120.526 69.2168C120.527 68.4262 120.372 67.6431 120.069 66.9125C119.767 66.1818 119.323 65.5178 118.764 64.9584C118.204 64.3997 117.539 63.9566 116.807 63.6545C116.076 63.3525 115.292 63.1973 114.5 63.1979V69.2168H120.526ZM135.592 69.2168H131.072C131.072 64.827 129.326 60.6169 126.218 57.5128C123.111 54.4088 118.895 52.6649 114.5 52.6649V48.1508C120.094 48.1508 125.459 50.3702 129.414 54.3209C133.37 58.2715 135.592 63.6297 135.592 69.2168V69.2168ZM138.605 69.2168H143.125C143.125 61.6344 140.109 54.3625 134.741 49.0009C129.373 43.6393 122.092 40.6272 114.5 40.6272V45.1413C120.893 45.1413 127.024 47.6778 131.545 52.1929C136.066 56.7079 138.605 62.8316 138.605 69.2168V69.2168ZM150.658 69.2168H146.138C146.138 60.8362 142.805 52.7989 136.872 46.8729C130.938 40.9469 122.891 37.6177 114.5 37.6177V33.1036C124.09 33.1036 133.287 36.9084 140.068 43.6809C146.848 50.4534 150.658 59.639 150.658 69.2168V69.2168ZM153.671 69.2168H159.697C159.697 57.2445 154.936 45.7626 146.459 37.2969C137.983 28.8313 126.487 24.0753 114.5 24.0753V30.0942C124.889 30.0942 134.852 34.216 142.198 41.5529C149.544 48.8898 153.671 58.8408 153.671 69.2168V69.2168Z" fill="#FFCAB3"/>
<path fill-rule="evenodd" clip-rule="evenodd" d="M159.697 114.358H114.5V69.2169C126.487 69.2169 137.983 73.9729 146.459 82.4385C154.936 90.9042 159.697 102.386 159.697 114.358V114.358Z" fill="#F0F2F3"/>
<path fill-rule="evenodd" clip-rule="evenodd" d="M123.539 114.358H128.059C128.059 110.767 126.631 107.322 124.088 104.782C121.545 102.243 118.096 100.816 114.5 100.816V105.33C116.897 105.33 119.197 106.281 120.892 107.974C122.587 109.668 123.539 111.964 123.539 114.358V114.358ZM120.526 114.358C120.527 113.568 120.372 112.785 120.069 112.054C119.767 111.323 119.323 110.659 118.764 110.1C118.204 109.541 117.539 109.098 116.807 108.796C116.076 108.494 115.292 108.339 114.5 108.34V114.358H120.526ZM135.592 114.358H131.072C131.072 109.969 129.326 105.759 126.218 102.654C123.111 99.5504 118.895 97.8065 114.5 97.8065V93.2924C120.094 93.2924 125.459 95.5118 129.414 99.4625C133.37 103.413 135.592 108.771 135.592 114.358V114.358ZM138.605 114.358H143.125C143.125 106.776 140.109 99.5041 134.741 94.1425C129.373 88.7809 122.092 85.7688 114.5 85.7688V90.2829C120.893 90.2829 127.024 92.8194 131.545 97.3345C136.066 101.849 138.605 107.973 138.605 114.358V114.358ZM150.658 114.358H146.138C146.138 105.978 142.805 97.9405 136.872 92.0145C130.938 86.0885 122.891 82.7593 114.5 82.7593V78.2452C124.09 78.2452 133.287 82.05 140.068 88.8225C146.848 95.595 150.658 104.781 150.658 114.358V114.358ZM153.671 114.358H159.697C159.697 102.386 154.936 90.9042 146.459 82.4385C137.983 73.9729 126.487 69.2169 114.5 69.2169V75.2358C124.889 75.2358 134.852 79.3576 142.198 86.6945C149.544 94.0314 153.671 103.982 153.671 114.358V114.358Z" fill="#FCBD01"/>
<path d="M159.697 114.358C134.736 114.358 114.5 134.569 114.5 159.5L159.697 159.5L159.697 114.358Z" fill="#14AAF5"/>
<path d="M114.5 204.642C139.462 204.642 159.697 184.431 159.697 159.5L114.5 159.5L114.5 204.642Z" fill="#FFCAB3"/>
<path fill-rule="evenodd" clip-rule="evenodd" d="M114.5 249.783L114.5 204.642H159.697C159.697 216.614 154.936 228.096 146.459 236.562C137.983 245.027 126.487 249.783 114.5 249.783V249.783Z" fill="#796EFF"/>
<path fill-rule="evenodd" clip-rule="evenodd" d="M114.5 213.67V218.184C118.096 218.184 121.545 216.757 124.088 214.218C126.631 211.678 128.059 208.233 128.059 204.642H123.539C123.539 207.036 122.587 209.333 120.892 211.026C119.197 212.719 116.897 213.67 114.5 213.67V213.67ZM114.5 210.661C115.292 210.661 116.076 210.506 116.807 210.204C117.539 209.902 118.204 209.459 118.764 208.9C119.323 208.341 119.767 207.677 120.069 206.946C120.372 206.215 120.527 205.432 120.526 204.642H114.5V210.661ZM114.5 225.708V221.194C118.895 221.194 123.111 219.45 126.218 216.346C129.326 213.242 131.072 209.032 131.072 204.642H135.592C135.592 210.229 133.37 215.587 129.414 219.538C125.459 223.488 120.094 225.708 114.5 225.708V225.708ZM114.5 228.717V233.231C122.092 233.231 129.373 230.219 134.741 224.858C140.109 219.496 143.125 212.224 143.125 204.642H138.605C138.605 211.027 136.066 217.151 131.545 221.666C127.024 226.181 120.893 228.717 114.5 228.717V228.717ZM114.5 240.755V236.241C122.891 236.241 130.938 232.912 136.872 226.986C142.805 221.06 146.138 213.022 146.138 204.642H150.658C150.658 214.22 146.848 223.405 140.067 230.178C133.287 236.95 124.09 240.755 114.5 240.755V240.755ZM114.5 243.764V249.783C126.487 249.783 137.983 245.027 146.459 236.562C154.936 228.096 159.697 216.614 159.697 204.642H153.671C153.671 215.018 149.544 224.969 142.198 232.306C134.852 239.642 124.889 243.764 114.5 243.764V243.764Z" fill="#14AAF5"/>
<path d="M114.5 294.925C139.462 294.925 159.697 274.714 159.697 249.783L114.5 249.783L114.5 294.925Z" fill="#FFCAB3"/>
<path d="M204.895 24.0753C179.933 24.0753 159.697 44.2858 159.697 69.2168L204.895 69.2168L204.895 24.0753Z" fill="#FF5263"/>
<path d="M159.697 114.358C184.659 114.358 204.895 94.1478 204.895 69.2168L159.697 69.2168L159.697 114.358Z" fill="#FF5263"/>
<path d="M159.697 114.358C159.697 139.289 179.933 159.5 204.895 159.5L204.895 114.358L159.697 114.358Z" fill="#FF5263"/>
<path d="M204.895 159.5C179.933 159.5 159.697 179.711 159.697 204.642L204.895 204.642L204.895 159.5Z" fill="#FF5263"/>
<path d="M159.697 204.642C159.697 229.573 179.933 249.783 204.895 249.783L204.895 204.642L159.697 204.642Z" fill="white"/>
<path d="M159.697 294.925C184.659 294.925 204.895 274.714 204.895 249.783L159.697 249.783L159.697 294.925Z" fill="#FCBD01"/>
<g style="mix-blend-mode:multiply">
<g style="mix-blend-mode:multiply">
<path d="M195.856 249.755H198.869V159.472H195.856V249.755Z" fill="#14AAF5"/>
</g>
<g style="mix-blend-mode:multiply">
<path d="M188.323 159.472V249.755H191.336V159.472H188.323Z" fill="#14AAF5"/>
</g>
<g style="mix-blend-mode:multiply">
<path d="M180.79 159.472H183.803V249.755H180.79V159.472Z" fill="#14AAF5"/>
</g>
<g style="mix-blend-mode:multiply">
<path d="M173.257 159.472V249.755H176.27V159.472L173.257 159.472Z" fill="#14AAF5"/>
</g>
<g style="mix-blend-mode:multiply">
<path d="M165.724 159.472V249.755H168.737V159.472H165.724Z" fill="#14AAF5"/>
</g>
</g>
<g style="mix-blend-mode:multiply">
<g style="mix-blend-mode:multiply">
<path d="M-21.4401 59.8125V62.8219L68.9548 62.8219V59.8125L-21.4401 59.8125Z" fill="#FFCAB3"/>
</g>
<g style="mix-blend-mode:multiply">
<path d="M68.9548 52.2891L-21.4401 52.2891V55.2985L68.9548 55.2985V52.2891Z" fill="#FFCAB3"/>
</g>
<g style="mix-blend-mode:multiply">
<path d="M68.9548 44.7656V47.7751L-21.4401 47.7751V44.7656L68.9548 44.7656Z" fill="#FFCAB3"/>
</g>
<g style="mix-blend-mode:multiply">
<path d="M68.9548 37.2422L-21.4401 37.2422V40.2516L68.9548 40.2516L68.9548 37.2422Z" fill="#FFCAB3"/>
</g>
<g style="mix-blend-mode:multiply">
<path d="M68.9548 29.7188L-21.4401 29.7188V32.7282L68.9548 32.7282V29.7188Z" fill="#FFCAB3"/>
</g>
</g>
<g style="mix-blend-mode:multiply">
<g style="mix-blend-mode:multiply">
<path d="M165.724 23.6992V68.8407C165.724 90.4476 183.261 107.963 204.895 107.963V104.954C184.925 104.954 168.737 88.7856 168.737 68.8407V23.6992H165.724Z" fill="#796EFF"/>
</g>
<g style="mix-blend-mode:multiply">
<path d="M173.257 23.6992V68.8407C173.257 86.2924 187.421 100.44 204.895 100.44V97.4304C189.086 97.4304 176.27 84.6304 176.27 68.8407V23.6992H173.257Z" fill="#796EFF"/>
</g>
<g style="mix-blend-mode:multiply">
<path d="M180.789 68.8407V23.6992H183.803V68.8407C183.803 80.4752 193.246 89.9068 204.895 89.9068V92.9162C191.582 92.9162 180.789 82.1373 180.789 68.8407Z" fill="#796EFF"/>
</g>
<g style="mix-blend-mode:multiply">
<path d="M188.322 23.6992V68.8407C188.322 77.9821 195.742 85.3926 204.895 85.3926V82.3832C197.406 82.3832 191.336 76.3201 191.336 68.8407V23.6992H188.322Z" fill="#796EFF"/>
</g>
<g style="mix-blend-mode:multiply">
<path d="M195.855 68.8407V23.6992H198.868V68.8407C198.868 72.1649 201.566 74.8596 204.895 74.8596V77.869C199.902 77.869 195.855 73.8269 195.855 68.8407Z" fill="#796EFF"/>
</g>
</g>
<g style="mix-blend-mode:multiply">
<g style="mix-blend-mode:multiply">
<path d="M30.1316 159.124V204.266C30.1316 225.872 47.6691 243.388 69.3026 243.388V240.379C49.3332 240.379 33.1447 224.21 33.1447 204.266V159.124H30.1316Z" fill="#FCBD01"/>
</g>
<g style="mix-blend-mode:multiply">
<path d="M37.6644 159.124V204.266C37.6644 221.717 51.8293 235.865 69.3026 235.865V232.855C53.4935 232.855 40.6776 220.055 40.6776 204.266V159.124H37.6644Z" fill="#FCBD01"/>
</g>
<g style="mix-blend-mode:multiply">
<path d="M45.1973 204.266V159.124H48.2104V204.266C48.2104 215.9 57.6537 225.332 69.3025 225.332V228.341C55.9896 228.341 45.1973 217.562 45.1973 204.266Z" fill="#FCBD01"/>
</g>
<g style="mix-blend-mode:multiply">
<path d="M52.7302 159.124V204.266C52.7302 213.407 60.1499 220.817 69.3026 220.817V217.808C61.8141 217.808 55.7434 211.745 55.7434 204.266V159.124H52.7302Z" fill="#FCBD01"/>
</g>
<g style="mix-blend-mode:multiply">
<path d="M60.2632 204.266V159.124H63.2763V204.266C63.2763 207.59 65.9744 210.284 69.3027 210.284V213.294C64.3103 213.294 60.2632 209.252 60.2632 204.266Z" fill="#FCBD01"/>
</g>
</g>
</g>
</svg>
