<svg width="229" height="319" viewBox="0 0 229 319" fill="none" xmlns="http://www.w3.org/2000/svg">
<mask id="mask0" mask-type="alpha" maskUnits="userSpaceOnUse" x="24" y="24" width="181" height="271">
<path d="M204.895 24.0752H24.1052V294.924H204.895V24.0752Z" fill="white"/>
</mask>
<g mask="url(#mask0)">
<path fill-rule="evenodd" clip-rule="evenodd" d="M24.7607 48.0625L24.7584 48.0234C24.7234 47.2845 24.7241 46.5443 24.7607 45.8054C25.3309 34.2379 34.6197 24.9606 46.2015 24.3903C46.9544 24.353 47.7086 24.353 48.4614 24.3903C60.0432 24.9606 69.332 34.2379 69.9023 45.8047L69.9045 45.8445C69.9396 46.5835 69.9388 47.3236 69.9023 48.0625C69.332 59.6293 60.0432 68.9073 48.4614 69.4769L48.4222 69.4784C47.6824 69.5136 46.9413 69.5131 46.2015 69.4769C34.6197 68.9073 25.3309 59.6293 24.7607 48.0625ZM46.0802 67.21C45.0136 57.2006 37.0521 49.2482 27.0303 48.1829C27.6518 58.4074 35.8438 66.5893 46.0802 67.21ZM48.5827 67.21C58.8191 66.5893 67.0111 58.4074 67.6326 48.1829C57.6108 49.249 49.6493 57.2014 48.5827 67.2108V67.21ZM67.6326 45.6828C67.0111 35.4597 58.8191 27.2778 48.5827 26.6571C49.6493 36.6665 57.6116 44.619 67.6326 45.6828ZM46.0802 26.6579C35.8438 27.2786 27.6518 35.4605 27.0303 45.6835C37.0521 44.619 45.0136 36.6665 46.0802 26.6579ZM47.3315 31.6099C46.1742 35.1963 44.1793 38.4564 41.5117 41.1209C38.844 43.7854 35.58 45.7779 31.9892 46.934C35.5798 48.09 38.8436 50.0825 41.5111 52.7468C44.1786 55.4112 46.1734 58.671 47.3307 62.2572C48.4882 58.6709 50.4832 55.4109 53.151 52.7466C55.8188 50.0822 59.0828 48.0898 62.6737 46.934C59.0829 45.7779 55.8189 43.7854 53.1512 41.1209C50.4836 38.4564 48.4887 35.1963 47.3315 31.6099Z" fill="#56F3AE"/>
<path fill-rule="evenodd" clip-rule="evenodd" d="M69.8774 69.5056L69.8789 69.532L69.9052 69.5335V71.7936L69.8759 71.7921C69.396 81.2816 63.0473 89.2257 54.3822 92.0756C63.0473 94.9271 69.3953 102.87 69.8759 112.361L69.906 112.359V114.619L69.8789 114.62L69.8774 114.647H67.6145L67.616 114.617C58.1148 114.138 50.1608 107.798 47.3073 99.1433C44.4524 107.798 36.4984 114.138 26.9971 114.617L26.9986 114.647H24.7358L24.7343 114.62L24.7079 114.619V112.358L24.738 112.36C25.2171 102.87 31.5658 94.9271 40.2309 92.0764C31.5658 89.225 25.2179 81.2816 24.7373 71.7921L24.7079 71.7936V69.5335L24.7343 69.532L24.7358 69.5056H26.9986L26.9979 69.5335C36.4991 70.015 44.4524 76.3544 47.3066 85.0095C50.1615 76.3551 58.1148 70.015 67.616 69.535L67.6145 69.5049H69.8774V69.5056ZM67.613 71.7951C57.3057 72.3759 49.0504 80.6202 48.4696 90.9148C58.7761 90.3347 67.0314 82.0896 67.613 71.7951ZM48.4696 93.2373C49.0497 103.532 57.3057 111.777 67.613 112.357C67.0314 102.063 58.7769 93.8174 48.4696 93.2373ZM27.0009 71.7951C27.5809 82.0896 35.837 90.3347 46.1442 90.9148C45.5635 80.6202 37.3082 72.3751 27.0009 71.7951ZM27.0009 112.357C37.3074 111.777 45.5635 103.532 46.1442 93.2373C35.837 93.8174 27.5817 102.062 27.0009 112.357Z" fill="#FFDB69"/>
<path fill-rule="evenodd" clip-rule="evenodd" d="M24.7607 138.346L24.7584 138.307C24.7234 137.568 24.7241 136.827 24.7607 136.089C25.3309 124.521 34.6197 115.244 46.2015 114.673C46.9544 114.636 47.7086 114.636 48.4614 114.673C60.0432 115.244 69.332 124.521 69.9023 136.088L69.9045 136.128C69.9396 136.867 69.9388 137.607 69.9023 138.346C69.332 149.912 60.0432 159.191 48.4614 159.76L48.4222 159.762C47.6824 159.797 46.9413 159.796 46.2015 159.76C34.6197 159.191 25.3309 149.912 24.7607 138.346ZM46.0802 157.493C45.0136 147.484 37.0521 139.531 27.0303 138.466C27.6518 148.691 35.8438 156.873 46.0802 157.493ZM48.5827 157.493C58.8191 156.873 67.0111 148.691 67.6326 138.466C57.6108 139.532 49.6493 147.485 48.5827 157.494V157.493ZM67.6326 135.966C67.0111 125.743 58.8191 117.561 48.5827 116.94C49.6493 126.95 57.6116 134.902 67.6326 135.966ZM46.0802 116.941C35.8438 117.562 27.6518 125.744 27.0303 135.967C37.0521 134.902 45.0136 126.95 46.0802 116.941ZM47.3315 121.893C46.1742 125.48 44.1793 128.74 41.5117 131.404C38.844 134.069 35.58 136.061 31.9892 137.217C35.5798 138.373 38.8436 140.366 41.5111 143.03C44.1786 145.694 46.1734 148.954 47.3307 152.54C48.4882 148.954 50.4832 145.694 53.151 143.03C55.8188 140.365 59.0828 138.373 62.6737 137.217C59.0829 136.061 55.8189 134.069 53.1512 131.404C50.4836 128.74 48.4887 125.48 47.3315 121.893Z" fill="#55C2FF"/>
<path fill-rule="evenodd" clip-rule="evenodd" d="M69.8774 159.788L69.8789 159.814L69.9052 159.816V162.076L69.8759 162.074C69.396 171.564 63.0473 179.508 54.3822 182.358C63.0473 185.209 69.3953 193.153 69.8759 202.643L69.906 202.641V204.902L69.8789 204.902L69.8774 204.929H67.6145L67.616 204.899C58.1148 204.42 50.1608 198.08 47.3073 189.426C44.4524 198.08 36.4984 204.42 26.9971 204.899L26.9986 204.929H24.7358L24.7343 204.902L24.7079 204.901V202.641L24.738 202.642C25.2171 193.153 31.5658 185.209 40.2309 182.359C31.5658 179.507 25.2179 171.564 24.7373 162.074L24.7079 162.076V159.816L24.7343 159.814L24.7358 159.788H26.9986L26.9979 159.816C36.4991 160.297 44.4524 166.637 47.3066 175.292C50.1615 166.637 58.1148 160.297 67.616 159.817L67.6145 159.787H69.8774V159.788ZM67.613 162.077C57.3057 162.658 49.0504 170.902 48.4696 181.197C58.7761 180.617 67.0314 172.372 67.613 162.077ZM48.4696 183.519C49.0497 193.814 57.3057 202.059 67.613 202.639C67.0314 192.345 58.7769 184.1 48.4696 183.519ZM27.0009 162.077C27.5809 172.372 35.837 180.617 46.1442 181.197C45.5635 170.902 37.3082 162.657 27.0009 162.077ZM27.0009 202.639C37.3074 202.059 45.5635 193.814 46.1442 183.519C35.837 184.1 27.5817 192.345 27.0009 202.639Z" fill="#FFDB69"/>
<path fill-rule="evenodd" clip-rule="evenodd" d="M24.7607 228.629L24.7584 228.59C24.7234 227.851 24.7241 227.111 24.7607 226.372C25.3309 214.804 34.6197 205.527 46.2015 204.957C46.9544 204.919 47.7086 204.919 48.4614 204.957C60.0432 205.527 69.332 214.804 69.9023 226.371L69.9045 226.411C69.9396 227.15 69.9388 227.89 69.9023 228.629C69.332 240.196 60.0432 249.474 48.4614 250.043L48.4222 250.045C47.6824 250.08 46.9413 250.08 46.2015 250.043C34.6197 249.474 25.3309 240.196 24.7607 228.629ZM46.0802 247.776C45.0136 237.767 37.0521 229.815 27.0303 228.749C27.6518 238.974 35.8438 247.156 46.0802 247.776ZM48.5827 247.776C58.8191 247.156 67.0111 238.974 67.6326 228.749C57.6108 229.815 49.6493 237.768 48.5827 247.777V247.776ZM67.6326 226.249C67.0111 216.026 58.8191 207.844 48.5827 207.224C49.6493 217.233 57.6116 225.185 67.6326 226.249ZM46.0802 207.224C35.8438 207.845 27.6518 216.027 27.0303 226.25C37.0521 225.185 45.0136 217.233 46.0802 207.224ZM47.3315 212.176C46.1742 215.763 44.1793 219.023 41.5117 221.687C38.844 224.352 35.58 226.344 31.9892 227.5C35.5798 228.656 38.8436 230.649 41.5111 233.313C44.1786 235.978 46.1734 239.237 47.3307 242.824C48.4882 239.237 50.4832 235.977 53.151 233.313C55.8188 230.649 59.0828 228.656 62.6737 227.5C59.0829 226.344 55.8189 224.352 53.1512 221.687C50.4836 219.023 48.4887 215.763 47.3315 212.176Z" fill="#56F3AE"/>
<path fill-rule="evenodd" clip-rule="evenodd" d="M69.8774 250.071L69.8789 250.097L69.9052 250.099V252.359L69.8759 252.357C69.396 261.847 63.0473 269.791 54.3822 272.641C63.0473 275.493 69.3953 283.436 69.8759 292.926L69.906 292.925V295.185L69.8789 295.186L69.8774 295.213H67.6145L67.616 295.183C58.1148 294.703 50.1608 288.363 47.3073 279.709C44.4524 288.363 36.4984 294.703 26.9971 295.183L26.9986 295.213H24.7358L24.7343 295.186L24.7079 295.184V292.924L24.738 292.925C25.2171 283.436 31.5658 275.493 40.2309 272.642C31.5658 269.79 25.2179 261.847 24.7373 252.357L24.7079 252.359V250.099L24.7343 250.097L24.7358 250.071H26.9986L26.9979 250.099C36.4991 250.58 44.4524 256.92 47.3066 265.575C50.1615 256.921 58.1148 250.58 67.616 250.1L67.6145 250.07H69.8774V250.071ZM67.613 252.36C57.3057 252.941 49.0504 261.186 48.4696 271.48C58.7761 270.9 67.0314 262.655 67.613 252.36ZM48.4696 273.803C49.0497 284.097 57.3057 292.342 67.613 292.922C67.0314 282.629 58.7769 274.383 48.4696 273.803ZM27.0009 252.36C27.5809 262.655 35.837 270.9 46.1442 271.48C45.5635 261.186 37.3082 252.941 27.0009 252.36ZM27.0009 292.922C37.3074 292.342 45.5635 284.097 46.1442 273.803C35.837 274.383 27.5817 282.628 27.0009 292.922Z" fill="#383838"/>
<path fill-rule="evenodd" clip-rule="evenodd" d="M115.075 24.364L115.076 24.3904L115.103 24.3919V26.652L115.073 26.6505C114.593 36.1399 108.245 44.0841 99.5796 46.934C108.245 49.7855 114.593 57.7289 115.073 67.2191L115.103 67.2176V69.4777L115.076 69.4785L115.075 69.5055H112.812L112.813 69.4755C103.312 68.9962 95.3582 62.6561 92.5047 54.0017C89.6497 62.6561 81.6958 68.9962 72.1945 69.4755L72.196 69.5055H69.9331L69.9316 69.4785L69.9053 69.477V67.2169L69.9354 67.2184C70.4145 57.7289 76.7632 49.7855 85.4283 46.9348C76.7632 44.0834 70.4153 36.1399 69.9347 26.6505L69.9053 26.652V24.3919L69.9316 24.3904L69.9331 24.364H72.196L72.1953 24.3919C81.6965 24.8734 89.6497 31.2128 92.504 39.8679C95.3589 31.2135 103.312 24.8734 112.813 24.3934L112.812 24.3633H115.075V24.364ZM112.81 26.6535C102.503 27.2343 94.2478 35.4786 93.667 45.7731C103.974 45.1931 112.229 36.948 112.81 26.6535ZM93.667 48.0957C94.2471 58.3902 102.503 66.6353 112.81 67.2154C112.229 56.9216 103.974 48.6757 93.667 48.0957ZM72.1983 26.6535C72.7783 36.948 81.0344 45.1931 91.3416 45.7731C90.7608 35.4786 82.5055 27.2335 72.1983 26.6535ZM72.1983 67.2154C82.5048 66.6353 90.7608 58.3902 91.3416 48.0957C81.0344 48.6757 72.7791 56.9208 72.1983 67.2154Z" fill="#55C2FF"/>
<path fill-rule="evenodd" clip-rule="evenodd" d="M69.958 93.2041L69.9558 93.165C69.9207 92.426 69.9215 91.6859 69.958 90.947C70.5283 79.3795 79.8171 70.1022 91.3989 69.5319C92.1517 69.4946 92.906 69.4946 93.6588 69.5319C105.241 70.1022 114.529 79.3795 115.1 90.9463L115.102 90.9861C115.137 91.7251 115.136 92.4652 115.1 93.2041C114.529 104.771 105.241 114.049 93.6588 114.618L93.6196 114.62C92.8798 114.655 92.1387 114.655 91.3989 114.618C79.8171 114.049 70.5283 104.771 69.958 93.2041ZM91.2776 112.352C90.211 102.342 82.2495 94.3898 72.2277 93.3245C72.8492 103.549 81.0412 111.731 91.2776 112.352ZM93.7801 112.352C104.017 111.731 112.209 103.549 112.83 93.3245C102.808 94.3906 94.8467 102.343 93.7801 112.352V112.352ZM112.83 90.8244C112.209 80.6013 104.017 72.4194 93.7801 71.7987C94.8467 81.8081 102.809 89.7605 112.83 90.8244ZM91.2776 71.7995C81.0412 72.4202 72.8492 80.6021 72.2277 90.8251C82.2495 89.7605 90.211 81.8081 91.2776 71.7995ZM92.5288 76.7515C91.3716 80.3379 89.3767 83.598 86.7091 86.2625C84.0414 88.927 80.7774 90.9195 77.1866 92.0756C80.7772 93.2316 84.041 95.2241 86.7085 97.8884C89.376 100.553 91.3708 103.813 92.5281 107.399C93.6856 103.812 95.6805 100.553 98.3483 97.8881C101.016 95.2238 104.28 93.2314 107.871 92.0756C104.28 90.9195 101.016 88.927 98.3486 86.2625C95.681 83.598 93.6861 80.3379 92.5288 76.7515Z" fill="#55C2FF"/>
<path fill-rule="evenodd" clip-rule="evenodd" d="M115.075 114.646L115.076 114.673L115.103 114.674V116.934L115.073 116.933C114.593 126.422 108.245 134.366 99.5796 137.216C108.245 140.068 114.593 148.011 115.073 157.501L115.103 157.5V159.76L115.076 159.761L115.075 159.788H112.812L112.813 159.758C103.312 159.278 95.3582 152.938 92.5047 144.284C89.6497 152.938 81.6958 159.278 72.1945 159.758L72.196 159.788H69.9331L69.9316 159.761L69.9053 159.759V157.499L69.9354 157.501C70.4145 148.011 76.7632 140.068 85.4283 137.217C76.7632 134.366 70.4153 126.422 69.9347 116.933L69.9053 116.934V114.674L69.9316 114.673L69.9331 114.646H72.196L72.1953 114.674C81.6965 115.156 89.6497 121.495 92.504 130.15C95.3589 121.496 103.312 115.156 112.813 114.676L112.812 114.646H115.075V114.646ZM112.81 116.936C102.503 117.517 94.2478 125.761 93.667 136.055C103.974 135.475 112.229 127.23 112.81 116.936ZM93.667 138.378C94.2471 148.672 102.503 156.918 112.81 157.498C112.229 147.204 103.974 138.958 93.667 138.378ZM72.1983 116.936C72.7783 127.23 81.0344 135.475 91.3416 136.055C90.7608 125.761 82.5055 117.516 72.1983 116.936ZM72.1983 157.498C82.5048 156.918 90.7608 148.672 91.3416 138.378C81.0344 138.958 72.7791 147.203 72.1983 157.498Z" fill="#FFDB69"/>
<path fill-rule="evenodd" clip-rule="evenodd" d="M69.958 183.487L69.9558 183.448C69.9207 182.709 69.9215 181.969 69.958 181.23C70.5283 169.663 79.8171 160.385 91.3989 159.815C92.1517 159.778 92.906 159.778 93.6588 159.815C105.241 160.385 114.529 169.663 115.1 181.229L115.102 181.269C115.137 182.008 115.136 182.748 115.1 183.487C114.529 195.054 105.241 204.332 93.6588 204.902L93.6196 204.903C92.8798 204.938 92.1387 204.938 91.3989 204.902C79.8171 204.332 70.5283 195.054 69.958 183.487ZM91.2776 202.635C90.211 192.625 82.2495 184.673 72.2277 183.608C72.8492 193.832 81.0412 202.014 91.2776 202.635ZM93.7801 202.635C104.017 202.014 112.209 193.832 112.83 183.608C102.808 184.674 94.8467 192.626 93.7801 202.636V202.635ZM112.83 181.108C112.209 170.885 104.017 162.703 93.7801 162.082C94.8467 172.091 102.809 180.044 112.83 181.108ZM91.2776 162.083C81.0412 162.703 72.8492 170.885 72.2277 181.108C82.2495 180.044 90.211 172.091 91.2776 162.083ZM92.5288 167.035C91.3716 170.621 89.3767 173.881 86.7091 176.546C84.0414 179.21 80.7774 181.203 77.1866 182.359C80.7772 183.515 84.041 185.507 86.7085 188.172C89.376 190.836 91.3708 194.096 92.5281 197.682C93.6856 194.096 95.6805 190.836 98.3483 188.171C101.016 185.507 104.28 183.515 107.871 182.359C104.28 181.203 101.016 179.21 98.3486 176.546C95.681 173.881 93.6861 170.621 92.5288 167.035Z" fill="#FFDB69"/>
<path fill-rule="evenodd" clip-rule="evenodd" d="M115.075 204.929L115.076 204.956L115.103 204.957V207.217L115.073 207.216C114.593 216.705 108.245 224.65 99.5796 227.499C108.245 230.351 114.593 238.294 115.073 247.785L115.103 247.783V250.043L115.076 250.044L115.075 250.071H112.812L112.813 250.041C103.312 249.562 95.3582 243.222 92.5047 234.567C89.6497 243.222 81.6958 249.562 72.1945 250.041L72.196 250.071H69.9331L69.9316 250.044L69.9053 250.042V247.782L69.9354 247.784C70.4145 238.294 76.7632 230.351 85.4283 227.5C76.7632 224.649 70.4153 216.705 69.9347 207.216L69.9053 207.217V204.957L69.9316 204.956L69.9331 204.929H72.196L72.1953 204.957C81.6965 205.439 89.6497 211.778 92.504 220.433C95.3589 211.779 103.312 205.439 112.813 204.959L112.812 204.929H115.075V204.929ZM112.81 207.219C102.503 207.8 94.2478 216.044 93.667 226.339C103.974 225.759 112.229 217.513 112.81 207.219ZM93.667 228.661C94.2471 238.956 102.503 247.201 112.81 247.781C112.229 237.487 103.974 229.241 93.667 228.661ZM72.1983 207.219C72.7783 217.513 81.0344 225.759 91.3416 226.339C90.7608 216.044 82.5055 207.799 72.1983 207.219ZM72.1983 247.781C82.5048 247.201 90.7608 238.956 91.3416 228.661C81.0344 229.241 72.7791 237.486 72.1983 247.781Z" fill="#383838"/>
<path fill-rule="evenodd" clip-rule="evenodd" d="M69.958 273.771L69.9558 273.731C69.9207 272.992 69.9215 272.252 69.958 271.513C70.5283 259.946 79.8171 250.669 91.3989 250.098C92.1517 250.061 92.906 250.061 93.6588 250.098C105.241 250.669 114.529 259.946 115.1 271.513L115.102 271.553C115.137 272.291 115.136 273.032 115.1 273.771C114.529 285.337 105.241 294.615 93.6588 295.185L93.6196 295.186C92.8798 295.222 92.1387 295.221 91.3989 295.185C79.8171 294.615 70.5283 285.337 69.958 273.771ZM91.2776 292.918C90.211 282.909 82.2495 274.956 72.2277 273.891C72.8492 284.115 81.0412 292.297 91.2776 292.918ZM93.7801 292.918C104.017 292.297 112.209 284.115 112.83 273.891C102.808 274.957 94.8467 282.909 93.7801 292.919V292.918ZM112.83 271.391C112.209 261.168 104.017 252.986 93.7801 252.365C94.8467 262.375 102.809 270.327 112.83 271.391ZM91.2776 252.366C81.0412 252.987 72.8492 261.169 72.2277 271.392C82.2495 270.327 90.211 262.375 91.2776 252.366ZM92.5288 257.318C91.3716 260.904 89.3767 264.164 86.7091 266.829C84.0414 269.493 80.7774 271.486 77.1866 272.642C80.7772 273.798 84.041 275.79 86.7085 278.455C89.376 281.119 91.3708 284.379 92.5281 287.965C93.6856 284.379 95.6805 281.119 98.3483 278.455C101.016 275.79 104.28 273.798 107.871 272.642C104.28 271.486 101.016 269.493 98.3486 266.829C95.681 264.164 93.6861 260.904 92.5288 257.318Z" fill="#FFDB69"/>
<path fill-rule="evenodd" clip-rule="evenodd" d="M115.155 48.0625L115.153 48.0234C115.118 47.2845 115.119 46.5443 115.155 45.8054C115.726 34.2379 125.014 24.9606 136.596 24.3903C137.349 24.353 138.103 24.353 138.856 24.3903C150.438 24.9606 159.727 34.2379 160.297 45.8047L160.299 45.8445C160.334 46.5835 160.334 47.3236 160.297 48.0625C159.727 59.6293 150.438 68.9073 138.856 69.4769L138.817 69.4784C138.077 69.5136 137.336 69.5131 136.596 69.4769C125.014 68.9073 115.726 59.6293 115.155 48.0625ZM136.475 67.21C135.408 57.2006 127.447 49.2482 117.425 48.1829C118.047 58.4074 126.239 66.5893 136.475 67.21ZM138.977 67.21C149.214 66.5893 157.406 58.4074 158.027 48.1829C148.006 49.249 140.044 57.2014 138.977 67.2108V67.21ZM158.027 45.6828C157.406 35.4597 149.214 27.2778 138.977 26.6571C140.044 36.6665 148.006 44.619 158.027 45.6828ZM136.475 26.6579C126.239 27.2786 118.047 35.4605 117.425 45.6835C127.447 44.619 135.408 36.6665 136.475 26.6579ZM137.726 31.6099C136.569 35.1963 134.574 38.4564 131.906 41.1209C129.239 43.7854 125.975 45.7779 122.384 46.934C125.975 48.09 129.238 50.0825 131.906 52.7468C134.573 55.4112 136.568 58.671 137.725 62.2572C138.883 58.6709 140.878 55.4109 143.546 52.7466C146.214 50.0822 149.478 48.0898 153.068 46.934C149.478 45.7779 146.214 43.7854 143.546 41.1209C140.878 38.4564 138.884 35.1963 137.726 31.6099Z" fill="#383838"/>
<path fill-rule="evenodd" clip-rule="evenodd" d="M160.272 69.5056L160.274 69.532L160.3 69.5335V71.7936L160.271 71.7921C159.791 81.2816 153.442 89.2257 144.777 92.0756C153.442 94.9271 159.79 102.87 160.271 112.361L160.301 112.359V114.619L160.274 114.62L160.272 114.647H158.009L158.011 114.617C148.51 114.138 140.556 107.798 137.702 99.1433C134.847 107.798 126.893 114.138 117.392 114.617L117.393 114.647H115.131L115.129 114.62L115.103 114.619V112.358L115.133 112.36C115.612 102.87 121.961 94.9271 130.626 92.0764C121.961 89.225 115.613 81.2816 115.132 71.7921L115.103 71.7936V69.5335L115.129 69.532L115.131 69.5056H117.393L117.393 69.5335C126.894 70.015 134.847 76.3544 137.701 85.0095C140.556 76.3551 148.51 70.015 158.011 69.535L158.009 69.5049H160.272V69.5056ZM158.008 71.7951C147.701 72.3759 139.445 80.6202 138.864 90.9148C149.171 90.3347 157.426 82.0896 158.008 71.7951ZM138.864 93.2373C139.444 103.532 147.701 111.777 158.008 112.357C157.426 102.063 149.172 93.8174 138.864 93.2373ZM117.396 71.7951C117.976 82.0896 126.232 90.3347 136.539 90.9148C135.958 80.6202 127.703 72.3751 117.396 71.7951ZM117.396 112.357C127.702 111.777 135.958 103.532 136.539 93.2373C126.232 93.8174 117.976 102.062 117.396 112.357Z" fill="#55C2FF"/>
<path fill-rule="evenodd" clip-rule="evenodd" d="M115.155 138.346L115.153 138.307C115.118 137.568 115.119 136.827 115.155 136.089C115.726 124.521 125.014 115.244 136.596 114.673C137.349 114.636 138.103 114.636 138.856 114.673C150.438 115.244 159.727 124.521 160.297 136.088L160.299 136.128C160.334 136.867 160.334 137.607 160.297 138.346C159.727 149.912 150.438 159.191 138.856 159.76L138.817 159.762C138.077 159.797 137.336 159.796 136.596 159.76C125.014 159.191 115.726 149.912 115.155 138.346ZM136.475 157.493C135.408 147.484 127.447 139.531 117.425 138.466C118.047 148.691 126.239 156.873 136.475 157.493ZM138.977 157.493C149.214 156.873 157.406 148.691 158.027 138.466C148.006 139.532 140.044 147.485 138.977 157.494V157.493ZM158.027 135.966C157.406 125.743 149.214 117.561 138.977 116.94C140.044 126.95 148.006 134.902 158.027 135.966ZM136.475 116.941C126.239 117.562 118.047 125.744 117.425 135.967C127.447 134.902 135.408 126.95 136.475 116.941ZM137.726 121.893C136.569 125.48 134.574 128.74 131.906 131.404C129.239 134.069 125.975 136.061 122.384 137.217C125.975 138.373 129.238 140.366 131.906 143.03C134.573 145.694 136.568 148.954 137.725 152.54C138.883 148.954 140.878 145.694 143.546 143.03C146.214 140.365 149.478 138.373 153.068 137.217C149.478 136.061 146.214 134.069 143.546 131.404C140.878 128.74 138.884 125.48 137.726 121.893Z" fill="#FFDB69"/>
<path fill-rule="evenodd" clip-rule="evenodd" d="M160.272 159.788L160.274 159.814L160.3 159.816V162.076L160.271 162.074C159.791 171.564 153.442 179.508 144.777 182.358C153.442 185.209 159.79 193.153 160.271 202.643L160.301 202.641V204.902L160.274 204.902L160.272 204.929H158.009L158.011 204.899C148.51 204.42 140.556 198.08 137.702 189.426C134.847 198.08 126.893 204.42 117.392 204.899L117.393 204.929H115.131L115.129 204.902L115.103 204.901V202.641L115.133 202.642C115.612 193.153 121.961 185.209 130.626 182.359C121.961 179.507 115.613 171.564 115.132 162.074L115.103 162.076V159.816L115.129 159.814L115.131 159.788H117.393L117.393 159.816C126.894 160.297 134.847 166.637 137.701 175.292C140.556 166.637 148.51 160.297 158.011 159.817L158.009 159.787H160.272V159.788ZM158.008 162.077C147.701 162.658 139.445 170.902 138.864 181.197C149.171 180.617 157.426 172.372 158.008 162.077ZM138.864 183.519C139.444 193.814 147.701 202.059 158.008 202.639C157.426 192.345 149.172 184.1 138.864 183.519ZM117.396 162.077C117.976 172.372 126.232 180.617 136.539 181.197C135.958 170.902 127.703 162.657 117.396 162.077ZM117.396 202.639C127.702 202.059 135.958 193.814 136.539 183.519C126.232 184.1 117.976 192.345 117.396 202.639Z" fill="#56F3AE"/>
<path fill-rule="evenodd" clip-rule="evenodd" d="M115.155 228.629L115.153 228.59C115.118 227.851 115.119 227.111 115.155 226.372C115.726 214.804 125.014 205.527 136.596 204.957C137.349 204.919 138.103 204.919 138.856 204.957C150.438 205.527 159.727 214.804 160.297 226.371L160.299 226.411C160.334 227.15 160.334 227.89 160.297 228.629C159.727 240.196 150.438 249.474 138.856 250.043L138.817 250.045C138.077 250.08 137.336 250.08 136.596 250.043C125.014 249.474 115.726 240.196 115.155 228.629ZM136.475 247.776C135.408 237.767 127.447 229.815 117.425 228.749C118.047 238.974 126.239 247.156 136.475 247.776ZM138.977 247.776C149.214 247.156 157.406 238.974 158.027 228.749C148.006 229.815 140.044 237.768 138.977 247.777V247.776ZM158.027 226.249C157.406 216.026 149.214 207.844 138.977 207.224C140.044 217.233 148.006 225.185 158.027 226.249ZM136.475 207.224C126.239 207.845 118.047 216.027 117.425 226.25C127.447 225.185 135.408 217.233 136.475 207.224ZM137.726 212.176C136.569 215.763 134.574 219.023 131.906 221.687C129.239 224.352 125.975 226.344 122.384 227.5C125.975 228.656 129.238 230.649 131.906 233.313C134.573 235.978 136.568 239.237 137.725 242.824C138.883 239.237 140.878 235.977 143.546 233.313C146.214 230.649 149.478 228.656 153.068 227.5C149.478 226.344 146.214 224.352 143.546 221.687C140.878 219.023 138.884 215.763 137.726 212.176Z" fill="#FFDB69"/>
<path fill-rule="evenodd" clip-rule="evenodd" d="M160.272 250.071L160.274 250.097L160.3 250.099V252.359L160.271 252.357C159.791 261.847 153.442 269.791 144.777 272.641C153.442 275.493 159.79 283.436 160.271 292.926L160.301 292.925V295.185L160.274 295.186L160.272 295.213H158.009L158.011 295.183C148.51 294.703 140.556 288.363 137.702 279.709C134.847 288.363 126.893 294.703 117.392 295.183L117.393 295.213H115.131L115.129 295.186L115.103 295.184V292.924L115.133 292.925C115.612 283.436 121.961 275.493 130.626 272.642C121.961 269.79 115.613 261.847 115.132 252.357L115.103 252.359V250.099L115.129 250.097L115.131 250.071H117.393L117.393 250.099C126.894 250.58 134.847 256.92 137.701 265.575C140.556 256.921 148.51 250.58 158.011 250.1L158.009 250.07H160.272V250.071ZM158.008 252.36C147.701 252.941 139.445 261.186 138.864 271.48C149.171 270.9 157.426 262.655 158.008 252.36ZM138.864 273.803C139.444 284.097 147.701 292.342 158.008 292.922C157.426 282.629 149.172 274.383 138.864 273.803ZM117.396 252.36C117.976 262.655 126.232 270.9 136.539 271.48C135.958 261.186 127.703 252.941 117.396 252.36ZM117.396 292.922C127.702 292.342 135.958 284.097 136.539 273.803C126.232 274.383 117.976 282.628 117.396 292.922Z" fill="#55C2FF"/>
<path fill-rule="evenodd" clip-rule="evenodd" d="M205.47 24.364L205.471 24.3904L205.497 24.3919V26.652L205.468 26.6505C204.988 36.1399 198.639 44.0841 189.974 46.934C198.639 49.7855 204.987 57.7289 205.468 67.2191L205.498 67.2176V69.4777L205.471 69.4785L205.47 69.5055H203.207L203.208 69.4755C193.707 68.9962 185.753 62.6561 182.899 54.0017C180.045 62.6561 172.091 68.9962 162.589 69.4755L162.591 69.5055H160.328L160.326 69.4785L160.3 69.477V67.2169L160.33 67.2184C160.809 57.7289 167.158 49.7855 175.823 46.9348C167.158 44.0834 160.81 36.1399 160.329 26.6505L160.3 26.652V24.3919L160.326 24.3904L160.328 24.364H162.591L162.59 24.3919C172.091 24.8734 180.045 31.2128 182.899 39.8679C185.754 31.2135 193.707 24.8734 203.208 24.3934L203.207 24.3633H205.47V24.364ZM203.205 26.6535C192.898 27.2343 184.643 35.4786 184.062 45.7731C194.368 45.1931 202.624 36.948 203.205 26.6535ZM184.062 48.0957C184.642 58.3902 192.898 66.6353 203.205 67.2154C202.624 56.9216 194.369 48.6757 184.062 48.0957ZM162.593 26.6535C163.173 36.948 171.429 45.1931 181.736 45.7731C181.156 35.4786 172.9 27.2335 162.593 26.6535ZM162.593 67.2154C172.9 66.6353 181.156 58.3902 181.736 48.0957C171.429 48.6757 163.174 56.9208 162.593 67.2154Z" fill="#383838"/>
<path fill-rule="evenodd" clip-rule="evenodd" d="M160.353 93.2041L160.35 93.165C160.315 92.426 160.316 91.6859 160.353 90.947C160.923 79.3795 170.212 70.1022 181.794 69.5319C182.546 69.4946 183.301 69.4946 184.053 69.5319C195.635 70.1022 204.924 79.3795 205.494 90.9463L205.497 90.9861C205.532 91.7251 205.531 92.4652 205.494 93.2041C204.924 104.771 195.635 114.049 184.053 114.618L184.014 114.62C183.274 114.655 182.533 114.655 181.794 114.618C170.212 114.049 160.923 104.771 160.353 93.2041ZM181.672 112.352C180.606 102.342 172.644 94.3898 162.622 93.3245C163.244 103.549 171.436 111.731 181.672 112.352ZM184.175 112.352C194.411 111.731 202.603 103.549 203.225 93.3245C193.203 94.3906 185.241 102.343 184.175 112.352V112.352ZM203.225 90.8244C202.603 80.6013 194.411 72.4194 184.175 71.7987C185.241 81.8081 193.204 89.7605 203.225 90.8244ZM181.672 71.7995C171.436 72.4202 163.244 80.6021 162.622 90.8251C172.644 89.7605 180.606 81.8081 181.672 71.7995ZM182.924 76.7515C181.766 80.3379 179.771 83.598 177.104 86.2625C174.436 88.927 171.172 90.9195 167.581 92.0756C171.172 93.2316 174.436 95.2241 177.103 97.8884C179.771 100.553 181.765 103.813 182.923 107.399C184.08 103.812 186.075 100.553 188.743 97.8881C191.411 95.2238 194.675 93.2314 198.266 92.0756C194.675 90.9195 191.411 88.927 188.743 86.2625C186.076 83.598 184.081 80.3379 182.924 76.7515Z" fill="#56F3AE"/>
<path fill-rule="evenodd" clip-rule="evenodd" d="M205.47 114.646L205.471 114.673L205.497 114.674V116.934L205.468 116.933C204.988 126.422 198.639 134.366 189.974 137.216C198.639 140.068 204.987 148.011 205.468 157.501L205.498 157.5V159.76L205.471 159.761L205.47 159.788H203.207L203.208 159.758C193.707 159.278 185.753 152.938 182.899 144.284C180.045 152.938 172.091 159.278 162.589 159.758L162.591 159.788H160.328L160.326 159.761L160.3 159.759V157.499L160.33 157.501C160.809 148.011 167.158 140.068 175.823 137.217C167.158 134.366 160.81 126.422 160.329 116.933L160.3 116.934V114.674L160.326 114.673L160.328 114.646H162.591L162.59 114.674C172.091 115.156 180.045 121.495 182.899 130.15C185.754 121.496 193.707 115.156 203.208 114.676L203.207 114.646H205.47V114.646ZM203.205 116.936C192.898 117.517 184.643 125.761 184.062 136.055C194.368 135.475 202.624 127.23 203.205 116.936ZM184.062 138.378C184.642 148.672 192.898 156.918 203.205 157.498C202.624 147.204 194.369 138.958 184.062 138.378ZM162.593 116.936C163.173 127.23 171.429 135.475 181.736 136.055C181.156 125.761 172.9 117.516 162.593 116.936ZM162.593 157.498C172.9 156.918 181.156 148.672 181.736 138.378C171.429 138.958 163.174 147.203 162.593 157.498Z" fill="#55C2FF"/>
<path fill-rule="evenodd" clip-rule="evenodd" d="M160.353 183.487L160.35 183.448C160.315 182.709 160.316 181.969 160.353 181.23C160.923 169.663 170.212 160.385 181.794 159.815C182.546 159.778 183.301 159.778 184.053 159.815C195.635 160.385 204.924 169.663 205.494 181.229L205.497 181.269C205.532 182.008 205.531 182.748 205.494 183.487C204.924 195.054 195.635 204.332 184.053 204.902L184.014 204.903C183.274 204.938 182.533 204.938 181.794 204.902C170.212 204.332 160.923 195.054 160.353 183.487ZM181.672 202.635C180.606 192.625 172.644 184.673 162.622 183.608C163.244 193.832 171.436 202.014 181.672 202.635ZM184.175 202.635C194.411 202.014 202.603 193.832 203.225 183.608C193.203 184.674 185.241 192.626 184.175 202.636V202.635ZM203.225 181.108C202.603 170.885 194.411 162.703 184.175 162.082C185.241 172.091 193.204 180.044 203.225 181.108ZM181.672 162.083C171.436 162.703 163.244 170.885 162.622 181.108C172.644 180.044 180.606 172.091 181.672 162.083ZM182.924 167.035C181.766 170.621 179.771 173.881 177.104 176.546C174.436 179.21 171.172 181.203 167.581 182.359C171.172 183.515 174.436 185.507 177.103 188.172C179.771 190.836 181.765 194.096 182.923 197.682C184.08 194.096 186.075 190.836 188.743 188.171C191.411 185.507 194.675 183.515 198.266 182.359C194.675 181.203 191.411 179.21 188.743 176.546C186.076 173.881 184.081 170.621 182.924 167.035Z" fill="#383838"/>
<path fill-rule="evenodd" clip-rule="evenodd" d="M205.47 204.929L205.471 204.956L205.497 204.957V207.217L205.468 207.216C204.988 216.705 198.639 224.65 189.974 227.499C198.639 230.351 204.987 238.294 205.468 247.785L205.498 247.783V250.043L205.471 250.044L205.47 250.071H203.207L203.208 250.041C193.707 249.562 185.753 243.222 182.899 234.567C180.045 243.222 172.091 249.562 162.589 250.041L162.591 250.071H160.328L160.326 250.044L160.3 250.042V247.782L160.33 247.784C160.809 238.294 167.158 230.351 175.823 227.5C167.158 224.649 160.81 216.705 160.329 207.216L160.3 207.217V204.957L160.326 204.956L160.328 204.929H162.591L162.59 204.957C172.091 205.439 180.045 211.778 182.899 220.433C185.754 211.779 193.707 205.439 203.208 204.959L203.207 204.929H205.47V204.929ZM203.205 207.219C192.898 207.8 184.643 216.044 184.062 226.339C194.368 225.759 202.624 217.513 203.205 207.219ZM184.062 228.661C184.642 238.956 192.898 247.201 203.205 247.781C202.624 237.487 194.369 229.241 184.062 228.661ZM162.593 207.219C163.173 217.513 171.429 225.759 181.736 226.339C181.156 216.044 172.9 207.799 162.593 207.219ZM162.593 247.781C172.9 247.201 181.156 238.956 181.736 228.661C171.429 229.241 163.174 237.486 162.593 247.781Z" fill="#FFDB69"/>
<path fill-rule="evenodd" clip-rule="evenodd" d="M160.353 273.771L160.35 273.731C160.315 272.992 160.316 272.252 160.353 271.513C160.923 259.946 170.212 250.669 181.794 250.098C182.546 250.061 183.301 250.061 184.053 250.098C195.635 250.669 204.924 259.946 205.494 271.513L205.497 271.553C205.532 272.291 205.531 273.032 205.494 273.771C204.924 285.337 195.635 294.615 184.053 295.185L184.014 295.186C183.274 295.222 182.533 295.221 181.794 295.185C170.212 294.615 160.923 285.337 160.353 273.771ZM181.672 292.918C180.606 282.909 172.644 274.956 162.622 273.891C163.244 284.115 171.436 292.297 181.672 292.918ZM184.175 292.918C194.411 292.297 202.603 284.115 203.225 273.891C193.203 274.957 185.241 282.909 184.175 292.919V292.918ZM203.225 271.391C202.603 261.168 194.411 252.986 184.175 252.365C185.241 262.375 193.204 270.327 203.225 271.391ZM181.672 252.366C171.436 252.987 163.244 261.169 162.622 271.392C172.644 270.327 180.606 262.375 181.672 252.366ZM182.924 257.318C181.766 260.904 179.771 264.164 177.104 266.829C174.436 269.493 171.172 271.486 167.581 272.642C171.172 273.798 174.436 275.79 177.103 278.455C179.771 281.119 181.765 284.379 182.923 287.965C184.08 284.379 186.075 281.119 188.743 278.455C191.411 275.79 194.675 273.798 198.266 272.642C194.675 271.486 191.411 269.493 188.743 266.829C186.076 264.164 184.081 260.904 182.924 257.318Z" fill="#56F3AE"/>
</g>
</svg>
