<svg width="229" height="319" viewBox="0 0 229 319" fill="none" xmlns="http://www.w3.org/2000/svg">
<mask id="mask0" mask-type="alpha" maskUnits="userSpaceOnUse" x="24" y="24" width="181" height="271">
<path d="M204.895 24.0752H24.1052V294.924H204.895V24.0752Z" fill="white"/>
</mask>
<g mask="url(#mask0)">
<path fill-rule="evenodd" clip-rule="evenodd" d="M62.1163 26.3524C65.4406 27.6404 67.5671 30.221 68.5494 32.2667L63.7962 34.5463C63.2719 33.4569 62.0463 31.9748 60.209 31.2623C58.5066 30.6025 55.864 30.4437 52.0637 32.6692C47.0634 35.5959 42.7651 35.541 39.4808 33.5239C36.4465 31.6603 34.854 28.4605 34.2469 26.1854L39.3421 24.8281C39.7391 26.3155 40.7448 28.1174 42.2431 29.0376C43.4913 29.805 45.6592 30.3136 49.3971 28.125C54.3341 25.2344 58.6603 25.0132 62.1163 26.3524Z" fill="#F2A495"/>
<path fill-rule="evenodd" clip-rule="evenodd" d="M30.3742 58.4023C29.297 60.2177 30.613 62.5343 32.2545 62.763C32.6906 62.8232 33.2993 62.7479 33.7814 62.462C34.1633 62.2341 34.6454 61.7781 34.8337 60.6353C34.9912 59.6821 34.9414 58.221 34.3418 56.0911C31.9072 56.6373 30.8255 57.6424 30.3742 58.4023ZM32.4285 51.142C29.3543 51.9847 27.114 53.5669 25.8379 55.7171C22.8798 60.7038 26.0805 67.2207 31.5268 67.9791C32.9558 68.1777 34.8104 67.9791 36.4789 66.986C38.2484 65.9342 39.605 64.1059 40.0367 61.49C40.3079 59.8446 40.2077 57.9404 39.6962 55.7465C42.2672 55.8811 45.4378 56.3762 49.3044 57.3949L50.6498 52.3029C45.5801 50.9667 41.364 50.401 37.8966 50.4431C36.3712 46.8972 33.9946 42.6517 30.5144 37.5635L26.1603 40.5353C29.0454 44.7523 31.0627 48.2537 32.4277 51.142H32.4285Z" fill="#D6CFB6"/>
<path fill-rule="evenodd" clip-rule="evenodd" d="M63.8014 47.813C64.3633 47.4271 64.8673 47.081 65.3441 46.7236L68.5079 50.9368C67.9492 51.3496 67.3821 51.7509 66.807 52.1406L66.6639 52.2384C66.1 52.6194 65.5464 53.0153 65.0036 53.4256C63.9769 54.2156 63.2168 54.9702 62.7076 55.8437C61.7939 57.4116 61.2214 60.2149 63.714 66.2601L58.838 68.2652C56.0576 61.5203 56.05 56.8 58.1495 53.1954C59.1468 51.4838 60.505 50.2387 61.7856 49.2538C62.4436 48.7545 63.1158 48.274 63.8014 47.813Z" fill="#F2A495"/>
<path fill-rule="evenodd" clip-rule="evenodd" d="M52.3974 39.4123C54.8245 39.7892 57.3299 40.777 58.9796 42.3954L55.2862 46.1534C54.6761 45.556 53.3397 44.8887 51.5861 44.6156C49.8656 44.3485 48.1963 44.5343 47.0129 45.1249L44.6551 40.4144C47.0882 39.1993 49.9379 39.0301 52.3974 39.4123Z" fill="#F45B45"/>
<path fill-rule="evenodd" clip-rule="evenodd" d="M35.7006 77.0604C32.347 79.4461 30.3937 83.3636 29.6796 86.273L24.558 85.0188C25.4755 81.2819 27.9666 76.0959 32.6415 72.7704C37.5115 69.3058 44.316 68.1698 53.0263 71.9451L50.9276 76.776C43.6682 73.6296 38.8599 74.8123 35.7006 77.0604Z" fill="#6E9E80"/>
<path fill-rule="evenodd" clip-rule="evenodd" d="M62.6533 113.511C64.2955 113.625 65.7185 113.065 66.703 112.355L66.9817 112.154L67.2002 111.888C68.2849 110.563 68.9674 108.418 68.3203 105.981C67.674 103.549 65.8051 101.16 62.4537 98.9839C61.2153 98.1803 59.8616 97.4686 58.4567 96.8412C58.2443 95.1138 58.0918 93.3795 57.9995 91.6416L52.734 91.9335C52.7905 92.9372 52.8591 93.8979 52.9397 94.8181C52.3455 94.6399 51.7486 94.4711 51.1491 94.3117C47.3638 93.3051 43.8294 92.7528 41.6772 92.5512L41.1846 97.7951C43.0505 97.9697 46.2949 98.4708 49.7917 99.4007C51.1024 99.7498 52.4214 100.152 53.6997 100.608C54.6293 105.678 56.0786 108.972 57.8699 110.983C59.2786 112.565 60.9434 113.393 62.6533 113.511ZM59.8405 103.573C62.3046 105.231 63.0285 106.597 63.2228 107.331C63.3298 107.732 63.3064 108.035 63.2544 108.241C63.1784 108.256 63.0978 108.263 63.0172 108.257C62.856 108.246 62.4243 108.173 61.8096 107.483C61.1942 106.792 60.4869 105.581 59.8405 103.573Z" fill="#F45B45"/>
<path fill-rule="evenodd" clip-rule="evenodd" d="M37.2282 108.444C40.4825 108.522 43.8301 107.423 45.876 106.373L48.285 111.058C45.6862 112.391 41.4632 113.813 37.1024 113.709C32.6234 113.602 27.8106 111.847 24.8291 106.636L29.4076 104.023C31.2471 107.24 34.0931 108.369 37.2282 108.444Z" fill="#6E9E80"/>
<path fill-rule="evenodd" clip-rule="evenodd" d="M60.3354 84.1615C56.6692 85.7031 52.7807 85.977 50.2451 85.7595L50.6956 80.5126C52.5547 80.6713 55.5588 80.4562 58.2887 79.3081C60.9501 78.1886 63.1987 76.2685 64.1313 73.0078L69.2009 74.4546C67.7229 79.621 64.071 82.5906 60.3347 84.1615H60.3354Z" fill="#F19A00"/>
<path fill-rule="evenodd" clip-rule="evenodd" d="M25.4935 97.7996L29.6366 89.1475L34.3936 91.4196L30.2506 100.072L25.4935 97.7996Z" fill="#F19A00"/>
<path fill-rule="evenodd" clip-rule="evenodd" d="M30.4456 151.869C30.1895 151.444 29.9861 151.106 29.7903 150.812L34.1827 147.898C34.4501 148.3 34.7326 148.771 34.9985 149.211L35.1868 149.523C35.5228 150.078 35.8618 150.623 36.2324 151.148C36.9857 152.213 37.7744 153.056 38.6746 153.579C39.5062 154.062 40.5653 154.353 42.0817 154.094C43.6719 153.822 45.861 152.928 48.7913 150.804C53.775 147.193 58.3369 147.045 61.9437 148.921C65.2717 150.651 67.3011 153.859 68.1109 156.132L63.1429 157.898C62.6458 156.501 61.3426 154.545 59.5091 153.592C57.9543 152.783 55.5264 152.431 51.8873 155.067C48.5675 157.472 45.6282 158.832 42.9698 159.285C40.2377 159.752 37.9258 159.237 36.0222 158.131C34.188 157.065 32.878 155.534 31.9244 154.184C31.4853 153.554 31.0687 152.909 30.6754 152.249L30.4456 151.869Z" fill="#F45B45"/>
<path fill-rule="evenodd" clip-rule="evenodd" d="M53.3245 139.716C54.758 140.121 56.4266 140.054 58.4318 138.765C62.0461 136.445 62.6585 132.281 62.1689 129.835L67.3395 128.803C68.1056 132.627 67.2875 139.341 61.283 143.195C58.016 145.294 54.7882 145.603 51.8903 144.784C49.1159 144.002 46.853 142.249 45.1875 140.586L48.9163 136.862C50.2639 138.207 51.7675 139.277 53.3245 139.716Z" fill="#F19A00"/>
<path fill-rule="evenodd" clip-rule="evenodd" d="M31.4905 137.414C30.1933 138.38 29.5018 139.99 29.321 141.209L24.1052 140.437C24.4269 138.27 25.6186 135.217 28.3387 133.192C31.2238 131.044 35.2818 130.447 40.4268 132.332L38.6113 137.277C34.7168 135.85 32.6227 136.571 31.4905 137.414Z" fill="#F2A495"/>
<path fill-rule="evenodd" clip-rule="evenodd" d="M26.9662 118.033C30.6498 125.149 38.4418 127.729 45.7555 126.288L44.7348 121.121C39.1831 122.215 34.023 120.198 31.6502 115.614L26.9655 118.033H26.9662Z" fill="#F2A495"/>
<path fill-rule="evenodd" clip-rule="evenodd" d="M63.4518 120.479L53.3871 121.664L52.7694 116.434L62.8341 115.249L63.4518 120.479V120.479Z" fill="#6E9E80"/>
<path fill-rule="evenodd" clip-rule="evenodd" d="M39.034 160.636C43.4543 159.503 49.5078 159.698 56.1804 160.817L55.3066 166.011C49.7714 165.082 45.1523 164.912 41.834 165.434C41.9432 165.626 42.0487 165.823 42.1481 166.029C44.2965 170.443 43.257 175.115 39.6563 176.724C37.8574 177.527 35.758 177.281 34.1218 175.897C32.5701 174.585 31.6925 172.493 31.4092 169.986C31.248 168.562 31.4108 167.219 31.8974 166.008C31.1441 166.081 30.4157 166.239 29.7754 166.446C28.8187 166.755 28.2997 167.096 28.1656 167.221L24.5649 163.374C25.4952 162.505 26.833 161.861 28.152 161.436C29.6585 160.951 31.2307 160.701 32.8134 160.695C34.1083 160.693 35.5154 160.877 36.8691 161.353C37.5724 161.062 38.2959 160.822 39.034 160.636ZM36.9693 167.624C36.6981 168.048 36.5587 168.594 36.6491 169.395C36.845 171.125 37.3648 171.739 37.529 171.878C37.5339 171.882 37.539 171.886 37.544 171.89C37.6299 171.829 37.8228 171.642 37.9327 171.19C38.0638 170.651 38.0661 169.689 37.4054 168.331C37.2804 168.074 37.1343 167.838 36.9685 167.624H36.9693ZM37.5938 171.924L37.5907 171.922C37.5918 171.922 37.5928 171.923 37.5938 171.924Z" fill="#F2A495"/>
<path fill-rule="evenodd" clip-rule="evenodd" d="M60.4576 173.985C57.4927 174.829 54.5548 174.717 52.6603 174.333L53.7074 169.172C54.8991 169.412 56.9714 169.501 59.0105 168.92C60.9909 168.355 62.8033 167.211 63.922 165.059L68.6022 167.484C66.664 171.215 63.4813 173.122 60.4576 173.985Z" fill="#006EAB"/>
<path fill-rule="evenodd" clip-rule="evenodd" d="M67.5475 185.775C67.8221 186.167 68.1028 186.554 68.3896 186.937L64.1886 190.121C63.8684 189.699 63.5407 189.238 63.2356 188.807L63.0767 188.583C62.7129 188.072 62.3701 187.598 62.0221 187.16C61.2854 186.231 60.7317 185.741 60.3272 185.543C60.1261 185.445 59.9792 185.386 59.5558 185.622C58.9359 185.966 57.8911 186.907 56.4726 189.173C54.7777 191.881 52.8124 193.739 50.615 194.699C48.3702 195.68 46.1217 195.617 44.1495 194.895C40.4057 193.526 37.6969 189.838 36.9699 186.448L42.1255 185.344C42.5285 187.221 44.1518 189.288 45.9627 189.95C46.7687 190.245 47.6041 190.266 48.5013 189.874C49.4467 189.461 50.6828 188.488 52.0011 186.382C53.5958 183.833 55.2191 182.005 56.9924 181.02C58.9615 179.925 60.9343 179.975 62.6473 180.814C64.1569 181.553 65.314 182.829 66.1546 183.888C66.5953 184.444 67.0081 185.016 67.375 185.533L67.5482 185.776L67.5475 185.775Z" fill="#D6CFB6"/>
<path fill-rule="evenodd" clip-rule="evenodd" d="M28.8428 193.995C27.8318 192.197 26.1716 191.004 25.0236 190.5L27.1479 185.679C29.1373 186.554 31.7708 188.445 33.4408 191.418C35.1824 194.518 35.7534 198.588 33.8002 203.378L28.9166 201.39C30.277 198.055 29.7814 195.667 28.8428 193.995Z" fill="#F19A00"/>
<path fill-rule="evenodd" clip-rule="evenodd" d="M53.4083 199.158L59.9333 196.222L62.0997 201.023L55.5747 203.96L53.409 199.158H53.4083Z" fill="#F19A00"/>
<path fill-rule="evenodd" clip-rule="evenodd" d="M39.2743 216.071C36.2642 214.67 33.5584 212.663 31.9885 211.3L35.4484 207.326C36.7659 208.469 39.0612 210.161 41.5026 211.298C44.0879 212.502 46.0878 212.74 47.3165 212.182C48.2179 211.775 49.1053 211.338 49.9771 210.871C49.3857 209.536 48.9722 208.026 48.7982 206.345L54.0433 205.803C54.133 206.668 54.3145 207.449 54.5661 208.15C55.1597 207.796 55.8068 207.42 56.5435 207.011C61.1258 204.468 67.1008 206.666 67.6033 211.684C67.8707 214.353 66.6572 216.526 64.5291 217.65C62.6082 218.665 60.2625 218.673 58.1653 218.092C56.3793 217.597 54.5812 216.628 53.0399 215.193C51.8843 215.835 50.7029 216.43 49.4987 216.976C46.0396 218.547 42.1391 217.405 39.2743 216.071V216.071ZM57.9092 212.3C58.4299 212.611 58.9897 212.853 59.574 213.017C60.8071 213.358 61.6802 213.197 62.0644 212.994H62.0651C62.2414 212.901 62.4169 212.808 62.3566 212.208C62.3378 212.024 62.1653 211.623 61.5446 211.361C60.9781 211.121 60.1066 211.058 59.1039 211.614C58.7027 211.837 58.3044 212.066 57.9092 212.299V212.3Z" fill="#006EAB"/>
<path fill-rule="evenodd" clip-rule="evenodd" d="M63.0044 239.707C62.0907 241.952 60.1781 243.763 58.6858 244.695L61.4812 249.159C63.6296 247.817 66.4477 245.233 67.8895 241.688C69.4111 237.946 69.2831 233.38 65.8021 228.706L61.5716 231.851C63.946 235.037 63.8368 237.659 63.0036 239.706L63.0044 239.707Z" fill="#F19A00"/>
<path fill-rule="evenodd" clip-rule="evenodd" d="M30.2024 222.717C30.4284 224.463 31.4401 226.757 34.1339 229.986C37.3225 233.809 38.0525 237.715 37.4739 241.154C36.918 244.464 35.193 247.124 33.8348 248.768L29.767 245.415C30.8043 244.161 31.9275 242.341 32.274 240.282C32.5979 238.351 32.2838 235.996 30.0819 233.356C27.0861 229.765 25.3814 226.548 24.9731 223.393C24.5528 220.15 25.5531 217.4 27.0477 214.909L31.5704 217.615C30.4314 219.514 29.987 221.058 30.2017 222.716L30.2024 222.717Z" fill="#F45B45"/>
<path fill-rule="evenodd" clip-rule="evenodd" d="M47.904 228.28C44.5534 226.587 40.7025 226.005 38.2385 226.005V220.739C41.3345 220.739 46.0388 221.435 50.2836 223.58C54.5894 225.755 58.6316 229.551 59.6704 235.725L54.4704 236.598C53.7872 232.54 51.1936 229.941 47.9032 228.28H47.904Z" fill="#6E9E80"/>
<path fill-rule="evenodd" clip-rule="evenodd" d="M45.6056 237.947L50.502 244.342L46.3137 247.542L41.4174 241.147L45.6056 237.947Z" fill="#D6CFB6"/>
<path fill-rule="evenodd" clip-rule="evenodd" d="M31.7459 256.115C32.1723 255.86 32.5105 255.657 32.805 255.461L35.7218 259.848C35.3195 260.115 34.848 260.397 34.408 260.663L34.0954 260.851C33.5395 261.186 32.9941 261.525 32.4683 261.895C31.4017 262.647 30.558 263.435 30.0337 264.334C29.5501 265.165 29.2593 266.223 29.5184 267.737C29.7904 269.325 30.686 271.512 32.8126 274.438C36.4276 279.416 36.576 283.972 34.698 287.575C32.9655 290.899 29.7535 292.925 27.4778 293.734L25.7098 288.772C27.1087 288.276 29.0665 286.974 30.0209 285.143C30.8307 283.59 31.184 281.165 28.5444 277.531C26.1362 274.215 24.775 271.279 24.3207 268.624C23.8537 265.895 24.3689 263.586 25.4763 261.685C26.5437 259.853 28.0766 258.545 29.428 257.592C30.0589 257.154 30.7051 256.738 31.3655 256.345L31.7459 256.115Z" fill="#6E9E80"/>
<path fill-rule="evenodd" clip-rule="evenodd" d="M43.9139 278.967C43.5086 280.399 43.5764 282.065 44.866 284.068C47.1892 287.678 51.3586 288.289 53.8076 287.8L54.8411 292.964C51.0121 293.73 44.2897 292.913 40.4306 286.916C38.3297 283.653 38.0201 280.429 38.8397 277.534C39.6231 274.763 41.3783 272.503 43.043 270.84L46.7718 274.564C45.4249 275.91 44.3538 277.412 43.9139 278.967Z" fill="#F45B45"/>
<path fill-rule="evenodd" clip-rule="evenodd" d="M46.2189 257.159C45.2524 255.864 43.6396 255.173 42.4193 254.993L43.1922 249.783C45.3617 250.104 48.4193 251.295 50.4464 254.011C52.597 256.893 53.1944 260.946 51.3074 266.085L46.3568 264.271C47.785 260.382 47.0633 258.29 46.2189 257.159Z" fill="#F19A00"/>
<path fill-rule="evenodd" clip-rule="evenodd" d="M65.6243 252.64C58.4997 256.319 55.9159 264.102 57.3592 271.406L62.5328 270.387C61.4368 264.842 63.4571 259.688 68.0461 257.319L65.6243 252.64V252.64Z" fill="#F19A00"/>
<path fill-rule="evenodd" clip-rule="evenodd" d="M63.1754 289.081L61.9882 279.029L67.2251 278.412L68.4115 288.464L63.1746 289.081H63.1754Z" fill="#6E9E80"/>
<path fill-rule="evenodd" clip-rule="evenodd" d="M107.916 47.1723C107.985 45.651 107.387 44.2478 106.7 43.3315L110.922 40.1738C112.181 41.8531 113.319 44.4277 113.185 47.41C113.045 50.4992 111.554 53.6869 108.135 56.4549C105.171 58.8541 104.671 60.6748 104.68 61.7944C104.69 63.0749 105.357 64.2982 106.248 65.4877L102.028 68.6446C100.973 67.2377 99.4312 64.867 99.4071 61.835C99.3823 58.642 101.024 55.4324 104.815 52.3635C107.203 50.43 107.853 48.5875 107.917 47.1723H107.916Z" fill="#F2A495"/>
<path fill-rule="evenodd" clip-rule="evenodd" d="M75.457 25.8499C77.9127 24.6822 80.8867 24.6115 83.6716 25.5339L82.0114 30.5325C80.3165 29.9713 78.7722 30.1059 77.7229 30.6048C76.7466 31.069 76.1154 31.8627 75.9956 33.065C75.5595 37.4399 75.0992 41.5471 74.8355 43.6597L69.6024 43.0096C69.8586 40.9512 70.3158 36.8892 70.7482 32.5436C71.0631 29.3852 72.926 27.0521 75.4563 25.8499H75.457Z" fill="#6E9E80"/>
<path fill-rule="evenodd" clip-rule="evenodd" d="M104.506 28.716C106.563 29.217 108.627 29.2622 109.821 29.1591L110.278 34.4053C108.584 34.5527 105.939 34.485 103.257 33.8327C100.61 33.1887 97.557 31.8811 95.5299 29.2494L99.7099 26.0391C100.697 27.3203 102.413 28.2074 104.506 28.7167V28.716Z" fill="#006EAB"/>
<path fill-rule="evenodd" clip-rule="evenodd" d="M81.4834 55.3263C78.0755 59.2521 73.0541 61.8214 69.4684 62.9401L71.0398 67.9659C75.2582 66.6508 81.2378 63.6489 85.4683 58.7766C89.8223 53.7606 92.2863 46.7569 89.0871 38.0566L84.138 39.8713C86.5816 46.5192 84.7685 51.5434 81.4841 55.3263H81.4834Z" fill="#006EAB"/>
<path fill-rule="evenodd" clip-rule="evenodd" d="M75.643 106.728C75.3869 106.302 75.1835 105.964 74.9877 105.67L79.3801 102.757C79.6475 103.159 79.93 103.63 80.1959 104.069L80.3842 104.381C80.7202 104.936 81.0592 105.481 81.4298 106.006C82.1831 107.072 82.9718 107.914 83.872 108.438C84.7036 108.921 85.7627 109.211 87.2791 108.952C88.8693 108.681 91.0583 107.786 93.9886 105.662C98.9724 102.052 103.534 101.904 107.141 103.779C110.469 105.51 112.498 108.718 113.308 110.991L108.34 112.756C107.843 111.359 106.54 109.404 104.706 108.451C103.152 107.642 100.724 107.289 97.0847 109.925C93.7649 112.331 90.8256 113.69 88.1672 114.144C85.435 114.61 83.1232 114.096 81.2196 112.99C79.3854 111.924 78.0754 110.392 77.1217 109.043C76.6827 108.413 76.2661 107.767 75.8728 107.108L75.643 106.728Z" fill="#F2A495"/>
<path fill-rule="evenodd" clip-rule="evenodd" d="M98.5219 94.5749C99.9554 94.9796 101.624 94.9119 103.629 93.6239C107.244 91.3036 107.856 87.1393 107.366 84.6934L112.537 83.6611C113.303 87.4854 112.485 94.1994 106.48 98.0538C103.213 100.152 99.9856 100.461 97.0877 99.6427C94.3133 98.8603 92.0504 97.1073 90.3849 95.4446L94.1137 91.7204C95.4613 93.0656 96.9649 94.1355 98.5219 94.5749Z" fill="#006EAB"/>
<path fill-rule="evenodd" clip-rule="evenodd" d="M76.6879 92.2727C75.3907 93.238 74.6992 94.8488 74.5184 96.0676L69.3026 95.2957C69.6243 93.1289 70.816 90.075 73.5361 88.0504C76.4212 85.9025 80.4792 85.3058 85.6241 87.1905L83.8087 92.135C79.9142 90.7085 77.8201 91.4293 76.6879 92.2727Z" fill="#D6CFB6"/>
<path fill-rule="evenodd" clip-rule="evenodd" d="M72.1636 72.8915C75.8472 80.0073 83.6392 82.5879 90.9529 81.1464L89.9322 75.9792C84.3804 77.0738 79.2204 75.056 76.8475 70.4727L72.1628 72.8915H72.1636Z" fill="#F45B45"/>
<path fill-rule="evenodd" clip-rule="evenodd" d="M108.649 75.3371L98.5845 76.5228L97.9668 71.2924L108.032 70.1074L108.649 75.3378V75.3371Z" fill="#F2A495"/>
<path fill-rule="evenodd" clip-rule="evenodd" d="M80.9349 134.526C79.521 139.864 75.9308 143.722 73.0058 145.694L70.0559 141.329C72.1531 139.915 74.8152 137.041 75.8374 133.18C76.8189 129.473 76.3926 124.472 71.7049 118.413L75.8773 115.193C81.4343 122.375 82.3888 129.036 80.9349 134.526Z" fill="#F19A00"/>
<path fill-rule="evenodd" clip-rule="evenodd" d="M88.3119 124.292C86.9658 121.013 87.646 117.537 88.0784 115.504L93.2362 116.597C92.7895 118.702 92.5281 120.681 93.191 122.292C93.7348 123.619 95.2301 125.399 100.145 126.246C105.797 127.219 109.83 128.986 112.006 132.213C114.187 135.449 113.983 139.392 113.204 143.275L108.034 142.243C108.763 138.603 108.558 136.527 107.632 135.155C106.701 133.775 104.519 132.344 99.2482 131.436C93.2399 130.401 89.7763 127.857 88.3119 124.292Z" fill="#6E9E80"/>
<path fill-rule="evenodd" clip-rule="evenodd" d="M105.515 156.254C104.061 156.666 102.758 157.788 102.046 158.729L97.838 155.556C99.0177 153.996 101.205 152 104.076 151.187C107.177 150.309 110.722 150.922 113.987 154.091L110.312 157.867C108.35 155.962 106.738 155.907 105.515 156.253V156.254Z" fill="#F19A00"/>
<path fill-rule="evenodd" clip-rule="evenodd" d="M80.2388 158.112L80.0505 158.663L75.0637 156.951C75.124 156.776 75.188 156.587 75.2558 156.385C75.9104 154.444 76.9635 151.319 78.9281 148.784C80.0512 147.336 81.5284 145.993 83.4795 145.124C85.444 144.25 87.731 143.928 90.3465 144.289C90.8533 144.367 91.3586 144.455 91.8621 144.553C92.2312 144.62 92.5837 144.686 92.8466 144.729C93.7076 144.87 94.4963 144.954 95.1924 144.921C95.8861 144.887 96.3283 144.745 96.6085 144.567C96.8383 144.422 97.1351 144.147 97.3633 143.447C97.7099 142.388 97.5366 141.889 97.389 141.628C97.1901 141.275 96.72 140.818 95.7325 140.372C93.7099 139.456 90.6877 139.099 88.0022 138.996L88.2049 133.733C90.9679 133.84 94.8835 134.205 97.908 135.574C99.4447 136.269 101.027 137.344 101.985 139.045C102.994 140.837 103.085 142.913 102.376 145.081C101.806 146.827 100.798 148.15 99.4356 149.013C98.1249 149.844 96.6907 150.122 95.4432 150.181C94.1973 150.241 92.98 150.088 91.9901 149.925C91.4086 149.83 90.9958 149.751 90.6455 149.683C90.2756 149.612 89.9766 149.555 89.6263 149.506C87.8734 149.265 86.5936 149.505 85.6256 149.935C84.6425 150.373 83.8169 151.081 83.0976 152.008C81.7092 153.799 80.9318 156.079 80.2388 158.112Z" fill="#006EAB"/>
<path fill-rule="evenodd" clip-rule="evenodd" d="M99.3619 197.355C103.365 198.922 108.155 198.476 111.45 197.272L113.262 202.219C109.079 203.746 102.923 204.405 97.438 202.259C91.7002 200.014 87.1074 194.851 86.1944 185.677L91.4418 185.156C92.1748 192.52 95.6113 195.888 99.3619 197.355Z" fill="#F45B45"/>
<path fill-rule="evenodd" clip-rule="evenodd" d="M109.878 187.99C109.464 190.617 107.94 192.666 105.879 194.267L102.642 190.11C103.971 189.078 104.52 188.116 104.67 187.17C104.829 186.161 104.612 184.69 103.446 182.528L108.089 180.03C109.559 182.759 110.284 185.426 109.878 187.99Z" fill="#F2A495"/>
<path fill-rule="evenodd" clip-rule="evenodd" d="M76.8438 160.268C79.4578 159.759 82.2826 160.879 84.953 163.484C86.2479 164.746 86.9146 166.26 87.1616 167.81C88.0754 166.906 88.9304 165.397 89.3417 162.879L94.5461 163.728C93.8622 167.908 92.0829 170.907 89.4953 172.695C88.5234 173.366 87.4422 173.863 86.2999 174.164C86.0814 174.752 85.8351 175.328 85.5737 175.884C83.7786 179.696 80.8694 183.319 78.715 185.16L75.2868 181.158C76.7572 179.902 79.0156 177.166 80.5184 174.222C78.2502 173.716 76.1312 172.642 74.5817 171.245C72.9825 169.804 71.381 167.381 72.2202 164.628C72.6721 162.589 74.3964 160.744 76.8438 160.268ZM82.0016 169.148C81.9768 168.261 81.7078 167.678 81.2709 167.253C79.3124 165.343 78.1553 165.378 77.8517 165.437C77.5128 165.503 77.396 165.714 77.3742 165.753L77.3704 165.759L77.3342 165.958L77.2702 166.145V166.148C77.2781 166.211 77.2959 166.273 77.3229 166.331C77.4186 166.561 77.6521 166.919 78.1139 167.336C79.0118 168.145 80.434 168.866 82.0009 169.148H82.0016Z" fill="#F45B45"/>
<path fill-rule="evenodd" clip-rule="evenodd" d="M103.57 170.971C101.984 172.704 101.212 175.57 100.847 178.249L95.6218 177.538C96.0097 174.699 96.9325 170.418 99.6783 167.418C101.115 165.848 103.034 164.647 105.507 164.209C107.938 163.779 110.705 164.119 113.831 165.264L112.016 170.209C109.492 169.285 107.693 169.171 106.428 169.395C105.204 169.611 104.3 170.174 103.571 170.971H103.57Z" fill="#F45B45"/>
<path fill-rule="evenodd" clip-rule="evenodd" d="M74.8823 190.307C74.8823 194.34 78.0009 197.328 81.0035 197.873L80.0604 203.055C74.7776 202.095 69.6093 197.109 69.6093 190.307H74.8823Z" fill="#F19A00"/>
<path fill-rule="evenodd" clip-rule="evenodd" d="M107.314 206.918C110.638 208.206 112.764 210.786 113.747 212.832L108.993 215.112C108.469 214.022 107.244 212.54 105.406 211.828C103.704 211.168 101.061 211.009 97.261 213.235C92.2606 216.161 87.9624 216.106 84.678 214.089C81.6438 212.226 80.0513 209.026 79.4442 206.751L84.5394 205.394C84.9364 206.881 85.942 208.683 87.4403 209.603C88.6885 210.37 90.8565 210.879 94.5943 208.69C99.5314 205.8 103.858 205.579 107.314 206.918Z" fill="#006EAB"/>
<path fill-rule="evenodd" clip-rule="evenodd" d="M75.5715 238.968C74.4943 240.783 75.8103 243.1 77.4517 243.328C77.8879 243.389 78.4965 243.313 78.9786 243.027C79.3606 242.799 79.8427 242.344 80.031 241.201C80.1884 240.247 80.1387 238.786 79.5391 236.656C77.1045 237.203 76.0227 238.208 75.5715 238.968ZM77.6257 231.707C74.5516 232.55 72.3113 234.132 71.0352 236.283C68.077 241.269 71.2778 247.786 76.724 248.544C78.153 248.743 80.0076 248.544 81.6762 247.551C83.4456 246.5 84.8023 244.671 85.2339 242.055C85.5051 240.41 85.4049 238.506 84.8935 236.312C87.4644 236.447 90.635 236.942 94.5017 237.96L95.847 232.868C90.7774 231.532 86.5612 230.966 83.0939 231.009C81.5684 227.463 79.1918 223.217 75.7116 218.129L71.3576 221.101C74.2427 225.318 76.26 228.819 77.625 231.707H77.6257Z" fill="#6E9E80"/>
<path fill-rule="evenodd" clip-rule="evenodd" d="M108.999 228.378C109.561 227.993 110.065 227.646 110.541 227.289L113.705 231.502C113.146 231.915 112.579 232.316 112.004 232.706L111.861 232.804C111.297 233.185 110.744 233.581 110.201 233.991C109.174 234.781 108.414 235.536 107.905 236.409C106.991 237.977 106.419 240.78 108.911 246.826L104.035 248.831C101.255 242.086 101.247 237.365 103.347 233.761C104.344 232.049 105.702 230.804 106.983 229.819C107.641 229.32 108.313 228.839 108.999 228.378Z" fill="#006EAB"/>
<path fill-rule="evenodd" clip-rule="evenodd" d="M97.5946 219.978C100.022 220.355 102.527 221.342 104.177 222.961L100.484 226.719C99.8733 226.121 98.537 225.454 96.7833 225.181C95.0628 224.914 93.3935 225.1 92.2101 225.69L89.8523 220.98C92.2855 219.765 95.1351 219.595 97.5946 219.978Z" fill="#6E9E80"/>
<path fill-rule="evenodd" clip-rule="evenodd" d="M80.9349 269.951C79.521 275.289 75.9308 279.147 73.0058 281.119L70.0559 276.754C72.1531 275.34 74.8152 272.466 75.8374 268.604C76.8189 264.898 76.3926 259.897 71.7049 253.838L75.8773 250.618C81.4343 257.8 82.3888 264.461 80.9349 269.951Z" fill="#006EAB"/>
<path fill-rule="evenodd" clip-rule="evenodd" d="M88.3119 259.718C86.9658 256.439 87.646 252.963 88.0784 250.93L93.2362 252.023C92.7895 254.128 92.5281 256.106 93.191 257.718C93.7348 259.044 95.2301 260.825 100.145 261.672C105.797 262.645 109.83 264.412 112.006 267.638C114.187 270.874 113.983 274.817 113.204 278.701L108.034 277.669C108.763 274.029 108.558 271.953 107.632 270.581C106.701 269.2 104.519 267.769 99.2482 266.861C93.2399 265.827 89.7763 263.282 88.3119 259.718Z" fill="#F19A00"/>
<path fill-rule="evenodd" clip-rule="evenodd" d="M105.515 291.679C104.061 292.091 102.758 293.212 102.046 294.154L97.838 290.981C99.0177 289.421 101.205 287.425 104.076 286.612C107.177 285.734 110.722 286.347 113.987 289.516L110.312 293.292C108.35 291.387 106.738 291.331 105.515 291.678V291.679Z" fill="#F19A00"/>
<path fill-rule="evenodd" clip-rule="evenodd" d="M80.2388 293.537L80.0505 294.088L75.0637 292.376C75.124 292.201 75.188 292.012 75.2558 291.81C75.9104 289.869 76.9635 286.743 78.9281 284.209C80.0512 282.76 81.5284 281.417 83.4795 280.549C85.444 279.675 87.731 279.353 90.3465 279.714C90.8533 279.792 91.3586 279.88 91.8621 279.977C92.2312 280.045 92.5837 280.111 92.8466 280.153C93.7076 280.295 94.4963 280.379 95.1924 280.345C95.8861 280.312 96.3283 280.17 96.6085 279.992C96.8383 279.847 97.1351 279.572 97.3633 278.872C97.7099 277.813 97.5366 277.314 97.389 277.053C97.1901 276.699 96.72 276.243 95.7325 275.797C93.7099 274.881 90.6877 274.524 88.0022 274.42L88.2049 269.158C90.9679 269.265 94.8835 269.63 97.908 270.999C99.4447 271.694 101.027 272.769 101.985 274.469C102.994 276.262 103.085 278.338 102.376 280.506C101.806 282.252 100.798 283.574 99.4356 284.437C98.1249 285.269 96.6907 285.547 95.4432 285.606C94.1973 285.666 92.98 285.513 91.9901 285.35C91.4086 285.254 90.9958 285.175 90.6455 285.108C90.2756 285.037 89.9766 284.98 89.6263 284.931C87.8734 284.69 86.5936 284.929 85.6256 285.36C84.6425 285.798 83.8169 286.506 83.0976 287.433C81.7092 289.224 80.9318 291.504 80.2388 293.537Z" fill="#006EAB"/>
<path fill-rule="evenodd" clip-rule="evenodd" d="M151.844 35.6562C149.456 32.3067 145.533 30.3559 142.62 29.6426L143.876 24.5273C147.618 25.4437 152.81 27.9318 156.14 32.6009C159.608 37.4649 160.746 44.261 156.966 52.9605L152.129 50.8644C155.279 43.6139 154.095 38.8116 151.844 35.6562Z" fill="#F45B45"/>
<path fill-rule="evenodd" clip-rule="evenodd" d="M115.348 62.576C115.235 64.2161 115.795 65.6374 116.506 66.6207L116.707 66.8991L116.974 67.1172C118.3 68.2006 120.448 68.8823 122.888 68.236C125.323 67.5905 127.714 65.7239 129.894 62.3766C130.698 61.1398 131.411 59.7878 132.039 58.3846C133.768 58.1725 135.505 58.0201 137.245 57.9279L136.953 52.6689C135.948 52.7254 134.986 52.7938 134.064 52.8743C134.243 52.2809 134.412 51.6847 134.571 51.086C135.579 47.3054 136.132 43.7753 136.334 41.6258L131.084 41.1338C130.909 42.9974 130.407 46.2378 129.476 49.7302C129.127 51.0393 128.724 52.3567 128.267 53.6335C123.192 54.5619 119.893 56.0094 117.879 57.7985C116.296 59.2054 115.467 60.8682 115.348 62.576ZM125.299 59.7667C123.639 62.2277 122.271 62.9507 121.536 63.1448C121.135 63.2516 120.831 63.2283 120.625 63.1764C120.61 63.1004 120.602 63.0199 120.608 62.9394C120.62 62.7784 120.693 62.3473 121.384 61.7334C122.076 61.1187 123.289 60.4122 125.299 59.7667Z" fill="#006EAB"/>
<path fill-rule="evenodd" clip-rule="evenodd" d="M120.422 37.1817C120.344 40.4319 121.445 43.7753 122.495 45.8187L117.805 48.2248C116.47 45.6292 115.046 41.4114 115.151 37.056C115.258 32.5825 117.014 27.7757 122.232 24.7979L124.848 29.3707C121.628 31.2079 120.497 34.0504 120.422 37.1817Z" fill="#F19A00"/>
<path fill-rule="evenodd" clip-rule="evenodd" d="M144.735 60.2605C143.191 56.5987 142.917 52.7151 143.135 50.1826L148.388 50.6325C148.229 52.4893 148.445 55.4898 149.594 58.2163C150.715 60.8744 152.638 63.1202 155.902 64.0516L154.454 69.115C149.281 67.6388 146.308 63.9914 144.735 60.2597V60.2605Z" fill="#F2A495"/>
<path fill-rule="evenodd" clip-rule="evenodd" d="M131.08 25.4619L139.743 29.5999L137.468 34.351L128.805 30.2131L131.08 25.4619Z" fill="#D6CFB6"/>
<path fill-rule="evenodd" clip-rule="evenodd" d="M152.402 84.3356C153.971 80.3376 153.524 75.5534 152.319 72.2625L157.272 70.4531C158.801 74.631 159.461 80.7785 157.312 86.2572C155.064 91.9879 149.895 96.575 140.709 97.4869L140.188 92.2459C147.56 91.5139 150.933 88.0816 152.402 84.3356Z" fill="#6E9E80"/>
<path fill-rule="evenodd" clip-rule="evenodd" d="M143.026 73.8332C145.655 74.247 147.706 75.7683 149.309 77.8267L145.148 81.0596C144.114 79.7325 143.151 79.1848 142.204 79.035C141.194 78.8755 139.721 79.0922 137.556 80.2569L135.056 75.6201C137.787 74.1515 140.458 73.4277 143.026 73.8332Z" fill="#006EAB"/>
<path fill-rule="evenodd" clip-rule="evenodd" d="M115.269 106.826C114.76 104.215 115.881 101.394 118.489 98.7268C119.753 97.4335 121.269 96.7677 122.821 96.5209C121.915 95.6083 120.405 94.7543 117.884 94.3436L118.734 89.1455C122.919 89.8286 125.922 91.6057 127.712 94.1901C128.384 95.1608 128.881 96.2407 129.182 97.3816C129.771 97.5998 130.348 97.8458 130.905 98.1068C134.721 99.8997 138.349 102.805 140.192 104.957L136.186 108.381C134.928 106.912 132.189 104.657 129.24 103.156C128.734 105.421 127.659 107.538 126.26 109.085C124.817 110.683 122.391 112.282 119.635 111.444C117.594 110.992 115.746 109.27 115.269 106.826ZM124.161 101.675C123.272 101.699 122.689 101.968 122.263 102.404C120.351 104.36 120.385 105.516 120.445 105.819C120.51 106.158 120.722 106.274 120.761 106.296L120.767 106.3L120.967 106.336L121.154 106.4H121.157C121.22 106.392 121.282 106.374 121.34 106.347C121.57 106.252 121.929 106.019 122.346 105.557C123.156 104.661 123.878 103.24 124.161 101.675V101.675Z" fill="#6E9E80"/>
<path fill-rule="evenodd" clip-rule="evenodd" d="M125.985 80.1334C127.72 81.7171 130.59 82.4883 133.272 82.8532L132.56 88.0715C129.718 87.6841 125.431 86.7624 122.428 84.0201C120.856 82.5853 119.653 80.6683 119.215 78.1983C118.784 75.7705 119.124 73.0071 120.271 69.8848L125.222 71.6979C124.297 74.2183 124.183 76.0157 124.407 77.2789C124.623 78.5008 125.187 79.4044 125.985 80.1326V80.1334Z" fill="#F2A495"/>
<path fill-rule="evenodd" clip-rule="evenodd" d="M145.346 108.786C149.383 108.786 152.375 105.671 152.921 102.672L158.109 103.614C157.148 108.89 152.155 114.052 145.346 114.052V108.786Z" fill="#F19A00"/>
<path fill-rule="evenodd" clip-rule="evenodd" d="M153.357 121.989C153.613 122.415 153.816 122.753 154.012 123.047L149.62 125.96C149.352 125.558 149.07 125.087 148.804 124.648L148.616 124.336C148.28 123.78 147.941 123.236 147.57 122.711C146.817 121.645 146.028 120.803 145.128 120.279C144.296 119.796 143.237 119.506 141.721 119.764C140.131 120.036 137.942 120.93 135.011 123.054C130.027 126.665 125.466 126.813 121.859 124.938C118.531 123.207 116.501 119.999 115.692 117.726L120.66 115.96C121.157 117.358 122.46 119.313 124.293 120.266C125.848 121.075 128.276 121.428 131.915 118.792C135.235 116.386 138.174 115.027 140.833 114.573C143.565 114.107 145.877 114.621 147.78 115.727C149.615 116.793 150.924 118.324 151.878 119.674C152.317 120.304 152.734 120.95 153.127 121.609L153.357 121.989Z" fill="#F45B45"/>
<path fill-rule="evenodd" clip-rule="evenodd" d="M130.478 134.142C129.044 133.737 127.376 133.805 125.371 135.093C121.756 137.413 121.144 141.578 121.634 144.023L116.463 145.056C115.697 141.231 116.515 134.517 122.519 130.663C125.786 128.565 129.014 128.255 131.912 129.074C134.687 129.856 136.949 131.609 138.615 133.272L134.886 136.996C133.539 135.651 132.035 134.581 130.478 134.142Z" fill="#6E9E80"/>
<path fill-rule="evenodd" clip-rule="evenodd" d="M152.312 136.444C153.609 135.479 154.301 133.868 154.481 132.649L159.697 133.421C159.376 135.588 158.184 138.642 155.464 140.666C152.579 142.814 148.521 143.411 143.376 141.526L145.191 136.582C149.086 138.008 151.18 137.288 152.312 136.444Z" fill="#F2A495"/>
<path fill-rule="evenodd" clip-rule="evenodd" d="M156.836 155.826C153.153 148.71 145.361 146.13 138.047 147.571L139.068 152.739C144.619 151.644 149.779 153.662 152.152 158.245L156.837 155.826H156.836Z" fill="#F45B45"/>
<path fill-rule="evenodd" clip-rule="evenodd" d="M120.351 153.38L130.416 152.194L131.033 157.424L120.968 158.609L120.351 153.379V153.38Z" fill="#006EAB"/>
<path fill-rule="evenodd" clip-rule="evenodd" d="M148.065 184.473C149.479 179.135 153.069 175.277 155.994 173.305L158.944 177.67C156.847 179.084 154.185 181.958 153.163 185.819C152.181 189.526 152.607 194.527 157.295 200.586L153.123 203.806C147.566 196.624 146.611 189.963 148.065 184.473Z" fill="#F2A495"/>
<path fill-rule="evenodd" clip-rule="evenodd" d="M140.688 194.707C142.034 197.986 141.354 201.462 140.922 203.495L135.764 202.402C136.211 200.297 136.472 198.318 135.809 196.707C135.265 195.381 133.77 193.6 128.855 192.753C123.203 191.78 119.17 190.013 116.994 186.786C114.813 183.55 115.017 179.607 115.796 175.724L120.966 176.756C120.237 180.396 120.442 182.472 121.368 183.844C122.299 185.224 124.481 186.655 129.752 187.564C135.76 188.598 139.224 191.142 140.688 194.707Z" fill="#6E9E80"/>
<path fill-rule="evenodd" clip-rule="evenodd" d="M123.485 162.746C124.939 162.334 126.242 161.212 126.954 160.271L131.162 163.444C129.982 165.004 127.795 167 124.924 167.813C121.823 168.691 118.278 168.078 115.013 164.909L118.688 161.133C120.65 163.038 122.262 163.093 123.485 162.747V162.746Z" fill="#F19A00"/>
<path fill-rule="evenodd" clip-rule="evenodd" d="M148.761 160.888L148.949 160.337L153.936 162.049C153.876 162.224 153.812 162.413 153.744 162.615C153.089 164.556 152.036 167.681 150.072 170.216C148.949 171.664 147.471 173.007 145.52 173.876C143.556 174.75 141.269 175.072 138.653 174.711C138.147 174.633 137.641 174.545 137.138 174.447C136.769 174.38 136.416 174.314 136.153 174.271C135.292 174.13 134.504 174.046 133.808 174.079C133.114 174.113 132.672 174.255 132.391 174.433C132.162 174.578 131.865 174.853 131.637 175.553C131.29 176.612 131.463 177.111 131.611 177.372C131.81 177.725 132.28 178.182 133.267 178.628C135.29 179.544 138.312 179.901 140.998 180.004L140.795 185.267C138.032 185.16 134.116 184.795 131.092 183.426C129.555 182.731 127.973 181.656 127.015 179.955C126.006 178.163 125.915 176.087 126.623 173.919C127.194 172.173 128.202 170.85 129.564 169.987C130.875 169.156 132.309 168.878 133.557 168.819C134.803 168.759 136.02 168.912 137.01 169.075C137.591 169.17 138.004 169.249 138.354 169.317C138.724 169.388 139.023 169.445 139.374 169.494C141.126 169.735 142.406 169.495 143.374 169.065C144.357 168.627 145.183 167.919 145.902 166.992C147.291 165.201 148.068 162.921 148.761 160.888Z" fill="#006EAB"/>
<path fill-rule="evenodd" clip-rule="evenodd" d="M133.394 247.384C129.413 245.411 126.694 241.829 125.677 238.136L130.762 236.739C131.395 239.039 133.15 241.384 135.737 242.666C138.235 243.903 141.719 244.25 146.076 242.207L148.316 246.975C142.643 249.634 137.464 249.4 133.393 247.384H133.394Z" fill="#6E9E80"/>
<path fill-rule="evenodd" clip-rule="evenodd" d="M144.611 212.233C144.677 211.835 144.765 211.441 144.875 211.053C146.456 205.496 151.685 203.729 155.522 205.361C157.453 206.182 159.077 207.911 159.413 210.358C159.74 212.744 158.771 215.251 156.795 217.639C155.297 219.45 153.461 220.431 151.489 220.671C151.594 220.895 151.703 221.121 151.818 221.348C153.503 224.718 155.827 227.826 157.425 229.619L153.486 233.12C151.643 231.051 149.033 227.565 147.101 223.703C146.411 222.323 145.763 220.811 145.282 219.239C144.627 218.879 143.995 218.479 143.389 218.041C139.602 215.32 136.257 210.987 134.641 207.772L139.355 205.41C140.369 207.429 142.342 210.124 144.611 212.234V212.233ZM149.808 215.389C149.669 214.307 149.708 213.331 149.947 212.492C150.323 211.168 151.012 210.552 151.6 210.275C152.248 209.97 152.949 209.99 153.456 210.206C153.928 210.407 154.139 210.714 154.189 211.074C154.247 211.495 154.152 212.566 152.73 214.284C151.903 215.285 151.115 215.513 150.288 215.454C150.134 215.443 149.975 215.422 149.808 215.389Z" fill="#D6CFB6"/>
<path fill-rule="evenodd" clip-rule="evenodd" d="M125.061 209.774C126.694 218.307 123.005 226.169 120.909 229.146L116.596 226.117C118.19 223.852 121.157 217.428 119.882 210.762L125.062 209.774H125.061Z" fill="#D6CFB6"/>
<path fill-rule="evenodd" clip-rule="evenodd" d="M137.667 228.001C138.276 227.21 138.533 226.263 138.533 225.751H143.806C143.806 227.495 143.121 229.558 141.847 231.212C140.519 232.935 138.391 234.402 135.519 234.402V229.136C136.416 229.136 137.112 228.722 137.667 228.001Z" fill="#D6CFB6"/>
<path fill-rule="evenodd" clip-rule="evenodd" d="M115.637 280.014C114.503 275.599 114.698 269.553 115.819 262.889L121.019 263.761C120.089 269.29 119.919 273.903 120.442 277.217C120.633 277.108 120.831 277.003 121.037 276.904C125.457 274.758 130.134 275.796 131.745 279.392C132.55 281.189 132.303 283.286 130.918 284.92C129.604 286.47 127.509 287.346 124.999 287.629C123.573 287.79 122.229 287.628 121.016 287.142C121.09 287.894 121.248 288.622 121.455 289.261C121.764 290.217 122.105 290.735 122.231 290.869L118.379 294.465C117.509 293.536 116.865 292.2 116.438 290.882C115.953 289.378 115.703 287.808 115.696 286.227C115.695 284.934 115.879 283.528 116.355 282.176C116.064 281.474 115.824 280.751 115.637 280.014ZM122.634 282.076C123.059 282.347 123.606 282.486 124.407 282.396C126.14 282.2 126.754 281.681 126.894 281.517C126.898 281.512 126.902 281.507 126.906 281.502C126.844 281.416 126.657 281.224 126.205 281.114C125.665 280.983 124.702 280.981 123.342 281.64C123.084 281.765 122.849 281.911 122.634 282.077V282.076ZM126.939 281.452L126.938 281.455C126.938 281.454 126.938 281.453 126.939 281.452Z" fill="#006EAB"/>
<path fill-rule="evenodd" clip-rule="evenodd" d="M129.002 258.617C129.848 261.578 129.735 264.512 129.351 266.405L124.184 265.359C124.425 264.169 124.513 262.099 123.931 260.062C123.366 258.084 122.22 256.274 120.065 255.157L122.494 250.482C126.229 252.418 128.139 255.597 129.002 258.617Z" fill="#D6CFB6"/>
<path fill-rule="evenodd" clip-rule="evenodd" d="M140.808 251.535C141.2 251.261 141.588 250.981 141.971 250.694L145.159 254.89C144.736 255.21 144.275 255.537 143.844 255.842L143.619 256.001C143.108 256.364 142.632 256.706 142.194 257.054C141.264 257.79 140.774 258.343 140.575 258.747C140.477 258.948 140.418 259.094 140.654 259.517C140.999 260.136 141.941 261.18 144.21 262.597C146.922 264.289 148.781 266.252 149.743 268.447C150.725 270.689 150.662 272.935 149.939 274.904C148.568 278.644 144.876 281.349 141.481 282.075L140.376 276.926C142.255 276.524 144.325 274.902 144.988 273.094C145.283 272.289 145.304 271.454 144.912 270.558C144.498 269.614 143.524 268.379 141.415 267.063C138.863 265.47 137.033 263.849 136.046 262.078C134.95 260.111 135 258.14 135.841 256.43C136.58 254.922 137.858 253.766 138.918 252.927C139.475 252.486 140.048 252.074 140.565 251.708L140.809 251.535L140.808 251.535Z" fill="#F45B45"/>
<path fill-rule="evenodd" clip-rule="evenodd" d="M149.038 290.193C147.238 291.203 146.043 292.861 145.539 294.007L140.711 291.886C141.588 289.899 143.481 287.269 146.458 285.601C149.562 283.861 153.636 283.291 158.433 285.242L156.442 290.119C153.103 288.76 150.712 289.255 149.038 290.193Z" fill="#006EAB"/>
<path fill-rule="evenodd" clip-rule="evenodd" d="M154.207 265.657L151.267 259.14L156.075 256.977L159.015 263.494L154.207 265.657V265.657Z" fill="#6E9E80"/>
<path fill-rule="evenodd" clip-rule="evenodd" d="M189.726 57.7888C192.736 59.1897 195.442 61.1963 197.012 62.5595L193.552 66.5335C192.234 65.3899 189.939 63.6986 187.498 62.561C184.912 61.3573 182.912 61.1195 181.684 61.6778C180.782 62.0845 179.895 62.5216 179.023 62.9884C179.614 64.3238 180.028 65.833 180.202 67.5146L174.957 68.0563C174.867 67.1918 174.686 66.4109 174.434 65.7089C173.84 66.0633 173.193 66.4394 172.457 66.8487C167.874 69.3917 161.899 67.1933 161.397 62.1758C161.129 59.5065 162.343 57.3329 164.471 56.2096C166.392 55.1947 168.738 55.1864 170.835 55.7672C172.621 56.2623 174.419 57.2313 175.96 58.6668C177.116 58.0244 178.297 57.4293 179.501 56.883C182.96 55.3128 186.861 56.4541 189.726 57.7881V57.7888ZM171.091 61.5596C170.57 61.248 170.01 61.0069 169.426 60.8426C168.193 60.5011 167.32 60.6621 166.936 60.8652H166.935C166.759 60.9585 166.583 61.051 166.643 61.6514C166.662 61.835 166.835 62.236 167.456 62.4986C168.022 62.7386 168.894 62.801 169.896 62.245C170.297 62.022 170.696 61.7938 171.091 61.5604V61.5596Z" fill="#F45B45"/>
<path fill-rule="evenodd" clip-rule="evenodd" d="M165.996 34.1521C166.909 31.907 168.822 30.0969 170.314 29.1647L167.519 24.7002C165.37 26.0424 162.552 28.626 161.111 32.1711C159.589 35.9133 159.717 40.4794 163.198 45.1531L167.428 42.0082C165.054 38.822 165.163 36.2007 165.996 34.1536L165.996 34.1521Z" fill="#F45B45"/>
<path fill-rule="evenodd" clip-rule="evenodd" d="M198.798 51.1422C198.572 49.3967 197.56 47.1028 194.866 43.8737C191.678 40.0502 190.948 36.1447 191.526 32.7057C192.082 29.3953 193.807 26.7357 195.165 25.0918L199.233 28.4443C198.196 29.6985 197.073 31.5184 196.726 33.5776C196.402 35.5082 196.716 37.8631 198.918 40.5031C201.914 44.0949 203.619 47.3112 204.027 50.4666C204.447 53.7093 203.447 56.4591 201.952 58.9502L197.43 56.244C198.569 54.345 199.013 52.8012 198.798 51.143L198.798 51.1422Z" fill="#F19A00"/>
<path fill-rule="evenodd" clip-rule="evenodd" d="M181.096 45.5798C184.447 47.2726 188.298 47.8542 190.762 47.8542V53.1207C187.666 53.1207 182.961 52.424 178.717 50.2798C174.411 48.104 170.369 44.3083 169.33 38.1345L174.53 37.2617C175.213 41.3192 177.807 43.9186 181.097 45.5798H181.096Z" fill="#F2A495"/>
<path fill-rule="evenodd" clip-rule="evenodd" d="M183.394 35.9122L178.498 29.5172L182.686 26.3174L187.583 32.7124L183.394 35.9122Z" fill="#6E9E80"/>
<path fill-rule="evenodd" clip-rule="evenodd" d="M189.966 113.223C185.546 114.356 179.492 114.161 172.82 113.041L173.694 107.848C179.229 108.776 183.848 108.946 187.166 108.424C187.057 108.233 186.951 108.035 186.852 107.83C184.704 103.416 185.743 98.7434 189.344 97.1348C191.143 96.3313 193.242 96.5773 194.878 97.9609C196.43 99.273 197.308 101.365 197.591 103.872C197.752 105.296 197.589 106.639 197.103 107.851C197.856 107.777 198.584 107.619 199.225 107.412C200.181 107.104 200.7 106.763 200.835 106.637L204.435 110.485C203.505 111.354 202.167 111.997 200.848 112.423C199.342 112.907 197.769 113.157 196.187 113.164C194.892 113.165 193.485 112.981 192.131 112.506C191.428 112.797 190.704 113.036 189.966 113.223ZM192.031 106.235C192.302 105.81 192.441 105.264 192.351 104.464C192.155 102.733 191.635 102.119 191.471 101.98C191.466 101.976 191.461 101.972 191.456 101.968C191.37 102.03 191.177 102.216 191.067 102.668C190.936 103.207 190.934 104.169 191.595 105.527C191.72 105.785 191.866 106.02 192.032 106.235H192.031ZM191.406 101.935L191.409 101.936C191.408 101.936 191.407 101.935 191.406 101.935Z" fill="#F19A00"/>
<path fill-rule="evenodd" clip-rule="evenodd" d="M168.543 99.8738C171.507 99.0297 174.445 99.1418 176.34 99.5255L175.293 104.687C174.101 104.446 172.029 104.357 169.99 104.939C168.009 105.503 166.197 106.647 165.078 108.8L160.398 106.374C162.336 102.643 165.519 100.736 168.543 99.8738Z" fill="#F2A495"/>
<path fill-rule="evenodd" clip-rule="evenodd" d="M161.453 88.0831C161.178 87.6915 160.897 87.3042 160.61 86.9214L164.811 83.7374C165.132 84.1595 165.459 84.6207 165.764 85.0511L165.923 85.2753C166.287 85.7861 166.63 86.2609 166.978 86.6987C167.715 87.6271 168.268 88.1169 168.673 88.3155C168.874 88.4134 169.021 88.472 169.444 88.2365C170.064 87.892 171.109 86.9515 172.527 84.6854C174.222 81.9769 176.188 80.1194 178.385 79.1593C180.63 78.1783 182.878 78.2415 184.85 78.963C188.594 80.3323 191.303 84.0203 192.03 87.4105L186.875 88.5142C186.472 86.6378 184.848 84.5703 183.037 83.9082C182.231 83.6133 181.396 83.5922 180.499 83.9842C179.553 84.3973 178.317 85.3701 176.999 87.4767C175.404 90.0257 173.781 91.8531 172.008 92.8387C170.039 93.9334 168.066 93.8838 166.353 93.0441C164.843 92.3053 163.686 91.0293 162.845 89.9707C162.405 89.4147 161.992 88.8422 161.625 88.3253L161.452 88.0823L161.453 88.0831Z" fill="#6E9E80"/>
<path fill-rule="evenodd" clip-rule="evenodd" d="M200.157 79.8631C201.168 81.6613 202.829 82.8545 203.977 83.3586L201.852 88.1797C199.863 87.3047 197.229 85.4133 195.559 82.4399C193.818 79.3402 193.247 75.2707 195.2 70.4805L200.084 72.4682C198.723 75.8034 199.219 78.1914 200.157 79.8631Z" fill="#006EAB"/>
<path fill-rule="evenodd" clip-rule="evenodd" d="M175.592 74.7003L169.067 77.6367L166.9 72.8352L173.425 69.8987L175.591 74.7003H175.592Z" fill="#006EAB"/>
<path fill-rule="evenodd" clip-rule="evenodd" d="M198.311 137.455C198.379 135.934 197.782 134.531 197.095 133.615L201.317 130.457C202.575 132.136 203.714 134.711 203.579 137.693C203.44 140.782 201.949 143.97 198.529 146.738C195.566 149.137 195.066 150.958 195.075 152.078C195.085 153.358 195.751 154.581 196.643 155.771L192.422 158.928C191.368 157.521 189.826 155.15 189.802 152.118C189.777 148.925 191.419 145.716 195.21 142.647C197.598 140.713 198.248 138.871 198.312 137.455H198.311Z" fill="#F2A495"/>
<path fill-rule="evenodd" clip-rule="evenodd" d="M165.852 116.133C168.307 114.965 171.281 114.895 174.066 115.817L172.406 120.816C170.711 120.254 169.167 120.389 168.118 120.888C167.141 121.352 166.51 122.146 166.39 123.348C165.954 127.723 165.494 131.83 165.23 133.943L159.997 133.293C160.253 131.234 160.71 127.172 161.143 122.827C161.458 119.668 163.321 117.335 165.851 116.133H165.852Z" fill="#F19A00"/>
<path fill-rule="evenodd" clip-rule="evenodd" d="M194.901 118.999C196.957 119.5 199.021 119.545 200.215 119.442L200.672 124.688C198.979 124.836 196.334 124.768 193.652 124.116C191.005 123.472 187.952 122.164 185.925 119.533L190.105 116.322C191.091 117.604 192.808 118.491 194.901 119V118.999Z" fill="#6E9E80"/>
<path fill-rule="evenodd" clip-rule="evenodd" d="M171.878 145.609C168.47 149.535 163.449 152.105 159.863 153.223L161.434 158.249C165.653 156.934 171.632 153.932 175.863 149.06C180.217 144.044 182.681 137.04 179.482 128.34L174.533 130.155C176.976 136.802 175.163 141.827 171.879 145.609H171.878Z" fill="#6E9E80"/>
<path fill-rule="evenodd" clip-rule="evenodd" d="M170.667 185.934C171.043 185.893 171.528 185.723 172.113 185.197C172.665 184.701 173.101 183.83 172.944 182.263C172.781 180.645 171.976 178.454 170.191 175.835C168.405 173.217 167.521 170.72 167.75 168.36C167.989 165.915 169.364 164.168 170.921 162.993C172.434 161.851 174.243 161.14 175.788 160.673C177.231 160.236 178.616 159.96 179.538 159.777L179.762 159.733L180.796 164.897L180.588 164.938C179.651 165.125 178.502 165.354 177.32 165.713C176.028 166.104 174.896 166.594 174.101 167.195C173.351 167.76 173.055 168.295 172.999 168.87C172.935 169.53 173.132 170.792 174.549 172.87C176.643 175.944 177.911 178.968 178.19 181.736C178.475 184.554 177.724 187.238 175.64 189.112C174.342 190.278 172.856 190.99 171.251 191.169C169.663 191.345 168.161 190.978 166.841 190.325C164.268 189.051 162.144 186.586 160.653 183.926L165.254 181.353C166.453 183.492 167.907 184.975 169.182 185.606C169.785 185.905 170.274 185.978 170.667 185.934Z" fill="#F19A00"/>
<path fill-rule="evenodd" clip-rule="evenodd" d="M195.691 201.605C191.928 203.532 187.729 203.479 184.995 202.889L186.11 197.741C188.022 198.155 190.902 198.139 193.285 196.919C195.464 195.803 197.601 193.499 197.989 188.452L203.247 188.856C202.731 195.546 199.658 199.574 195.692 201.605H195.691Z" fill="#F2A495"/>
<path fill-rule="evenodd" clip-rule="evenodd" d="M193.705 173.355C193.3 169.744 194.493 166.194 195.656 164.017L200.307 166.495C199.461 168.081 198.695 170.549 198.944 172.769C199.063 173.833 199.407 174.787 200.036 175.598C200.661 176.404 201.681 177.215 203.387 177.824L201.614 182.783C199.101 181.887 197.196 180.535 195.869 178.825C194.546 177.12 193.91 175.206 193.704 173.355H193.705Z" fill="#F2A495"/>
<path fill-rule="evenodd" clip-rule="evenodd" d="M172.699 202.281L166.346 204.642L164.508 199.706L170.863 197.345L172.701 202.281L172.699 202.281Z" fill="#D6CFB6"/>
<path fill-rule="evenodd" clip-rule="evenodd" d="M188.169 184.401C188.486 184.952 189.079 185.402 189.992 185.988L187.14 190.418L187.107 190.396C186.251 189.847 184.615 188.797 183.595 187.02C182.444 185.015 182.297 182.54 183.495 179.667L188.363 181.692C187.678 183.332 187.971 184.055 188.169 184.401V184.401Z" fill="#F2A495"/>
<path fill-rule="evenodd" clip-rule="evenodd" d="M166.884 247.506C163.56 246.218 161.433 243.637 160.451 241.592L165.204 239.312C165.728 240.401 166.954 241.884 168.791 242.596C170.494 243.256 173.136 243.415 176.936 241.189C181.937 238.263 186.235 238.317 189.519 240.335C192.554 242.198 194.146 245.398 194.753 247.673L189.658 249.03C189.261 247.543 188.255 245.741 186.757 244.821C185.509 244.053 183.341 243.545 179.603 245.733C174.666 248.624 170.34 248.845 166.884 247.506Z" fill="#006EAB"/>
<path fill-rule="evenodd" clip-rule="evenodd" d="M198.626 215.456C199.703 213.641 198.387 211.324 196.746 211.095C196.31 211.035 195.701 211.11 195.219 211.396C194.837 211.624 194.355 212.08 194.166 213.223C194.009 214.176 194.059 215.637 194.658 217.767C197.093 217.221 198.175 216.216 198.626 215.456ZM196.572 222.716C199.646 221.874 201.886 220.292 203.162 218.141C206.12 213.155 202.92 206.638 197.473 205.879C196.044 205.681 194.19 205.879 192.521 206.872C190.752 207.924 189.395 209.752 188.963 212.368C188.692 214.014 188.792 215.918 189.304 218.112C186.733 217.977 183.562 217.482 179.696 216.464L178.35 221.555C183.42 222.892 187.636 223.457 191.104 223.415C192.629 226.961 195.006 231.207 198.486 236.295L202.84 233.323C199.955 229.106 197.937 225.605 196.572 222.716H196.572Z" fill="#6E9E80"/>
<path fill-rule="evenodd" clip-rule="evenodd" d="M165.199 226.046C164.637 226.432 164.133 226.778 163.656 227.136L160.492 222.923C161.051 222.51 161.618 222.108 162.193 221.719L162.336 221.621C162.9 221.24 163.454 220.844 163.996 220.434C165.023 219.644 165.783 218.889 166.292 218.016C167.206 216.448 167.779 213.644 165.286 207.599L170.162 205.594C172.942 212.339 172.95 217.059 170.851 220.664C169.853 222.376 168.495 223.621 167.214 224.606C166.556 225.105 165.884 225.585 165.199 226.046Z" fill="#F45B45"/>
<path fill-rule="evenodd" clip-rule="evenodd" d="M176.603 234.447C174.176 234.07 171.67 233.082 170.021 231.464L173.714 227.706C174.324 228.303 175.66 228.971 177.414 229.244C179.135 229.511 180.804 229.325 181.987 228.734L184.345 233.445C181.912 234.66 179.062 234.829 176.603 234.447Z" fill="#F2A495"/>
<path fill-rule="evenodd" clip-rule="evenodd" d="M166.561 255.977C169.681 254.778 171.745 251.982 172.305 250.862L177.021 253.217C176.075 255.108 173.168 259.082 168.454 260.893L166.561 255.977Z" fill="#006EAB"/>
<path fill-rule="evenodd" clip-rule="evenodd" d="M170.055 278.103C167.573 279.25 165.852 281.14 165.174 282.145L160.801 279.2C161.9 277.573 164.311 274.953 167.841 273.322C171.484 271.64 176.243 271.061 181.655 273.571C187.062 276.08 189.702 280.088 190.721 283.961C191.702 287.686 191.184 291.271 190.357 293.254L185.489 291.228C185.87 290.314 186.309 287.914 185.621 285.3C184.972 282.834 183.317 280.149 179.434 278.348C175.554 276.549 172.423 277.009 170.055 278.103Z" fill="#F45B45"/>
<path fill-rule="evenodd" clip-rule="evenodd" d="M192.392 258.414C191.671 257.574 190.391 256.983 188.448 257.271L187.675 252.062C191.088 251.557 194.297 252.544 196.395 254.987C198.471 257.405 199.085 260.807 198.294 264.417C197.825 266.562 198.234 267.285 198.502 267.562C198.899 267.976 200.058 268.587 203.093 268.587V273.854C199.725 273.854 196.658 273.248 194.699 271.211C192.61 269.04 192.533 266.08 193.143 263.293C193.673 260.871 193.137 259.282 192.392 258.415V258.414Z" fill="#6E9E80"/>
</g>
</svg>
