<svg width="229" height="319" viewBox="0 0 229 319" fill="none" xmlns="http://www.w3.org/2000/svg">
<mask id="mask0" mask-type="alpha" maskUnits="userSpaceOnUse" x="24" y="24" width="183" height="273">
<path d="M206.401 24.0752H24.1053V296.429H206.401V24.0752Z" fill="white"/>
</mask>
<g mask="url(#mask0)">
<path fill-rule="evenodd" clip-rule="evenodd" d="M53.1694 27.8369C46.5126 27.8369 41.1168 33.2261 41.1168 39.8747V45.1013C39.5585 44.3984 37.8678 44.0359 36.1579 44.0382C29.5011 44.0382 24.1053 49.4281 24.1053 56.0759V69.6094H25.6118V56.0759C25.6118 50.2587 30.3335 45.5429 36.1579 45.5429C41.9823 45.5429 46.7039 50.2587 46.7039 56.0759V70.0743H48.2105V53.0575C48.2105 47.2402 52.9321 42.5245 58.7566 42.5245C64.581 42.5245 69.3026 47.2402 69.3026 53.0575V70.0736H70.8092V53.0575C70.8092 48.7502 68.5441 44.9719 65.1392 42.8442H65.2221V39.8747C65.2221 33.2261 59.8255 27.8369 53.1694 27.8369ZM63.7155 42.0821V39.8747C63.7155 34.0574 58.9939 29.3416 53.1694 29.3416C47.345 29.3416 42.6234 34.0574 42.6234 39.8747V45.9153C44.466 47.0877 45.9568 48.7362 46.9375 50.686C48.0403 45.1735 52.9126 41.0197 58.7566 41.0197C60.5238 41.0197 62.2029 41.3997 63.7155 42.0821Z" fill="#FFDB69"/>
<path fill-rule="evenodd" clip-rule="evenodd" d="M48.2105 83.5116C48.2105 77.6018 43.9469 72.6874 38.3243 71.668C39.6687 71.0424 41.1342 70.7193 42.6173 70.7215C48.2339 70.7215 52.7868 75.2688 52.7868 80.8784V103.734C50.867 104.83 49.2844 106.431 48.2105 108.361V83.5116ZM58.7566 102.156C57.1799 102.156 55.6734 102.458 54.2933 103.008V80.8784C54.2933 76.462 51.8346 72.619 48.2105 70.6388V69.2168H46.7039V69.9511C45.3968 69.4639 44.0126 69.2152 42.6173 69.2168C40.1284 69.2131 37.704 70.0071 35.7006 71.4822C31.3557 71.6447 27.5983 74.1034 25.6118 77.6793V69.2168H24.1053V114.329H25.6118V83.5116C25.6118 77.6944 30.3335 72.9786 36.1579 72.9786C41.9823 72.9786 46.7039 77.6944 46.7039 83.5116V114.358H48.2105V114.194C48.2105 108.376 52.9321 103.661 58.7566 103.661C64.581 103.661 69.3026 108.376 69.3026 114.194V114.358H70.8092V69.2168H69.3026V108.362C67.2461 104.66 63.2944 102.156 58.7566 102.156Z" fill="#FFDB69"/>
<path fill-rule="evenodd" clip-rule="evenodd" d="M48.2105 118.341C49.6607 117.722 51.2217 117.404 52.7988 117.406C59.247 117.406 64.4748 122.628 64.4748 129.068V140.546C66.5063 141.643 68.1814 143.297 69.3026 145.313V114.358H70.8092V159.5H69.3026V151.145V151.137C69.2981 145.324 64.5787 140.612 58.7566 140.612C52.9321 140.612 48.2105 145.328 48.2105 151.145V159.5H46.7039V135.463C46.7039 129.646 41.9823 124.93 36.1579 124.93C30.3335 124.93 25.6118 129.646 25.6118 135.463V159.5H24.1053V135.463C24.1053 134.914 24.1422 134.374 24.213 133.845H24.1053V114.358H25.6118V129.631C27.6683 125.93 31.6201 123.425 36.1579 123.425C38.237 123.425 40.1933 123.951 41.9002 124.877C42.826 122.484 44.5139 120.46 46.7039 119.119V114.358H48.2105V118.341ZM48.2105 135.463C48.2105 131.442 46.2369 127.881 43.2034 125.695C44.5962 121.743 48.3672 118.911 52.7988 118.911C58.4153 118.911 62.9682 123.458 62.9682 129.068V139.863C61.6208 139.362 60.1944 139.106 58.7566 139.108C54.2188 139.108 50.267 141.613 48.2105 145.313V135.462V135.463Z" fill="#FFDB69"/>
<path fill-rule="evenodd" clip-rule="evenodd" d="M48.2105 162.53C49.7483 161.85 51.412 161.499 53.0941 161.501C58.8402 161.501 63.6462 165.517 64.8545 170.891C66.7174 171.985 68.2532 173.557 69.3026 175.444V159.5H70.8092V204.642H69.3026V181.276C69.3026 175.459 64.581 170.743 58.7566 170.743C52.9321 170.743 48.2105 175.459 48.2105 181.276V204.642H46.7039V200.851C46.7039 195.034 41.9823 190.318 36.1579 190.318C30.3335 190.318 25.6118 195.034 25.6118 200.851V204.642H24.1053V159.5H25.6118V195.019C26.5216 193.383 27.7987 191.981 29.3429 190.921V183.129C29.3429 176.516 34.6829 171.148 41.2908 171.092C41.6224 169.5 42.2729 167.992 43.2032 166.658C44.1334 165.325 45.3242 164.192 46.7039 163.33V159.5H48.2105V162.53ZM49.1928 173.95C47.3878 172.416 45.1685 171.45 42.8147 171.174C43.8897 166.496 48.0855 163.006 53.0941 163.006C57.6831 163.006 61.5882 165.933 63.0375 170.02C61.67 169.502 60.2193 169.237 58.7566 169.239C56.9072 169.237 55.0823 169.661 53.4236 170.478C51.765 171.295 50.3172 172.483 49.1928 173.95ZM41.3963 172.596C44.0584 172.596 46.4893 173.581 48.3461 175.206C47.2673 177.048 46.7004 179.143 46.7039 181.277V195.019C44.6475 191.318 40.6957 188.813 36.1579 188.813C34.2528 188.813 32.4517 189.255 30.8495 190.041V183.129C30.8495 177.312 35.5711 172.596 41.3955 172.596L41.3963 172.596Z" fill="#FFDB69"/>
<path fill-rule="evenodd" clip-rule="evenodd" d="M48.2105 207.672C49.7483 206.991 51.412 206.641 53.0941 206.643C58.8402 206.643 63.6462 210.658 64.8545 216.032C66.7174 217.127 68.2532 218.699 69.3026 220.586V204.642H70.8092V249.783H69.3026V226.418C69.3026 220.601 64.581 215.885 58.7566 215.885C52.9321 215.885 48.2105 220.601 48.2105 226.418V249.783H46.7039V245.993C46.7039 240.175 41.9823 235.46 36.1579 235.46C30.3335 235.46 25.6118 240.175 25.6118 245.993V249.783H24.1053V204.642H25.6118V240.16C26.5216 238.525 27.7987 237.122 29.3429 236.063V228.271C29.3429 221.658 34.6829 216.29 41.2908 216.233C41.6224 214.642 42.2729 213.134 43.2032 211.8C44.1334 210.466 45.3242 209.334 46.7039 208.472V204.642H48.2105V207.672ZM49.1928 219.091C47.3878 217.557 45.1685 216.591 42.8147 216.315C43.8897 211.638 48.0855 208.148 53.0941 208.148C57.6831 208.148 61.5882 211.074 63.0375 215.162C61.67 214.643 60.2193 214.378 58.7566 214.38C56.9072 214.379 55.0823 214.803 53.4236 215.62C51.765 216.437 50.3172 217.625 49.1928 219.091ZM41.3963 217.737C44.0584 217.737 46.4893 218.723 48.3461 220.348C47.2673 222.189 46.7004 224.285 46.7039 226.419V240.16C44.6475 236.46 40.6957 233.955 36.1579 233.955C34.2528 233.955 32.4517 234.397 30.8495 235.183V228.271C30.8495 222.454 35.5711 217.738 41.3955 217.738L41.3963 217.737Z" fill="#FFDB69"/>
<path fill-rule="evenodd" clip-rule="evenodd" d="M44.0418 287.802C41.8539 289.697 39.0539 290.738 36.1579 290.734C29.5011 290.734 24.1053 285.344 24.1053 278.696V249.783H25.6118V278.696C25.6118 284.514 30.3335 289.229 36.1579 289.229C41.9823 289.229 46.7039 284.514 46.7039 278.696V249.783H48.2105V255.012C48.2105 260.829 52.9321 265.545 58.7566 265.545C64.581 265.545 69.3026 260.829 69.3026 255.012V249.783H70.8092V255.012C70.8092 260.413 67.2469 264.984 62.3407 266.508V277.505C62.3407 284.153 56.9442 289.542 50.2881 289.542C48.0856 289.546 45.9245 288.944 44.0418 287.802ZM45.1544 286.708C46.7235 287.583 48.4911 288.041 50.2881 288.038C56.1125 288.038 60.8341 283.322 60.8341 277.505V266.871C60.1592 266.988 59.4647 267.049 58.7566 267.049C54.2188 267.049 50.267 264.544 48.2105 260.844V278.697C48.2149 281.652 47.1266 284.505 45.1544 286.708Z" fill="#FFDB69"/>
<path fill-rule="evenodd" clip-rule="evenodd" d="M81.3552 29.4346C74.6984 29.4346 69.3026 34.8237 69.3026 41.4723V69.217H70.8092V41.4723C70.8092 35.6551 75.5308 30.9393 81.3552 30.9393C87.1797 30.9393 91.9013 35.6551 91.9013 41.4723V69.217H93.4079V52.5019C93.4079 46.6846 98.1295 41.9689 103.954 41.9689C109.778 41.9689 114.5 46.6846 114.5 52.5019V69.217H116.007V52.5019C116.007 45.854 110.611 40.4641 103.954 40.4641C99.4161 40.4641 95.4644 42.9695 93.4079 46.6696V41.4723C93.4079 34.8237 88.0121 29.4346 81.3552 29.4346Z" fill="#FFDB69"/>
<path fill-rule="evenodd" clip-rule="evenodd" d="M92.6546 69.2168C85.9978 69.2168 80.602 74.6059 80.602 81.2545V82.8465C77.0901 84.9501 74.7399 88.7894 74.7399 93.1764H74.831C73.1575 94.2549 71.7762 95.7289 70.8092 97.4679V69.362H69.3026V114.504H70.8092V103.301C70.8092 97.4829 75.5308 92.7679 81.3552 92.7679C87.1797 92.7679 91.9013 97.4829 91.9013 103.301V114.504H93.4079V91.06C93.4079 85.2435 98.1295 80.527 103.954 80.527C109.778 80.527 114.5 85.2435 114.5 91.06V114.504H116.007V69.362H114.5V85.2285C112.527 81.6774 108.809 79.2277 104.502 79.0351C103.46 73.4466 98.5528 69.2168 92.6546 69.2168ZM102.972 79.0622C101.962 74.2975 97.725 70.7215 92.6546 70.7215C86.8302 70.7215 82.1085 75.4373 82.1085 81.2545V82.0821C83.5909 81.4579 85.1837 81.1373 86.7925 81.1394C89.5398 81.1351 92.2054 82.0723 94.3442 83.7945C95.3672 82.4431 96.6647 81.3229 98.1515 80.5074C99.6383 79.6918 101.281 79.1993 102.972 79.0622H102.972ZM91.9141 83.9675C92.4791 84.2813 93.0116 84.6447 93.5066 85.0539C92.4516 86.8803 91.8979 88.9523 91.9013 91.0608V97.4679C89.8448 93.767 85.8931 91.2624 81.3552 91.2624C79.6009 91.26 77.8674 91.6417 76.2766 92.3804C76.6833 86.9348 81.2362 82.6441 86.7925 82.6441C88.6531 82.6441 90.3985 83.1241 91.9149 83.9675H91.9141Z" fill="#FFDB69"/>
<path fill-rule="evenodd" clip-rule="evenodd" d="M93.4079 118.341C94.8581 117.722 96.4191 117.404 97.9962 117.406C104.444 117.406 109.672 122.628 109.672 129.068V140.546C111.704 141.643 113.379 143.297 114.5 145.313V114.358H116.007V159.5H114.5V151.145V151.137C114.495 145.324 109.776 140.612 103.954 140.612C98.1295 140.612 93.4079 145.328 93.4079 151.145V159.5H91.9013V135.463C91.9013 129.646 87.1797 124.93 81.3552 124.93C75.5308 124.93 70.8092 129.646 70.8092 135.463V159.5H69.3026V135.463C69.3026 134.914 69.3395 134.374 69.4103 133.845H69.3026V114.358H70.8092V129.631C72.8657 125.93 76.8174 123.425 81.3552 123.425C83.4343 123.425 85.3906 123.951 87.0976 124.877C88.0234 122.484 89.7112 120.46 91.9013 119.119V114.358H93.4079V118.341ZM93.4079 135.463C93.4079 131.442 91.4343 127.881 88.4008 125.695C89.7936 121.743 93.5646 118.911 97.9962 118.911C103.613 118.911 108.166 123.458 108.166 129.068V139.863C106.818 139.362 105.392 139.106 103.954 139.108C99.4161 139.108 95.4644 141.613 93.4079 145.313V135.462V135.463Z" fill="#FFDB69"/>
<path fill-rule="evenodd" clip-rule="evenodd" d="M93.4079 163.761C98.2545 163.927 102.374 166.951 104.13 171.196C108.594 171.26 112.471 173.748 114.5 177.401V159.5H116.007V204.642H114.5V183.233C114.5 177.416 109.778 172.7 103.954 172.7C98.1295 172.7 93.4079 177.416 93.4079 183.233V204.642H91.9013V201.992C91.9013 196.174 87.1797 191.459 81.3552 191.459C75.5308 191.459 70.8092 196.174 70.8092 201.992V204.642H69.3026V159.5H70.8092V196.159C72.8016 192.574 76.5741 190.11 80.9342 189.961V175.792C80.9342 169.509 85.7537 164.35 91.9013 163.802V159.5H93.4079V163.761ZM92.9868 165.258C97.1939 165.258 100.827 167.719 102.52 171.28C96.5385 171.988 91.9013 177.069 91.9013 183.233V196.159C90.0105 192.757 86.5183 190.366 82.4407 190.002V175.792C82.4407 169.974 87.1624 165.259 92.9868 165.259V165.258Z" fill="#FFDB69"/>
<path fill-rule="evenodd" clip-rule="evenodd" d="M92.6546 204.642C85.9978 204.642 80.602 210.031 80.602 216.679V218.271C77.0901 220.375 74.7399 224.214 74.7399 228.601H74.831C73.1575 229.68 71.7762 231.154 70.8092 232.893V204.787H69.3026V249.928H70.8092V238.726C70.8092 232.908 75.5308 228.193 81.3552 228.193C87.1797 228.193 91.9013 232.908 91.9013 238.726V249.928H93.4079V226.485C93.4079 220.668 98.1295 215.952 103.954 215.952C109.778 215.952 114.5 220.668 114.5 226.485V249.928H116.007V204.787H114.5V220.653C112.527 217.102 108.809 214.652 104.502 214.46C103.46 208.871 98.5528 204.642 92.6546 204.642ZM102.972 214.487C101.962 209.722 97.725 206.146 92.6546 206.146C86.8302 206.146 82.1085 210.862 82.1085 216.679V217.507C83.5909 216.883 85.1837 216.562 86.7925 216.564C89.5398 216.56 92.2054 217.497 94.3442 219.219C95.3672 217.868 96.6647 216.748 98.1515 215.932C99.6383 215.117 101.281 214.624 102.972 214.487H102.972ZM91.9141 219.392C92.4791 219.706 93.0116 220.069 93.5066 220.479C92.4516 222.305 91.8979 224.377 91.9013 226.486V232.893C89.8448 229.192 85.8931 226.687 81.3552 226.687C79.6009 226.685 77.8674 227.066 76.2766 227.805C76.6833 222.36 81.2362 218.069 86.7925 218.069C88.6531 218.069 90.3985 218.549 91.9149 219.392H91.9141Z" fill="#FFDB69"/>
<path fill-rule="evenodd" clip-rule="evenodd" d="M92.6546 295.071C99.3114 295.071 104.707 289.681 104.707 283.033V281.441C108.219 279.337 110.569 275.497 110.569 271.11H110.478C113.804 268.968 116.007 265.234 116.007 260.986V249.784H114.5V260.987C114.5 266.804 109.778 271.52 103.954 271.52C98.1295 271.52 93.4079 266.804 93.4079 260.987V249.783H91.9013V273.227C91.9013 279.044 87.1797 283.76 81.3552 283.76C75.5308 283.76 70.8092 279.044 70.8092 273.227V249.783H69.3026V273.227C69.3026 279.691 74.4046 284.966 80.8061 285.252C81.8494 290.84 86.7571 295.071 92.6546 295.071ZM82.3368 285.225C83.3462 289.99 87.5827 293.566 92.6546 293.566C98.479 293.566 103.201 288.85 103.201 283.033V282.205C101.718 282.83 100.125 283.15 98.5167 283.148C95.7694 283.152 93.1037 282.215 90.965 280.493C89.9418 281.844 88.6443 282.965 87.1573 283.78C85.6704 284.596 84.0276 285.088 82.3368 285.225V285.225ZM93.3951 280.32C92.8322 280.007 92.2992 279.643 91.8026 279.234C92.8575 277.407 93.4113 275.335 93.4079 273.227V266.819C95.4644 270.52 99.4161 273.024 103.954 273.024C105.708 273.027 107.442 272.646 109.033 271.907C108.626 277.352 104.073 281.643 98.5167 281.643C96.6561 281.643 94.9107 281.163 93.3943 280.32H93.3951Z" fill="#FFDB69"/>
<path fill-rule="evenodd" clip-rule="evenodd" d="M138.184 28.3291C131.528 28.3291 126.132 33.7182 126.132 40.3668V47.5925C119.671 47.8137 114.5 53.1163 114.5 59.6227V69.2168H116.007V59.6235C116.007 53.8062 120.728 49.0904 126.553 49.0904C132.377 49.0904 137.099 53.8062 137.099 59.6235V69.2168H138.605V47.8077C138.605 41.9904 143.327 37.2746 149.151 37.2746C154.976 37.2746 159.697 41.9904 159.697 47.8077V69.2168H161.204V47.8077C161.204 41.2185 155.903 35.8655 149.328 35.7714C147.52 31.404 143.212 28.3291 138.184 28.3291ZM147.717 35.8549C146.024 32.294 142.391 29.8338 138.184 29.8338C132.36 29.8338 127.638 34.5496 127.638 40.3668V47.6339C131.716 47.9973 135.209 50.389 137.099 53.7912V47.8077C137.099 41.6443 141.737 36.5629 147.717 35.8549Z" fill="#FFDB69"/>
<path fill-rule="evenodd" clip-rule="evenodd" d="M138.605 73.1998C140.055 72.5808 141.616 72.2626 143.194 72.2646C149.642 72.2646 154.87 77.486 154.87 83.9262V95.4049C156.901 96.5016 158.576 98.1556 159.697 100.172V69.2168H161.204V114.358H159.697V106.003V105.996C159.693 100.182 154.973 95.4703 149.151 95.4703C143.327 95.4703 138.605 100.187 138.605 106.003V114.358H137.099V90.3212C137.099 84.504 132.377 79.7882 126.553 79.7882C120.728 79.7882 116.007 84.504 116.007 90.3212V114.358H114.5V90.3212C114.5 89.772 114.537 89.2325 114.608 88.7036H114.5V69.2168H116.007V84.4897C118.063 80.7881 122.015 78.2835 126.553 78.2835C128.632 78.2835 130.588 78.8094 132.295 79.7355C133.221 77.3419 134.909 75.3186 137.099 73.977V69.2168H138.605V73.1998ZM138.605 90.3212C138.605 86.3006 136.632 82.7397 133.598 80.5533C134.991 76.6012 138.762 73.7693 143.194 73.7693C148.81 73.7693 153.363 78.3166 153.363 83.9262V94.7218C152.016 94.2206 150.589 93.9647 149.151 93.9664C144.614 93.9664 140.662 96.471 138.605 100.172V90.3205V90.3212Z" fill="#FFDB69"/>
<path fill-rule="evenodd" clip-rule="evenodd" d="M138.605 118.341C140.055 117.722 141.616 117.404 143.194 117.406C149.642 117.406 154.87 122.628 154.87 129.068V140.546C156.901 141.643 158.576 143.297 159.697 145.313V114.358H161.204V159.5H159.697V151.145V151.137C159.693 145.324 154.973 140.612 149.151 140.612C143.327 140.612 138.605 145.328 138.605 151.145V159.5H137.099V135.463C137.099 129.646 132.377 124.93 126.553 124.93C120.728 124.93 116.007 129.646 116.007 135.463V159.5H114.5V135.463C114.5 134.914 114.537 134.374 114.608 133.845H114.5V114.358H116.007V129.631C118.063 125.93 122.015 123.425 126.553 123.425C128.632 123.425 130.588 123.951 132.295 124.877C133.221 122.484 134.909 120.46 137.099 119.119V114.358H138.605V118.341ZM138.605 135.463C138.605 131.442 136.632 127.881 133.598 125.695C134.991 121.743 138.762 118.911 143.194 118.911C148.81 118.911 153.363 123.458 153.363 129.068V139.863C152.016 139.362 150.589 139.106 149.151 139.108C144.614 139.108 140.662 141.613 138.605 145.313V135.462V135.463Z" fill="#FFDB69"/>
<path fill-rule="evenodd" clip-rule="evenodd" d="M138.605 173.795C138.605 167.885 134.342 162.971 128.719 161.951C130.063 161.326 131.529 161.002 133.012 161.005C138.629 161.005 143.181 165.552 143.181 171.162V194.017C141.262 195.114 139.679 196.714 138.605 198.644V173.795ZM149.151 192.439C147.575 192.439 146.068 192.741 144.688 193.291V171.162C144.688 166.745 142.229 162.902 138.605 160.922V159.5H137.099V160.234C135.791 159.747 134.407 159.498 133.012 159.5C130.523 159.496 128.099 160.29 126.095 161.765C121.75 161.928 117.993 164.387 116.007 167.963V159.5H114.5V204.612H116.007V173.795C116.007 167.978 120.728 163.262 126.553 163.262C132.377 163.262 137.099 167.978 137.099 173.795V204.642H138.605V204.477C138.605 198.66 143.327 193.944 149.151 193.944C154.976 193.944 159.697 198.66 159.697 204.477V204.642H161.204V159.5H159.697V198.645C157.641 194.944 153.689 192.439 149.151 192.439Z" fill="#FFDB69"/>
<path fill-rule="evenodd" clip-rule="evenodd" d="M137.852 204.642C131.195 204.642 125.799 210.031 125.799 216.679V218.271C122.288 220.375 119.937 224.214 119.937 228.601H120.028C118.355 229.68 116.974 231.154 116.007 232.893V204.787H114.5V249.928H116.007V238.726C116.007 232.908 120.728 228.193 126.553 228.193C132.377 228.193 137.099 232.908 137.099 238.726V249.928H138.605V226.485C138.605 220.668 143.327 215.952 149.151 215.952C154.976 215.952 159.697 220.668 159.697 226.485V249.928H161.204V204.787H159.697V220.653C157.725 217.102 154.006 214.652 149.7 214.46C148.657 208.871 143.75 204.642 137.852 204.642ZM148.17 214.487C147.16 209.722 142.922 206.146 137.852 206.146C132.028 206.146 127.306 210.862 127.306 216.679V217.507C128.788 216.883 130.381 216.562 131.99 216.564C134.737 216.56 137.403 217.497 139.542 219.219C140.565 217.868 141.862 216.748 143.349 215.932C144.836 215.117 146.478 214.624 148.169 214.487H148.17ZM137.111 219.392C137.676 219.706 138.209 220.069 138.704 220.479C137.649 222.305 137.095 224.377 137.099 226.486V232.893C135.042 229.192 131.09 226.687 126.553 226.687C124.798 226.685 123.065 227.066 121.474 227.805C121.881 222.36 126.434 218.069 131.99 218.069C133.851 218.069 135.596 218.549 137.112 219.392H137.111Z" fill="#FFDB69"/>
<path fill-rule="evenodd" clip-rule="evenodd" d="M142.015 290.671C148.671 290.671 154.067 285.282 154.067 278.633V260.319C158.231 258.629 161.168 254.549 161.168 249.783H159.661C159.661 255.23 155.24 259.646 149.787 259.646H148.443C142.989 259.646 138.568 255.23 138.568 249.783H137.062V274.378C137.062 280.196 132.34 284.911 126.516 284.911C120.691 284.911 115.97 280.196 115.97 274.378V249.783H114.463V274.378C114.463 281.027 119.86 286.416 126.516 286.416C128.444 286.416 130.267 285.964 131.884 285.159C134.03 288.475 137.765 290.671 142.014 290.671H142.015ZM133.191 284.404C134.149 285.867 135.458 287.069 136.999 287.901C138.54 288.732 140.263 289.167 142.015 289.166C147.839 289.166 152.561 284.45 152.561 278.633V260.81C151.653 261.037 150.722 261.151 149.786 261.151H148.444C144.22 261.151 140.533 258.852 138.569 255.439V274.378C138.569 278.561 136.433 282.246 133.191 284.403V284.404Z" fill="#FFDB69"/>
<path fill-rule="evenodd" clip-rule="evenodd" d="M183.382 28.3291C176.725 28.3291 171.329 33.7182 171.329 40.3668V47.5925C164.868 47.8137 159.697 53.1163 159.697 59.6227V69.2168H161.204V59.6235C161.204 53.8062 165.926 49.0904 171.75 49.0904C177.574 49.0904 182.296 53.8062 182.296 59.6235V69.2168H183.803V47.8077C183.803 41.9904 188.524 37.2746 194.349 37.2746C200.173 37.2746 204.895 41.9904 204.895 47.8077V69.2168H206.401V47.8077C206.401 41.2185 201.1 35.8655 194.525 35.7714C192.717 31.404 188.41 28.3291 183.382 28.3291ZM192.914 35.8549C191.222 32.294 187.589 29.8338 183.382 29.8338C177.557 29.8338 172.836 34.5496 172.836 40.3668V47.6339C176.913 47.9973 180.406 50.389 182.296 53.7912V47.8077C182.296 41.6443 186.934 36.5629 192.914 35.8549Z" fill="#FFDB69"/>
<path fill-rule="evenodd" clip-rule="evenodd" d="M183.803 72.2473C185.34 71.5665 187.004 71.2158 188.686 71.2181C194.432 71.2181 199.238 75.2334 200.447 80.6075C202.31 81.7017 203.845 83.2738 204.895 85.1608V69.2168H206.401V114.358H204.895V90.9931C204.895 85.1758 200.173 80.46 194.349 80.46C188.524 80.46 183.803 85.1758 183.803 90.9931V114.358H182.296V110.568C182.296 104.751 177.574 100.035 171.75 100.035C165.926 100.035 161.204 104.751 161.204 110.568V114.358H159.697V69.2168H161.204V104.736C162.114 103.1 163.391 101.698 164.935 100.638V92.8461C164.935 86.2329 170.275 80.8648 176.883 80.8084C177.215 79.217 177.865 77.709 178.795 76.3752C179.726 75.0414 180.916 73.9093 182.296 73.0471V69.2168H183.803V72.2473ZM184.785 83.6666C182.98 82.1326 180.761 81.1666 178.407 80.8904C179.482 76.213 183.678 72.7228 188.686 72.7228C193.275 72.7228 197.18 75.6495 198.63 79.737C197.262 79.2186 195.811 78.9537 194.349 78.9553C192.499 78.9538 190.674 79.378 189.016 80.1951C187.357 81.0121 185.909 82.2001 184.785 83.6666ZM176.988 82.3123C179.651 82.3123 182.081 83.2979 183.938 84.923C182.859 86.7645 182.293 88.8603 182.296 90.9938V104.736C180.24 101.035 176.288 98.5302 171.75 98.5302C169.845 98.5302 168.044 98.9718 166.442 99.758V92.8461C166.442 87.0289 171.163 82.3131 176.988 82.3131L176.988 82.3123Z" fill="#FFDB69"/>
<path fill-rule="evenodd" clip-rule="evenodd" d="M183.049 114.358C176.393 114.358 170.997 119.748 170.997 126.396V127.988C167.485 130.092 165.135 133.931 165.135 138.318H165.226C163.552 139.397 162.171 140.871 161.204 142.609V114.504H159.697V159.645H161.204V148.442C161.204 142.625 165.926 137.909 171.75 137.909C177.574 137.909 182.296 142.625 182.296 148.442V159.645H183.803V136.202C183.803 130.385 188.524 125.669 194.349 125.669C200.173 125.669 204.895 130.385 204.895 136.202V159.645H206.401V114.504H204.895V130.37C202.922 126.819 199.204 124.369 194.897 124.177C193.855 118.588 188.948 114.358 183.049 114.358ZM193.367 124.204C192.357 119.439 188.12 115.863 183.049 115.863C177.225 115.863 172.503 120.579 172.503 126.396V127.224C173.986 126.599 175.579 126.279 177.187 126.281C179.935 126.277 182.6 127.214 184.739 128.936C185.762 127.585 187.059 126.465 188.546 125.649C190.033 124.833 191.676 124.341 193.366 124.204H193.367ZM182.309 129.109C182.874 129.423 183.406 129.786 183.901 130.196C182.846 132.022 182.293 134.094 182.296 136.202V142.609C180.24 138.909 176.288 136.404 171.75 136.404C169.996 136.402 168.262 136.783 166.671 137.522C167.078 132.076 171.631 127.786 177.187 127.786C179.048 127.786 180.793 128.266 182.31 129.109H182.309Z" fill="#FFDB69"/>
<path fill-rule="evenodd" clip-rule="evenodd" d="M183.049 159.5C176.393 159.5 170.997 164.889 170.997 171.538V173.13C167.485 175.233 165.135 179.073 165.135 183.46H165.226C163.552 184.538 162.171 186.012 161.204 187.751V159.645H159.697V204.787H161.204V193.584C161.204 187.766 165.926 183.051 171.75 183.051C177.574 183.051 182.296 187.766 182.296 193.584V204.787H183.803V181.343C183.803 175.527 188.524 170.81 194.349 170.81C200.173 170.81 204.895 175.527 204.895 181.343V204.787H206.401V159.645H204.895V175.512C202.922 171.961 199.204 169.511 194.897 169.318C193.855 163.73 188.948 159.5 183.049 159.5ZM193.367 169.345C192.357 164.581 188.12 161.005 183.049 161.005C177.225 161.005 172.503 165.72 172.503 171.538V172.365C173.986 171.741 175.579 171.42 177.187 171.423C179.935 171.418 182.6 172.355 184.739 174.078C185.762 172.726 187.059 171.606 188.546 170.791C190.033 169.975 191.676 169.483 193.366 169.345H193.367ZM182.309 174.251C182.874 174.564 183.406 174.928 183.901 175.337C182.846 177.163 182.293 179.236 182.296 181.344V187.751C180.24 184.05 176.288 181.546 171.75 181.546C169.996 181.543 168.262 181.925 166.671 182.664C167.078 177.218 171.631 172.927 177.187 172.927C179.048 172.927 180.793 173.407 182.31 174.251H182.309Z" fill="#FFDB69"/>
<path fill-rule="evenodd" clip-rule="evenodd" d="M183.803 209.955C185.921 210.911 187.718 212.457 188.98 214.407C190.648 213.578 192.486 213.148 194.349 213.151C198.887 213.151 202.838 215.655 204.895 219.355V204.642H206.401V249.783H204.895V225.189C204.895 219.371 200.173 214.655 194.349 214.655C188.524 214.655 183.803 219.371 183.803 225.189V249.783H182.296C182.296 244.336 177.875 239.92 172.421 239.92H171.08C165.625 239.92 161.204 244.337 161.204 249.783H159.697V204.642H161.204V244.128C162.472 241.924 164.441 240.206 166.798 239.247V220.933C166.798 214.285 172.194 208.895 178.851 208.895C180.048 208.895 181.205 209.07 182.296 209.394V204.642H183.803V209.955ZM178.851 210.4C182.542 210.4 185.79 212.293 187.675 215.163C184.432 217.32 182.296 221.005 182.296 225.188V244.128C180.332 240.714 176.646 238.416 172.421 238.416H171.08C170.123 238.416 169.193 238.534 168.305 238.756V220.932C168.305 215.116 173.027 210.399 178.851 210.399L178.851 210.4Z" fill="#FFDB69"/>
<path fill-rule="evenodd" clip-rule="evenodd" d="M179.634 287.802C177.446 289.697 174.646 290.738 171.75 290.734C165.093 290.734 159.697 285.344 159.697 278.696V249.783H161.204V278.696C161.204 284.514 165.926 289.229 171.75 289.229C177.574 289.229 182.296 284.514 182.296 278.696V249.783H183.803V255.012C183.803 260.829 188.524 265.545 194.349 265.545C200.173 265.545 204.895 260.829 204.895 255.012V249.783H206.401V255.012C206.401 260.413 202.839 264.984 197.933 266.508V277.505C197.933 284.153 192.536 289.542 185.88 289.542C183.678 289.546 181.517 288.944 179.634 287.802ZM180.747 286.708C182.316 287.583 184.083 288.041 185.88 288.038C191.705 288.038 196.426 283.322 196.426 277.505V266.871C195.751 266.988 195.057 267.049 194.349 267.049C189.811 267.049 185.859 264.544 183.803 260.844V278.697C183.807 281.652 182.719 284.505 180.747 286.708Z" fill="#FFDB69"/>
</g>
</svg>
