<svg width="229" height="319" viewBox="0 0 229 319" fill="none" xmlns="http://www.w3.org/2000/svg">
<mask id="mask0" mask-type="alpha" maskUnits="userSpaceOnUse" x="24" y="24" width="181" height="271">
<path d="M204.895 24.0752H24.1052V294.924H204.895V24.0752Z" fill="white"/>
</mask>
<g mask="url(#mask0)">
<path d="M46.704 57.9321C52.9445 57.9321 58.0033 52.8794 58.0033 46.6467C58.0033 40.414 52.9445 35.3613 46.704 35.3613C40.4636 35.3613 35.4047 40.414 35.4047 46.6467C35.4047 52.8794 40.4636 57.9321 46.704 57.9321Z" fill="#FF5263"/>
<path d="M46.704 103.073C52.9445 103.073 58.0033 98.0201 58.0033 91.7873C58.0033 85.5546 52.9445 80.502 46.704 80.502C40.4636 80.502 35.4047 85.5546 35.4047 91.7873C35.4047 98.0201 40.4636 103.073 46.704 103.073Z" fill="white"/>
<path d="M46.704 148.214C52.9445 148.214 58.0033 143.162 58.0033 136.929C58.0033 130.696 52.9445 125.644 46.704 125.644C40.4636 125.644 35.4047 130.696 35.4047 136.929C35.4047 143.162 40.4636 148.214 46.704 148.214Z" fill="#FCBD01"/>
<path d="M46.704 193.356C52.9445 193.356 58.0033 188.303 58.0033 182.071C58.0033 175.838 52.9445 170.785 46.704 170.785C40.4636 170.785 35.4047 175.838 35.4047 182.071C35.4047 188.303 40.4636 193.356 46.704 193.356Z" fill="#796EFF"/>
<path d="M46.704 238.497C52.9445 238.497 58.0033 233.445 58.0033 227.212C58.0033 220.979 52.9445 215.927 46.704 215.927C40.4636 215.927 35.4047 220.979 35.4047 227.212C35.4047 233.445 40.4636 238.497 46.704 238.497Z" fill="#FF5263"/>
<path d="M46.704 283.639C52.9445 283.639 58.0033 278.586 58.0033 272.354C58.0033 266.121 52.9445 261.068 46.704 261.068C40.4636 261.068 35.4047 266.121 35.4047 272.354C35.4047 278.586 40.4636 283.639 46.704 283.639Z" fill="#796EFF"/>
<path d="M91.9013 57.9321C98.1417 57.9321 103.201 52.8794 103.201 46.6467C103.201 40.414 98.1417 35.3613 91.9013 35.3613C85.6608 35.3613 80.6019 40.414 80.6019 46.6467C80.6019 52.8794 85.6608 57.9321 91.9013 57.9321Z" fill="#FCBD01"/>
<path d="M91.9013 103.073C98.1417 103.073 103.201 98.0201 103.201 91.7873C103.201 85.5546 98.1417 80.502 91.9013 80.502C85.6608 80.502 80.6019 85.5546 80.6019 91.7873C80.6019 98.0201 85.6608 103.073 91.9013 103.073Z" fill="#14AAF5"/>
<path d="M91.9013 148.214C98.1417 148.214 103.201 143.162 103.201 136.929C103.201 130.696 98.1417 125.644 91.9013 125.644C85.6608 125.644 80.6019 130.696 80.6019 136.929C80.6019 143.162 85.6608 148.214 91.9013 148.214Z" fill="#14AAF5"/>
<path d="M91.9013 193.356C98.1417 193.356 103.201 188.303 103.201 182.071C103.201 175.838 98.1417 170.785 91.9013 170.785C85.6608 170.785 80.6019 175.838 80.6019 182.071C80.6019 188.303 85.6608 193.356 91.9013 193.356Z" fill="white"/>
<path d="M91.9013 238.497C98.1417 238.497 103.201 233.445 103.201 227.212C103.201 220.979 98.1417 215.927 91.9013 215.927C85.6608 215.927 80.6019 220.979 80.6019 227.212C80.6019 233.445 85.6608 238.497 91.9013 238.497Z" fill="#14AAF5"/>
<path d="M91.9013 283.639C98.1417 283.639 103.201 278.586 103.201 272.354C103.201 266.121 98.1417 261.068 91.9013 261.068C85.6608 261.068 80.6019 266.121 80.6019 272.354C80.6019 278.586 85.6608 283.639 91.9013 283.639Z" fill="white"/>
<path d="M137.099 57.9321C143.339 57.9321 148.398 52.8794 148.398 46.6467C148.398 40.414 143.339 35.3613 137.099 35.3613C130.858 35.3613 125.799 40.414 125.799 46.6467C125.799 52.8794 130.858 57.9321 137.099 57.9321Z" fill="#14AAF5"/>
<path d="M137.099 103.073C143.339 103.073 148.398 98.0201 148.398 91.7873C148.398 85.5546 143.339 80.502 137.099 80.502C130.858 80.502 125.799 85.5546 125.799 91.7873C125.799 98.0201 130.858 103.073 137.099 103.073Z" fill="#796EFF"/>
<path d="M137.099 148.214C143.339 148.214 148.398 143.162 148.398 136.929C148.398 130.696 143.339 125.644 137.099 125.644C130.858 125.644 125.799 130.696 125.799 136.929C125.799 143.162 130.858 148.214 137.099 148.214Z" fill="#FF5263"/>
<path d="M137.099 193.356C143.339 193.356 148.398 188.303 148.398 182.071C148.398 175.838 143.339 170.785 137.099 170.785C130.858 170.785 125.799 175.838 125.799 182.071C125.799 188.303 130.858 193.356 137.099 193.356Z" fill="#F0F2F3"/>
<path d="M137.099 238.497C143.339 238.497 148.398 233.445 148.398 227.212C148.398 220.979 143.339 215.927 137.099 215.927C130.858 215.927 125.799 220.979 125.799 227.212C125.799 233.445 130.858 238.497 137.099 238.497Z" fill="#14AAF5"/>
<path d="M137.099 283.639C143.339 283.639 148.398 278.586 148.398 272.354C148.398 266.121 143.339 261.068 137.099 261.068C130.858 261.068 125.799 266.121 125.799 272.354C125.799 278.586 130.858 283.639 137.099 283.639Z" fill="#FF5263"/>
<path d="M182.296 57.9321C188.536 57.9321 193.595 52.8794 193.595 46.6467C193.595 40.414 188.536 35.3613 182.296 35.3613C176.056 35.3613 170.997 40.414 170.997 46.6467C170.997 52.8794 176.056 57.9321 182.296 57.9321Z" fill="#FF5263"/>
<path d="M182.296 103.073C188.536 103.073 193.595 98.0201 193.595 91.7873C193.595 85.5546 188.536 80.502 182.296 80.502C176.056 80.502 170.997 85.5546 170.997 91.7873C170.997 98.0201 176.056 103.073 182.296 103.073Z" fill="white"/>
<path d="M182.296 148.214C188.536 148.214 193.595 143.162 193.595 136.929C193.595 130.696 188.536 125.644 182.296 125.644C176.056 125.644 170.997 130.696 170.997 136.929C170.997 143.162 176.056 148.214 182.296 148.214Z" fill="#F0F2F3"/>
<path d="M182.296 193.356C188.536 193.356 193.595 188.303 193.595 182.071C193.595 175.838 188.536 170.785 182.296 170.785C176.056 170.785 170.997 175.838 170.997 182.071C170.997 188.303 176.056 193.356 182.296 193.356Z" fill="#796EFF"/>
<path d="M182.296 238.497C188.536 238.497 193.595 233.445 193.595 227.212C193.595 220.979 188.536 215.927 182.296 215.927C176.056 215.927 170.997 220.979 170.997 227.212C170.997 233.445 176.056 238.497 182.296 238.497Z" fill="#FCBD01"/>
<path d="M182.296 283.639C188.536 283.639 193.595 278.586 193.595 272.354C193.595 266.121 188.536 261.068 182.296 261.068C176.056 261.068 170.997 266.121 170.997 272.354C170.997 278.586 176.056 283.639 182.296 283.639Z" fill="#14AAF5"/>
</g>
</svg>
