<svg width="229" height="319" viewBox="0 0 229 319" fill="none" xmlns="http://www.w3.org/2000/svg">
<mask id="mask0" mask-type="alpha" maskUnits="userSpaceOnUse" x="24" y="24" width="181" height="271">
<path d="M204.895 24.0752H24.1053V294.924H204.895V24.0752Z" fill="white"/>
</mask>
<g mask="url(#mask0)">
<path d="M38.5888 47.1096C38.5888 43.227 35.4374 40.0796 31.55 40.0796C27.6626 40.0796 24.5113 43.227 24.5113 47.1096C24.5113 50.9922 27.6626 54.1396 31.55 54.1396C35.4374 54.1396 38.5888 50.9922 38.5888 47.1096Z" fill="#006EAB"/>
<path d="M43.2155 46.9346C43.2155 46.1201 42.5544 45.4599 41.739 45.4599C40.9236 45.4599 40.2626 46.1201 40.2626 46.9346C40.2626 47.749 40.9236 48.4092 41.739 48.4092C42.5544 48.4092 43.2155 47.749 43.2155 46.9346Z" fill="#6E9E80"/>
<path d="M64.569 65.0522C64.569 63.9781 63.6972 63.1074 62.6217 63.1074C61.5463 63.1074 60.6745 63.9781 60.6745 65.0522C60.6745 66.1263 61.5463 66.9971 62.6217 66.9971C63.6972 66.9971 64.569 66.1263 64.569 65.0522Z" fill="#6E9E80"/>
<path d="M33.715 57.8295L34.246 66.6674L48.7167 68.1797L51.0572 59.7743L44.7748 49.6115L33.715 57.8295Z" fill="#F45B45"/>
<path d="M25.1825 60.9611L31.437 57.814L32.2483 68.4004L25.1825 60.9611Z" fill="#D6CFB6"/>
<path d="M58.0522 67.9502L46.5058 64.8384L48.6135 49.0043L62.5426 52.025L58.053 67.9502H58.0522Z" fill="#482728"/>
<path d="M40.7228 39.6715L46.8245 48.3643L48.4697 37.9764L40.7221 39.673L40.7228 39.6715Z" fill="#006EAB"/>
<path d="M45.7699 33.4518L30.6348 37.0947L31.6381 24.8915L45.7699 33.4518Z" fill="#D6CFB6"/>
<path d="M51.4693 46.1693L57.9626 47.5732L52.5028 36.895L51.4693 46.1693Z" fill="#F19A00"/>
<path d="M59.5332 24.8918L68.8966 31.3914L65.3848 41.1631L60.4696 40.8825L54.5239 29.0065L59.5332 24.8918Z" fill="#482728"/>
<path d="M45.7699 26.9319L49.0143 30.4062L49.9137 25.9169L45.7706 26.9319H45.7699Z" fill="#D6CFB6"/>
<path d="M46.4975 93.2371L68.2879 94.2588L60.9223 72.0868L46.4975 93.2371Z" fill="#D6CFB6"/>
<path d="M56.2165 75.3561L48.441 85.0615L33.8121 80.1576L35.1424 71.1662L48.441 69.7352L56.2165 75.3553V75.3561Z" fill="#F45B45"/>
<path d="M51.7962 80.8691L56.2127 75.3566L48.4365 69.7365L42.9202 70.3301C45.8739 73.8472 48.8326 77.3603 51.7962 80.8691Z" fill="#D6CFB6"/>
<path d="M51.4195 81.3379L56.2127 75.3551L49.2493 70.3219C49.9446 73.8278 50.8643 78.4819 51.4203 81.3379H51.4195Z" fill="#D6CFB6"/>
<path d="M40.7688 85.369L47.009 87.1062L43.8377 91.6016L40.7688 85.369Z" fill="#F19A00"/>
<path d="M37.3955 102.331C37.3955 98.9451 34.6476 96.2005 31.2577 96.2005C27.8679 96.2005 25.1199 98.9451 25.1199 102.331C25.1199 105.716 27.8679 108.461 31.2577 108.461C34.6476 108.461 37.3955 105.716 37.3955 102.331Z" fill="#F45B45"/>
<path d="M42.9172 92.9304L32.4826 100.798L28.0834 91.0909L37.2908 83.8367L42.9172 92.9304Z" fill="#F45B45"/>
<path d="M33.0483 83.1726C33.0483 82.1849 32.2466 81.3842 31.2577 81.3842C30.2688 81.3842 29.4672 82.1849 29.4672 83.1726C29.4672 84.1603 30.2688 84.9609 31.2577 84.9609C32.2466 84.9609 33.0483 84.1603 33.0483 83.1726Z" fill="#D6CFB6"/>
<path d="M25.935 77.8083C27.4017 78.2507 30.4359 79.1776 30.8457 79.3408L31.5613 71.0649L25.935 77.8083Z" fill="#F19A00"/>
<path d="M60.3084 98.4843H41.6818L39.0061 110.566L53.1363 108.963L60.3084 98.485V98.4843Z" fill="#482728"/>
<path d="M58.7061 109.182C58.7061 106.61 56.6185 104.525 54.0432 104.525C51.468 104.525 49.3804 106.61 49.3804 109.182C49.3804 111.754 51.468 113.839 54.0432 113.839C56.6185 113.839 58.7061 111.754 58.7061 109.182Z" fill="#D6CFB6"/>
<path d="M63.7381 98.9675L59.7449 104.606L65.8028 108.044L63.7381 98.9675Z" fill="#D6CFB6"/>
<path d="M38.5888 137.393C38.5888 133.51 35.4374 130.363 31.55 130.363C27.6626 130.363 24.5113 133.51 24.5113 137.393C24.5113 141.275 27.6626 144.423 31.55 144.423C35.4374 144.423 38.5888 141.275 38.5888 137.393Z" fill="#006EAB"/>
<path d="M43.2155 137.218C43.2155 136.403 42.5544 135.743 41.739 135.743C40.9236 135.743 40.2626 136.403 40.2626 137.218C40.2626 138.032 40.9236 138.692 41.739 138.692C42.5544 138.692 43.2155 138.032 43.2155 137.218Z" fill="#006EAB"/>
<path d="M64.569 155.335C64.569 154.261 63.6972 153.391 62.6217 153.391C61.5463 153.391 60.6745 154.261 60.6745 155.335C60.6745 156.41 61.5463 157.28 62.6217 157.28C63.6972 157.28 64.569 156.41 64.569 155.335Z" fill="#482728"/>
<path d="M33.715 148.113L34.246 156.951L48.7167 158.463L51.0572 150.058L44.7748 139.895L33.715 148.113Z" fill="#F19A00"/>
<path d="M25.1825 151.244L31.437 148.097L32.2483 158.684L25.1825 151.244Z" fill="#F19A00"/>
<path d="M58.0522 158.233L46.5058 155.122L48.6135 139.288L62.5426 142.308L58.053 158.233H58.0522Z" fill="#6E9E80"/>
<path d="M40.7228 129.955L46.8245 138.647L48.4697 128.26L40.7221 129.956L40.7228 129.955Z" fill="#F19A00"/>
<path d="M45.7699 123.735L30.6348 127.378L31.6381 115.175L45.7699 123.735Z" fill="#006EAB"/>
<path d="M51.4693 136.453L57.9626 137.856L52.5028 127.178L51.4693 136.453Z" fill="#F45B45"/>
<path d="M59.5332 115.175L68.8966 121.675L65.3848 131.446L60.4696 131.166L54.5239 119.29L59.5332 115.175Z" fill="#482728"/>
<path d="M45.7699 117.215L49.0143 120.689L49.9137 116.2L45.7706 117.215H45.7699Z" fill="#006EAB"/>
<path d="M68.4461 186.524L61.4579 202.936L48.142 196.993L55.5076 180.393L68.4461 186.524V186.524Z" fill="#6E9E80"/>
<path d="M41.5537 204.252L46.3748 195.049L34.0803 201.612L41.5537 204.252Z" fill="#F19A00"/>
<path d="M48.832 179.479C45.2691 179.479 42.3808 182.364 42.3808 185.922C42.3808 189.481 45.2691 192.365 48.832 192.365C52.3949 192.365 55.2831 189.481 55.2831 185.922C55.2831 182.364 52.3949 179.479 48.832 179.479Z" fill="#482728"/>
<path d="M40.1179 192.784C39.2672 192.784 38.5775 193.473 38.5775 194.323C38.5775 195.172 39.2672 195.861 40.1179 195.861C40.9687 195.861 41.6584 195.172 41.6584 194.323C41.6584 193.473 40.9687 192.784 40.1179 192.784Z" fill="#D6CFB6"/>
<path d="M66.6074 200.857C66.0099 200.857 65.5256 201.341 65.5256 201.937C65.5256 202.534 66.0099 203.018 66.6074 203.018C67.2048 203.018 67.6891 202.534 67.6891 201.937C67.6891 201.341 67.2048 200.857 66.6074 200.857Z" fill="#D6CFB6"/>
<path d="M65.5189 175.3V181.808L59.0029 179.167L65.5181 175.3H65.5189Z" fill="#F19A00"/>
<path d="M57.5272 175.855L64.7046 171.611L67.4435 165.103L62.4379 160.292L46.9503 163.688L50.9163 174.913L57.5272 175.855Z" fill="#F45B45"/>
<path d="M40.4923 181.713V189.071L29.0649 192.372L29.7263 178.13L40.4923 181.713Z" fill="#D6CFB6"/>
<path d="M29.2743 187.863L29.7263 178.129L35.3202 179.991L32.4585 187.636L29.2743 187.863Z" fill="#F19A00"/>
<path d="M40.4923 184.859V181.714L32.1459 178.934C32.122 179.944 32.3463 180.943 32.7992 181.846C33.2521 182.748 33.9197 183.526 34.7436 184.111C35.5674 184.696 36.5224 185.07 37.5246 185.2C38.5269 185.331 39.5459 185.214 40.4923 184.859Z" fill="#F45B45"/>
<path d="M25.1116 195.934L33.7843 193.507L31.6238 199.553L25.1116 195.934Z" fill="#D6CFB6"/>
<path d="M47.7638 170.866L56.9864 165.011L34.3221 162.412L47.7638 170.866Z" fill="#6E9E80"/>
<path d="M31.6713 164.176L43.7985 171.773L40.6144 178.813L31.6713 164.175V164.176Z" fill="#F45B45"/>
<path d="M46.9503 175.098C46.2958 175.098 45.7653 175.628 45.7653 176.281C45.7653 176.935 46.2958 177.465 46.9503 177.465C47.6047 177.465 48.1352 176.935 48.1352 176.281C48.1352 175.628 47.6047 175.098 46.9503 175.098Z" fill="#006EAB"/>
<path d="M26.7915 168.073C25.8384 168.073 25.0657 168.845 25.0657 169.797C25.0657 170.749 25.8384 171.521 26.7915 171.521C27.7446 171.521 28.5173 170.749 28.5173 169.797C28.5173 168.845 27.7446 168.073 26.7915 168.073Z" fill="#D6CFB6"/>
<path d="M39.507 229.977L42.3748 247.495L26.1588 249.037L24.9452 232.07L39.5063 229.977H39.507Z" fill="#006EAB"/>
<path d="M25.8025 244.061L24.9452 232.07L29.6646 231.392C30.8916 232.813 31.5655 234.627 31.5629 236.503C31.5629 240.11 29.123 243.148 25.8025 244.061Z" fill="#6E9E80"/>
<path d="M25.9305 245.849C31.1116 243.73 38.1639 240.838 41.0852 239.621L42.3748 247.497L26.1588 249.039L25.9305 245.849Z" fill="#F45B45"/>
<path fill-rule="evenodd" clip-rule="evenodd" d="M35.3956 248.159L40.2965 234.802L42.3755 247.496L35.3956 248.159Z" fill="#D6CFB6"/>
<path d="M58.2459 234.351C54.1854 234.351 50.8937 237.639 50.8937 241.694C50.8937 245.75 54.1854 249.037 58.2459 249.037C62.3063 249.037 65.598 245.75 65.598 241.694C65.598 237.639 62.3063 234.351 58.2459 234.351Z" fill="#F45B45"/>
<path d="M46.8877 224.282C45.9263 224.282 45.1469 225.061 45.1469 226.021C45.1469 226.981 45.9263 227.76 46.8877 227.76C47.8492 227.76 48.6286 226.981 48.6286 226.021C48.6286 225.061 47.8492 224.282 46.8877 224.282Z" fill="#482728"/>
<path d="M51.0459 206.867C50.2026 206.867 49.519 207.55 49.519 208.392C49.519 209.234 50.2026 209.917 51.0459 209.917C51.8892 209.917 52.5728 209.234 52.5728 208.392C52.5728 207.55 51.8892 206.867 51.0459 206.867Z" fill="#6E9E80"/>
<path d="M53.592 229.339L45.2456 243.927L36.0201 233.507L53.592 229.339Z" fill="#F45B45"/>
<path d="M68.746 214.609V233.548L52.5269 223.066L59.6831 211.512L68.7452 214.609H68.746Z" fill="#006EAB"/>
<path d="M47.3043 220.492L49.519 213.224L39.501 210.592L47.3051 220.492H47.3043Z" fill="#F45B45"/>
<path d="M39.6306 225.045L42.3251 220.56L31.7467 210.593L24.662 216.872L27.0567 227.138L39.6306 225.045Z" fill="#F19A00"/>
<path d="M30.3425 206.141L25.4717 205.387L25.8107 209.757L30.3417 206.141H30.3425Z" fill="#6E9E80"/>
<path d="M24.5798 267.943L26.8389 252.458L39.6328 250.204L43.5462 259.976L35.8701 272.153L24.5798 267.943Z" fill="#006EAB"/>
<path d="M43.8897 275.766L40.8464 258.629L57.7381 256.222L43.8897 275.766Z" fill="#006EAB"/>
<path d="M40.1074 271.005L36.5345 275.548L42.0027 281.009L40.1074 271.006V271.005Z" fill="#482728"/>
<path d="M64.3076 262.993C66.8037 262.993 68.8273 260.972 68.8273 258.479C68.8273 255.986 66.8037 253.965 64.3076 253.965C61.8114 253.965 59.7878 255.986 59.7878 258.479C59.7878 260.972 61.8114 262.993 64.3076 262.993Z" fill="#D6CFB6"/>
<path d="M50.2233 254.697C51.0437 254.697 51.7088 254.033 51.7088 253.213C51.7088 252.394 51.0437 251.729 50.2233 251.729C49.4029 251.729 48.7378 252.394 48.7378 253.213C48.7378 254.033 49.4029 254.697 50.2233 254.697Z" fill="#006EAB"/>
<path d="M48.9623 289.041L45.3382 281.37L52.9314 270.511L62.8545 281.37L48.9623 289.041Z" fill="#006EAB"/>
<path d="M68.8281 281.385L55.5476 266.838L57.7645 263.852L68.6059 274.099L68.8266 281.385H68.8281Z" fill="#6E9E80"/>
<path d="M68.6638 275.852L56.0959 266.106L57.769 263.852L68.6103 274.099L68.6631 275.852L68.6638 275.852Z" fill="#F45B45"/>
<path d="M62.233 274.161L68.8273 281.384L68.6066 274.099L66.172 271.798C64.6541 272.179 63.2835 273.001 62.233 274.16V274.161ZM27.1237 281.408L26.9828 293.285L41.3352 294.504L35.0528 284.981L27.1244 281.408H27.1237Z" fill="#6E9E80"/>
<path d="M32.1406 284.781C34.2033 284.781 35.8754 283.111 35.8754 281.051C35.8754 278.99 34.2033 277.32 32.1406 277.32C30.0779 277.32 28.4058 278.99 28.4058 281.051C28.4058 283.111 30.0779 284.781 32.1406 284.781Z" fill="#006EAB"/>
<path d="M26.4555 275.396C27.2971 275.396 27.9794 274.714 27.9794 273.874C27.9794 273.033 27.2971 272.352 26.4555 272.352C25.6139 272.352 24.9316 273.033 24.9316 273.874C24.9316 274.714 25.6139 275.396 26.4555 275.396Z" fill="#006EAB"/>
<path d="M63.0194 286.318L55.4767 290.182L64.4883 291.797L63.0194 286.318Z" fill="#6E9E80"/>
<path d="M93.3522 46.8525L94.3751 25.0891L72.1757 32.4456L93.3522 46.8525Z" fill="#6E9E80"/>
<path d="M75.4495 37.1458L85.1669 44.9117L80.257 59.5225L71.2544 58.1938L69.8217 44.9117L75.4487 37.1458H75.4495Z" fill="#D6CFB6"/>
<path d="M80.9688 41.5607L75.4495 37.1497L69.8224 44.9163L70.4168 50.4258C73.9382 47.4757 77.4556 44.5207 80.9688 41.5607Z" fill="#482728"/>
<path d="M81.4381 41.936L75.448 37.1487L70.4085 44.1035C73.9188 43.4091 78.5787 42.4905 81.4381 41.9352V41.936Z" fill="#F19A00"/>
<path d="M85.475 52.5742L87.2144 46.3417L91.7153 49.5091L85.475 52.5742Z" fill="#482728"/>
<path d="M102.457 55.9427C99.0674 55.9427 96.3194 58.6873 96.3194 62.0729C96.3194 65.4585 99.0674 68.2031 102.457 68.2031C105.847 68.2031 108.595 65.4585 108.595 62.0729C108.595 58.6873 105.847 55.9427 102.457 55.9427Z" fill="#482728"/>
<path d="M93.0456 50.4287L100.923 60.8504L91.2038 65.2441L83.9406 56.0481L93.0456 50.4287Z" fill="#F19A00"/>
<path d="M83.2754 60.2846C82.2865 60.2846 81.4848 61.0853 81.4848 62.073C81.4848 63.0607 82.2865 63.8613 83.2754 63.8613C84.2643 63.8613 85.066 63.0607 85.066 62.073C85.066 61.0853 84.2643 60.2846 83.2754 60.2846Z" fill="#F45B45"/>
<path d="M77.9045 67.3896C78.3474 65.9248 79.2754 62.8943 79.4389 62.485L71.1527 61.7703L77.9045 67.3896Z" fill="#006EAB"/>
<path d="M98.6063 33.059V51.6626L110.703 54.335L109.098 40.2222L98.6071 33.059H98.6063Z" fill="#6E9E80"/>
<path d="M109.317 34.6594C106.742 34.6594 104.655 36.7445 104.655 39.3165C104.655 41.8886 106.742 43.9736 109.317 43.9736C111.893 43.9736 113.98 41.8886 113.98 39.3165C113.98 36.7445 111.893 34.6594 109.317 34.6594Z" fill="#D6CFB6"/>
<path d="M99.0899 29.6328L104.735 33.6211L108.178 27.5706L99.0899 29.6328Z" fill="#F45B45"/>
<path d="M100.899 109.807C105.993 109.807 110.123 105.682 110.123 100.595C110.123 95.5071 105.993 91.3828 100.899 91.3828C95.8055 91.3828 91.6761 95.5071 91.6761 100.595C91.6761 105.682 95.8055 109.807 100.899 109.807Z" fill="#006EAB"/>
<path d="M92.7111 78.6429C94.9053 78.6429 96.684 76.8664 96.684 74.675C96.684 72.4835 94.9053 70.707 92.7111 70.707C90.517 70.707 88.7383 72.4835 88.7383 74.675C88.7383 76.8664 90.517 78.6429 92.7111 78.6429Z" fill="#F45B45"/>
<path d="M110.359 113.392C111.605 113.392 112.615 112.384 112.615 111.139C112.615 109.895 111.605 108.886 110.359 108.886C109.113 108.886 108.103 109.895 108.103 111.139C108.103 112.384 109.113 113.392 110.359 113.392Z" fill="#F45B45"/>
<path d="M112.04 91.1685L101.876 94.9401L92.4037 81.1719L107.611 75.2178L113.556 80.5738L112.04 91.1685Z" fill="#6E9E80"/>
<path d="M96.3457 90.8809L93.1774 86.6865L89.9608 94.4193L96.3465 90.8809H96.3457Z" fill="#006EAB"/>
<path d="M72.7195 90.7846L70.2465 73.3397L79.5202 71.6416L72.7195 90.7839V90.7846Z" fill="#482728"/>
<path d="M78.6713 81.5225L74.8672 93.8672L85.1066 101.245L91.9819 83.6411L78.6713 81.5225Z" fill="#F19A00"/>
<path d="M90.4972 81.3898L80.0664 79.6466L82.5974 72.4111L90.4972 81.3898ZM74.1297 110.367V98.1508L82.0897 103.095L74.1297 110.367Z" fill="#482728"/>
<path d="M77.576 105.341V112.014L87.3025 113.619L94.4067 110.494L87.3025 104.58L77.576 105.341Z" fill="#F19A00"/>
<path d="M98.7653 157.931L112.805 153.889L114.155 144.407L102.513 137.17L88.7217 150.994L98.7653 157.931Z" fill="#D6CFB6"/>
<path d="M80.9477 155.41L88.6561 146.486L71.3116 139.487L69.6469 150.424L80.9485 155.41H80.9477Z" fill="#006EAB"/>
<path d="M87.6279 153.761L90.8972 156.438L83.1255 158.098L87.6279 153.761Z" fill="#D6CFB6"/>
<path d="M93.8569 132.55C90.026 132.55 86.9206 135.651 86.9206 139.478C86.9206 143.304 90.026 146.405 93.8569 146.405C97.6877 146.405 100.793 143.304 100.793 139.478C100.793 135.651 97.6877 132.55 93.8569 132.55Z" fill="#F19A00"/>
<path d="M86.9786 138.475C87.4652 135.124 90.3533 132.551 93.8426 132.551C95.0112 132.55 96.161 132.844 97.1851 133.406C98.2092 133.969 99.0744 134.78 99.7001 135.766L86.9778 138.475H86.9786Z" fill="#006EAB"/>
<path d="M90.9574 133.176C89.7523 133.73 88.7313 134.618 88.0157 135.733C87.3001 136.849 86.9198 138.146 86.9198 139.471C86.9175 141.094 87.488 142.666 88.5311 143.91C89.6263 143.616 90.6203 143.029 91.4058 142.212C92.1913 141.395 92.7384 140.379 92.9881 139.275C93.2377 138.17 93.1805 137.018 92.8225 135.943C92.4645 134.868 91.8193 133.912 90.9567 133.176H90.9574Z" fill="#D6CFB6"/>
<path d="M76.0687 120.404C75.0739 120.404 74.2675 121.21 74.2675 122.203C74.2675 123.197 75.0739 124.002 76.0687 124.002C77.0634 124.002 77.8698 123.197 77.8698 122.203C77.8698 121.21 77.0634 120.404 76.0687 120.404Z" fill="#6E9E80"/>
<path d="M84.159 123.269L91.9736 125.851L84.6878 132.247L84.159 123.269Z" fill="#482728"/>
<path d="M82.101 123.312C82.101 123.312 83.3101 139.419 83.3101 139.821L69.8036 133.881L82.101 123.312Z" fill="#F45B45"/>
<path d="M87.4434 122.606L109.72 128.646L113.147 115.76L84.3187 116.565L87.4434 122.607V122.606Z" fill="#F45B45"/>
<path d="M84.4362 141.634L85.4275 134.284L76.4558 138.445L84.4362 141.634ZM113.875 133.136L113.344 137.959L103.819 132.386L113.875 133.136Z" fill="#F19A00"/>
<path d="M109.943 173.083C109.943 167.995 105.814 163.871 100.72 163.871C95.6262 163.871 91.4968 167.995 91.4968 173.083C91.4968 178.171 95.6262 182.295 100.72 182.295C105.814 182.295 109.943 178.171 109.943 173.083Z" fill="#F45B45"/>
<path d="M78.7406 181.262C78.7406 179.07 76.9619 177.294 74.7677 177.294C72.5736 177.294 70.7949 179.07 70.7949 181.262C70.7949 183.453 72.5736 185.229 74.7677 185.229C76.9619 185.229 78.7406 183.453 78.7406 181.262Z" fill="#F45B45"/>
<path d="M113.534 163.635C113.534 162.391 112.523 161.382 111.277 161.382C110.031 161.382 109.021 162.391 109.021 163.635C109.021 164.88 110.031 165.889 111.277 165.889C112.523 165.889 113.534 164.88 113.534 163.635Z" fill="#F45B45"/>
<path d="M91.2813 161.956L95.0576 172.107L81.2724 181.568L75.3109 166.38L80.6735 160.442L91.2813 161.956Z" fill="#F45B45"/>
<path d="M90.9936 177.632L86.794 180.796L94.5363 184.009L90.9936 177.631V177.632Z" fill="#482728"/>
<path d="M90.8972 201.228L73.4306 203.698L71.7305 194.436L90.8964 201.228H90.8972Z" fill="#D6CFB6"/>
<path d="M81.6234 195.284L93.9834 199.083L101.37 188.856L83.7447 181.989L81.6234 195.284Z" fill="#F45B45"/>
<path d="M81.4909 183.473L79.7455 193.891L72.5011 191.363L81.4909 183.473ZM110.504 199.82H98.2726L103.223 191.87L110.504 199.82Z" fill="#F45B45"/>
<path d="M105.472 196.378H112.154L113.76 186.663L110.631 179.568L104.71 186.663L105.472 196.378Z" fill="#F19A00"/>
<path d="M73.8593 236.199C73.8593 241.287 77.9887 245.411 83.0826 245.411C88.1764 245.411 92.3058 241.287 92.3058 236.199C92.3058 231.112 88.1764 226.987 83.0826 226.987C77.9887 226.987 73.8593 231.112 73.8593 236.199Z" fill="#F45B45"/>
<path d="M105.062 228.021C105.062 230.212 106.841 231.989 109.035 231.989C111.229 231.989 113.008 230.212 113.008 228.021C113.008 225.829 111.229 224.053 109.035 224.053C106.841 224.053 105.062 225.829 105.062 228.021Z" fill="#482728"/>
<path d="M70.2691 245.647C70.2691 246.891 71.2792 247.9 72.5252 247.9C73.7712 247.9 74.7813 246.891 74.7813 245.647C74.7813 244.402 73.7712 243.394 72.5252 243.394C71.2792 243.394 70.2691 244.402 70.2691 245.647Z" fill="#D6CFB6"/>
<path d="M92.5213 247.326L88.745 237.175L102.53 227.714L108.492 242.902L103.129 248.84L92.5213 247.326Z" fill="#F45B45"/>
<path d="M92.809 231.651L97.0086 228.487L89.2663 225.274L92.809 231.652V231.651Z" fill="#006EAB"/>
<path d="M92.9054 208.054L110.372 205.584L112.072 214.846L92.9062 208.054H92.9054Z" fill="#F45B45"/>
<path d="M102.179 213.999L89.8192 210.199L82.4325 220.426L100.058 227.293L102.179 213.999Z" fill="#F19A00"/>
<path d="M102.312 225.809L104.057 215.391L111.302 217.919L102.312 225.809ZM73.2988 209.462H85.53L80.5794 217.412L73.2988 209.462Z" fill="#006EAB"/>
<path d="M78.3308 212.904H71.6491L70.0424 222.619L73.1715 229.714L79.0924 222.619L78.3308 212.904Z" fill="#F45B45"/>
<path d="M109.943 263.366C109.943 258.279 105.814 254.154 100.72 254.154C95.6262 254.154 91.4968 258.279 91.4968 263.366C91.4968 268.454 95.6262 272.578 100.72 272.578C105.814 272.578 109.943 268.454 109.943 263.366Z" fill="#482728"/>
<path d="M78.7406 271.545C78.7406 269.353 76.9619 267.577 74.7677 267.577C72.5736 267.577 70.7949 269.353 70.7949 271.545C70.7949 273.736 72.5736 275.513 74.7677 275.513C76.9619 275.513 78.7406 273.736 78.7406 271.545Z" fill="#F19A00"/>
<path d="M113.534 253.919C113.534 252.674 112.523 251.665 111.277 251.665C110.031 251.665 109.021 252.674 109.021 253.919C109.021 255.163 110.031 256.172 111.277 256.172C112.523 256.172 113.534 255.163 113.534 253.919Z" fill="#F19A00"/>
<path d="M91.2813 252.239L95.0576 262.391L81.2724 271.852L75.3109 256.663L80.6735 250.725L91.2813 252.239Z" fill="#D6CFB6"/>
<path d="M90.9936 267.915L86.794 271.079L94.5363 274.292L90.9936 267.914V267.915Z" fill="#6E9E80"/>
<path d="M90.8972 291.511L73.4306 293.981L71.7305 284.719L90.8964 291.511H90.8972Z" fill="#F19A00"/>
<path d="M81.6234 285.567L93.9834 289.366L101.37 279.139L83.7447 272.273L81.6234 285.567Z" fill="#6E9E80"/>
<path d="M81.4909 273.756L79.7455 284.174L72.5011 281.646L81.4909 273.756ZM110.504 290.104H98.2726L103.223 282.153L110.504 290.104Z" fill="#F45B45"/>
<path d="M105.472 286.661H112.154L113.76 276.947L110.631 269.851L104.71 276.947L105.472 286.661Z" fill="#482728"/>
<path d="M145.214 46.1824C145.214 50.065 148.365 53.2124 152.253 53.2124C156.14 53.2124 159.291 50.065 159.291 46.1824C159.291 42.2998 156.14 39.1523 152.253 39.1523C148.365 39.1523 145.214 42.2998 145.214 46.1824Z" fill="#F19A00"/>
<path d="M140.587 46.3574C140.587 47.1719 141.248 47.8321 142.064 47.8321C142.879 47.8321 143.54 47.1719 143.54 46.3574C143.54 45.543 142.879 44.8828 142.064 44.8828C141.248 44.8828 140.587 45.543 140.587 46.3574Z" fill="#6E9E80"/>
<path d="M119.234 28.2398C119.234 29.3139 120.105 30.1846 121.181 30.1846C122.256 30.1846 123.128 29.3139 123.128 28.2398C123.128 27.1657 122.256 26.2949 121.181 26.2949C120.105 26.2949 119.234 27.1657 119.234 28.2398Z" fill="#F45B45"/>
<path d="M150.088 35.4625L149.557 26.6245L135.086 25.1123L132.745 33.5177L139.028 43.6805L150.088 35.4625Z" fill="#6E9E80"/>
<path d="M158.62 32.3309L152.366 35.478L151.554 24.8916L158.62 32.3309Z" fill="#006EAB"/>
<path d="M125.75 25.3418L137.297 28.4536L135.189 44.2877L121.26 41.267L125.75 25.3418H125.75Z" fill="#6E9E80"/>
<path d="M143.08 53.6205L136.978 44.9277L135.333 55.3156L143.081 53.619L143.08 53.6205Z" fill="#D6CFB6"/>
<path d="M138.033 59.8402L153.168 56.1973L152.164 68.4005L138.033 59.8402Z" fill="#D6CFB6"/>
<path d="M132.333 47.1227L125.84 45.7188L131.3 56.397L132.333 47.1227Z" fill="#006EAB"/>
<path d="M124.269 68.4002L114.906 61.9005L118.418 52.1289L123.333 52.4095L129.279 64.2855L124.269 68.4002Z" fill="#6E9E80"/>
<path d="M138.033 66.3601L134.788 62.8857L133.889 67.3751L138.032 66.3601H138.033Z" fill="#F19A00"/>
<path d="M158.126 84.9322L154.079 70.9098L144.586 69.5615L137.34 81.1892L151.181 94.9634L158.126 84.9322Z" fill="#F19A00"/>
<path d="M155.602 102.728L146.668 95.0293L139.66 112.352L150.61 114.015L155.602 102.727V102.728Z" fill="#F19A00"/>
<path d="M153.952 96.0562L156.632 92.791L158.294 100.553L153.952 96.0562Z" fill="#482728"/>
<path d="M132.715 89.8349C132.715 93.661 135.82 96.7627 139.651 96.7627C143.482 96.7627 146.587 93.661 146.587 89.8349C146.587 86.0089 143.482 82.9072 139.651 82.9072C135.82 82.9072 132.715 86.0089 132.715 89.8349Z" fill="#482728"/>
<path d="M138.646 96.7039C135.292 96.2179 132.715 93.3333 132.715 89.8484C132.714 88.6812 133.009 87.5328 133.572 86.51C134.134 85.4871 134.947 84.623 135.934 83.998L138.646 96.7046V96.7039Z" fill="#F45B45"/>
<path d="M133.341 92.7305C133.896 93.9342 134.784 94.9538 135.901 95.6686C137.019 96.3833 138.317 96.7632 139.644 96.7631C141.269 96.7655 142.843 96.1956 144.088 95.1538C143.794 94.06 143.206 93.0672 142.388 92.2827C141.57 91.4982 140.553 90.9517 139.447 90.7024C138.341 90.453 137.187 90.5102 136.111 90.8677C135.035 91.2253 134.077 91.8697 133.341 92.7312V92.7305Z" fill="#D6CFB6"/>
<path d="M120.553 107.601C120.553 108.594 121.36 109.4 122.355 109.4C123.349 109.4 124.156 108.594 124.156 107.601C124.156 106.607 123.349 105.802 122.355 105.802C121.36 105.802 120.553 106.607 120.553 107.601Z" fill="#006EAB"/>
<path d="M123.422 99.5208L126.007 91.7158L132.411 98.9926L123.422 99.5208Z" fill="#006EAB"/>
<path d="M123.464 101.576C123.464 101.576 139.591 100.368 139.994 100.368L134.047 113.858L123.464 101.576Z" fill="#006EAB"/>
<path d="M122.758 96.2403L128.806 73.9916L115.903 70.5684L116.709 99.3611L122.758 96.2403H122.758Z" fill="#F19A00"/>
<path d="M141.809 99.2438L134.45 98.2536L138.617 107.214L141.809 99.2438ZM133.301 69.8408L138.129 70.372L132.55 79.8848L133.301 69.8408Z" fill="#006EAB"/>
<path d="M158.126 130.074L154.079 116.051L144.586 114.703L137.34 126.331L151.181 140.105L158.126 130.074Z" fill="#D6CFB6"/>
<path d="M155.602 147.87L146.668 140.171L139.66 157.494L150.61 159.157L155.602 147.869V147.87Z" fill="#006EAB"/>
<path d="M153.952 141.198L156.632 137.933L158.294 145.695L153.952 141.198Z" fill="#482728"/>
<path d="M132.715 134.977C132.715 138.803 135.82 141.904 139.651 141.904C143.482 141.904 146.587 138.803 146.587 134.977C146.587 131.15 143.482 128.049 139.651 128.049C135.82 128.049 132.715 131.15 132.715 134.977Z" fill="#F19A00"/>
<path d="M138.646 141.845C135.292 141.359 132.715 138.475 132.715 134.99C132.714 133.823 133.009 132.674 133.572 131.652C134.134 130.629 134.947 129.765 135.934 129.14L138.646 141.846V141.845Z" fill="#482728"/>
<path d="M133.341 137.872C133.896 139.076 134.784 140.095 135.901 140.81C137.019 141.525 138.317 141.905 139.644 141.905C141.269 141.907 142.843 141.337 144.088 140.295C143.794 139.202 143.206 138.209 142.388 137.424C141.57 136.64 140.553 136.093 139.447 135.844C138.341 135.595 137.187 135.652 136.111 136.009C135.035 136.367 134.077 137.011 133.341 137.873V137.872Z" fill="#D6CFB6"/>
<path d="M120.553 152.742C120.553 153.736 121.36 154.541 122.355 154.541C123.349 154.541 124.156 153.736 124.156 152.742C124.156 151.749 123.349 150.943 122.355 150.943C121.36 150.943 120.553 151.749 120.553 152.742Z" fill="#F19A00"/>
<path d="M123.422 144.662L126.007 136.857L132.411 144.134L123.422 144.662Z" fill="#482728"/>
<path d="M123.464 146.717C123.464 146.717 139.591 145.51 139.994 145.51L134.047 159L123.464 146.717Z" fill="#482728"/>
<path d="M122.758 141.382L128.806 119.133L115.903 115.71L116.709 144.503L122.758 141.382H122.758Z" fill="#D6CFB6"/>
<path d="M141.809 144.385L134.45 143.395L138.617 152.356L141.809 144.385ZM133.301 114.982L138.129 115.514L132.55 125.026L133.301 114.982Z" fill="#F19A00"/>
<path d="M132.641 203.786L116.208 196.806L122.158 183.507L138.779 190.864L132.64 203.786H132.641Z" fill="#006EAB"/>
<path d="M114.89 176.927L124.104 181.742L117.533 169.463L114.89 176.927Z" fill="#6E9E80"/>
<path d="M139.695 184.195C139.695 180.637 136.806 177.752 133.243 177.752C129.68 177.752 126.792 180.637 126.792 184.195C126.792 187.754 129.68 190.639 133.243 190.639C136.806 190.639 139.695 187.754 139.695 184.195Z" fill="#F45B45"/>
<path d="M126.372 175.493C126.372 174.643 125.682 173.954 124.831 173.954C123.981 173.954 123.291 174.643 123.291 175.493C123.291 176.342 123.981 177.031 124.831 177.031C125.682 177.031 126.372 176.342 126.372 175.493Z" fill="#482728"/>
<path d="M118.29 201.949C118.29 201.352 117.805 200.868 117.208 200.868C116.611 200.868 116.126 201.352 116.126 201.949C116.126 202.546 116.611 203.029 117.208 203.029C117.805 203.029 118.29 202.546 118.29 201.949Z" fill="#F45B45"/>
<path d="M143.878 200.862H137.362L140.006 194.354L143.878 200.862V200.862Z" fill="#006EAB"/>
<path d="M143.322 192.88L147.572 200.049L154.088 202.784L158.905 197.785L155.505 182.316L144.266 186.277L143.322 192.88Z" fill="#482728"/>
<path d="M137.457 175.866H130.09L126.785 164.453L141.045 165.114L137.457 175.866Z" fill="#F45B45"/>
<path d="M131.299 164.663L141.046 165.114L139.181 170.701L131.527 167.843L131.299 164.663Z" fill="#F45B45"/>
<path d="M134.307 175.866H137.456L140.239 167.53C139.229 167.506 138.228 167.73 137.324 168.183C136.421 168.635 135.642 169.302 135.056 170.125C134.471 170.947 134.096 171.901 133.966 172.902C133.835 173.903 133.952 174.921 134.307 175.866Z" fill="#006EAB"/>
<path d="M123.219 160.505L125.649 169.167L119.596 167.009L123.219 160.505Z" fill="#D6CFB6"/>
<path d="M148.317 183.129L154.179 192.34L156.782 169.704L148.317 183.129Z" fill="#482728"/>
<path d="M155.016 167.057L147.41 179.169L140.36 175.989L155.017 167.057H155.016Z" fill="#D6CFB6"/>
<path d="M144.081 182.317C144.081 181.663 143.55 181.133 142.896 181.133C142.242 181.133 141.711 181.663 141.711 182.317C141.711 182.97 142.242 183.5 142.896 183.5C143.55 183.5 144.081 182.97 144.081 182.317Z" fill="#D6CFB6"/>
<path d="M151.114 162.183C151.114 161.231 150.341 160.459 149.388 160.459C148.435 160.459 147.662 161.231 147.662 162.183C147.662 163.135 148.435 163.906 149.388 163.906C150.341 163.906 151.114 163.135 151.114 162.183Z" fill="#F19A00"/>
<path d="M138.549 227.419L139.572 205.655L117.373 213.012L138.549 227.419Z" fill="#006EAB"/>
<path d="M120.647 217.712L130.364 225.478L125.454 240.089L116.452 238.76L115.019 225.478L120.646 217.712H120.647Z" fill="#006EAB"/>
<path d="M126.166 222.127L120.647 217.716L115.02 225.483L115.614 230.992C119.136 228.042 122.653 225.087 126.166 222.127Z" fill="#F45B45"/>
<path d="M126.635 222.502L120.645 217.715L115.606 224.67C119.116 223.975 123.776 223.057 126.635 222.502V222.502Z" fill="#D6CFB6"/>
<path d="M130.672 233.141L132.412 226.908L136.913 230.076L130.672 233.141Z" fill="#D6CFB6"/>
<path d="M147.654 236.51C144.265 236.51 141.517 239.255 141.517 242.64C141.517 246.026 144.265 248.771 147.654 248.771C151.044 248.771 153.792 246.026 153.792 242.64C153.792 239.255 151.044 236.51 147.654 236.51Z" fill="#F45B45"/>
<path d="M138.243 230.995L146.12 241.417L136.401 245.811L129.138 236.614L138.243 230.995Z" fill="#006EAB"/>
<path d="M128.473 240.851C127.484 240.851 126.682 241.652 126.682 242.639C126.682 243.627 127.484 244.428 128.473 244.428C129.462 244.428 130.263 243.627 130.263 242.639C130.263 241.652 129.462 240.851 128.473 240.851Z" fill="#F19A00"/>
<path d="M123.102 247.956C123.545 246.491 124.473 243.461 124.636 243.051L116.35 242.337L123.102 247.956Z" fill="#D6CFB6"/>
<path d="M143.804 213.625V232.229L155.901 234.901L154.295 220.789L143.804 213.625H143.804Z" fill="#482728"/>
<path d="M154.515 215.226C151.939 215.226 149.852 217.311 149.852 219.883C149.852 222.455 151.939 224.54 154.515 224.54C157.09 224.54 159.178 222.455 159.178 219.883C159.178 217.311 157.09 215.226 154.515 215.226Z" fill="#F45B45"/>
<path d="M144.287 210.199L149.932 214.188L153.375 208.137L144.287 210.199Z" fill="#006EAB"/>
<path d="M137.305 270.905L115.515 269.883L122.88 292.055L137.305 270.905Z" fill="#F19A00"/>
<path d="M127.586 288.785L135.362 279.079L149.99 283.983L148.66 292.974L135.362 294.405L127.586 288.785V288.785Z" fill="#D6CFB6"/>
<path d="M132.006 283.272L127.59 288.785L135.366 294.405L140.882 293.812C137.929 290.294 134.97 286.781 132.006 283.272Z" fill="#D6CFB6"/>
<path d="M132.383 282.804L127.59 288.786L134.553 293.82C133.858 290.314 132.938 285.66 132.382 282.804H132.383Z" fill="#F19A00"/>
<path d="M143.034 278.772L136.794 277.034L139.965 272.539L143.034 278.772Z" fill="#F45B45"/>
<path d="M146.407 261.811C146.407 265.196 149.155 267.941 152.545 267.941C155.935 267.941 158.683 265.196 158.683 261.811C158.683 258.425 155.935 255.681 152.545 255.681C149.155 255.681 146.407 258.425 146.407 261.811Z" fill="#D6CFB6"/>
<path d="M140.885 271.21L151.32 263.343L155.719 273.05L146.512 280.304L140.885 271.21Z" fill="#6E9E80"/>
<path d="M150.754 280.969C150.754 281.957 151.556 282.757 152.545 282.757C153.534 282.757 154.335 281.957 154.335 280.969C154.335 279.981 153.534 279.181 152.545 279.181C151.556 279.181 150.754 279.981 150.754 280.969Z" fill="#482728"/>
<path d="M157.868 286.333C156.401 285.891 153.367 284.964 152.957 284.801L152.241 293.077L157.868 286.333Z" fill="#006EAB"/>
<path d="M123.494 265.656H142.121L144.797 253.574L130.666 255.177L123.494 265.656V265.656Z" fill="#F19A00"/>
<path d="M125.097 254.959C125.097 257.531 127.184 259.616 129.759 259.616C132.335 259.616 134.422 257.531 134.422 254.959C134.422 252.387 132.335 250.302 129.759 250.302C127.184 250.302 125.097 252.387 125.097 254.959Z" fill="#F45B45"/>
<path d="M120.065 265.173L124.058 259.535L118 256.097L120.065 265.173Z" fill="#482728"/>
<path d="M175.432 25.6436L161.392 29.6852L160.042 39.1672L171.684 46.4041L185.476 32.5803L175.432 25.6436Z" fill="#006EAB"/>
<path d="M193.25 28.165L185.541 37.0888L202.886 44.088L204.55 33.1517L193.249 28.165H193.25Z" fill="#F45B45"/>
<path d="M186.569 29.8132L183.3 27.1363L191.072 25.4766L186.569 29.8132Z" fill="#F19A00"/>
<path d="M180.341 51.0244C184.171 51.0244 187.277 47.9227 187.277 44.0967C187.277 40.2706 184.171 37.1689 180.341 37.1689C176.51 37.1689 173.404 40.2706 173.404 44.0967C173.404 47.9227 176.51 51.0244 180.341 51.0244Z" fill="#6E9E80"/>
<path d="M187.219 45.1006C186.732 48.4508 183.844 51.0247 180.355 51.0247C179.186 51.0253 178.036 50.7309 177.012 50.1687C175.988 49.6065 175.123 48.7948 174.497 47.8091L187.22 45.1006H187.219Z" fill="#F19A00"/>
<path d="M183.24 50.398C184.445 49.8441 185.466 48.9567 186.182 47.841C186.897 46.7252 187.278 45.428 187.278 44.103C187.28 42.4801 186.709 40.9084 185.666 39.6641C184.571 39.958 183.577 40.5451 182.792 41.3621C182.006 42.1791 181.459 43.1949 181.209 44.2997C180.96 45.4046 181.017 46.5566 181.375 47.6313C181.733 48.7061 182.378 49.6627 183.241 50.398H183.24Z" fill="#006EAB"/>
<path d="M198.129 63.17C199.123 63.17 199.93 62.3647 199.93 61.3712C199.93 60.3777 199.123 59.5723 198.129 59.5723C197.134 59.5723 196.328 60.3777 196.328 61.3712C196.328 62.3647 197.134 63.17 198.129 63.17Z" fill="#6E9E80"/>
<path d="M190.038 60.305L182.224 57.7237L189.51 51.3271L190.038 60.305Z" fill="#006EAB"/>
<path d="M192.096 60.2637C192.096 60.2637 190.887 44.1564 190.887 43.7539L204.394 49.6938L192.096 60.2637Z" fill="#006EAB"/>
<path d="M186.754 60.9694L164.478 54.9287L161.05 67.8151L189.879 67.0101L186.754 60.9686V60.9694Z" fill="#006EAB"/>
<path d="M189.761 41.9414L188.77 49.2912L197.742 45.1299L189.761 41.9414ZM160.322 50.4393L160.854 45.6167L170.378 51.1894L160.322 50.4393Z" fill="#006EAB"/>
<path d="M204.42 96.1984L202.161 111.683L189.367 113.938L185.454 104.166L193.13 91.9882L204.42 96.1984Z" fill="#F19A00"/>
<path d="M185.11 88.3759L188.154 105.512L171.262 107.92L185.11 88.3759Z" fill="#F19A00"/>
<path d="M188.893 93.1367L192.466 88.594L186.997 83.1326L188.893 93.136V93.1367Z" fill="#D6CFB6"/>
<path d="M164.692 101.147C162.196 101.147 160.173 103.169 160.173 105.662C160.173 108.155 162.196 110.176 164.692 110.176C167.189 110.176 169.212 108.155 169.212 105.662C169.212 103.169 167.189 101.147 164.692 101.147Z" fill="#F19A00"/>
<path d="M178.777 109.445C177.956 109.445 177.291 110.109 177.291 110.928C177.291 111.748 177.956 112.412 178.777 112.412C179.597 112.412 180.262 111.748 180.262 110.928C180.262 110.109 179.597 109.445 178.777 109.445Z" fill="#F19A00"/>
<path d="M180.038 75.1L183.662 82.7703L176.069 93.6299L166.146 82.7703L180.038 75.1Z" fill="#F19A00"/>
<path d="M160.172 82.7561L173.452 97.303L171.236 100.289L160.394 90.0412L160.173 82.7561H160.172Z" fill="#6E9E80"/>
<path d="M160.336 88.2889L172.904 98.035L171.231 100.289L160.39 90.0412L160.337 88.2882L160.336 88.2889Z" fill="#F45B45"/>
<path d="M166.767 89.9796L160.173 82.757L160.393 90.0413L162.828 92.3428C164.346 91.9613 165.717 91.1392 166.767 89.9804V89.9796ZM201.876 82.7329L202.017 70.8554L187.665 69.6366L193.947 79.1592L201.876 82.7329H201.876Z" fill="#F19A00"/>
<path d="M196.859 79.3609C194.797 79.3609 193.125 81.031 193.125 83.0911C193.125 85.1512 194.797 86.8213 196.859 86.8213C198.922 86.8213 200.594 85.1512 200.594 83.0911C200.594 81.031 198.922 79.3609 196.859 79.3609Z" fill="#D6CFB6"/>
<path d="M202.545 88.746C201.703 88.746 201.021 89.4274 201.021 90.268C201.021 91.1086 201.703 91.79 202.545 91.79C203.386 91.79 204.068 91.1086 204.068 90.268C204.068 89.4274 203.386 88.746 202.545 88.746Z" fill="#482728"/>
<path d="M165.981 77.8223L173.523 73.9582L164.512 72.3436L165.981 77.8223Z" fill="#482728"/>
<path d="M204.42 141.34L202.161 156.825L189.367 159.079L185.454 149.307L193.13 137.13L204.42 141.34Z" fill="#006EAB"/>
<path d="M185.11 133.518L188.154 150.654L171.262 153.062L185.11 133.518Z" fill="#D6CFB6"/>
<path d="M188.893 138.278L192.466 133.736L186.997 128.274L188.893 138.278V138.278Z" fill="#D6CFB6"/>
<path d="M164.692 146.289C162.196 146.289 160.173 148.31 160.173 150.803C160.173 153.296 162.196 155.317 164.692 155.317C167.189 155.317 169.212 153.296 169.212 150.803C169.212 148.31 167.189 146.289 164.692 146.289Z" fill="#F45B45"/>
<path d="M178.777 154.586C177.956 154.586 177.291 155.251 177.291 156.07C177.291 156.889 177.956 157.554 178.777 157.554C179.597 157.554 180.262 156.889 180.262 156.07C180.262 155.251 179.597 154.586 178.777 154.586Z" fill="#F45B45"/>
<path d="M180.038 120.242L183.662 127.912L176.069 138.771L166.146 127.912L180.038 120.242Z" fill="#D6CFB6"/>
<path d="M160.172 127.898L173.452 142.445L171.236 145.431L160.394 135.183L160.173 127.898H160.172Z" fill="#F19A00"/>
<path d="M160.336 133.431L172.904 143.177L171.231 145.431L160.39 135.183L160.337 133.43L160.336 133.431Z" fill="#006EAB"/>
<path d="M166.767 135.121L160.173 127.899L160.393 135.183L162.828 137.484C164.346 137.103 165.717 136.281 166.767 135.122V135.121ZM201.876 127.874L202.017 115.997L187.665 114.778L193.947 124.301L201.876 127.874H201.876Z" fill="#F45B45"/>
<path d="M196.859 124.503C194.797 124.503 193.125 126.173 193.125 128.233C193.125 130.293 194.797 131.963 196.859 131.963C198.922 131.963 200.594 130.293 200.594 128.233C200.594 126.173 198.922 124.503 196.859 124.503Z" fill="#6E9E80"/>
<path d="M202.545 133.888C201.703 133.888 201.021 134.569 201.021 135.41C201.021 136.25 201.703 136.932 202.545 136.932C203.386 136.932 204.068 136.25 204.068 135.41C204.068 134.569 203.386 133.888 202.545 133.888Z" fill="#482728"/>
<path d="M165.981 122.964L173.523 119.1L164.512 117.485L165.981 122.964Z" fill="#D6CFB6"/>
<path d="M173.298 164.051C168.204 164.051 164.075 168.175 164.075 173.263C164.075 178.35 168.204 182.475 173.298 182.475C178.392 182.475 182.521 178.35 182.521 173.263C182.521 168.175 178.392 164.051 173.298 164.051Z" fill="#F45B45"/>
<path d="M181.486 195.214C179.292 195.214 177.513 196.991 177.513 199.182C177.513 201.374 179.292 203.15 181.486 203.15C183.68 203.15 185.459 201.374 185.459 199.182C185.459 196.991 183.68 195.214 181.486 195.214Z" fill="#482728"/>
<path d="M163.838 160.465C162.592 160.465 161.582 161.474 161.582 162.718C161.582 163.963 162.592 164.972 163.838 164.972C165.084 164.972 166.094 163.963 166.094 162.718C166.094 161.474 165.084 160.465 163.838 160.465Z" fill="#482728"/>
<path d="M162.157 182.69L172.321 178.918L181.794 192.686L166.586 198.641L160.641 193.285L162.157 182.69Z" fill="#6E9E80"/>
<path d="M177.852 182.976L181.02 187.171L184.237 179.438L177.851 182.976H177.852Z" fill="#D6CFB6"/>
<path d="M201.478 183.073L203.951 200.518L194.677 202.216L201.478 183.074V183.073Z" fill="#006EAB"/>
<path d="M195.526 192.335L199.33 179.99L189.091 172.613L182.215 190.216L195.526 192.335Z" fill="#F45B45"/>
<path d="M183.7 192.468L194.131 194.211L191.6 201.446L183.7 192.468ZM200.068 163.491V175.707L192.108 170.762L200.068 163.491Z" fill="#482728"/>
<path d="M196.621 168.517V161.843L186.895 160.239L179.791 163.364L186.895 169.277L196.621 168.517Z" fill="#F19A00"/>
<path d="M185.064 234.4L202.603 231.536L204.147 247.732L187.159 248.944L185.064 234.401V234.4Z" fill="#6E9E80"/>
<path d="M199.165 248.087L187.16 248.943L186.481 244.23C187.904 243.004 189.72 242.331 191.598 242.334C195.21 242.334 198.251 244.771 199.165 248.087Z" fill="#F45B45"/>
<path d="M200.955 247.96C198.833 242.785 195.938 235.742 194.719 232.824L202.605 231.536L204.149 247.732L200.955 247.96Z" fill="#D6CFB6"/>
<path fill-rule="evenodd" clip-rule="evenodd" d="M203.268 238.507L189.894 233.612L202.604 231.535L203.268 238.507Z" fill="#6E9E80"/>
<path d="M189.443 215.685C189.443 219.74 192.735 223.028 196.795 223.028C200.856 223.028 204.147 219.74 204.147 215.685C204.147 211.629 200.856 208.342 196.795 208.342C192.735 208.342 189.443 211.629 189.443 215.685Z" fill="#F45B45"/>
<path d="M179.362 227.029C179.362 227.989 180.141 228.767 181.103 228.767C182.064 228.767 182.844 227.989 182.844 227.029C182.844 226.068 182.064 225.29 181.103 225.29C180.141 225.29 179.362 226.068 179.362 227.029Z" fill="#6E9E80"/>
<path d="M161.926 222.876C161.926 223.718 162.609 224.401 163.453 224.401C164.296 224.401 164.979 223.718 164.979 222.876C164.979 222.033 164.296 221.351 163.453 221.351C162.609 221.351 161.926 222.033 161.926 222.876Z" fill="#482728"/>
<path d="M184.425 220.332L199.031 228.668L188.598 237.882L184.425 220.332Z" fill="#482728"/>
<path d="M169.676 205.197H188.639L178.144 221.396L166.576 214.249L169.676 205.198V205.197Z" fill="#F19A00"/>
<path d="M175.568 226.612L168.291 224.4L165.655 234.406L175.568 226.612V226.612Z" fill="#482728"/>
<path d="M180.125 234.276L175.635 231.585L165.655 242.15L171.942 249.226L182.221 246.835L180.125 234.276Z" fill="#482728"/>
<path d="M161.198 243.553L160.443 248.418L164.818 248.079L161.198 243.553V243.553Z" fill="#F19A00"/>
<path d="M174.181 272.818C174.181 268.935 171.03 265.788 167.142 265.788C163.255 265.788 160.103 268.935 160.103 272.818C160.103 276.7 163.255 279.848 167.142 279.848C171.03 279.848 174.181 276.7 174.181 272.818Z" fill="#482728"/>
<path d="M178.808 272.643C178.808 271.828 178.147 271.168 177.331 271.168C176.516 271.168 175.855 271.828 175.855 272.643C175.855 273.457 176.516 274.117 177.331 274.117C178.147 274.117 178.808 273.457 178.808 272.643Z" fill="#F19A00"/>
<path d="M200.161 290.76C200.161 289.686 199.289 288.815 198.214 288.815C197.138 288.815 196.267 289.686 196.267 290.76C196.267 291.834 197.138 292.705 198.214 292.705C199.289 292.705 200.161 291.834 200.161 290.76Z" fill="#482728"/>
<path d="M169.307 283.538L169.838 292.375L184.309 293.888L186.649 285.482L180.367 275.319L169.307 283.538Z" fill="#D6CFB6"/>
<path d="M160.775 286.669L167.029 283.522L167.84 294.108L160.775 286.669Z" fill="#482728"/>
<path d="M193.644 293.658L182.098 290.546L184.206 274.712L198.135 277.733L193.645 293.658H193.644Z" fill="#F45B45"/>
<path d="M176.315 265.38L182.417 274.072L184.062 263.684L176.314 265.381L176.315 265.38Z" fill="#F45B45"/>
<path d="M181.362 259.16L166.227 262.803L167.23 250.6L181.362 259.16Z" fill="#6E9E80"/>
<path d="M187.061 271.877L193.555 273.281L188.095 262.603L187.061 271.877Z" fill="#482728"/>
<path d="M195.125 250.6L204.489 257.099L200.977 266.871L196.062 266.59L190.116 254.714L195.125 250.6Z" fill="#6E9E80"/>
<path d="M181.362 252.64L184.606 256.114L185.506 251.625L181.363 252.64H181.362Z" fill="#F45B45"/>
</g>
</svg>
