<svg width="229" height="319" viewBox="0 0 229 319" fill="none" xmlns="http://www.w3.org/2000/svg">
<mask id="mask0" mask-type="alpha" maskUnits="userSpaceOnUse" x="24" y="24" width="181" height="271">
<path d="M204.895 24.0752H24.1052V294.924H204.895V24.0752Z" fill="white"/>
</mask>
<g mask="url(#mask0)">
<path d="M24.1052 24.0752H69.3026V69.2167H24.1052V24.0752Z" fill="#4CC6B2"/>
<path d="M24.1052 24.0752H35.4046V35.3606H24.1052V24.0752Z" fill="#3C4D66"/>
<path d="M35.4045 35.3604H46.7039V46.6457H35.4045V35.3604Z" fill="#3C4D66"/>
<path d="M58.0033 35.3604H69.3026V46.6457H58.0033V35.3604Z" fill="#3C4D66"/>
<path d="M46.7039 24.0752H58.0032V35.3606H46.7039V24.0752Z" fill="#65578E"/>
<path d="M24.1052 46.6455H35.4046V57.9309H24.1052V46.6455Z" fill="#65578E"/>
<path d="M35.4045 57.9316H46.7039V69.217H35.4045V57.9316Z" fill="#3C4D66"/>
<path d="M58.0033 57.9316H69.3026V69.217H58.0033V57.9316Z" fill="#65578E"/>
<path d="M46.7039 46.6455H58.0032V57.9309H46.7039V46.6455Z" fill="#65578E"/>
<path d="M24.1052 69.2168H69.3026V114.358H24.1052V69.2168Z" fill="#65578E"/>
<path d="M24.1052 91.7876L46.7039 69.2168L69.3026 91.7876L46.7039 114.358L24.1052 91.7876Z" fill="#F1F0F2"/>
<path d="M35.4045 80.502H58.0032V103.073H35.4045V80.502Z" fill="#9BE3AB"/>
<path d="M24.1052 114.358H69.3026V159.5H24.1052V114.358Z" fill="#3C4D66"/>
<path d="M24.1052 114.358H35.4046V125.644H24.1052V114.358Z" fill="#4F87CB"/>
<path d="M35.4045 125.644H46.7039V136.929H35.4045V125.644Z" fill="#F1F0F2"/>
<path d="M58.0033 125.644H69.3026V136.929H58.0033V125.644Z" fill="#F1F0F2"/>
<path d="M46.7039 114.358H58.0032V125.644H46.7039V114.358Z" fill="#9BE3AB"/>
<path d="M24.1052 136.929H35.4046V148.214H24.1052V136.929Z" fill="#F1F0F2"/>
<path d="M35.4045 148.215H46.7039V159.5H35.4045V148.215Z" fill="#F1F0F2"/>
<path d="M58.0033 148.215H69.3026V159.5H58.0033V148.215Z" fill="#4F87CB"/>
<path d="M46.7039 136.929H58.0032V148.214H46.7039V136.929Z" fill="#F1F0F2"/>
<path d="M24.1052 204.642L24.1052 159.5H69.3026V204.642H24.1052Z" fill="#9BE3AB"/>
<path d="M35.4045 204.642L35.4045 170.785H69.3026V204.642H35.4045Z" fill="#3C4D66"/>
<path d="M46.7039 204.642L46.7039 182.071H69.3025V204.642H46.7039Z" fill="#F1F0F2"/>
<path d="M58.0033 204.642V193.356H69.3026V204.642H58.0033Z" fill="#4F87CB"/>
<path d="M69.3025 204.642V227.212H46.7039V204.642H69.3025Z" fill="#4CC6B2"/>
<path d="M46.7039 204.642V227.212H24.1052V204.642H46.7039Z" fill="#4F87CB"/>
<path d="M69.3025 227.212V249.783H46.7039V227.212H69.3025Z" fill="#9BE3AB"/>
<path d="M46.7039 227.212V249.783H24.1052V227.212H46.7039Z" fill="#65578E"/>
<path d="M24.1052 294.925L24.1052 249.783H69.3026V294.925H24.1052Z" fill="#9BE3AB"/>
<path d="M46.7039 294.925L46.7039 249.783H69.3025V294.925H46.7039Z" fill="#4CC6B2"/>
<path d="M35.4045 283.64L35.4045 261.069H58.0032V283.64H35.4045Z" fill="#F1F0F2"/>
<path d="M114.5 69.2168H69.3026V24.0753L114.5 24.0753V69.2168Z" fill="#4CC6B2"/>
<path d="M91.9013 24.0755H114.5V46.6463L103.201 57.9316L80.602 35.3609L91.9013 24.0755Z" fill="#3C4D66"/>
<path d="M103.201 57.9316H80.602V35.3609H103.201V57.9316Z" fill="#65578E"/>
<path d="M114.5 114.358H69.3026V69.2169H114.5V114.358Z" fill="#3C4D66"/>
<path d="M114.5 103.073H80.602V69.2171H114.5V103.073Z" fill="#4CC6B2"/>
<path d="M114.5 91.7871H91.9013V69.2164H114.5V91.7871Z" fill="#65578E"/>
<path d="M114.5 80.502H103.201V69.2166H114.5V80.502Z" fill="#4F87CB"/>
<path d="M69.3026 114.358H114.5V159.5H69.3026V114.358Z" fill="#65578E"/>
<path d="M75.329 119.625H109.227V153.481H75.329V119.625Z" fill="#4F87CB"/>
<path d="M81.3552 124.892H103.954V147.462H81.3552V124.892Z" fill="#3C4D66"/>
<path d="M86.6283 130.91H97.9276V142.196H86.6283V130.91Z" fill="#F1F0F2"/>
<path d="M69.3026 159.5H114.5V204.642H69.3026V159.5Z" fill="#F1F0F2"/>
<path d="M75.329 164.767H109.227V198.623H75.329V164.767Z" fill="#65578E"/>
<path d="M81.3552 170.033H103.954V192.604H81.3552V170.033Z" fill="#4F87CB"/>
<path d="M86.6283 176.052H97.9276V187.337H86.6283V176.052Z" fill="#9BE3AB"/>
<path d="M69.3026 204.642H114.5V249.783H69.3026V204.642Z" fill="#F1F0F2"/>
<path d="M78.342 213.67H82.1085V217.432H78.342V213.67Z" fill="#4F87CB"/>
<path d="M85.875 213.67H89.6414V217.432H85.875V213.67Z" fill="#9BE3AB"/>
<path d="M93.4078 213.67H97.1743V217.432H93.4078V213.67Z" fill="#65578E"/>
<path d="M100.941 213.67H104.707V217.432H100.941V213.67Z" fill="#9BE3AB"/>
<path d="M78.342 221.193H82.1085V224.955H78.342V221.193Z" fill="#65578E"/>
<path d="M85.875 221.193H89.6414V224.955H85.875V221.193Z" fill="#9BE3AB"/>
<path d="M93.4078 221.193H97.1743V224.955H93.4078V221.193Z" fill="#65578E"/>
<path d="M100.941 221.193H104.707V224.955H100.941V221.193Z" fill="#4F87CB"/>
<path d="M78.342 228.717H82.1085V232.479H78.342V228.717ZM85.8749 228.717H89.6414V232.479H85.8749V228.717Z" fill="#65578E"/>
<path d="M93.4078 228.717H97.1743V232.479H93.4078V228.717Z" fill="#65578E"/>
<path d="M100.941 228.717H104.707V232.479H100.941V228.717Z" fill="#65578E"/>
<path d="M78.342 236.24H82.1085V240.002H78.342V236.24Z" fill="#4F87CB"/>
<path d="M85.875 236.24H89.6414V240.002H85.875V236.24Z" fill="#65578E"/>
<path d="M93.4078 236.24H97.1743V240.002H93.4078V236.24Z" fill="#9BE3AB"/>
<path d="M100.941 236.24H104.707V240.002H100.941V236.24Z" fill="#4F87CB"/>
<path d="M69.3026 249.783H114.5V294.925H69.3026V249.783Z" fill="#9BE3AB"/>
<path d="M75.329 255.05H109.227V288.906H75.329V255.05Z" fill="#4F87CB"/>
<path d="M81.3552 260.316H103.954V282.887H81.3552V260.316Z" fill="#4CC6B2"/>
<path d="M86.6283 266.335H97.9276V277.62H86.6283V266.335Z" fill="#3C4D66"/>
<path d="M114.5 24.0752H159.697V69.2167H114.5V24.0752Z" fill="#4CC6B2"/>
<path d="M123.539 33.1035H127.306V36.8653H123.539V33.1035Z" fill="#3C4D66"/>
<path d="M131.072 33.1035H134.839V36.8653H131.072V33.1035Z" fill="#65578E"/>
<path d="M138.605 33.1035H142.372V36.8653H138.605V33.1035Z" fill="#3C4D66"/>
<path d="M146.138 33.1035H149.905V36.8653H146.138V33.1035Z" fill="#F1F0F2"/>
<path d="M123.539 40.627H127.306V44.3887H123.539V40.627Z" fill="#F1F0F2"/>
<path d="M131.072 40.627H134.839V44.3887H131.072V40.627Z" fill="#F1F0F2"/>
<path d="M138.605 40.627H142.372V44.3887H138.605V40.627Z" fill="#3C4D66"/>
<path d="M146.138 40.627H149.905V44.3887H146.138V40.627Z" fill="#3C4D66"/>
<path d="M123.539 48.1504H127.306V51.9122H123.539V48.1504ZM131.072 48.1504H134.839V51.9122H131.072V48.1504Z" fill="#F1F0F2"/>
<path d="M138.605 48.1504H142.372V51.9122H138.605V48.1504Z" fill="#3C4D66"/>
<path d="M146.138 48.1504H149.905V51.9122H146.138V48.1504Z" fill="#3C4D66"/>
<path d="M123.539 55.6738H127.306V59.4356H123.539V55.6738Z" fill="#65578E"/>
<path d="M131.072 55.6738H134.839V59.4356H131.072V55.6738Z" fill="#F1F0F2"/>
<path d="M138.605 55.6738H142.372V59.4356H138.605V55.6738Z" fill="#3C4D66"/>
<path d="M146.138 55.6738H149.905V59.4356H146.138V55.6738Z" fill="#65578E"/>
<path d="M159.697 114.358H114.5V69.2169H159.697V114.358Z" fill="#F1F0F2"/>
<path d="M159.697 91.7871H114.5V69.2164H159.697V91.7871Z" fill="#4F87CB"/>
<path d="M148.398 103.073H125.799V80.5025H148.398V103.073Z" fill="#65578E"/>
<path d="M114.5 114.358H159.697V159.5H114.5V114.358Z" fill="#F1F0F2"/>
<path d="M114.5 136.929L137.099 114.358L159.697 136.929L137.099 159.5L114.5 136.929Z" fill="#9BE3AB"/>
<path d="M125.799 125.644H148.398V148.214H125.799V125.644Z" fill="#4F87CB"/>
<path d="M159.697 159.5V182.071H137.099V159.5H159.697Z" fill="#3C4D66"/>
<path d="M137.099 159.5V182.071H114.5V159.5H137.099Z" fill="#4CC6B2"/>
<path d="M159.697 182.07V204.641H137.099V182.07H159.697Z" fill="#4F87CB"/>
<path d="M137.099 182.07V204.641H114.5V182.07H137.099Z" fill="#9BE3AB"/>
<path d="M114.5 204.642H159.697V249.783H114.5V204.642Z" fill="#65578E"/>
<path d="M114.5 204.642H125.799V215.927H114.5V204.642Z" fill="#3C4D66"/>
<path d="M125.799 215.927H137.099V227.212H125.799V215.927Z" fill="#F1F0F2"/>
<path d="M148.398 215.927H159.697V227.212H148.398V215.927Z" fill="#F1F0F2"/>
<path d="M137.099 204.642H148.398V215.927H137.099V204.642Z" fill="#F1F0F2"/>
<path d="M114.5 227.212H125.799V238.497H114.5V227.212Z" fill="#F1F0F2"/>
<path d="M125.799 238.498H137.099V249.783H125.799V238.498Z" fill="#F1F0F2"/>
<path d="M148.398 238.498H159.697V249.783H148.398V238.498Z" fill="#4F87CB"/>
<path d="M137.099 227.212H148.398V238.497H137.099V227.212Z" fill="#3C4D66"/>
<path d="M114.5 249.783H159.697V294.925H114.5V249.783Z" fill="#9BE3AB"/>
<path d="M114.5 272.354H159.697V294.924H114.5V272.354Z" fill="#65578E"/>
<path d="M125.799 261.068H148.398V283.639H125.799V261.068Z" fill="#3C4D66"/>
<path d="M159.697 24.0752H204.895V69.2167H159.697V24.0752Z" fill="#9BE3AB"/>
<path d="M165.724 29.3418H199.622V63.1979H165.724V29.3418Z" fill="#F1F0F2"/>
<path d="M171.75 34.6084H194.349V57.1792H171.75V34.6084Z" fill="#4F87CB"/>
<path d="M177.023 40.627H188.322V51.9123H177.023V40.627Z" fill="#3C4D66"/>
<path d="M204.895 69.2168V114.358H159.697V69.2168H204.895Z" fill="#4CC6B2"/>
<path d="M159.697 91.7876V69.2168H182.296L193.595 80.5022L170.997 103.073L159.697 91.7876Z" fill="#F1F0F2"/>
<path d="M193.595 80.502V103.073H170.997V80.502H193.595Z" fill="#3C4D66"/>
<path d="M204.895 114.358V159.5H159.697V114.358H204.895Z" fill="#F1F0F2"/>
<path d="M193.595 114.358V148.215H159.697V114.358H193.595Z" fill="#3C4D66"/>
<path d="M182.296 114.358V136.929H159.697V114.358H182.296Z" fill="#4CC6B2"/>
<path d="M170.997 114.358V125.644H159.697V114.358H170.997Z" fill="#9BE3AB"/>
<path d="M204.895 159.5V204.642H159.697V159.5H204.895Z" fill="#4CC6B2"/>
<path d="M182.296 159.5V204.642H159.697V159.5H182.296Z" fill="#3C4D66"/>
<path d="M193.595 170.785V193.356H170.997V170.785H193.595Z" fill="#9BE3AB"/>
<path d="M159.697 204.642H204.895V249.783H159.697V204.642Z" fill="#F1F0F2"/>
<path d="M159.697 227.212L182.296 204.642L204.895 227.212L182.296 249.783L159.697 227.212Z" fill="#65578E"/>
<path d="M170.997 215.927H193.595V238.497H170.997V215.927Z" fill="#4CC6B2"/>
<path d="M204.895 249.783V272.354H182.296V249.783H204.895Z" fill="#3C4D66"/>
<path d="M182.296 249.783V272.354H159.697V249.783H182.296Z" fill="#9BE3AB"/>
<path d="M204.895 272.354V294.924H182.296V272.354H204.895Z" fill="#4CC6B2"/>
<path d="M182.296 272.354V294.924H159.697V272.354H182.296Z" fill="#F1F0F2"/>
</g>
</svg>
