<svg width="229" height="320" viewBox="0 0 229 320" fill="none" xmlns="http://www.w3.org/2000/svg">
<mask id="mask0" mask-type="alpha" maskUnits="userSpaceOnUse" x="24" y="24" width="181" height="272">
<path d="M204.895 24.1514H24.1052V295.849H204.895V24.1514Z" fill="white"/>
</mask>
<g mask="url(#mask0)">
<path d="M69.3026 24.1514H24.1052V69.4344H69.3026V24.1514Z" fill="#4F87CB"/>
<path d="M24.1052 69.4346H69.3026V24.1516L24.1052 69.4346Z" fill="#4CC6B2"/>
<path d="M69.3026 69.4336H24.1052V114.717H69.3026V69.4336Z" fill="#9BE3AB"/>
<path d="M58.0032 80.7539H35.4045V103.395H58.0032V80.7539Z" fill="#65578E"/>
<path d="M69.3026 114.717H24.1052V160H69.3026V114.717Z" fill="#4CC6B2"/>
<path d="M58.0032 126.037H35.4045V148.679H58.0032V126.037Z" fill="#4F87CB"/>
<path d="M69.3026 160H24.1052V205.283H69.3026V160Z" fill="#65578E"/>
<path d="M58.0032 171.32H35.4045V193.962H58.0032V171.32Z" fill="#4F87CB"/>
<path d="M69.3026 205.283H24.1052V250.566H69.3026V205.283Z" fill="#9BE3AB"/>
<path d="M24.1052 205.283L24.1052 250.566H69.3026L24.1052 205.283Z" fill="#4F87CB"/>
<path d="M58.0032 216.604H35.4045V239.245H58.0032V216.604Z" fill="#F1F0F2"/>
<path d="M69.3026 250.566H24.1052V295.849H69.3026V250.566Z" fill="#F1F0F2"/>
<path d="M69.3026 295.849V250.566H24.1052L69.3026 295.849Z" fill="#9BE3AB"/>
<path d="M114.5 24.1514H69.3026V69.4344H114.5V24.1514Z" fill="#F1F0F2"/>
<path d="M69.3026 24.1516L69.3026 69.4346L114.5 69.4346L69.3026 24.1516Z" fill="#4F87CB"/>
<path d="M103.201 35.4717H80.6019V58.1132H103.201V35.4717Z" fill="#4CC6B2"/>
<path d="M114.5 69.4336H69.3026V114.717H114.5V69.4336Z" fill="#4CC6B2"/>
<path d="M103.201 80.7539H80.6019V103.395H103.201V80.7539Z" fill="#4F87CB"/>
<path d="M114.5 114.717H69.3026V160H114.5V114.717Z" fill="#65578E"/>
<path d="M103.201 126.037H80.6019V148.679H103.201V126.037Z" fill="#9BE3AB"/>
<path d="M114.5 160H69.3026V205.283H114.5V160Z" fill="#4F87CB"/>
<path d="M69.3026 160L69.3026 205.283H114.5L69.3026 160Z" fill="#65578E"/>
<path d="M114.5 205.283H69.3026V250.566H114.5V205.283Z" fill="#65578E"/>
<path d="M69.3026 205.283L69.3026 250.566H114.5L69.3026 205.283Z" fill="#4F87CB"/>
<path d="M103.201 216.604H80.6019V239.245H103.201V216.604Z" fill="#9BE3AB"/>
<path d="M114.5 250.566H69.3026V295.849H114.5V250.566Z" fill="#F1F0F2"/>
<path d="M103.201 261.887H80.6019V284.528H103.201V261.887Z" fill="#65578E"/>
<path d="M159.697 24.1514H114.5V69.4344H159.697V24.1514Z" fill="#9BE3AB"/>
<path d="M114.5 69.4346H159.697V24.1516L114.5 69.4346Z" fill="#4CC6B2"/>
<path d="M148.398 35.4717H125.799V58.1132H148.398V35.4717Z" fill="#4F87CB"/>
<path d="M159.697 69.4336H114.5V114.717H159.697V69.4336Z" fill="#4CC6B2"/>
<path d="M159.697 114.717V69.4336H114.5L159.697 114.717Z" fill="#4F87CB"/>
<path d="M148.398 80.7539H125.799V103.395H148.398V80.7539Z" fill="#9BE3AB"/>
<path d="M159.697 114.717H114.5V160H159.697V114.717Z" fill="#4CC6B2"/>
<path d="M148.398 126.037H125.799V148.679H148.398V126.037Z" fill="#65578E"/>
<path d="M159.697 160H114.5V205.283H159.697V160Z" fill="#65578E"/>
<path d="M114.5 160L114.5 205.283H159.697L114.5 160Z" fill="#4F87CB"/>
<path d="M148.398 171.32H125.799V193.962H148.398V171.32Z" fill="#4CC6B2"/>
<path d="M159.697 205.283H114.5V250.566H159.697V205.283Z" fill="#9BE3AB"/>
<path d="M159.697 250.566V205.283H114.5L159.697 250.566Z" fill="#F1F0F2"/>
<path d="M148.398 216.604H125.799V239.245H148.398V216.604Z" fill="#4CC6B2"/>
<path d="M159.697 250.566H114.5V295.849H159.697V250.566Z" fill="#65578E"/>
<path d="M114.5 295.85H159.697V250.567L114.5 295.85Z" fill="#4CC6B2"/>
<path d="M204.895 24.1514H159.697V69.4344H204.895V24.1514Z" fill="#4F87CB"/>
<path d="M193.595 35.4717H170.997V58.1132H193.595V35.4717Z" fill="#65578E"/>
<path d="M204.895 69.4336H159.697V114.717H204.895V69.4336Z" fill="#9BE3AB"/>
<path d="M159.697 114.717H204.895V69.4338L159.697 114.717Z" fill="#4CC6B2"/>
<path d="M204.895 114.717H159.697V160H204.895V114.717Z" fill="#F1F0F2"/>
<path d="M193.595 126.037H170.997V148.679H193.595V126.037Z" fill="#4CC6B2"/>
<path d="M204.895 160H159.697V205.283H204.895V160Z" fill="#4CC6B2"/>
<path d="M159.697 205.283H204.895V160L159.697 205.283Z" fill="#4F87CB"/>
<path d="M204.895 205.283H159.697V250.566H204.895V205.283Z" fill="#65578E"/>
<path d="M159.697 205.283V250.566H204.895L159.697 205.283Z" fill="#9BE3AB"/>
<path d="M193.595 216.604H170.997V239.245H193.595V216.604Z" fill="#4CC6B2"/>
<path d="M204.895 250.566H159.697V295.849H204.895V250.566Z" fill="#4CC6B2"/>
<path d="M193.595 261.887H170.997V284.528H193.595V261.887Z" fill="#65578E"/>
</g>
</svg>
