<svg width="33" height="33" viewBox="0 0 33 33" fill="none" xmlns="http://www.w3.org/2000/svg">
<path d="M0.640137 6.01147C0.640137 2.69777 3.32643 0.0114746 6.64014 0.0114746H26.6401C29.9538 0.0114746 32.6401 2.69777 32.6401 6.01147V26.0115C32.6401 29.3252 29.9538 32.0115 26.6401 32.0115H6.64014C3.32643 32.0115 0.640137 29.3252 0.640137 26.0115V6.01147Z" fill="#56F3AE"/>
<rect width="20.8776" height="20.8776" transform="matrix(-4.37114e-08 -1 -1 4.37114e-08 27.0781 26.4504)" stroke="#383838" stroke-width="1.5"/>
<path d="M16.6403 16.0115C10.8751 16.0115 6.20148 11.3379 6.20148 5.57266L27.0791 5.57266C27.0791 11.3379 22.4055 16.0115 16.6403 16.0115Z" fill="#FFDB69" stroke="#383838" stroke-width="1.5"/>
<path d="M16.641 16.0115C22.4062 16.0115 27.0798 20.6851 27.0798 26.4503L6.20215 26.4503C6.20215 20.6851 10.8758 16.0115 16.641 16.0115Z" stroke="#383838" stroke-width="1.5"/>
</svg>
