<svg width="33" height="32" viewBox="0 0 33 32" fill="none" xmlns="http://www.w3.org/2000/svg">
<path d="M0.0141602 5.99988C0.0141602 2.68617 2.70045 -0.00012207 6.01416 -0.00012207H26.0142C29.3279 -0.00012207 32.0142 2.68617 32.0142 5.99988V25.9999C32.0142 29.3136 29.3279 31.9999 26.0142 31.9999H6.01416C2.70045 31.9999 0.0141602 29.3136 0.0141602 25.9999V5.99988Z" fill="#F45B45"/>
<path fill-rule="evenodd" clip-rule="evenodd" d="M4.81834 7.77333C5.49827 6.04122 6.86073 4.93266 7.94071 4.42017L9.14389 6.89827C8.56884 7.17115 7.7864 7.81003 7.41043 8.76782C7.06189 9.65572 6.97803 11.033 8.15282 13.0142C9.69845 15.6209 9.66935 17.8614 8.6044 19.5734C7.62054 21.1551 5.93075 21.9853 4.72984 22.3019L4.01343 19.6459C4.79854 19.439 5.75018 18.9145 6.23598 18.1335C6.64069 17.4829 6.9095 16.3528 5.75414 14.4043C4.22793 11.8304 4.11098 9.57532 4.81834 7.77333Z" fill="#006EAB"/>
<path fill-rule="evenodd" clip-rule="evenodd" d="M21.7387 24.3207C22.697 24.8821 23.9203 24.1962 24.0409 23.3408C24.0729 23.1134 24.033 22.7962 23.8816 22.5448C23.7617 22.3456 23.5209 22.0943 22.9174 21.9962C22.4142 21.9143 21.643 21.9401 20.5185 22.2525C20.8068 23.5217 21.3376 24.0858 21.7387 24.3207ZM17.9058 23.2501C18.3508 24.8526 19.1859 26.0204 20.3212 26.6855C22.9536 28.2277 26.3946 26.5594 26.7947 23.72C26.8997 22.9751 26.7946 22.0085 26.2706 21.1385C25.7152 20.2163 24.7501 19.5086 23.3689 19.2838C22.5003 19.1425 21.4947 19.195 20.3364 19.4613C20.4075 18.1211 20.6688 16.4683 21.2068 14.4528L18.5184 13.7515C17.813 16.3943 17.5145 18.592 17.5366 20.3996C15.6645 21.1945 13.4232 22.4338 10.7371 24.2482L12.3056 26.5178C14.5322 25.0138 16.3808 23.962 17.9058 23.2501Z" fill="#F19A00"/>
<path fill-rule="evenodd" clip-rule="evenodd" d="M16.148 6.89558C15.9442 6.60268 15.7613 6.33999 15.5728 6.09142L17.7971 4.44214C18.0215 4.73787 18.2357 5.04574 18.4326 5.32881C18.45 5.35381 18.4673 5.37861 18.4844 5.40319C18.7021 5.71574 18.9024 6.00069 19.1113 6.2687C19.5283 6.80385 19.9264 7.20027 20.3879 7.46573C21.2156 7.94179 22.6955 8.24027 25.8871 6.94104L26.9458 9.48279C23.3849 10.9324 20.8928 10.9363 18.9897 9.84165C18.0858 9.32174 17.4288 8.61372 16.9087 7.94628C16.649 7.61299 16.4102 7.2721 16.1942 6.96188C16.1787 6.9396 16.1633 6.91751 16.148 6.89558Z" fill="#D6CFB6"/>
<path fill-rule="evenodd" clip-rule="evenodd" d="M11.7127 12.8403C11.9119 11.575 12.4334 10.2691 13.2875 9.40881L15.2718 11.3343C14.9563 11.6521 14.604 12.3489 14.46 13.263C14.3188 14.1602 14.4169 15.0306 14.7287 15.6472L12.2418 16.8765C11.6004 15.6082 11.5108 14.1225 11.7127 12.8403Z" fill="#482728"/>
</svg>
