<svg width="33" height="33" viewBox="0 0 33 33" fill="none" xmlns="http://www.w3.org/2000/svg">
<path d="M0.63916 6.19165C0.63916 2.87794 3.32545 0.19165 6.63916 0.19165H26.6392C29.9529 0.19165 32.6392 2.87794 32.6392 6.19165V26.1917C32.6392 29.5054 29.9529 32.1917 26.6392 32.1917H6.63916C3.32545 32.1917 0.63916 29.5054 0.63916 26.1917V6.19165Z" fill="#EDF9FE"/>
<path fill-rule="evenodd" clip-rule="evenodd" d="M6.63916 22.2797L6.63916 23.8305C7.37636 24.6658 8.16506 25.4545 9.0003 26.1917L10.5511 26.1917C9.11112 25.0318 7.79897 23.7197 6.63916 22.2797ZM6.63916 18.217C8.60608 21.4813 11.3496 24.2247 14.6138 26.1917L16.6894 26.1916C12.3446 24.026 8.80482 20.4862 6.63916 16.1415L6.63916 18.217ZM6.63916 6.19165C6.63916 17.2373 15.5935 26.1916 26.6392 26.1916L26.6392 25.1916C16.1458 25.1916 7.63916 16.6851 7.63916 6.19165L6.63916 6.19165ZM9.97249 6.19165C9.97249 15.3964 17.4344 22.8583 26.6392 22.8583L26.6392 21.8583C17.9867 21.8583 10.9725 14.8441 10.9725 6.19165L9.97249 6.19165ZM13.3058 6.19165C13.3058 13.5554 19.2754 19.525 26.6392 19.525L26.6392 18.525C19.8277 18.525 14.3058 13.0032 14.3058 6.19165L13.3058 6.19165ZM16.6392 6.19165C16.6392 11.7145 21.1163 16.1917 26.6392 16.1917L26.6392 15.1917C21.6686 15.1917 17.6392 11.1622 17.6392 6.19165L16.6392 6.19165ZM19.9725 6.19165C19.9725 9.87355 22.9573 12.8583 26.6392 12.8583L26.6392 11.8583C23.5095 11.8583 20.9725 9.32127 20.9725 6.19165L19.9725 6.19165ZM23.3058 6.19165C23.3058 8.0326 24.7982 9.52498 26.6392 9.52498L26.6392 8.52498C25.3505 8.52498 24.3058 7.48031 24.3058 6.19165L23.3058 6.19165Z" fill="#55C2FF"/>
<path fill-rule="evenodd" clip-rule="evenodd" d="M7.13916 6.69165L7.13916 25.6917L26.1392 25.6916L26.1392 6.69165L7.13916 6.69165ZM6.63916 26.1917L26.6392 26.1916L26.6392 6.19165L6.63916 6.19165L6.63916 26.1917Z" fill="#EDF9FE"/>
</svg>
