<svg width="33" height="33" viewBox="0 0 33 33" fill="none" xmlns="http://www.w3.org/2000/svg">
<path d="M0.632812 6.5C0.632812 3.18629 3.3191 0.5 6.63281 0.5H26.6328C29.9465 0.5 32.6328 3.18629 32.6328 6.5V26.5C32.6328 29.8137 29.9465 32.5 26.6328 32.5H6.63281C3.3191 32.5 0.632812 29.8137 0.632812 26.5V6.5Z" fill="white"/>
<path d="M17.6257 21.6735L16.0251 21.3041L17.831 19.252L18.4055 20.196L17.6257 21.6735Z" fill="#F19A00"/>
<path d="M23.1667 22.5354L21.4429 21.9608L22.7973 21.0579L24.1106 21.9608L23.1667 22.5354Z" fill="#F19A00"/>
<path d="M21.6064 12.1402L21.1959 14.0691L19.7185 13.2483V12.7558L20.6624 11.2783L21.6064 12.1402Z" fill="#006EAB"/>
<path d="M12.6188 7.02155L11.5107 8.21178L10.1973 7.30886V5.99551L11.5107 5.17456L12.3315 5.46191L12.6188 7.02155Z" fill="#F19A00"/>
<path d="M9.04818 9.48406L8.30939 9.85339L7.81694 8.95049L6.99609 8.04756L7.81694 7.67822L9.04818 9.48406Z" fill="#F45B45"/>
<path d="M4.69788 29.1835L3.91797 25.3255V24.1763L4.41053 23.6018L5.60074 23.8481L5.847 24.9151L5.60074 29.1835L5.23137 29.8402L4.69788 29.1835Z" fill="#006EAB"/>
<path d="M24.5826 12.8496L23.2283 20.032L25.0341 19.7037H27.7839L29.4256 18.1851L31.2725 16.7897L31.6829 15.8457L31.2725 15.148L25.0341 12.3982L24.5826 12.8496Z" fill="#F45B45"/>
<path d="M25.1367 23.6846V22.7407L29.7744 22.3713C29.7197 23.2469 29.5938 25.0473 29.5282 25.2443C29.4625 25.4413 26.5732 24.2866 25.1367 23.6846Z" fill="#006EAB"/>
<path d="M17.6672 30.9904L17.0925 28.1994L22.5922 24.0542L23.4951 27.1324L20.2118 29.9643L19.5961 29.718L19.1036 30.3337L17.6672 30.9904Z" fill="#F45B45"/>
<path d="M14.7939 30.908L13.9321 31.1543L9.4585 28.5686V27.912L10.8129 27.6248L15.0402 29.6358L14.7939 30.908Z" fill="#F19A00"/>
<path d="M6.29837 20.0321L4.32834 20.6478L2.7688 18.8008L3.58959 16.01L4.94398 16.2153L5.72378 18.4315L6.99608 19.2523L6.29837 20.0321Z" fill="#F45B45"/>
<path d="M17.8097 7.36842H14.9766L12.8408 3.96864L14.3228 2.53027L17.8097 7.36842Z" fill="#F45B45"/>
<path d="M25.5902 7.47092L24.4133 6.25049H28.4669L29.7745 8.21189L25.5902 7.47092Z" fill="#F19A00"/>
<path d="M2.38045 8.63281L2.03174 11.03L3.12146 11.4659L4.55981 10.7685L5.03926 8.89427L4.55981 7.49951L2.38045 8.63281Z" fill="#F3A720"/>
<path d="M28.6628 11.4222L27.5295 10.3762L28.1833 9.41724L28.9243 9.63517L29.2294 10.7248L28.6628 11.4222Z" fill="#F45B45"/>
<path d="M28.2705 4.35395L26.7886 4.00524L28.532 2.30542L28.9243 3.04638L28.2705 4.35395Z" fill="#F45B45"/>
<path d="M20.0236 3.38026L19.7185 2.42139L22.3337 2.85723L21.6799 3.72896L20.0236 3.38026Z" fill="#006EAB"/>
<path d="M11.0104 3.097L9.57202 3.44572L10.1387 1.96379L12.1001 1.57153L11.0104 3.097Z" fill="#006EAB"/>
<path d="M30.0138 29.7286L29.2728 31.0797L27.6601 31.4284L25.1321 28.6824V27.985L25.6987 26.8518L30.0138 29.7286Z" fill="#F19A00"/>
<path d="M30.4934 27.3747V27.985H29.8831L28.9243 27.3747V26.7209H29.4037L30.4934 27.3747Z" fill="#006EAB"/>
<path d="M3.03399 3.83797L2.55456 4.49182L1.72632 3.83797L2.03149 3.22778L3.03399 3.83797Z" fill="#D6CFB6"/>
<path d="M9.75934 24.0944L9.4585 19.6499L12.1319 20.3183L13.1679 25.4646L9.75934 24.0944Z" fill="#F19A00"/>
<path d="M15.5124 16.6757L14.0085 15.2721L18.4197 14.0691L18.7204 16.3081L15.5124 16.6757Z" fill="#F19A00"/>
<path d="M13.0729 13.6346L11.0344 15.3724L9.0628 14.1358L9.93161 12.6655L8.8623 11.7298L9.0628 10.9612L12.6385 11.7298L13.0729 13.6346Z" fill="#F45B45"/>
<path d="M22.7767 9.75133L21.8077 10.4197V8.94922L21.3064 8.18066H22.7767V9.75133Z" fill="#006EAB"/>
</svg>
