<svg width="32" height="32" viewBox="0 0 32 32" fill="none" xmlns="http://www.w3.org/2000/svg">
<rect width="32" height="32" rx="6" fill="#796EFF"/>
<path fill-rule="evenodd" clip-rule="evenodd" d="M6 6H26V26C14.9543 26 6 17.0457 6 6Z" fill="#F0F2F3"/>
<path fill-rule="evenodd" clip-rule="evenodd" d="M22 6L20 6C20 9.31372 22.6863 12 26 12L26 10C23.7909 10 22 8.20915 22 6ZM23.3333 6C23.3333 7.47277 24.5272 8.66667 26 8.66667L26 6L23.3333 6ZM16.6667 6L18.6667 6C18.6667 10.0501 21.9499 13.3333 26 13.3333L26 15.3333C20.8453 15.3333 16.6667 11.1547 16.6667 6ZM15.3333 6L13.3333 6C13.3333 12.9956 19.0044 18.6667 26 18.6667L26 16.6667C20.109 16.6667 15.3333 11.8911 15.3333 6ZM10 6L12 6C12 13.732 18.268 20 26 20L26 22C17.1634 22 10 14.8366 10 6ZM8.66666 6L5.99999 6C5.99999 17.0457 14.9543 26 26 26L26 23.3333C16.4271 23.3333 8.66666 15.573 8.66666 6Z" fill="#14AAF5"/>
<g style="mix-blend-mode:multiply">
<path fill-rule="evenodd" clip-rule="evenodd" d="M8.66648 26L8.66648 6L9.99982 6L9.99982 26L8.66648 26Z" fill="#FF5263"/>
<path fill-rule="evenodd" clip-rule="evenodd" d="M11.9998 26L11.9998 6L13.3331 6L13.3331 26L11.9998 26Z" fill="#FF5263"/>
<path fill-rule="evenodd" clip-rule="evenodd" d="M15.3332 26L15.3332 6L16.6665 6L16.6665 26L15.3332 26Z" fill="#FF5263"/>
<path fill-rule="evenodd" clip-rule="evenodd" d="M18.6665 26L18.6665 6L19.9998 6L19.9998 26L18.6665 26Z" fill="#FF5263"/>
<path fill-rule="evenodd" clip-rule="evenodd" d="M22 26L22 6L23.3333 6L23.3333 26L22 26Z" fill="#FF5263"/>
</g>
</svg>
